<svg xmlns="http://www.w3.org/2000/svg" width="84.412" height="110" viewBox="0 0 84.412 110">
  <g id="Grupo_153226" data-name="Grupo 153226" transform="translate(0 106.978) rotate(-90)">
    <rect id="Rectángulo_45220" data-name="Rectángulo 45220" width="68.053" height="48.731" transform="translate(106.978 48.731) rotate(180)" fill="#e4e4e4"/>
    <g id="Grupo_152581" data-name="Grupo 152581" transform="translate(-3.022 36.304)">
      <rect id="Rectángulo_45221" data-name="Rectángulo 45221" width="4.203" height="4.203" transform="translate(71.443 43.905)" fill="#7f4fc7"/>
      <rect id="Rectángulo_45222" data-name="Rectángulo 45222" width="4.203" height="4.203" transform="translate(62.513 43.905)" fill="#7f4fc7"/>
      <rect id="Rectángulo_45223" data-name="Rectángulo 45223" width="4.203" height="4.203" transform="translate(53.583 43.905)" fill="#7f4fc7"/>
      <rect id="Rectángulo_45224" data-name="Rectángulo 45224" width="4.202" height="4.203" transform="translate(44.652 43.905)" fill="#7f4fc7"/>
      <rect id="Rectángulo_45225" data-name="Rectángulo 45225" width="4.203" height="4.203" transform="translate(35.722 43.905)" fill="#7f4fc7"/>
      <rect id="Rectángulo_45226" data-name="Rectángulo 45226" width="4.202" height="4.203" transform="translate(26.792 43.905)" fill="#7f4fc7"/>
      <rect id="Rectángulo_45227" data-name="Rectángulo 45227" width="4.203" height="4.203" transform="translate(17.861 43.905)" fill="#7f4fc7"/>
      <rect id="Rectángulo_45228" data-name="Rectángulo 45228" width="4.202" height="4.203" transform="translate(8.931 43.905)" fill="#7f4fc7"/>
      <rect id="Rectángulo_45229" data-name="Rectángulo 45229" width="4.203" height="4.203" transform="translate(0 43.905)" fill="#7f4fc7"/>
      <rect id="Rectángulo_45232" data-name="Rectángulo 45232" width="4.203" height="4.203" transform="translate(71.443 34.975)" fill="#7f4fc7"/>
      <rect id="Rectángulo_45233" data-name="Rectángulo 45233" width="4.203" height="4.203" transform="translate(62.513 34.975)" fill="#7f4fc7"/>
      <rect id="Rectángulo_45234" data-name="Rectángulo 45234" width="4.203" height="4.203" transform="translate(53.583 34.975)" fill="#7f4fc7"/>
      <rect id="Rectángulo_45235" data-name="Rectángulo 45235" width="4.202" height="4.203" transform="translate(44.652 34.975)" fill="#7f4fc7"/>
      <rect id="Rectángulo_45236" data-name="Rectángulo 45236" width="4.203" height="4.203" transform="translate(35.722 34.975)" fill="#7f4fc7"/>
      <rect id="Rectángulo_45237" data-name="Rectángulo 45237" width="4.202" height="4.203" transform="translate(26.792 34.975)" fill="#7f4fc7"/>
      <rect id="Rectángulo_45238" data-name="Rectángulo 45238" width="4.203" height="4.203" transform="translate(17.861 34.975)" fill="#7f4fc7"/>
      <rect id="Rectángulo_45239" data-name="Rectángulo 45239" width="4.202" height="4.203" transform="translate(8.931 34.975)" fill="#7f4fc7"/>
      <rect id="Rectángulo_45240" data-name="Rectángulo 45240" width="4.203" height="4.203" transform="translate(0 34.975)" fill="#7f4fc7"/>
      <rect id="Rectángulo_45243" data-name="Rectángulo 45243" width="4.203" height="4.203" transform="translate(71.443 26.044)" fill="#7f4fc7"/>
      <rect id="Rectángulo_45244" data-name="Rectángulo 45244" width="4.203" height="4.203" transform="translate(62.513 26.044)" fill="#7f4fc7"/>
      <rect id="Rectángulo_45245" data-name="Rectángulo 45245" width="4.203" height="4.203" transform="translate(53.583 26.044)" fill="#7f4fc7"/>
      <rect id="Rectángulo_45246" data-name="Rectángulo 45246" width="4.202" height="4.203" transform="translate(44.652 26.044)" fill="#7f4fc7"/>
      <rect id="Rectángulo_45247" data-name="Rectángulo 45247" width="4.203" height="4.203" transform="translate(35.722 26.044)" fill="#7f4fc7"/>
      <rect id="Rectángulo_45248" data-name="Rectángulo 45248" width="4.202" height="4.203" transform="translate(26.792 26.044)" fill="#7f4fc7"/>
      <rect id="Rectángulo_45249" data-name="Rectángulo 45249" width="4.203" height="4.203" transform="translate(17.861 26.044)" fill="#7f4fc7"/>
      <rect id="Rectángulo_45250" data-name="Rectángulo 45250" width="4.202" height="4.203" transform="translate(8.931 26.044)" fill="#7f4fc7"/>
      <rect id="Rectángulo_45251" data-name="Rectángulo 45251" width="4.203" height="4.203" transform="translate(0 26.044)" fill="#7f4fc7"/>
      <rect id="Rectángulo_45221-2" data-name="Rectángulo 45221" width="4.203" height="4.203" transform="translate(71.443 17.861)" fill="#7f4fc7"/>
      <rect id="Rectángulo_45222-2" data-name="Rectángulo 45222" width="4.203" height="4.203" transform="translate(62.513 17.861)" fill="#7f4fc7"/>
      <rect id="Rectángulo_45223-2" data-name="Rectángulo 45223" width="4.203" height="4.203" transform="translate(53.583 17.861)" fill="#7f4fc7"/>
      <rect id="Rectángulo_45224-2" data-name="Rectángulo 45224" width="4.202" height="4.203" transform="translate(44.652 17.861)" fill="#7f4fc7"/>
      <rect id="Rectángulo_45225-2" data-name="Rectángulo 45225" width="4.203" height="4.203" transform="translate(35.722 17.861)" fill="#7f4fc7"/>
      <rect id="Rectángulo_45226-2" data-name="Rectángulo 45226" width="4.202" height="4.203" transform="translate(26.792 17.861)" fill="#7f4fc7"/>
      <rect id="Rectángulo_45227-2" data-name="Rectángulo 45227" width="4.203" height="4.203" transform="translate(17.861 17.861)" fill="#7f4fc7"/>
      <rect id="Rectángulo_45228-2" data-name="Rectángulo 45228" width="4.202" height="4.203" transform="translate(8.931 17.861)" fill="#7f4fc7"/>
      <rect id="Rectángulo_45229-2" data-name="Rectángulo 45229" width="4.203" height="4.203" transform="translate(0 17.861)" fill="#7f4fc7"/>
      <rect id="Rectángulo_45232-2" data-name="Rectángulo 45232" width="4.203" height="4.203" transform="translate(71.443 8.931)" fill="#7f4fc7"/>
      <rect id="Rectángulo_45233-2" data-name="Rectángulo 45233" width="4.203" height="4.203" transform="translate(62.513 8.931)" fill="#7f4fc7"/>
      <rect id="Rectángulo_45234-2" data-name="Rectángulo 45234" width="4.203" height="4.203" transform="translate(53.583 8.931)" fill="#7f4fc7"/>
      <rect id="Rectángulo_45235-2" data-name="Rectángulo 45235" width="4.202" height="4.203" transform="translate(44.652 8.931)" fill="#7f4fc7"/>
      <rect id="Rectángulo_45236-2" data-name="Rectángulo 45236" width="4.203" height="4.203" transform="translate(35.722 8.931)" fill="#7f4fc7"/>
      <rect id="Rectángulo_45237-2" data-name="Rectángulo 45237" width="4.202" height="4.203" transform="translate(26.792 8.931)" fill="#7f4fc7"/>
      <rect id="Rectángulo_45238-2" data-name="Rectángulo 45238" width="4.203" height="4.203" transform="translate(17.861 8.931)" fill="#7f4fc7"/>
      <rect id="Rectángulo_45239-2" data-name="Rectángulo 45239" width="4.202" height="4.203" transform="translate(8.931 8.931)" fill="#7f4fc7"/>
      <rect id="Rectángulo_45240-2" data-name="Rectángulo 45240" width="4.203" height="4.203" transform="translate(0 8.931)" fill="#7f4fc7"/>
      <rect id="Rectángulo_45243-2" data-name="Rectángulo 45243" width="4.203" height="4.203" transform="translate(71.443)" fill="#7f4fc7"/>
      <rect id="Rectángulo_45244-2" data-name="Rectángulo 45244" width="4.203" height="4.203" transform="translate(62.513)" fill="#7f4fc7"/>
      <rect id="Rectángulo_45245-2" data-name="Rectángulo 45245" width="4.203" height="4.203" transform="translate(53.583)" fill="#7f4fc7"/>
      <rect id="Rectángulo_45246-2" data-name="Rectángulo 45246" width="4.202" height="4.203" transform="translate(44.652)" fill="#7f4fc7"/>
      <rect id="Rectángulo_45247-2" data-name="Rectángulo 45247" width="4.203" height="4.203" transform="translate(35.722)" fill="#7f4fc7"/>
      <rect id="Rectángulo_45248-2" data-name="Rectángulo 45248" width="4.202" height="4.203" transform="translate(26.792)" fill="#7f4fc7"/>
      <rect id="Rectángulo_45249-2" data-name="Rectángulo 45249" width="4.203" height="4.203" transform="translate(17.861)" fill="#7f4fc7"/>
      <rect id="Rectángulo_45250-2" data-name="Rectángulo 45250" width="4.202" height="4.203" transform="translate(8.931)" fill="#7f4fc7"/>
      <rect id="Rectángulo_45251-2" data-name="Rectángulo 45251" width="4.203" height="4.203" fill="#7f4fc7"/>
    </g>
  </g>
</svg>
