<svg xmlns="http://www.w3.org/2000/svg" width="93.428" height="29.055" viewBox="0 0 93.428 29.055">
  <g id="Grupo_152592" data-name="Grupo 152592" transform="translate(0 29.055) rotate(-90)">
    <g id="Grupo_152551" data-name="Grupo 152551" transform="translate(0 93.428) rotate(-90)">
      <rect id="Rectángulo_45220" data-name="Rectángulo 45220" width="67.474" height="20.092" transform="translate(93.428 20.092) rotate(180)" fill="#7549c1"/>
      <g id="Grupo_152556" data-name="Grupo 152556" transform="translate(0 11.13)">
        <rect id="Rectángulo_45221" data-name="Rectángulo 45221" width="3.414" height="3.414" transform="translate(72.552 14.51)" fill="#1894f6"/>
        <rect id="Rectángulo_45222" data-name="Rectángulo 45222" width="3.414" height="3.414" transform="translate(65.297 14.51)" fill="#1894f6"/>
        <rect id="Rectángulo_45223" data-name="Rectángulo 45223" width="3.414" height="3.414" transform="translate(58.042 14.51)" fill="#1894f6"/>
        <rect id="Rectángulo_45224" data-name="Rectángulo 45224" width="3.414" height="3.414" transform="translate(50.787 14.51)" fill="#1894f6"/>
        <rect id="Rectángulo_45225" data-name="Rectángulo 45225" width="3.414" height="3.414" transform="translate(43.531 14.51)" fill="#1894f6"/>
        <rect id="Rectángulo_45226" data-name="Rectángulo 45226" width="3.414" height="3.414" transform="translate(36.276 14.51)" fill="#1894f6"/>
        <rect id="Rectángulo_45227" data-name="Rectángulo 45227" width="3.414" height="3.414" transform="translate(29.021 14.51)" fill="#1894f6"/>
        <rect id="Rectángulo_45228" data-name="Rectángulo 45228" width="3.414" height="3.414" transform="translate(21.766 14.51)" fill="#1894f6"/>
        <rect id="Rectángulo_45229" data-name="Rectángulo 45229" width="3.414" height="3.414" transform="translate(14.51 14.51)" fill="#1894f6"/>
        <rect id="Rectángulo_45230" data-name="Rectángulo 45230" width="3.414" height="3.414" transform="translate(7.255 14.51)" fill="#1894f6"/>
        <rect id="Rectángulo_45231" data-name="Rectángulo 45231" width="3.414" height="3.414" transform="translate(0 14.51)" fill="#1894f6"/>
        <rect id="Rectángulo_45232" data-name="Rectángulo 45232" width="3.414" height="3.414" transform="translate(72.552 7.255)" fill="#1894f6"/>
        <rect id="Rectángulo_45233" data-name="Rectángulo 45233" width="3.414" height="3.414" transform="translate(65.297 7.255)" fill="#1894f6"/>
        <rect id="Rectángulo_45234" data-name="Rectángulo 45234" width="3.414" height="3.414" transform="translate(58.042 7.255)" fill="#1894f6"/>
        <rect id="Rectángulo_45235" data-name="Rectángulo 45235" width="3.414" height="3.414" transform="translate(50.787 7.255)" fill="#1894f6"/>
        <rect id="Rectángulo_45236" data-name="Rectángulo 45236" width="3.414" height="3.414" transform="translate(43.531 7.255)" fill="#1894f6"/>
        <rect id="Rectángulo_45237" data-name="Rectángulo 45237" width="3.414" height="3.414" transform="translate(36.276 7.255)" fill="#1894f6"/>
        <rect id="Rectángulo_45238" data-name="Rectángulo 45238" width="3.414" height="3.414" transform="translate(29.021 7.255)" fill="#1894f6"/>
        <rect id="Rectángulo_45239" data-name="Rectángulo 45239" width="3.414" height="3.414" transform="translate(21.766 7.255)" fill="#1894f6"/>
        <rect id="Rectángulo_45240" data-name="Rectángulo 45240" width="3.414" height="3.414" transform="translate(14.51 7.255)" fill="#1894f6"/>
        <rect id="Rectángulo_45241" data-name="Rectángulo 45241" width="3.414" height="3.414" transform="translate(7.255 7.255)" fill="#1894f6"/>
        <rect id="Rectángulo_45242" data-name="Rectángulo 45242" width="3.414" height="3.414" transform="translate(0 7.255)" fill="#1894f6"/>
        <rect id="Rectángulo_45243" data-name="Rectángulo 45243" width="3.414" height="3.414" transform="translate(72.552)" fill="#1894f6"/>
        <rect id="Rectángulo_45244" data-name="Rectángulo 45244" width="3.414" height="3.414" transform="translate(65.297)" fill="#1894f6"/>
        <rect id="Rectángulo_45245" data-name="Rectángulo 45245" width="3.414" height="3.414" transform="translate(58.042)" fill="#1894f6"/>
        <rect id="Rectángulo_45246" data-name="Rectángulo 45246" width="3.414" height="3.414" transform="translate(50.787)" fill="#1894f6"/>
        <rect id="Rectángulo_45247" data-name="Rectángulo 45247" width="3.414" height="3.414" transform="translate(43.531)" fill="#1894f6"/>
        <rect id="Rectángulo_45248" data-name="Rectángulo 45248" width="3.414" height="3.414" transform="translate(36.276)" fill="#1894f6"/>
        <rect id="Rectángulo_45249" data-name="Rectángulo 45249" width="3.414" height="3.414" transform="translate(29.021)" fill="#1894f6"/>
        <rect id="Rectángulo_45250" data-name="Rectángulo 45250" width="3.414" height="3.414" transform="translate(21.766)" fill="#1894f6"/>
        <rect id="Rectángulo_45251" data-name="Rectángulo 45251" width="3.414" height="3.414" transform="translate(14.51)" fill="#1894f6"/>
        <rect id="Rectángulo_45252" data-name="Rectángulo 45252" width="3.414" height="3.414" transform="translate(7.255)" fill="#1894f6"/>
        <rect id="Rectángulo_45253" data-name="Rectángulo 45253" width="3.414" height="3.414" fill="#1894f6"/>
      </g>
    </g>
  </g>
</svg>
