<svg xmlns="http://www.w3.org/2000/svg" xmlns:xlink="http://www.w3.org/1999/xlink" width="205.313" height="145.901" viewBox="0 0 205.313 145.901">
  <defs>
    <filter id="Rectángulo_45414" x="0" y="96.639" width="205.313" height="49.262" filterUnits="userSpaceOnUse">
      <feOffset dy="3" input="SourceAlpha"/>
      <feGaussianBlur stdDeviation="3" result="blur"/>
      <feFlood flood-opacity="0.161"/>
      <feComposite operator="in" in2="blur"/>
      <feComposite in="SourceGraphic"/>
    </filter>
  </defs>
  <g id="Grupo_153299" data-name="Grupo 153299" transform="translate(-739.169 -4594.409)">
    <g id="Grupo_153184" data-name="Grupo 153184" transform="translate(902.384 4594.409)">
      <g id="Grupo_152551" data-name="Grupo 152551" transform="translate(0 92.458) rotate(-90)">
        <rect id="Rectángulo_45220" data-name="Rectángulo 45220" width="66.773" height="19.884" transform="translate(92.458 19.884) rotate(180)" fill="#e8e8e8"/>
        <g id="Grupo_152556" data-name="Grupo 152556" transform="translate(0 11.014)">
          <rect id="Rectángulo_45221" data-name="Rectángulo 45221" width="3.379" height="3.379" transform="translate(71.799 14.36)" fill="#7f4fc7"/>
          <rect id="Rectángulo_45222" data-name="Rectángulo 45222" width="3.379" height="3.379" transform="translate(64.619 14.36)" fill="#7f4fc7"/>
          <rect id="Rectángulo_45223" data-name="Rectángulo 45223" width="3.379" height="3.379" transform="translate(57.439 14.36)" fill="#7f4fc7"/>
          <rect id="Rectángulo_45224" data-name="Rectángulo 45224" width="3.379" height="3.379" transform="translate(50.259 14.36)" fill="#7f4fc7"/>
          <rect id="Rectángulo_45225" data-name="Rectángulo 45225" width="3.379" height="3.379" transform="translate(43.079 14.36)" fill="#7f4fc7"/>
          <rect id="Rectángulo_45226" data-name="Rectángulo 45226" width="3.379" height="3.379" transform="translate(35.899 14.36)" fill="#7f4fc7"/>
          <rect id="Rectángulo_45227" data-name="Rectángulo 45227" width="3.379" height="3.379" transform="translate(28.719 14.36)" fill="#7f4fc7"/>
          <rect id="Rectángulo_45228" data-name="Rectángulo 45228" width="3.379" height="3.379" transform="translate(21.54 14.36)" fill="#7f4fc7"/>
          <rect id="Rectángulo_45229" data-name="Rectángulo 45229" width="3.379" height="3.379" transform="translate(14.36 14.36)" fill="#7f4fc7"/>
          <rect id="Rectángulo_45230" data-name="Rectángulo 45230" width="3.379" height="3.379" transform="translate(7.18 14.36)" fill="#7f4fc7"/>
          <rect id="Rectángulo_45231" data-name="Rectángulo 45231" width="3.379" height="3.379" transform="translate(0 14.36)" fill="#7f4fc7"/>
          <rect id="Rectángulo_45232" data-name="Rectángulo 45232" width="3.379" height="3.379" transform="translate(71.799 7.18)" fill="#7f4fc7"/>
          <rect id="Rectángulo_45233" data-name="Rectángulo 45233" width="3.379" height="3.379" transform="translate(64.619 7.18)" fill="#7f4fc7"/>
          <rect id="Rectángulo_45234" data-name="Rectángulo 45234" width="3.379" height="3.379" transform="translate(57.439 7.18)" fill="#7f4fc7"/>
          <rect id="Rectángulo_45235" data-name="Rectángulo 45235" width="3.379" height="3.379" transform="translate(50.259 7.18)" fill="#7f4fc7"/>
          <rect id="Rectángulo_45236" data-name="Rectángulo 45236" width="3.379" height="3.379" transform="translate(43.079 7.18)" fill="#7f4fc7"/>
          <rect id="Rectángulo_45237" data-name="Rectángulo 45237" width="3.379" height="3.379" transform="translate(35.899 7.18)" fill="#7f4fc7"/>
          <rect id="Rectángulo_45238" data-name="Rectángulo 45238" width="3.379" height="3.379" transform="translate(28.719 7.18)" fill="#7f4fc7"/>
          <rect id="Rectángulo_45239" data-name="Rectángulo 45239" width="3.379" height="3.379" transform="translate(21.54 7.18)" fill="#7f4fc7"/>
          <rect id="Rectángulo_45240" data-name="Rectángulo 45240" width="3.379" height="3.379" transform="translate(14.36 7.18)" fill="#7f4fc7"/>
          <rect id="Rectángulo_45241" data-name="Rectángulo 45241" width="3.379" height="3.379" transform="translate(7.18 7.18)" fill="#7f4fc7"/>
          <rect id="Rectángulo_45242" data-name="Rectángulo 45242" width="3.379" height="3.379" transform="translate(0 7.18)" fill="#7f4fc7"/>
          <rect id="Rectángulo_45243" data-name="Rectángulo 45243" width="3.379" height="3.379" transform="translate(71.799 0)" fill="#7f4fc7"/>
          <rect id="Rectángulo_45244" data-name="Rectángulo 45244" width="3.379" height="3.379" transform="translate(64.619 0)" fill="#7f4fc7"/>
          <rect id="Rectángulo_45245" data-name="Rectángulo 45245" width="3.379" height="3.379" transform="translate(57.439 0)" fill="#7f4fc7"/>
          <rect id="Rectángulo_45246" data-name="Rectángulo 45246" width="3.379" height="3.379" transform="translate(50.259 0)" fill="#7f4fc7"/>
          <rect id="Rectángulo_45247" data-name="Rectángulo 45247" width="3.379" height="3.379" transform="translate(43.079 0)" fill="#7f4fc7"/>
          <rect id="Rectángulo_45248" data-name="Rectángulo 45248" width="3.379" height="3.379" transform="translate(35.899 0)" fill="#7f4fc7"/>
          <rect id="Rectángulo_45249" data-name="Rectángulo 45249" width="3.379" height="3.379" transform="translate(28.719 0)" fill="#7f4fc7"/>
          <rect id="Rectángulo_45250" data-name="Rectángulo 45250" width="3.379" height="3.379" transform="translate(21.54 0)" fill="#7f4fc7"/>
          <rect id="Rectángulo_45251" data-name="Rectángulo 45251" width="3.379" height="3.379" transform="translate(14.36 0)" fill="#7f4fc7"/>
          <rect id="Rectángulo_45252" data-name="Rectángulo 45252" width="3.379" height="3.379" transform="translate(7.18 0)" fill="#7f4fc7"/>
          <rect id="Rectángulo_45253" data-name="Rectángulo 45253" width="3.379" height="3.379" transform="translate(0 0)" fill="#7f4fc7"/>
        </g>
      </g>
    </g>
    <g transform="matrix(1, 0, 0, 1, 739.17, 4594.41)" filter="url(#Rectángulo_45414)">
      <rect id="Rectángulo_45414-2" data-name="Rectángulo 45414" width="31.262" height="187.313" rx="7" transform="translate(196.31 102.64) rotate(90)" fill="#008cff"/>
    </g>
    <g id="trabajo-en-equipo" transform="translate(789.84 4616.975)">
      <g id="Grupo_153321" data-name="Grupo 153321" transform="translate(2.58 2.58)">
        <g id="Grupo_153300" data-name="Grupo 153300" transform="translate(50.566 36.866)">
          <path id="Trazado_195130" data-name="Trazado 195130" d="M36.829,25.33a3.177,3.177,0,0,0,1.5,1.643c.095.047.205.111.3.158l-.348,2.5L35.359,39,34,29.549l2.813-4.219Z" transform="translate(-34 -25.33)" fill="#ff826e"/>
        </g>
        <g id="Grupo_153301" data-name="Grupo 153301" transform="translate(42.744 36.85)">
          <path id="Trazado_195131" data-name="Trazado 195131" d="M30.883,25.32l2.829,4.235L32.353,39a30.809,30.809,0,0,1-2.923-9.37l-.379-2.671a.225.225,0,0,0,.095-.032,3.215,3.215,0,0,0,1.738-1.612Z" transform="translate(-29.05 -25.32)" fill="#ff826e"/>
        </g>
        <g id="Grupo_153302" data-name="Grupo 153302" transform="translate(46.046 41.085)">
          <path id="Trazado_195132" data-name="Trazado 195132" d="M35.659,28l1.359,9.449v.016a32.121,32.121,0,0,1-2.939,4.756,32.121,32.121,0,0,1-2.939-4.756v-.016L32.5,28Z" transform="translate(-31.14 -28)" fill="#ffeaa7"/>
        </g>
        <g id="Grupo_153303" data-name="Grupo 153303" transform="translate(37.924 74.268)">
          <path id="Trazado_195133" data-name="Trazado 195133" d="M40.222,53.741a4.38,4.38,0,0,1-1.58-.284A4.69,4.69,0,0,1,35.481,49a4.734,4.734,0,0,1-4.741,4.741H26v15.8H51.283v-15.8Z" transform="translate(-26 -49)" fill="#969faa"/>
        </g>
        <g id="Grupo_153304" data-name="Grupo 153304" transform="translate(31.604 38.493)">
          <path id="Trazado_195134" data-name="Trazado 195134" d="M51.36,31.922a15.064,15.064,0,0,1,2.244,7.9V57.395H42.542A4.748,4.748,0,0,0,37.8,62.135a4.729,4.729,0,0,0-1.391-3.35,4.192,4.192,0,0,0-.885-.7l.079-.079a3.359,3.359,0,0,0,.174-4.551L33.3,50.568l-5.91,4.725A17.483,17.483,0,0,1,22,42.667v-.142A17.283,17.283,0,0,1,33.14,26.36l.379,2.671a30.809,30.809,0,0,0,2.923,9.37v.016a32.121,32.121,0,0,0,2.939,4.756,32.12,32.12,0,0,0,2.939-4.756V38.4l2.923-9.37.348-2.5a15.15,15.15,0,0,1,5.768,5.388Z" transform="translate(-22 -26.36)" fill="#75b1f2"/>
        </g>
        <g id="Grupo_153305" data-name="Grupo 153305" transform="translate(3.16 48.132)">
          <path id="Trazado_195135" data-name="Trazado 195135" d="M29.283,53.856V49.194a17.139,17.139,0,0,0-.743-5.041A31.006,31.006,0,0,1,12.391,32.46l-1.059.711a16.469,16.469,0,0,0-4.172,23.4V79.139H29.283v-15.8h9.481V53.856Z" transform="translate(-4 -32.46)" fill="#b4dd7f"/>
        </g>
        <g id="Grupo_153306" data-name="Grupo 153306" transform="translate(11.551 47.405)">
          <path id="Trazado_195136" data-name="Trazado 195136" d="M19.881,35.966a17.6,17.6,0,0,1,5.578,8.454A31.006,31.006,0,0,1,9.31,32.727L10.4,32a17.587,17.587,0,0,1,9.481,3.966Z" transform="translate(-9.31 -32)" fill="#a0d468"/>
        </g>
        <g id="Grupo_153307" data-name="Grupo 153307" transform="translate(0 9.481)">
          <path id="Trazado_195137" data-name="Trazado 195137" d="M28.594,9.849a6.333,6.333,0,0,1,0,8.944,6.677,6.677,0,0,1-1.312,1,6.3,6.3,0,0,1-3.16.853,3.09,3.09,0,0,1-2.228-.932,3.125,3.125,0,0,1-.917-1.912l-3.366.664a3.687,3.687,0,0,0-2.971,3.619V23.8a3.16,3.16,0,0,0,0,6.321V41.184L9.4,38.561A7.642,7.642,0,0,1,5.16,31.7l-.047-.047A10.631,10.631,0,0,1,2,24.134v-.948a10.694,10.694,0,0,1,4.741-8.865A8.348,8.348,0,0,1,14.831,8h9.291a6.36,6.36,0,0,1,4.472,1.849Z" transform="translate(-2 -8)" fill="#b27946"/>
        </g>
        <g id="Grupo_153308" data-name="Grupo 153308" transform="translate(34.859)">
          <path id="Trazado_195138" data-name="Trazado 195138" d="M52.5,16.222V16.7a6.5,6.5,0,0,0,0,2.212v2.054H49.248V19.587a3.156,3.156,0,0,0-1.533-2.7l-6.368-3.824h-7.9L28.39,16.854a3.181,3.181,0,0,0-1.264,2.528v1.58H24.06V16.222a14.222,14.222,0,0,1,28.443,0Z" transform="translate(-24.06 -2)" fill="#656d78"/>
        </g>
        <g id="Grupo_153309" data-name="Grupo 153309" transform="translate(63.302 9.481)">
          <path id="Trazado_195139" data-name="Trazado 195139" d="M71.894,47.41l-1.485-1.485v-.616a10.694,10.694,0,0,0-4.741-8.865l.253-.348a22.221,22.221,0,0,0,3.334-6.352,22.47,22.47,0,0,0,1.154-7.1A14.648,14.648,0,0,0,55.76,8H48.286a6.331,6.331,0,0,0-6.226,5.215v2.212a6.277,6.277,0,0,0,.837,2.2,6.417,6.417,0,0,0,2.086,2.086,6.334,6.334,0,0,0,3.3.932h4.741a3.09,3.09,0,0,0,2.228-.932,3.026,3.026,0,0,0,.9-1.833l.174.032a6.084,6.084,0,0,1,4.6,5.894,3.16,3.16,0,0,1,0,6.321v15.8l2.149,1.438A16.352,16.352,0,0,1,69.982,57.4H70l1.9-1.9a5.722,5.722,0,0,0,0-8.091Z" transform="translate(-42.06 -8)" fill="#fcd770"/>
        </g>
        <g id="Grupo_153310" data-name="Grupo 153310" transform="translate(69.528 72.246)">
          <path id="Trazado_195140" data-name="Trazado 195140" d="M71.283,67.441v2.844H46V67.867a29.825,29.825,0,0,1,3.16-13.384h2.5A16.42,16.42,0,0,0,64.962,47.72v1.707a14.473,14.473,0,0,0,3.16,9.007A14.473,14.473,0,0,1,71.283,67.441Z" transform="translate(-46 -47.72)" fill="#ff826e"/>
        </g>
        <g id="Grupo_153311" data-name="Grupo 153311" transform="translate(69.528 47.405)">
          <path id="Trazado_195141" data-name="Trazado 195141" d="M58.073,48.386a8.814,8.814,0,0,1-8.264,5.736H49.16V49.382l-.363-.363a9.529,9.529,0,0,1-1.849-10.887h.016l.363-.079A22.1,22.1,0,0,0,58.641,32l2.149,1.438A16.352,16.352,0,0,1,67.7,43.472a15.72,15.72,0,0,1,.427,3.666,16.5,16.5,0,0,1-1.233,6.273l-8.8-5.025Z" transform="translate(-46 -32)" fill="#ff826e"/>
        </g>
        <g id="Grupo_153312" data-name="Grupo 153312" transform="translate(36.992 62.702)">
          <path id="Trazado_195142" data-name="Trazado 195142" d="M33.8,44.572a3.359,3.359,0,0,1-.174,4.551l-.079.079a4.669,4.669,0,0,0-2.465-.7h-3.16L26.6,47.448q-.616-.5-1.185-1.043l5.91-4.725Z" transform="translate(-25.41 -41.68)" fill="#f0d0b4"/>
        </g>
        <g id="Grupo_153313" data-name="Grupo 153313" transform="translate(37.924 69.528)">
          <path id="Trazado_195143" data-name="Trazado 195143" d="M27.58,46h3.16a4.669,4.669,0,0,1,2.465.7,4.192,4.192,0,0,1,.885.7,4.738,4.738,0,0,1-3.35,8.091H26V46Z" transform="translate(-26 -46)" fill="#f0d0b4"/>
        </g>
        <g id="Grupo_153314" data-name="Grupo 153314" transform="translate(47.405 63.792)">
          <path id="Trazado_195144" data-name="Trazado 195144" d="M66.211,42.37l8.8,5.025a16.717,16.717,0,0,1-3.587,5.373,16.461,16.461,0,0,1-11.646,4.82H36.741a4.38,4.38,0,0,1-1.58-.284,4.734,4.734,0,0,1,1.58-9.2h21.19A8.814,8.814,0,0,0,66.2,42.37Z" transform="translate(-32 -42.37)" fill="#f0d0b4"/>
        </g>
        <g id="Grupo_153315" data-name="Grupo 153315" transform="translate(66.368 19.357)">
          <path id="Trazado_195145" data-name="Trazado 195145" d="M51.9,17.015a3.09,3.09,0,0,0,2.228-.932,3.026,3.026,0,0,0,.9-1.833l.174.032a6.084,6.084,0,0,1,4.6,5.894,3.16,3.16,0,0,1,0,6.321V42.3A22.1,22.1,0,0,1,48.488,48.35l-.363.079a9.06,9.06,0,0,1,1.833-2.607L52.28,43.5a4.092,4.092,0,0,0,1.2-2.892v-1.88a4.332,4.332,0,0,1-1.849.411,4.478,4.478,0,0,1-4.472-4.472V29.657h-.932a2.235,2.235,0,0,1-1.58-3.808l.664-.664a6.327,6.327,0,0,0,1.849-4.472v-3.7Z" transform="translate(-44 -14.25)" fill="#f0d0b4"/>
        </g>
        <g id="Grupo_153316" data-name="Grupo 153316" transform="translate(59.92 18.962)">
          <path id="Trazado_195146" data-name="Trazado 195146" d="M45.435,19.388a3.09,3.09,0,0,1-2.228.932H39.92a8.764,8.764,0,0,0,.126-1.58V14H43.3a3.715,3.715,0,0,1,.837.142,6.417,6.417,0,0,0,2.086,2.086,3.028,3.028,0,0,1,.142.932,3.09,3.09,0,0,1-.932,2.228Z" transform="translate(-39.92 -14)" fill="#f0d0b4"/>
        </g>
        <g id="Grupo_153317" data-name="Grupo 153317" transform="translate(44.577 34.195)">
          <path id="Trazado_195147" data-name="Trazado 195147" d="M38.948,26.121a.967.967,0,0,0,.079.19h-.016L36.2,30.53h-3.16L30.21,26.295c.047-.111.095-.237.142-.363l.774-2.291a11,11,0,0,0,6.984,0Z" transform="translate(-30.21 -23.64)" fill="#f0d0b4"/>
        </g>
        <g id="Grupo_153318" data-name="Grupo 153318" transform="translate(31.698 18.962)">
          <path id="Trazado_195148" data-name="Trazado 195148" d="M28.4,20.321H25.22a3.183,3.183,0,0,1-3.16-3.16A3.17,3.17,0,0,1,25.22,14h3.066v4.741a8.764,8.764,0,0,0,.126,1.58Z" transform="translate(-22.06 -14)" fill="#f0d0b4"/>
        </g>
        <g id="Grupo_153319" data-name="Grupo 153319" transform="translate(37.924 11.061)">
          <path id="Trazado_195149" data-name="Trazado 195149" d="M26,16.9v-1.58a3.181,3.181,0,0,1,1.264-2.528L32.321,9h7.9l6.368,3.824a3.156,3.156,0,0,1,1.533,2.7v6.115A8.764,8.764,0,0,1,48,23.222a11.011,11.011,0,0,1-7.443,8.912,11,11,0,0,1-6.984,0l-4.33-2.671a10.862,10.862,0,0,1-3.113-6.242A8.765,8.765,0,0,1,26,21.641Z" transform="translate(-26 -9)" fill="#f0d0b4"/>
        </g>
        <g id="Grupo_153320" data-name="Grupo 153320" transform="translate(9.481 19.278)">
          <path id="Trazado_195150" data-name="Trazado 195150" d="M11.16,37.587V26.525a3.16,3.16,0,0,1,0-6.321V18.482a3.687,3.687,0,0,1,2.971-3.619L17.5,14.2a3.125,3.125,0,0,0,.917,1.912,3.09,3.09,0,0,0,2.228.932,6.3,6.3,0,0,0,3.16-.853v4.551a6.327,6.327,0,0,0,1.849,4.472l.664.664a2.235,2.235,0,0,1-1.58,3.808H23.8v5.009a4.457,4.457,0,0,1-3.16,4.266v7.332a17.587,17.587,0,0,0-9.481-3.966Z" transform="translate(-8 -14.2)" fill="#f0d0b4"/>
        </g>
      </g>
      <g id="Grupo_153322" data-name="Grupo 153322" transform="translate(1 1)">
        <ellipse id="Elipse_5681" data-name="Elipse 5681" cx="1.5" cy="2" rx="1.5" ry="2" transform="translate(19 27.971)"/>
        <ellipse id="Elipse_5682" data-name="Elipse 5682" cx="1.5" cy="2" rx="1.5" ry="2" transform="translate(76 27.971)"/>
        <path id="Trazado_195151" data-name="Trazado 195151" d="M92.65,76.531V75.3A17.573,17.573,0,0,0,95.509,62l1.324-1.324a7.3,7.3,0,0,0,0-10.326l-1.021-1.021a12.2,12.2,0,0,0-4.143-9.143,24.171,24.171,0,0,0,4.143-13.477,16.247,16.247,0,0,0-16.23-16.23H72.108A7.874,7.874,0,0,0,66.852,12.5,15.794,15.794,0,0,0,35.86,16.8v3.451a4.729,4.729,0,0,0,1.58,9.19h1.9a12.676,12.676,0,0,0,6.765,8.223l-.3.909a1.569,1.569,0,0,1-.945.978,19.065,19.065,0,0,0-6.976,30.975H32.6V67.447a19.066,19.066,0,0,0-6.321-14.223V47.637a6.03,6.03,0,0,0,3.16-5.281V38.869a3.816,3.816,0,0,0,2.043-6.457l-.654-.654a4.716,4.716,0,0,1-1.389-3.353V24.663A7.874,7.874,0,0,0,24.7,10.483H15.416a9.909,9.909,0,0,0-9.462,6.931A12.194,12.194,0,0,0,1,27.239v.954a12.15,12.15,0,0,0,3.184,8.225,9.2,9.2,0,0,0,5.091,7.62l4.366,2.184V49.14L12.2,50.1A18.026,18.026,0,0,0,7.321,75.3V98.971H32.6v-15.8h6.321v15.8H67.368v-15.8h5.471a31.683,31.683,0,0,0-2.31,11.807v3.995H98.971V94.548a16.056,16.056,0,0,0-3.506-10,12.885,12.885,0,0,1-2.814-8.021Zm-41.085.318a3.164,3.164,0,0,1,3.16-3.16h21.2a10.4,10.4,0,0,0,8.944-5.112l6.066,3.465a14.9,14.9,0,0,1-13.171,7.967H54.726a3.164,3.164,0,0,1-3.16-3.16Zm-3.23-32.811-.392,2.746a29.019,29.019,0,0,1-.67-3.265l-.2-1.37Zm3.021,1.207h.419l1.082,7.575c-.4.779-.82,1.549-1.293,2.29-.471-.74-.89-1.511-1.293-2.29Zm4.5-1.726a29.3,29.3,0,0,1-.67,3.265L54.8,44.038l1.258-1.887Zm2.324-3.843a1.568,1.568,0,0,1-.793-.913l-.365-1.1a12.677,12.677,0,0,0,6.766-8.223h2a4.729,4.729,0,0,0,4.521-3.391c.074.017.144.044.22.06v2.293a4.713,4.713,0,0,1-1.389,3.353l-.654.654a3.814,3.814,0,0,0,2.043,6.455v3.487a6.057,6.057,0,0,0,6.049,6.049c.088,0,.174-.022.262-.025a2.531,2.531,0,0,1-.728,1.689L73.783,52.4a11.116,11.116,0,0,0-.095,15.623v2.508H67.368V54.537a16.528,16.528,0,0,0-9.184-14.86Zm6.024-16.554h1.58c.009,0,.017,0,.027,0a7.815,7.815,0,0,0,1.549,1.549.16.16,0,0,1,0,.027,1.581,1.581,0,0,1-1.58,1.58h-1.58Zm16.69.85a4.475,4.475,0,0,1,2.272,3.89v1.58h1.58a1.58,1.58,0,0,1,0,3.16h-1.58V49.3a20.48,20.48,0,0,1-5.562,3.743l.738-.738a5.641,5.641,0,0,0,1.664-4.017v-.958a6.081,6.081,0,0,0,.845-.7l1.852-1.852-2.234-2.234L78.62,44.4a2.889,2.889,0,0,1-4.932-2.043v-.335a6.89,6.89,0,0,0,4.278-1.98l-2.234-2.234a3.779,3.779,0,0,1-2.043,1.054v-3.1H71.182a.655.655,0,0,1-.463-1.117l.654-.654a7.852,7.852,0,0,0,2.315-5.588V26.283h3.16a4.727,4.727,0,0,0,4.048-2.31ZM92.1,69.071l-6.046-3.454a10.437,10.437,0,0,0,.273-2.336,3.789,3.789,0,0,1,1.117-2.7l-2.234-2.234a6.928,6.928,0,0,0-2.043,4.932,7.234,7.234,0,0,1-6.321,7.153V66.713l-.83-.83a7.869,7.869,0,0,1-1.811-8.4,23.62,23.62,0,0,0,10.7-5.488l1.111.741A14.809,14.809,0,0,1,92.1,69.071Zm.548-19.71V50.64L94.6,52.587a4.143,4.143,0,0,1,0,5.859l-.049.049A18.012,18.012,0,0,0,87.774,50.1L86.33,49.14V42.085h2.633a9.033,9.033,0,0,1,3.688,7.277ZM72.108,13.641h7.473a13.084,13.084,0,0,1,13.07,13.07,20.966,20.966,0,0,1-3.969,12.213H86.33V35.494a4.741,4.741,0,0,0-.119-8.98,7.637,7.637,0,0,0-4.7-5.75A4.736,4.736,0,0,0,76.849,16.8h-1.58v3.16h1.58a1.58,1.58,0,0,1,0,3.16H72.108A4.721,4.721,0,0,1,67.464,19.3V17.469A4.721,4.721,0,0,1,72.108,13.641ZM37.441,26.283a1.58,1.58,0,0,1,0-3.16h1.484v3.16Zm4.644,0V19.962a1.589,1.589,0,0,1,.63-1.264l4.164-3.122,3.81,2.539,1.752-2.629L46.77,11.7,40.822,16.17a4.746,4.746,0,0,0-1.8,2.985V16.8a12.641,12.641,0,0,1,25.283,0v.487a8.1,8.1,0,0,0-.095,1.093,7.9,7.9,0,0,0,.1,1.093v.487H64.18a4.753,4.753,0,0,0-2.274-3.856L55.54,12.287,53.914,15l6.365,3.819a1.589,1.589,0,0,1,.768,1.356v6.111a9.481,9.481,0,0,1-18.962,0Zm9.481,12.641a12.69,12.69,0,0,0,2.467-.245l.18.539L52.3,42.085h-1.47l-1.912-2.868.18-.537a12.69,12.69,0,0,0,2.467.245ZM44.06,43.39l.082.577A32.513,32.513,0,0,0,50.3,58.833l1.264,1.686,1.264-1.686a32.513,32.513,0,0,0,6.158-14.866l0-.033a13.35,13.35,0,0,1,5.215,10.6V70.528h-3.16V53.8a3.789,3.789,0,0,1,1.117-2.7l-2.234-2.234A6.933,6.933,0,0,0,57.886,53.8V70.528h-3.16a6.279,6.279,0,0,0-4.741,2.184c-.054-.062-.1-.131-.156-.19a4.945,4.945,0,0,0-.662-5.377l-3.775-4.4A13.756,13.756,0,0,1,42.085,53.8a6.928,6.928,0,0,0-2.043-4.932L37.807,51.1a3.792,3.792,0,0,1,1.117,2.7,16.908,16.908,0,0,0,4.067,11l.229.269L39.73,67.857A15.9,15.9,0,0,1,44.06,43.39ZM46.767,69.2a1.724,1.724,0,0,1,.311,1.632,6.239,6.239,0,0,0-1.833-.3H42.639l-.593-.474,3.235-2.588Zm-1.522,4.489a3.16,3.16,0,1,1,0,6.321h-3.16V73.688ZM27.38,59.6a29.632,29.632,0,0,1-10.29-7.689A15.873,15.873,0,0,1,27.38,59.6Zm1.218-25.6.654.654a.655.655,0,0,1-.463,1.117H26.283v3.1a3.779,3.779,0,0,1-2.043-1.054l-2.234,2.234a6.907,6.907,0,0,0,4.278,1.98v.335A2.889,2.889,0,0,1,21.351,44.4L19.5,42.548l-2.234,2.234,1.852,1.852a5.991,5.991,0,0,0,4.006,1.745v2.552A19.055,19.055,0,0,0,16.8,48.622V32.6h-1.58a1.58,1.58,0,0,1,0-3.16H16.8v-3.3a2.111,2.111,0,0,1,1.692-2.065l2-.4a4.728,4.728,0,0,0,4.208,2.6,7.894,7.894,0,0,0,1.58-.16v2.282A7.852,7.852,0,0,0,28.6,33.993Zm-17.91,7.218a6.053,6.053,0,0,1-3.367-5.447l-.041-.7-.463-.463A9.011,9.011,0,0,1,4.16,28.193v-.954A9.043,9.043,0,0,1,8.2,19.7l.507-.338.149-.594a6.754,6.754,0,0,1,6.562-5.123H24.7a4.741,4.741,0,1,1,0,9.481,1.58,1.58,0,1,1,0-3.16h1.58V16.8H24.7a4.746,4.746,0,0,0-4.63,3.739l-2.2.439a5.281,5.281,0,0,0-4.232,5.164v.409a4.742,4.742,0,0,0,0,8.941v7.195Zm18.755,54.6H10.481v-17a17.952,17.952,0,0,0,11.728,4.358h7.234Zm-7.234-15.8A14.881,14.881,0,0,1,13.8,52.849a32.72,32.72,0,0,0,15.17,10.766,16.048,16.048,0,0,1,.477,3.832v3.081H24.049A7.256,7.256,0,0,1,16.8,63.281a6.928,6.928,0,0,0-2.043-4.932l-2.234,2.234a3.792,3.792,0,0,1,1.117,2.7A10.418,10.418,0,0,0,24.049,73.688H38.924v6.321Zm19.876,3.16h3.16a6.279,6.279,0,0,0,4.741-2.184,6.322,6.322,0,0,0,1.58,1.305v13.52H42.085ZM64.207,95.811H54.726V83.169h9.481Zm31.6,0H73.688v-.834a28.505,28.505,0,0,1,2.588-11.807h1.485a17.949,17.949,0,0,0,11.886-4.5,16.058,16.058,0,0,0,3.347,7.86,12.877,12.877,0,0,1,2.816,8.021Z" transform="translate(-1 -1)"/>
        <circle id="Elipse_5683" data-name="Elipse 5683" cx="1.5" cy="1.5" r="1.5" transform="translate(44 18.971)"/>
        <circle id="Elipse_5684" data-name="Elipse 5684" cx="1.5" cy="1.5" r="1.5" transform="translate(54 18.971)"/>
        <path id="Trazado_195152" data-name="Trazado 195152" d="M38.38,20.713l.874-1.746-2.827-1.414L35.553,19.3a1.011,1.011,0,0,1-1.746,0l-.874-1.746-2.827,1.414.874,1.748a4.138,4.138,0,0,0,7.4,0Z" transform="translate(15.887 8.604)"/>
      </g>
    </g>
  </g>
</svg>
