<svg xmlns="http://www.w3.org/2000/svg" xmlns:xlink="http://www.w3.org/1999/xlink" width="400" height="290.8" viewBox="0 0 400 290.8">
  <defs>
    <clipPath id="clip-path">
      <rect id="Rectángulo_46333" data-name="Rectángulo 46333" width="396" height="183.767" rx="21" transform="translate(180 7153.667)" fill="#2194e5" opacity="0.25"/>
    </clipPath>
    <filter id="Rectángulo_45262" x="47" y="151.75" width="289.989" height="52.292" filterUnits="userSpaceOnUse">
      <feOffset dy="3" input="SourceAlpha"/>
      <feGaussianBlur stdDeviation="3" result="blur"/>
      <feFlood flood-opacity="0.161"/>
      <feComposite operator="in" in2="blur"/>
      <feComposite in="SourceGraphic"/>
    </filter>
    <clipPath id="clip-path-2">
      <path id="Trazado_195719" data-name="Trazado 195719" d="M272.809,73.985c-.338,2.438-1.4,4.587-4.082,4.112-2.041-.357-2.785-2.247-3.011-4.082Z" transform="translate(-265.715 -73.985)"/>
    </clipPath>
    <clipPath id="clip-path-3">
      <circle id="Elipse_5716" data-name="Elipse 5716" cx="53.95" cy="53.95" r="53.95"/>
    </clipPath>
  </defs>
  <g id="Grupo_155278" data-name="Grupo 155278" transform="translate(8726 4387.545)">
    <path id="Trazado_210950" data-name="Trazado 210950" d="M21,0H379a21,21,0,0,1,21,21V162.767a21,21,0,0,1-21,21H21a21,21,0,0,1-21-21V21A21,21,0,0,1,21,0Z" transform="translate(-8726 -4280.512)" fill="#2194e5" opacity="0.25"/>
    <path id="Trazado_210951" data-name="Trazado 210951" d="M106.238,14.627h5.37V17h-8.455V4.2h3.085ZM118.13,17a3.344,3.344,0,0,1-.281-.853,2.754,2.754,0,0,1-2.285,1.028,3.374,3.374,0,0,1-2.285-.813,2.588,2.588,0,0,1-.94-2.043,2.66,2.66,0,0,1,1.143-2.338,5.821,5.821,0,0,1,3.322-.791h.914v-.5q0-1.316-1.134-1.316a.927.927,0,0,0-1.055,1.042h-2.962a2.655,2.655,0,0,1,1.173-2.239,4.931,4.931,0,0,1,2.993-.86,4.323,4.323,0,0,1,2.874.888,3.086,3.086,0,0,1,1.081,2.435v4.21a4.311,4.311,0,0,0,.4,2V17Zm-1.854-1.934a1.652,1.652,0,0,0,.918-.237,1.487,1.487,0,0,0,.523-.536V12.772h-.861q-1.547,0-1.547,1.389a.848.848,0,0,0,.272.655A.986.986,0,0,0,116.275,15.066Zm11.03-.738a.684.684,0,0,0-.4-.606,6.016,6.016,0,0,0-1.5-.475,6.853,6.853,0,0,1-1.828-.646,3.062,3.062,0,0,1-1.1-.971,2.319,2.319,0,0,1-.378-1.31,2.628,2.628,0,0,1,1.081-2.158,4.453,4.453,0,0,1,2.83-.848,4.934,4.934,0,0,1,3.023.853,2.666,2.666,0,0,1,1.143,2.241h-2.971q0-1.143-1.2-1.143a1.194,1.194,0,0,0-.782.259.8.8,0,0,0-.316.646.737.737,0,0,0,.387.642,3.654,3.654,0,0,0,1.235.4,10.671,10.671,0,0,1,1.49.378,2.706,2.706,0,0,1,2.145,2.646,2.491,2.491,0,0,1-1.156,2.118,5.068,5.068,0,0,1-2.993.817,5.172,5.172,0,0,1-2.18-.439,3.645,3.645,0,0,1-1.494-1.2,2.707,2.707,0,0,1-.536-1.591h2.769a1.145,1.145,0,0,0,.439.962,1.808,1.808,0,0,0,1.081.3,1.422,1.422,0,0,0,.91-.246A.787.787,0,0,0,127.306,14.328ZM141.386,17a3.344,3.344,0,0,1-.281-.853,2.754,2.754,0,0,1-2.285,1.028,3.374,3.374,0,0,1-2.285-.813,2.588,2.588,0,0,1-.94-2.043,2.66,2.66,0,0,1,1.143-2.338,5.821,5.821,0,0,1,3.322-.791h.914v-.5q0-1.316-1.134-1.316a.927.927,0,0,0-1.055,1.042h-2.962A2.655,2.655,0,0,1,137,8.175a4.931,4.931,0,0,1,2.993-.86,4.323,4.323,0,0,1,2.874.888,3.086,3.086,0,0,1,1.081,2.435v4.21a4.311,4.311,0,0,0,.4,2V17Zm-1.854-1.934a1.652,1.652,0,0,0,.918-.237,1.487,1.487,0,0,0,.523-.536V12.772h-.861q-1.547,0-1.547,1.389a.848.848,0,0,0,.272.655A.986.986,0,0,0,139.531,15.066Zm14.88-2.751a5.735,5.735,0,0,1-1,3.538,3.2,3.2,0,0,1-2.694,1.323,2.742,2.742,0,0,1-2.153-.958v4.438H145.6V7.49h2.769l.088.879A2.742,2.742,0,0,1,150.7,7.314a3.224,3.224,0,0,1,2.733,1.3,5.805,5.805,0,0,1,.976,3.564Zm-2.962-.185q0-2.531-1.477-2.531a1.394,1.394,0,0,0-1.406.756V14.1a1.439,1.439,0,0,0,1.424.791q1.415,0,1.459-2.443Zm7.717-7V7.49h1.564V9.547h-1.564V13.9a1.111,1.111,0,0,0,.193.747,1.037,1.037,0,0,0,.765.211,4.345,4.345,0,0,0,.738-.053v2.118a5.466,5.466,0,0,1-1.67.255,3.1,3.1,0,0,1-2.259-.721,2.954,2.954,0,0,1-.729-2.188V9.547h-1.213V7.49H156.2V5.126ZM165.019,17h-2.971V7.49h2.971ZM161.873,5.029a1.334,1.334,0,0,1,.457-1.043,1.934,1.934,0,0,1,2.373,0,1.334,1.334,0,0,1,.457,1.043,1.334,1.334,0,0,1-.457,1.043,1.934,1.934,0,0,1-2.373,0A1.334,1.334,0,0,1,161.873,5.029Zm8.42.1V7.49h1.564V9.547h-1.564V13.9a1.111,1.111,0,0,0,.193.747,1.037,1.037,0,0,0,.765.211,4.345,4.345,0,0,0,.738-.053v2.118a5.466,5.466,0,0,1-1.67.255,3.1,3.1,0,0,1-2.259-.721,2.954,2.954,0,0,1-.729-2.188V9.547h-1.213V7.49h1.213V5.126Zm8.394,10.846a3.054,3.054,0,0,1-2.54,1.2,3,3,0,0,1-2.369-.91,3.826,3.826,0,0,1-.8-2.615V7.49h2.962v6.179a1.065,1.065,0,0,0,1.187,1.222,1.548,1.548,0,0,0,1.45-.729V7.49h2.979V17h-2.777Zm4.113-3.8a5.809,5.809,0,0,1,.976-3.56,3.211,3.211,0,0,1,2.725-1.3,2.731,2.731,0,0,1,2.145,1V3.5h2.971V17h-2.663l-.149-1.02a2.8,2.8,0,0,1-2.32,1.2,3.205,3.205,0,0,1-2.689-1.3A5.993,5.993,0,0,1,182.8,12.175Zm2.962.185q0,2.531,1.477,2.531a1.458,1.458,0,0,0,1.406-.826V10.443a1.419,1.419,0,0,0-1.389-.844q-1.371,0-1.485,2.215ZM197.9,17.176a4.889,4.889,0,0,1-3.542-1.305,4.507,4.507,0,0,1-1.354-3.4v-.246a5.84,5.84,0,0,1,.541-2.575,3.955,3.955,0,0,1,1.578-1.727,4.763,4.763,0,0,1,2.461-.611,4.117,4.117,0,0,1,3.164,1.244,4.887,4.887,0,0,1,1.16,3.467v1.151h-5.889a2.135,2.135,0,0,0,.694,1.257,2.066,2.066,0,0,0,1.389.457,2.662,2.662,0,0,0,2.2-.984l1.354,1.6a3.784,3.784,0,0,1-1.569,1.217A5.3,5.3,0,0,1,197.9,17.176ZM197.565,9.6q-1.3,0-1.547,1.723h2.988v-.229a1.467,1.467,0,0,0-.36-1.1A1.434,1.434,0,0,0,197.565,9.6Zm10.512,4.729a.684.684,0,0,0-.4-.606,6.016,6.016,0,0,0-1.5-.475,6.853,6.853,0,0,1-1.828-.646,3.062,3.062,0,0,1-1.1-.971,2.319,2.319,0,0,1-.378-1.31,2.628,2.628,0,0,1,1.081-2.158,4.453,4.453,0,0,1,2.83-.848,4.934,4.934,0,0,1,3.023.853,2.666,2.666,0,0,1,1.143,2.241H207.98q0-1.143-1.2-1.143a1.194,1.194,0,0,0-.782.259.8.8,0,0,0-.316.646.737.737,0,0,0,.387.642,3.654,3.654,0,0,0,1.235.4,10.671,10.671,0,0,1,1.49.378,2.706,2.706,0,0,1,2.145,2.646,2.491,2.491,0,0,1-1.156,2.118,5.068,5.068,0,0,1-2.993.817,5.172,5.172,0,0,1-2.18-.439,3.645,3.645,0,0,1-1.494-1.2,2.707,2.707,0,0,1-.536-1.591h2.769a1.145,1.145,0,0,0,.439.962,1.808,1.808,0,0,0,1.081.3,1.422,1.422,0,0,0,.91-.246A.787.787,0,0,0,208.077,14.328Z" transform="translate(-8685.357 -4158.739)" fill="#12263f"/>
    <g id="Enmascarar_grupo_141272" data-name="Enmascarar grupo 141272" transform="translate(-8906 -11434.179)" clip-path="url(#clip-path)">
      <path id="Trazado_210945" data-name="Trazado 210945" d="M2749.575,1487.7c-84.973,0-154.1,68.407-154.1,152.488s69.13,152.491,154.1,152.491,154.1-68.408,154.1-152.491S2834.549,1487.7,2749.575,1487.7Zm0,232.971c-44.847,0-81.334-36.1-81.334-80.483s36.487-80.478,81.334-80.478,81.332,36.1,81.332,80.478S2794.423,1720.673,2749.575,1720.673Z" transform="translate(-2603.849 5675.333)" fill="#deeffb"/>
    </g>
    <g id="Grupo_155277" data-name="Grupo 155277" transform="translate(-8908 -11204.545)">
      <g id="Grupo_153634" data-name="Grupo 153634" transform="translate(238 6838.439)">
        <g id="Grupo_152570" data-name="Grupo 152570" transform="translate(247.628 0)">
          <g id="Grupo_152551" data-name="Grupo 152551" transform="translate(0 117.155) rotate(-90)">
            <rect id="Rectángulo_45220" data-name="Rectángulo 45220" width="84.609" height="25.195" transform="translate(117.155 25.195) rotate(180)" fill="#e8e8e8"/>
            <g id="Grupo_152556" data-name="Grupo 152556" transform="translate(0 13.956)">
              <rect id="Rectángulo_45221" data-name="Rectángulo 45221" width="4.281" height="4.281" transform="translate(90.977 18.196)" fill="#1894f6"/>
              <rect id="Rectángulo_45222" data-name="Rectángulo 45222" width="4.281" height="4.281" transform="translate(81.88 18.196)" fill="#1894f6"/>
              <rect id="Rectángulo_45223" data-name="Rectángulo 45223" width="4.281" height="4.281" transform="translate(72.782 18.196)" fill="#1894f6"/>
              <rect id="Rectángulo_45224" data-name="Rectángulo 45224" width="4.281" height="4.281" transform="translate(63.684 18.196)" fill="#1894f6"/>
              <rect id="Rectángulo_45225" data-name="Rectángulo 45225" width="4.281" height="4.281" transform="translate(54.586 18.196)" fill="#1894f6"/>
              <rect id="Rectángulo_45226" data-name="Rectángulo 45226" width="4.281" height="4.281" transform="translate(45.489 18.196)" fill="#1894f6"/>
              <rect id="Rectángulo_45227" data-name="Rectángulo 45227" width="4.281" height="4.281" transform="translate(36.391 18.196)" fill="#1894f6"/>
              <rect id="Rectángulo_45228" data-name="Rectángulo 45228" width="4.281" height="4.281" transform="translate(27.293 18.196)" fill="#1894f6"/>
              <rect id="Rectángulo_45229" data-name="Rectángulo 45229" width="4.281" height="4.281" transform="translate(18.195 18.196)" fill="#1894f6"/>
              <rect id="Rectángulo_45230" data-name="Rectángulo 45230" width="4.281" height="4.281" transform="translate(9.098 18.196)" fill="#1894f6"/>
              <rect id="Rectángulo_45231" data-name="Rectángulo 45231" width="4.281" height="4.281" transform="translate(0 18.196)" fill="#1894f6"/>
              <rect id="Rectángulo_45232" data-name="Rectángulo 45232" width="4.281" height="4.281" transform="translate(90.977 9.098)" fill="#1894f6"/>
              <rect id="Rectángulo_45233" data-name="Rectángulo 45233" width="4.281" height="4.281" transform="translate(81.88 9.098)" fill="#1894f6"/>
              <rect id="Rectángulo_45234" data-name="Rectángulo 45234" width="4.281" height="4.281" transform="translate(72.782 9.098)" fill="#1894f6"/>
              <rect id="Rectángulo_45235" data-name="Rectángulo 45235" width="4.281" height="4.281" transform="translate(63.684 9.098)" fill="#1894f6"/>
              <rect id="Rectángulo_45236" data-name="Rectángulo 45236" width="4.281" height="4.281" transform="translate(54.586 9.098)" fill="#1894f6"/>
              <rect id="Rectángulo_45237" data-name="Rectángulo 45237" width="4.281" height="4.281" transform="translate(45.489 9.098)" fill="#1894f6"/>
              <rect id="Rectángulo_45238" data-name="Rectángulo 45238" width="4.281" height="4.281" transform="translate(36.391 9.098)" fill="#1894f6"/>
              <rect id="Rectángulo_45239" data-name="Rectángulo 45239" width="4.281" height="4.281" transform="translate(27.293 9.098)" fill="#1894f6"/>
              <rect id="Rectángulo_45240" data-name="Rectángulo 45240" width="4.281" height="4.281" transform="translate(18.195 9.098)" fill="#1894f6"/>
              <rect id="Rectángulo_45241" data-name="Rectángulo 45241" width="4.281" height="4.281" transform="translate(9.098 9.098)" fill="#1894f6"/>
              <rect id="Rectángulo_45242" data-name="Rectángulo 45242" width="4.281" height="4.281" transform="translate(0 9.098)" fill="#1894f6"/>
              <rect id="Rectángulo_45243" data-name="Rectángulo 45243" width="4.281" height="4.281" transform="translate(90.977 0)" fill="#1894f6"/>
              <rect id="Rectángulo_45244" data-name="Rectángulo 45244" width="4.281" height="4.281" transform="translate(81.88 0)" fill="#1894f6"/>
              <rect id="Rectángulo_45245" data-name="Rectángulo 45245" width="4.281" height="4.281" transform="translate(72.782 0)" fill="#1894f6"/>
              <rect id="Rectángulo_45246" data-name="Rectángulo 45246" width="4.281" height="4.281" transform="translate(63.684 0)" fill="#1894f6"/>
              <rect id="Rectángulo_45247" data-name="Rectángulo 45247" width="4.281" height="4.281" transform="translate(54.586 0)" fill="#1894f6"/>
              <rect id="Rectángulo_45248" data-name="Rectángulo 45248" width="4.281" height="4.281" transform="translate(45.489 0)" fill="#1894f6"/>
              <rect id="Rectángulo_45249" data-name="Rectángulo 45249" width="4.281" height="4.281" transform="translate(36.391 0)" fill="#1894f6"/>
              <rect id="Rectángulo_45250" data-name="Rectángulo 45250" width="4.281" height="4.281" transform="translate(27.293 0)" fill="#1894f6"/>
              <rect id="Rectángulo_45251" data-name="Rectángulo 45251" width="4.281" height="4.281" transform="translate(18.195 0)" fill="#1894f6"/>
              <rect id="Rectángulo_45252" data-name="Rectángulo 45252" width="4.281" height="4.281" transform="translate(9.098 0)" fill="#1894f6"/>
              <rect id="Rectángulo_45253" data-name="Rectángulo 45253" width="4.281" height="4.281" transform="translate(0 0)" fill="#1894f6"/>
            </g>
          </g>
        </g>
        <g transform="matrix(1, 0, 0, 1, -56, -21.44)" filter="url(#Rectángulo_45262)">
          <rect id="Rectángulo_45262-2" data-name="Rectángulo 45262" width="34.292" height="271.99" rx="13" transform="translate(327.99 157.75) rotate(90)" fill="#2194e5"/>
        </g>
        <g id="Capa_1" transform="translate(5.529 -18.06)">
          <g id="Grupo_154008" data-name="Grupo 154008" transform="translate(43.471 12.352)">
            <path id="Trazado_195715" data-name="Trazado 195715" d="M192.868,109.637a64.549,64.549,0,0,0-.53-31.586l18.578-4.178c-2.583-8.932-9.637-22.521-9.637-22.521L185.431,61.889a64.4,64.4,0,0,0-22.447-22.244l10.61-16.217C165.524,18.816,151,13.975,151,13.975l-4.118,18.947a64.6,64.6,0,0,0-31.208-.4L111.7,13.2c-8.973,2.416-22.691,9.218-22.691,9.218L99.461,38.8A64.363,64.363,0,0,0,75.723,61.566L60,51.684c-4.463,8.153-9.042,22.765-9.042,22.765l17.688,3.509a64.561,64.561,0,0,0-.29,32.753l-17.836,4.408c2.767,8.872,10.108,22.309,10.108,22.309l14.548-10.117a64.391,64.391,0,0,0,23.065,23L88.5,164.933c8.037,4.671,22.521,9.628,22.521,9.628l3.938-17.462a64.53,64.53,0,0,0,31.508-.115l4.123,17.37c8.9-2.688,22.405-9.9,22.405-9.9l-9.827-14.41a64.332,64.332,0,0,0,23.2-23.743L200.9,136.478c4.865-7.922,10.158-22.286,10.158-22.286ZM130.48,148.85A53.95,53.95,0,1,1,184.43,94.9,54.014,54.014,0,0,1,130.48,148.85Z" transform="translate(-46.558 -12.726)" fill="#e3e3e3"/>
            <g id="Grupo_153962" data-name="Grupo 153962" transform="translate(119.447 12.315)">
              <path id="Trazado_195716" data-name="Trazado 195716" d="M274.594,43.895c-1.062,7.342-5.957,8.811-5.957,8.811a18.354,18.354,0,0,1-.078,3.882c-.338,2.438-1.4,4.587-4.082,4.112-2.041-.357-2.785-2.247-3.011-4.082a14.3,14.3,0,0,1,.074-3.75c-5.874-2.041-7.994-10.931-1.713-16.4S275.657,36.552,274.594,43.895Z" transform="translate(-256.014 -34.265)" fill="#befe6f"/>
              <g id="Grupo_153959" data-name="Grupo 153959" transform="translate(4.556 6.431)">
                <g id="Grupo_153958" data-name="Grupo 153958">
                  <path id="Trazado_195717" data-name="Trazado 195717" d="M268.463,63.183a37.1,37.1,0,0,0-.166-3.764,20.667,20.667,0,0,0-.458-2.987,13.405,13.405,0,0,0-.916-2.407c-.393-.853-.813-1.7-1.137-2.58a5.641,5.641,0,0,1-.463-2.478c.152-1.463,2-2.663,3.31-1.737a2.54,2.54,0,0,1,.977,1.992,3.293,3.293,0,0,1-.23,1.372c-.033.078-.166.3-.162.3a.956.956,0,0,1-.161.161c.108-.082-.137.064.009,0-.026.012-.176.056-.093.029.047-.016-.1.012.005,0-.116.016.045.012-.038-.009a.318.318,0,0,1-.076-.046c.036.031.061.055.013.007a.79.79,0,0,1-.221-.49,2.651,2.651,0,0,1,.928-1.988,2.6,2.6,0,0,1,1.976-.82,1.167,1.167,0,0,1,.707.367,2.751,2.751,0,0,1,.534,1.215,4.469,4.469,0,0,1-.436,3.043,9.908,9.908,0,0,1-1,1.579,7.116,7.116,0,0,0-.7,1,13.339,13.339,0,0,0-1.176,4.663,33.224,33.224,0,0,0-.22,3.555c0,.065,0,.131,0,.2l.6-.6-2-.163c-.765-.062-.761,1.131,0,1.193l2,.163a.6.6,0,0,0,.6-.6,31.234,31.234,0,0,1,.159-3.165,12.092,12.092,0,0,1,1.184-4.842c.263-.446.6-.789.932-1.277a8.979,8.979,0,0,0,.976-1.823,5.391,5.391,0,0,0,.117-3.673,2.656,2.656,0,0,0-2.039-2,3.588,3.588,0,0,0-2.723.857,4.17,4.17,0,0,0-1.579,2.589,2.04,2.04,0,0,0,.81,2.062,1.453,1.453,0,0,0,1.969-.614,4.225,4.225,0,0,0,.395-3.208,3.485,3.485,0,0,0-1.761-2.242,3.1,3.1,0,0,0-2.963.17,3.55,3.55,0,0,0-1.76,2.4,6.052,6.052,0,0,0,.377,2.966c.667,1.919,1.819,3.65,2.232,5.655a29.047,29.047,0,0,1,.481,5.6c0,.13,0,.259,0,.389A.6.6,0,0,0,268.463,63.183Z" transform="translate(-264.121 -45.709)" fill="#a1f23b"/>
                </g>
              </g>
              <path id="Trazado_195718" data-name="Trazado 195718" d="M272.809,73.985c-.338,2.438-1.4,4.587-4.082,4.112-2.041-.357-2.785-2.247-3.011-4.082Z" transform="translate(-260.263 -51.663)" fill="#a1f23b"/>
              <g id="Grupo_153961" data-name="Grupo 153961" transform="translate(5.452 22.323)">
                <g id="Grupo_153960" data-name="Grupo 153960" clip-path="url(#clip-path-2)">
                  <line id="Línea_173" data-name="Línea 173" x2="11.34" transform="translate(-0.863 1.868)" fill="none" stroke="#befe6f" stroke-miterlimit="10" stroke-width="1.062"/>
                </g>
              </g>
            </g>
            <g id="Grupo_153963" data-name="Grupo 153963" transform="translate(22.358 17.727)">
              <path id="Trazado_195720" data-name="Trazado 195720" d="M83.255,47.2V44.064l5.676-.17.424,4.066Z" transform="translate(-83.255 -43.895)" fill="#a1f23b"/>
              <path id="Trazado_195721" data-name="Trazado 195721" d="M83.255,49.576l22.7-.254-.084,15.757-21.519.763Z" transform="translate(-83.255 -46.272)" fill="#befe6f"/>
            </g>
            <g id="Grupo_153964" data-name="Grupo 153964" transform="translate(143.564 68.961)">
              <path id="Trazado_195722" data-name="Trazado 195722" d="M310.826,137.827l1.476-2.766,5.087,2.523-1.541,3.787Z" transform="translate(-304.139 -135.061)" fill="#a1f23b"/>
              <path id="Trazado_195723" data-name="Trazado 195723" d="M305.614,139.982l20.15,10.467L318.27,164.31l-19.343-9.46Z" transform="translate(-298.927 -137.216)" fill="#befe6f"/>
            </g>
            <g id="Grupo_153965" data-name="Grupo 153965" transform="translate(75.351)">
              <path id="Trazado_195724" data-name="Trazado 195724" d="M184.938,14.8l-.064,7.086s-8.374,7.666-7.214,10.307,20.227,1.546,20.806-1.1-8.116-8.7-8.116-8.7l-.644-7.987Z" transform="translate(-177.549 -13.256)" fill="#ff8299"/>
              <path id="Trazado_195725" data-name="Trazado 195725" d="M190.265,33.557l4.638.064s3.543,3.35,3.414,4.445-11.4,1.288-11.4.064S190.265,33.557,190.265,33.557Z" transform="translate(-181.652 -21.64)" fill="#ff3c6a"/>
              <path id="Trazado_195726" data-name="Trazado 195726" d="M195.833,13.769a1.417,1.417,0,0,1-1.417,1.417H188.1a1.417,1.417,0,0,1-1.417-1.417h0a1.418,1.418,0,0,1,1.417-1.417h6.313a1.417,1.417,0,0,1,1.417,1.417Z" transform="translate(-181.551 -12.352)" fill="#ff3c6a"/>
            </g>
            <g id="Grupo_153966" data-name="Grupo 153966" transform="translate(20.52 111.686)">
              <path id="Trazado_195727" data-name="Trazado 195727" d="M87.473,217.616l5.8,15.75.828,2.246,1.646,4.468-5.493,2.585-1.948-4.222-1.417-3.081-6.9-14.977,0-.011.353-4.829.325-4.458,3.123,3,3.678,3.527Z" transform="translate(-79.984 -211.085)" fill="#befe6f"/>
              <line id="Línea_174" data-name="Línea 174" x2="7.286" y2="18.13" transform="translate(3.389 6.401)" fill="none" stroke="#a1f23b" stroke-miterlimit="10" stroke-width="2.387"/>
              <path id="Trazado_195728" data-name="Trazado 195728" d="M87.464,219.942l-7.476,2.776,0-.011.353-4.829,3.447-1.463Z" transform="translate(-79.984 -213.42)" fill="#a1f23b"/>
              <path id="Trazado_195729" data-name="Trazado 195729" d="M98.661,250.732l.828,2.246-5.795,2.83-1.417-3.081Z" transform="translate(-85.369 -228.451)" fill="#a1f23b"/>
            </g>
            <g id="Grupo_153967" data-name="Grupo 153967" transform="translate(0 66.036)">
              <path id="Trazado_195730" data-name="Trazado 195730" d="M64.756,150.775,61.575,152.6l1.364,5c-5.6-1.419-4.52-5.354-3.957-6.714a.439.439,0,0,1,.038-.076c.044-.109.087-.2.119-.262.028-.044.044-.088.066-.131l-8.367-9.448-.093-.1c-6.456.633-7.275-6.189-7.275-6.189l4.639,2.642,2.822-3.548-.911-3.913c5.469,2.7,4.225,7.2,4.1,7.614l-.01.027,8.732,9.644c4-1.277,6.915,5.272,6.915,5.272Z" transform="translate(-43.471 -129.855)" fill="#32bad6"/>
              <path id="Trazado_195731" data-name="Trazado 195731" d="M54.124,137.469l-.01.027a20.887,20.887,0,0,1-3.275,3.471l-.093-.1c-6.456.633-7.275-6.189-7.275-6.189l4.639,2.642,2.822-3.548-.911-3.913C55.489,132.552,54.245,137.059,54.124,137.469Z" transform="translate(-43.471 -129.855)" fill="#0087b1"/>
              <path id="Trazado_195732" data-name="Trazado 195732" d="M76.476,164.118l-3.182,1.823,1.364,5c-5.6-1.419-4.52-5.354-3.957-6.714a.439.439,0,0,1,.038-.076c.044-.093.081-.18.119-.262.028-.044.044-.088.066-.131.639-1.364,3.64-3.275,3.64-3.275,4-1.277,6.915,5.272,6.915,5.272Z" transform="translate(-55.19 -143.198)" fill="#0087b1"/>
            </g>
            <g id="Grupo_153968" data-name="Grupo 153968" transform="translate(122.872 120.779)">
              <path id="Trazado_195733" data-name="Trazado 195733" d="M284.349,232.088l1.508,3.342,5.108-.877c-1.952,5.442-5.764,3.983-7.063,3.292a.441.441,0,0,1-.072-.045c-.1-.054-.187-.106-.249-.144-.041-.032-.083-.052-.124-.079L273.247,245l-.112.082c.009,6.487-6.86,6.646-6.86,6.646l3.076-4.363-3.26-3.15-3.983.531c3.21-5.184,7.578-3.512,7.973-3.352l.026.013,10.44-7.764c-.886-4.1,5.913-6.375,5.913-6.375Z" transform="translate(-262.108 -227.265)" fill="#32bad6"/>
              <path id="Trazado_195734" data-name="Trazado 195734" d="M270.081,252.1l.026.013a20.889,20.889,0,0,1,3.14,3.594l-.112.082c.009,6.487-6.86,6.646-6.86,6.646l3.076-4.363-3.26-3.15-3.983.531C265.317,250.271,269.685,251.943,270.081,252.1Z" transform="translate(-262.107 -237.976)" fill="#0087b1"/>
              <path id="Trazado_195735" data-name="Trazado 195735" d="M298.658,232.088l1.508,3.342,5.108-.877c-1.952,5.442-5.764,3.983-7.063,3.292a.439.439,0,0,1-.072-.045c-.088-.052-.171-.1-.249-.144-.041-.032-.083-.052-.124-.079-1.3-.767-2.909-3.938-2.909-3.938-.886-4.1,5.913-6.375,5.913-6.375Z" transform="translate(-276.417 -227.265)" fill="#0087b1"/>
            </g>
            <g id="Grupo_153983" data-name="Grupo 153983" transform="translate(29.972 27.113)">
              <path id="Trazado_195736" data-name="Trazado 195736" d="M159.978,60.709S138.767,58.1,126.932,78.077s-12.45,63.941,8.915,75.469,56.563,3.074,60.1-.308,2.92-5.841,2.92-5.841a10.827,10.827,0,0,0,8.146-2.613c3.381-3.228-2.229-7.916-2.229-7.916s8.377.845,9.76-3.458-8.415-16.831-12.335-28.7S195.906,60.4,159.978,60.709Z" transform="translate(-106.413 -60.596)" fill="#135989"/>
              <g id="Grupo_153973" data-name="Grupo 153973" transform="translate(0 1.111)">
                <g id="Grupo_153972" data-name="Grupo 153972">
                  <g id="Grupo_153969" data-name="Grupo 153969" clip-path="url(#clip-path-3)">
                    <path id="Trazado_195737" data-name="Trazado 195737" d="M200.273,220.832a44,44,0,0,1-13.806,7.806,56.169,56.169,0,0,1-22.853,3.26,78.132,78.132,0,0,1-22.774-4.749,55.285,55.285,0,0,1-13.884-7.24l5.335-14.9,5.271-14.723c3.684-.825,8.945-1.757,12.925-2.425,3.242-.544,5.635-.918,5.635-.918l.111-4.717.12-4.966c3.113-2.767,14.756-.231,14.756-.231l-.06,5.386-.055,4.874c1.273.088,3.145.346,5.215.683,5.792.927,13.114,2.43,13.114,2.43l5.344,14.852Z" transform="translate(-110.01 -112.24)" fill="#ffa185"/>
                  </g>
                  <g id="Grupo_153970" data-name="Grupo 153970" clip-path="url(#clip-path-3)">
                    <path id="Trazado_195738" data-name="Trazado 195738" d="M191.308,219.219l1.632,4.579a50.549,50.549,0,0,1-3.689,3.689l1.374,10.421a56.169,56.169,0,0,1-22.853,3.26A78.132,78.132,0,0,1,145,236.418l1.065-9.393a20.791,20.791,0,0,1-3.537-3.919l1.937-4.989.06-.157-8.074-3.684,1.033-2.882,4.238-11.841c2.518-.562,5.768-1.176,8.844-1.725,1.429-.249,2.817-.489,4.081-.7,2.73,6.621,13.091,16.143,13.091,16.143,8.231-6.045,11.5-12.948,12.63-16.033,1.425.231,2.937.489,4.413.756,4.533.816,8.7,1.674,8.7,1.674l4.205,11.684,1.139,3.168a67.53,67.53,0,0,1-7.8,3.9Z" transform="translate(-114.168 -121.509)" fill="#a493c0"/>
                  </g>
                  <g id="Grupo_153971" data-name="Grupo 153971" clip-path="url(#clip-path-3)">
                    <path id="Trazado_195739" data-name="Trazado 195739" d="M195.779,197.994a33.656,33.656,0,0,1-15.124,18.352l-4.454-.078c-7.986-4.57-13.169-15.138-14.636-18.44,1.429-.249,2.817-.489,4.081-.7,2.73,6.621,13.091,16.143,13.091,16.143,8.231-6.045,11.5-12.948,12.63-16.033C192.791,197.469,194.3,197.727,195.779,197.994Z" transform="translate(-125.169 -121.51)" fill="#fff"/>
                    <path id="Trazado_195740" data-name="Trazado 195740" d="M145.584,226.156l-1.06,2.923-8.074-3.684,1.033-2.882,8.1,3.633Z" transform="translate(-114.168 -132.629)" fill="#fff"/>
                    <path id="Trazado_195741" data-name="Trazado 195741" d="M240.358,225.607a67.531,67.531,0,0,1-7.8,3.9l-1.282-3.463,7.945-3.606Z" transform="translate(-155.702 -132.596)" fill="#fff"/>
                  </g>
                </g>
                <path id="Trazado_195742" data-name="Trazado 195742" d="M193.925,177.026l-.06,5.386a19,19,0,0,1-14.815-.189l.12-4.966C182.282,174.49,193.925,177.026,193.925,177.026Z" transform="translate(-132.828 -112.24)" fill="#f78664"/>
              </g>
              <g id="Grupo_153982" data-name="Grupo 153982" transform="translate(27.308 14.253)">
                <path id="Trazado_195743" data-name="Trazado 195743" d="M153.707,92.529s18.906,2.421,31.7.461V85.958s7.724,5.533,11.758,25.131-9.338,26.744-19.713,28.358-27.782-2.421-31.356-14.64S153.707,92.529,153.707,92.529Z" transform="translate(-145.394 -85.958)" fill="#ffa185"/>
                <g id="Grupo_153975" data-name="Grupo 153975" transform="translate(6.507 30.741)">
                  <g id="Grupo_153974" data-name="Grupo 153974">
                    <ellipse id="Elipse_5719" data-name="Elipse 5719" cx="5.418" cy="5.956" rx="5.418" ry="5.956" fill="#fe906d"/>
                    <ellipse id="Elipse_5720" data-name="Elipse 5720" cx="5.418" cy="5.956" rx="5.418" ry="5.956" transform="translate(28.742 0.077)" fill="#fe906d"/>
                  </g>
                </g>
                <g id="Grupo_153976" data-name="Grupo 153976" transform="translate(26.124 13.949)">
                  <path id="Trazado_195744" data-name="Trazado 195744" d="M192.973,110.778a110.052,110.052,0,0,1,3.24,17.752l.03.3a7.513,7.513,0,0,1-2.313.494,5.978,5.978,0,0,1-2.052-.22,8.319,8.319,0,0,0,3.827-.849l-.208.388a110.031,110.031,0,0,1-2.524-17.868Z" transform="translate(-191.878 -110.778)" fill="#f0794f"/>
                </g>
                <g id="Grupo_153977" data-name="Grupo 153977" transform="translate(21.397 37.638)">
                  <path id="Trazado_195745" data-name="Trazado 195745" d="M183.468,152.989a8.16,8.16,0,0,0,11.067-.058c-2,4.3-9.136,4.5-11.067.058Z" transform="translate(-183.468 -152.931)" fill="#ff3b3c"/>
                </g>
                <g id="Grupo_153978" data-name="Grupo 153978" transform="translate(14.826 20.98)">
                  <ellipse id="Elipse_5721" data-name="Elipse 5721" cx="1.499" cy="2.738" rx="1.499" ry="2.738" fill="#471603"/>
                  <ellipse id="Elipse_5722" data-name="Elipse 5722" cx="1.499" cy="2.738" rx="1.499" ry="2.738" transform="translate(19.655)" fill="#471603"/>
                </g>
                <g id="Grupo_153981" data-name="Grupo 153981" transform="translate(12.117 13.265)">
                  <g id="Grupo_153979" data-name="Grupo 153979" transform="translate(22.133 0.058)">
                    <path id="Trazado_195746" data-name="Trazado 195746" d="M206.339,111.27c1.64-3.012,6.16-1.427,6.225,1.787a9.066,9.066,0,0,0-1.34-1.342,4.283,4.283,0,0,0-4.885-.445Z" transform="translate(-206.339 -109.664)" fill="#471603"/>
                  </g>
                  <g id="Grupo_153980" data-name="Grupo 153980">
                    <path id="Trazado_195747" data-name="Trazado 195747" d="M173.18,111.167a4.283,4.283,0,0,0-4.885.445,9.035,9.035,0,0,0-1.34,1.342c.065-3.215,4.586-4.8,6.225-1.787Z" transform="translate(-166.955 -109.562)" fill="#471603"/>
                  </g>
                </g>
              </g>
            </g>
            <g id="Grupo_154007" data-name="Grupo 154007" transform="translate(72.606 144.583)">
              <g id="Grupo_153987" data-name="Grupo 153987">
                <g id="Grupo_153984" data-name="Grupo 153984" transform="translate(0.117 0.096)">
                  <path id="Trazado_195748" data-name="Trazado 195748" d="M190.928,269.792H176.742a3.868,3.868,0,0,0-3.868,3.868V281.3a3.868,3.868,0,0,0,3.868,3.868h4.78c.85,1.445,2.106,3.6,2.106,3.6l2.154-3.6h5.145A3.868,3.868,0,0,0,194.8,281.3V273.66A3.868,3.868,0,0,0,190.928,269.792Z" transform="translate(-172.874 -269.792)" fill="#1a76b7"/>
                </g>
                <g id="Grupo_153986" data-name="Grupo 153986">
                  <g id="Grupo_153985" data-name="Grupo 153985">
                    <path id="Trazado_195749" data-name="Trazado 195749" d="M190.837,269.717a3.314,3.314,0,0,1,.477.013,3.793,3.793,0,0,1,1.324.391,3.9,3.9,0,0,1,2.076,2.834,10.847,10.847,0,0,1,.063,1.577c0,1.106.009,2.324.014,3.642q0,.99.006,2.053,0,.533,0,1.082a4.122,4.122,0,0,1-.181,1.124,3.989,3.989,0,0,1-1.347,1.929,3.941,3.941,0,0,1-2.331.835l-5.245.012.1-.055-2.151,3.6-.1.171-.1-.172-2.108-3.6.1.059h-4.583a4.13,4.13,0,0,1-1.83-.353,3.973,3.973,0,0,1-2.252-2.753,4.34,4.34,0,0,1-.1-.894q0-.436,0-.868,0-.863,0-1.71,0-1.692,0-3.31,0-.808,0-1.6a4.2,4.2,0,0,1,.266-1.56,3.962,3.962,0,0,1,3.419-2.537c.476-.028.92-.006,1.368-.011l2.559.008,7.721.038,2.1.023.546.012a1.083,1.083,0,0,1,.186.012,1.1,1.1,0,0,1-.186.012l-.546.012-2.1.023-7.721.038-2.559.008c-.442.008-.906-.012-1.354.018a3.765,3.765,0,0,0-3.236,2.421,3.989,3.989,0,0,0-.247,1.484q0,.788,0,1.6,0,1.617,0,3.31,0,.846,0,1.71a7.6,7.6,0,0,0,.1,1.71,3.739,3.739,0,0,0,2.12,2.587,3.89,3.89,0,0,0,1.732.331H181.5l.035.059,2.1,3.6h-.2l2.157-3.6.033-.056h.065l5.239,0a3.735,3.735,0,0,0,2.211-.783,3.793,3.793,0,0,0,1.287-1.826,6.942,6.942,0,0,0,.185-2.148q0-1.063.006-2.053c.005-1.318.01-2.536.014-3.642a10.893,10.893,0,0,0-.046-1.557,3.824,3.824,0,0,0-1.986-2.786,3.939,3.939,0,0,0-1.294-.42C191,269.731,190.837,269.727,190.837,269.717Z" transform="translate(-172.665 -269.621)" fill="#1a76b7"/>
                  </g>
                </g>
              </g>
              <g id="Grupo_154006" data-name="Grupo 154006" transform="translate(5.956 4.438)">
                <g id="Grupo_153993" data-name="Grupo 153993" transform="translate(7.099 1.064)">
                  <g id="Grupo_153992" data-name="Grupo 153992">
                    <g id="Grupo_153991" data-name="Grupo 153991">
                      <g id="Grupo_153990" data-name="Grupo 153990">
                        <g id="Grupo_153988" data-name="Grupo 153988" transform="translate(0.236 0.231)">
                          <path id="Trazado_195750" data-name="Trazado 195750" d="M196.315,284.043a1.048,1.048,0,0,1,.161-.182l.466-.468c.4-.392.949-.927,1.564-1.514l.014-.013v.079c-.62-.576-1.176-1.1-1.575-1.485l-.468-.458a.121.121,0,1,1,.028-.031l.492.433c.412.369.977.885,1.6,1.461l.042.039-.042.04-.014.013c-.615.587-1.176,1.114-1.586,1.491l-.489.443A1.036,1.036,0,0,1,196.315,284.043Z" transform="translate(-196.314 -279.823)" fill="#fff"/>
                        </g>
                        <g id="Grupo_153989" data-name="Grupo 153989">
                          <path id="Trazado_195751" data-name="Trazado 195751" d="M196.119,284.1a.211.211,0,0,1-.154-.077l-.006-.007c-.149-.168-.016-.305.167-.5l.469-.47c.354-.35.83-.812,1.364-1.323-.532-.5-1-.943-1.356-1.281l-.47-.46c-.183-.185-.326-.329-.17-.5a.233.233,0,0,1,.152-.074c.108-.012.167.04.358.2l.495.436c.414.371.98.888,1.6,1.465l.042.039a.231.231,0,0,1,0,.337l-.042.04c-.63.6-1.192,1.128-1.6,1.507l-.49.444C196.341,284,196.228,284.1,196.119,284.1Z" transform="translate(-195.894 -279.411)" fill="#fff"/>
                        </g>
                      </g>
                    </g>
                  </g>
                </g>
                <g id="Grupo_153999" data-name="Grupo 153999" transform="translate(0 1.06)">
                  <g id="Grupo_153998" data-name="Grupo 153998">
                    <g id="Grupo_153997" data-name="Grupo 153997">
                      <g id="Grupo_153996" data-name="Grupo 153996">
                        <g id="Grupo_153994" data-name="Grupo 153994" transform="translate(0.231 0.234)">
                          <path id="Trazado_195752" data-name="Trazado 195752" d="M185.994,279.823a1.052,1.052,0,0,1-.161.182l-.466.468c-.4.392-.949.927-1.564,1.514l-.014.013v-.079c.62.576,1.176,1.1,1.575,1.485l.468.458a.121.121,0,1,1-.028.031l-.492-.433c-.412-.369-.977-.885-1.6-1.461l-.042-.039.042-.04.014-.013c.615-.587,1.176-1.114,1.586-1.491l.489-.443A1.07,1.07,0,0,1,185.994,279.823Z" transform="translate(-183.673 -279.822)" fill="#fff"/>
                        </g>
                        <g id="Grupo_153995" data-name="Grupo 153995">
                          <path id="Trazado_195753" data-name="Trazado 195753" d="M185.826,284.1c-.108,0-.221-.1-.352-.208l-.495-.436c-.414-.371-.98-.888-1.6-1.465l-.043-.04a.231.231,0,0,1,0-.335l.042-.04c.63-.6,1.192-1.129,1.6-1.507l.491-.444c.192-.168.354-.309.513-.138s.016.314-.163.5l-.468.471c-.354.349-.83.812-1.364,1.323.531.5,1,.943,1.357,1.281l.47.46c.182.184.323.327.173.5A.213.213,0,0,1,185.826,284.1Z" transform="translate(-183.263 -279.405)" fill="#fff"/>
                        </g>
                      </g>
                    </g>
                  </g>
                </g>
                <g id="Grupo_154005" data-name="Grupo 154005" transform="translate(3.552)">
                  <g id="Grupo_154004" data-name="Grupo 154004">
                    <g id="Grupo_154003" data-name="Grupo 154003">
                      <g id="Grupo_154002" data-name="Grupo 154002">
                        <g id="Grupo_154000" data-name="Grupo 154000" transform="translate(0.226 0.243)">
                          <path id="Trazado_195754" data-name="Trazado 195754" d="M189.987,284.218c-.028-.011.474-1.422,1.121-3.152s1.195-3.125,1.223-3.115-.474,1.422-1.122,3.153S190.015,284.228,189.987,284.218Z" transform="translate(-189.986 -277.951)" fill="#fff"/>
                        </g>
                        <g id="Grupo_154001" data-name="Grupo 154001">
                          <path id="Trazado_195755" data-name="Trazado 195755" d="M189.818,284.278l-.178-.067-.04-.088c-.047-.1-.071-.155,1.116-3.328,1.253-3.35,1.253-3.349,1.519-3.25s.267.1-.986,3.449c-1.187,3.174-1.239,3.2-1.343,3.244Z" transform="translate(-189.584 -277.518)" fill="#fff"/>
                        </g>
                      </g>
                    </g>
                  </g>
                </g>
              </g>
            </g>
          </g>
        </g>
      </g>
      <rect id="Rectángulo_45418" data-name="Rectángulo 45418" width="319" height="211" transform="translate(221 6817)" fill="none"/>
    </g>
  </g>
</svg>
