<svg xmlns="http://www.w3.org/2000/svg" width="295" height="103" viewBox="0 0 295 103">
  <g id="Grupo_155306" data-name="Grupo 155306" transform="translate(2961 8085)">
    <rect id="Rectángulo_46338" data-name="Rectángulo 46338" width="271" height="78" rx="30" transform="translate(-2937 -8073)" fill="#deeffb"/>
    <g id="Grupo_155299" data-name="Grupo 155299" transform="translate(-2960.933 -8084.655)">
      <g id="Elipse_4700" data-name="Elipse 4700" transform="translate(-0.067 -0.345)" fill="#f4f4f5" stroke="#7f4fc7" stroke-width="5">
        <circle cx="51.5" cy="51.5" r="51.5" stroke="none"/>
        <circle cx="51.5" cy="51.5" r="49" fill="none"/>
      </g>
    </g>
    <path id="Trazado_210954" data-name="Trazado 210954" d="M48.375,9.68a7.037,7.037,0,0,1-.562,2.918,4.261,4.261,0,0,1-1.594,1.9,4.4,4.4,0,0,1-6.4-1.887,6.752,6.752,0,0,1-.59-2.832v-.82a6.953,6.953,0,0,1,.57-2.9,4.218,4.218,0,0,1,4-2.594,4.41,4.41,0,0,1,2.41.66,4.253,4.253,0,0,1,1.605,1.914,7.071,7.071,0,0,1,.563,2.918Zm-1.492-.734A5.1,5.1,0,0,0,46.07,5.84,2.68,2.68,0,0,0,43.8,4.758,2.651,2.651,0,0,0,41.559,5.84a5,5,0,0,0-.84,3V9.68a5.107,5.107,0,0,0,.824,3.082,2.888,2.888,0,0,0,4.52.063,5.079,5.079,0,0,0,.82-3.035Zm10.672,1.922a5.026,5.026,0,0,1-.891,3.113,2.846,2.846,0,0,1-2.391,1.176A2.947,2.947,0,0,1,51.8,14.023l-.07.977H50.4V3h1.445V7.477a2.93,2.93,0,0,1,2.414-1.086,2.863,2.863,0,0,1,2.418,1.164,5.177,5.177,0,0,1,.879,3.188ZM56.109,10.7a3.906,3.906,0,0,0-.57-2.281,1.888,1.888,0,0,0-1.641-.8,2.122,2.122,0,0,0-2.055,1.328V12.6a2.181,2.181,0,0,0,2.07,1.328,1.878,1.878,0,0,0,1.617-.8A4.153,4.153,0,0,0,56.109,10.7Zm4.758-4.156v9.43q0,2.438-2.211,2.438a2.7,2.7,0,0,1-.883-.14V17.125a2.794,2.794,0,0,0,.656.063.982.982,0,0,0,.738-.262,1.3,1.3,0,0,0,.254-.911V6.547ZM59.273,4.3a.867.867,0,0,1,.215-.59.79.79,0,0,1,.629-.246.819.819,0,0,1,.641.242.854.854,0,0,1,.219.594.826.826,0,0,1-.219.586.834.834,0,0,1-.641.234.808.808,0,0,1-.633-.234A.843.843,0,0,1,59.273,4.3ZM66.7,15.156a3.693,3.693,0,0,1-2.8-1.129,4.19,4.19,0,0,1-1.078-3.02v-.266a5.073,5.073,0,0,1,.48-2.246,3.748,3.748,0,0,1,1.344-1.547,3.378,3.378,0,0,1,1.871-.559,3.166,3.166,0,0,1,2.563,1.086A4.7,4.7,0,0,1,70,10.586v.6H64.273a3,3,0,0,0,.73,2.02,2.3,2.3,0,0,0,1.777.77,2.517,2.517,0,0,0,1.3-.312,3.259,3.259,0,0,0,.93-.828l.883.688A3.55,3.55,0,0,1,66.7,15.156Zm-.18-7.578a1.928,1.928,0,0,0-1.469.637A3.1,3.1,0,0,0,64.32,10h4.234V9.891a2.753,2.753,0,0,0-.594-1.707A1.815,1.815,0,0,0,66.523,7.578ZM73.633,4.5V6.547h1.578V7.664H73.633v5.249a1.173,1.173,0,0,0,.211.763.888.888,0,0,0,.719.254,3.5,3.5,0,0,0,.688-.094V15a4.215,4.215,0,0,1-1.109.155,1.8,1.8,0,0,1-1.461-.586,2.517,2.517,0,0,1-.492-1.664V7.664H70.648V6.547h1.539V4.5ZM78.469,15H77.023V6.547h1.445ZM76.906,4.3a.863.863,0,0,1,.215-.594.807.807,0,0,1,.637-.242.819.819,0,0,1,.641.242.854.854,0,0,1,.219.594.826.826,0,0,1-.219.586.834.834,0,0,1-.641.234.821.821,0,0,1-.637-.234A.834.834,0,0,1,76.906,4.3Zm6.664,8.734,2.094-6.492h1.477L84.109,15h-1.1L79.945,6.547h1.477ZM88.031,10.7a4.993,4.993,0,0,1,.488-2.234A3.643,3.643,0,0,1,89.879,6.93a3.7,3.7,0,0,1,1.988-.539,3.565,3.565,0,0,1,2.793,1.2,4.6,4.6,0,0,1,1.066,3.18v.1a5.036,5.036,0,0,1-.473,2.215A3.589,3.589,0,0,1,93.9,14.609a3.743,3.743,0,0,1-2.02.547,3.556,3.556,0,0,1-2.785-1.2A4.575,4.575,0,0,1,88.031,10.8Zm1.453.172a3.616,3.616,0,0,0,.652,2.258,2.211,2.211,0,0,0,3.5-.012,3.955,3.955,0,0,0,.648-2.418,3.61,3.61,0,0,0-.66-2.254,2.1,2.1,0,0,0-1.754-.863,2.075,2.075,0,0,0-1.727.852A3.925,3.925,0,0,0,89.484,10.867Zm12.977,1.891a1.064,1.064,0,0,0-.441-.91,4.249,4.249,0,0,0-1.539-.559,7.277,7.277,0,0,1-1.742-.562,2.479,2.479,0,0,1-.953-.781,1.869,1.869,0,0,1-.309-1.078,2.193,2.193,0,0,1,.879-1.758,3.432,3.432,0,0,1,2.246-.719,3.532,3.532,0,0,1,2.332.742,2.357,2.357,0,0,1,.895,1.9h-1.453a1.3,1.3,0,0,0-.5-1.023,1.888,1.888,0,0,0-1.27-.43,1.976,1.976,0,0,0-1.234.344,1.082,1.082,0,0,0-.445.9.877.877,0,0,0,.414.789,5.1,5.1,0,0,0,1.5.508,7.8,7.8,0,0,1,1.754.578,2.558,2.558,0,0,1,1,.809,1.988,1.988,0,0,1,.324,1.152A2.163,2.163,0,0,1,103,14.473a3.8,3.8,0,0,1-2.352.684,4.257,4.257,0,0,1-1.8-.359,2.922,2.922,0,0,1-1.223-1,2.42,2.42,0,0,1-.441-1.395h1.445a1.5,1.5,0,0,0,.582,1.152,2.258,2.258,0,0,0,1.434.426,2.331,2.331,0,0,0,1.316-.332A1.02,1.02,0,0,0,102.461,12.758Z" transform="translate(-2852 -8040.5)" fill="#12263f"/>
    <g id="fast" transform="translate(-2936.581 -8056.589)">
      <g id="Grupo_155260" data-name="Grupo 155260" transform="translate(1.054 1.059)">
        <path id="Trazado_210882" data-name="Trazado 210882" d="M19.818,265.492a18.652,18.652,0,0,1-2.5-9.347H9.965a25.961,25.961,0,0,0,3.487,13.005,3.671,3.671,0,0,0,6.365-3.658Zm0,0" transform="translate(-9.965 -230.106)" fill="#00c9af" fill-rule="evenodd"/>
        <path id="Trazado_210883" data-name="Trazado 210883" d="M407.27,256.148a18.651,18.651,0,0,1-2.5,9.347,3.671,3.671,0,0,0,6.365,3.658,25.958,25.958,0,0,0,3.487-13.005Zm0,0" transform="translate(-362.565 -230.109)" fill="#fd4848" fill-rule="evenodd"/>
        <path id="Trazado_210884" data-name="Trazado 210884" d="M17.479,143.662a18.592,18.592,0,0,1,2.347-6.893l-6.378-3.682A26.143,26.143,0,0,0,9.969,146.1h7.349a18.771,18.771,0,0,1,.161-2.442Zm0,0" transform="translate(-9.968 -120.066)" fill="#8ae7d3" fill-rule="evenodd"/>
        <path id="Trazado_210885" data-name="Trazado 210885" d="M42.855,52.467l6.378,3.682a18.823,18.823,0,0,1,6.835-6.833L52.381,42.93a26.1,26.1,0,0,0-9.525,9.537Zm0,0" transform="translate(-39.376 -39.447)" fill="#ffd777" fill-rule="evenodd"/>
        <path id="Trazado_210886" data-name="Trazado 210886" d="M132.9,13.487l3.688,6.387a18.648,18.648,0,0,1,9.335-2.5V10A26.009,26.009,0,0,0,132.9,13.487Zm0,0" transform="translate(-119.893 -10.004)" fill="#ffba4a" fill-rule="evenodd"/>
        <path id="Trazado_210887" data-name="Trazado 210887" d="M256,10v7.374a18.734,18.734,0,0,1,4.616.577l.43.115a18.538,18.538,0,0,1,4.288,1.8l3.688-6.387A26.006,26.006,0,0,0,256,10Zm0,0" transform="translate(-229.973 -10.004)" fill="#ffba4a" fill-rule="evenodd"/>
        <path id="Trazado_210888" data-name="Trazado 210888" d="M347.93,42.93l-3.688,6.387a18.823,18.823,0,0,1,6.835,6.833l6.378-3.682a26.1,26.1,0,0,0-9.526-9.537Zm0,0" transform="translate(-308.881 -39.447)" fill="#ff8244" fill-rule="evenodd"/>
        <path id="Trazado_210889" data-name="Trazado 210889" d="M415.233,133.086l-6.378,3.682a18.591,18.591,0,0,1,2.347,6.893,18.857,18.857,0,0,1,.161,2.442h7.349a26.144,26.144,0,0,0-3.479-13.018Zm0,0" transform="translate(-366.658 -120.066)" fill="#ff8244" fill-rule="evenodd"/>
        <path id="Trazado_210890" data-name="Trazado 210890" d="M237.774,240.169l5.138.84,15.58,2.545-14.767-5.586-4.868-1.842a2.093,2.093,0,1,0-1.083,4.043Zm0,0" transform="translate(-212.287 -212.108)" fill="gray" fill-rule="evenodd"/>
        <path id="Trazado_210891" data-name="Trazado 210891" d="M214.854,213.262l-5.138-.839a2.093,2.093,0,1,1,1.083-4.043l4.868,1.842a5.393,5.393,0,1,0-.813,3.04Zm0,0" transform="translate(-184.229 -184.362)" fill="#e6e6e6" fill-rule="evenodd"/>
        <path id="Trazado_210892" data-name="Trazado 210892" d="M195.992,364.5h12.7v3.386h-12.7Zm0,0" transform="translate(-176.313 -326.996)" fill="#8ae7d3" fill-rule="evenodd"/>
      </g>
      <path id="Trazado_210893" data-name="Trazado 210893" d="M73.009,74.123a1.054,1.054,0,0,0,.748-.31l.006-.006A1.058,1.058,0,0,0,72.283,72.3l-.023.023a1.058,1.058,0,0,0,.749,1.8Zm0,0" transform="translate(-64.34 -64.38)"/>
      <path id="Trazado_210894" data-name="Trazado 210894" d="M53.934,23.566A27.239,27.239,0,0,0,46.241,7.938,27.1,27.1,0,0,0,11.42,4.98a1.058,1.058,0,1,0,1.225,1.726q.512-.363,1.038-.7l2.631,4.558a19.795,19.795,0,0,0-5.759,5.769L6,13.7a24.762,24.762,0,0,1,1.546-2.172,1.058,1.058,0,0,0-1.655-1.319A27.112,27.112,0,0,0,3.624,40.629a4.729,4.729,0,1,0,8.2-4.714A17.616,17.616,0,0,1,39.531,14.647,17.63,17.63,0,0,1,44.415,30.3L33.485,26.163a6.463,6.463,0,1,0-1.324,4.947l11.531,1.884a17.816,17.816,0,0,1-1.353,2.922,4.729,4.729,0,0,0,8.2,4.714,27.21,27.21,0,0,0,3.4-17.065ZM9.99,36.971a2.613,2.613,0,1,1-4.532,2.6A24.742,24.742,0,0,1,2.13,28.155H7.378A19.841,19.841,0,0,0,9.99,36.971ZM7.516,24.517c-.067.506-.112,1.014-.139,1.522H2.134q.048-1.1.192-2.2a25.085,25.085,0,0,1,2.616-8.305L9.5,18.167a19.666,19.666,0,0,0-1.981,6.35ZM24,30.179a4.355,4.355,0,1,1,7.014-4.948L28,24.088a2.818,2.818,0,0,0-2.307.15,3.241,3.241,0,0,0-1.244,4.642,2.819,2.819,0,0,0,1.923,1.284l3.183.52A4.362,4.362,0,0,1,24,30.179Zm7.848-1.263-.009,0-5.13-.838a.731.731,0,0,1-.487-.343,1.126,1.126,0,0,1,.432-1.612.817.817,0,0,1,.367-.1.638.638,0,0,1,.226.041L32.1,27.9l.031.012,4.878,1.845ZM28.139,7.4V2.14a24.809,24.809,0,0,1,10.51,2.8L36.017,9.5a19.589,19.589,0,0,0-7.878-2.1ZM15.514,4.946A24.785,24.785,0,0,1,26.023,2.139V7.4a19.589,19.589,0,0,0-7.878,2.1Zm22.333,5.619,2.633-4.56A25.247,25.247,0,0,1,48.17,13.7l-4.564,2.635a19.8,19.8,0,0,0-5.76-5.769Zm6.818,7.6,4.564-2.635a24.993,24.993,0,0,1,2.607,8.311q.144,1.1.192,2.2H46.786q-.04-.762-.139-1.522a19.657,19.657,0,0,0-1.981-6.35ZM48.7,39.575a2.613,2.613,0,0,1-4.532-2.6A19.611,19.611,0,0,0,45.8,33.339l1.289.211a1.058,1.058,0,0,0,.545-2.034l-1.225-.463a19.98,19.98,0,0,0,.374-2.9h5.248A24.738,24.738,0,0,1,48.7,39.575Zm0,0" transform="translate(0)"/>
      <path id="Trazado_210895" data-name="Trazado 210895" d="M199.746,354.5h-12.7a1.058,1.058,0,0,0-1.058,1.058v3.386A1.058,1.058,0,0,0,187.05,360h12.7a1.058,1.058,0,0,0,1.058-1.058v-3.386A1.058,1.058,0,0,0,199.746,354.5Zm-1.058,3.386h-10.58v-1.27h10.58Zm0,0" transform="translate(-166.317 -316.995)"/>
      <path id="Trazado_210896" data-name="Trazado 210896" d="M99.234,246.145a1.058,1.058,0,1,0,0,2.116h.025a1.058,1.058,0,1,0,0-2.116Zm0,0" transform="translate(-87.791 -220.106)"/>
      <path id="Trazado_210897" data-name="Trazado 210897" d="M174.088,118.68l-.012-.022a1.058,1.058,0,1,0-1.832,1.059l.012.021a1.058,1.058,0,1,0,1.832-1.058Zm0,0" transform="translate(-153.896 -105.632)"/>
      <path id="Trazado_210898" data-name="Trazado 210898" d="M320.864,120.284a1.057,1.057,0,0,0,.917-.529l.012-.022a1.058,1.058,0,1,0-1.832-1.058l-.012.022a1.059,1.059,0,0,0,.915,1.587Zm0,0" transform="translate(-285.976 -105.647)"/>
      <path id="Trazado_210899" data-name="Trazado 210899" d="M394.669,248.292a1.058,1.058,0,0,0,0-2.116h-.025a1.058,1.058,0,1,0,0,2.116Zm0,0" transform="translate(-351.95 -220.134)"/>
      <path id="Trazado_210900" data-name="Trazado 210900" d="M212.078,416.5h-.025a1.058,1.058,0,0,0,0,2.116h.025a1.058,1.058,0,1,0,0-2.116Zm0,0" transform="translate(-188.675 -372.443)"/>
      <path id="Trazado_210901" data-name="Trazado 210901" d="M245.365,416.5h-4.342a1.058,1.058,0,0,0,0,2.116h4.342a1.058,1.058,0,0,0,0-2.116Zm0,0" transform="translate(-214.58 -372.443)"/>
    </g>
  </g>
</svg>
