<svg xmlns="http://www.w3.org/2000/svg" xmlns:xlink="http://www.w3.org/1999/xlink" width="78" height="78" viewBox="0 0 78 78">
  <defs>
    <clipPath id="clip-path">
      <rect id="Rectángulo_45466" data-name="Rectángulo 45466" width="50.574" height="50.57" fill="none"/>
    </clipPath>
  </defs>
  <g id="Grupo_152761" data-name="Grupo 152761" transform="translate(-202 -7445)">
    <circle id="Elipse_4691" data-name="Elipse 4691" cx="39" cy="39" r="39" transform="translate(202 7445)" fill="#ddedf8"/>
    <g id="Grupo_152760" data-name="Grupo 152760" transform="translate(216 7459)" clip-path="url(#clip-path)">
      <path id="Trazado_194631" data-name="Trazado 194631" d="M25.23,50.568H4.584A4.242,4.242,0,0,1,0,45.975Q0,28.648,0,11.321A4.242,4.242,0,0,1,4.6,6.743H6.81c.769,0,.767,0,.776-.757A4.16,4.16,0,0,1,9.72,2.245a3.948,3.948,0,0,1,2.057-.556c3.389,0,6.777-.016,10.165,0a4.2,4.2,0,0,1,4.185,4.195c.015.856.015.856.888.856.948,0,1.9-.019,2.844.009.381.011.5-.069.5-.479-.027-1.72-.013-3.441-.011-5.161,0-.832.275-1.111,1.1-1.112q4.793,0,9.586,0c.849,0,1.117.275,1.117,1.144,0,1.65.02,3.3-.011,4.95-.009.5.071.691.634.664,1.156-.055,2.317-.022,3.475-.015a4.2,4.2,0,0,1,4.328,4.318q.01,17.59,0,35.18a4.2,4.2,0,0,1-4.323,4.323q-10.508.011-21.015,0" transform="translate(0 0)" fill="#231f20"/>
      <path id="Trazado_194632" data-name="Trazado 194632" d="M7.968,107.272c-.006-.193-.017-.385-.017-.578q0-12.162,0-24.325a2.581,2.581,0,0,1,2.916-2.906q12.585,0,25.169-.009c.435,0,.617.062.586.557-.05.8-.029,1.614-.006,2.421.01.325-.083.416-.409.41-1.193-.02-2.387,0-3.58-.011a.886.886,0,0,0-.732,1.564q4.82,5.644,9.635,11.293c.727.853,1.12.857,1.85.013q3.736-4.32,7.467-8.643c.218.024.209.207.237.354a2.835,2.835,0,0,1,.021.525q0,7.841,0,15.681a4,4,0,0,1-.275,1.6,3.453,3.453,0,0,1-3.387,2.221c-2.543.031-5.087.008-7.631.009q-2.895,0-5.789,0a1.282,1.282,0,0,1-.814-.141,1.407,1.407,0,0,1-.141-.867q-.006-4.266,0-8.532c0-.211.008-.422-.013-.632a.727.727,0,0,0-.764-.766,5.737,5.737,0,0,0-.579-.013H12.644c-.954.01-1.148.193-1.15,1.139-.006,2.932,0,5.864,0,8.8a1.451,1.451,0,0,1-.137.87.814.814,0,0,1-.545.146q-1.153.016-2.305,0a.692.692,0,0,1-.534-.167" transform="translate(-6.265 -62.607)" fill="#fecc00"/>
      <path id="Trazado_194633" data-name="Trazado 194633" d="M33.257,107.309q7.163,0,14.326,0a3.379,3.379,0,0,0,3.357-3.391q.005-8.163,0-16.326c0-.169.059-.355-.088-.5.758-.889,1.513-1.781,2.277-2.664a.884.884,0,0,0-.724-1.561c-.488.01-.977-.008-1.466-.014a7.018,7.018,0,0,1,0-3.337c.561-.006,1.123-.023,1.684-.014a2.507,2.507,0,0,1,2.529,2.55c.012,2.562,0,5.125,0,7.687q0,9.478,0,18.956a2.557,2.557,0,0,1-2.836,2.83H10.771a2.554,2.554,0,0,1-2.816-2.8c0-.473.01-.947.016-1.421h3.338A1.723,1.723,0,0,0,13,108q9.288-.026,18.575,0a1.722,1.722,0,0,0,1.686-.689" transform="translate(-6.268 -62.643)" fill="#dcb100"/>
      <path id="Trazado_194634" data-name="Trazado 194634" d="M131.885,28.134h2.737c1.127,0,1.327-.2,1.327-1.3q0-9.164-.011-18.329c0-.478.117-.612.6-.607,2.44.026,4.881.022,7.321,0,.414,0,.526.107.525.523q-.02,9.243-.009,18.487c0,1,.229,1.226,1.245,1.226h2.8c-.617.725-1.162,1.374-1.715,2.016-2.086,2.418-4.184,4.826-6.251,7.26-.313.369-.448.267-.695-.024q-3.219-3.793-6.454-7.572c-.45-.527-.9-1.057-1.426-1.68" transform="translate(-103.92 -6.221)" fill="#d70027"/>
      <path id="Trazado_194635" data-name="Trazado 194635" d="M7.937,28.531c0-1.856-.06-3.624.021-5.385a2.448,2.448,0,0,1,2.477-2.2c1.334-.014,2.667,0,4,0,.789,0,1.068-.287,1.073-1.083,0-.491-.007-.983,0-1.474a2.509,2.509,0,0,1,2.48-2.492q5.107-.024,10.214,0a2.5,2.5,0,0,1,2.473,2.5c.011.526,0,1.053,0,1.579a.855.855,0,0,0,.971.97c1.492.007,2.984.015,4.475-.007.379-.006.464.115.461.475-.008,1.22.006,1.22-1.233,1.22H12.507c-.974,0-1.212.237-1.213,1.205,0,1.158,0,2.316,0,3.474,0,.245-.028.4-.334.38a4.445,4.445,0,0,0-3.027.847" transform="translate(-6.237 -12.51)" fill="#cba300"/>
      <path id="Trazado_194636" data-name="Trazado 194636" d="M43.556,58.977c-3.755,0-7.511-.008-11.266.011-.442,0-.566-.113-.546-.551.037-.806.024-1.614,0-2.421-.008-.317.075-.427.408-.418.894.023,1.79.008,2.685.008q9.976,0,19.953-.012c.469,0,.6.116.573.578a21.941,21.941,0,0,0,0,2.262c.021.434-.1.556-.543.553-3.755-.019-7.511-.011-11.266-.011" transform="translate(-25.012 -43.806)" fill="#006def"/>
      <path id="Trazado_194637" data-name="Trazado 194637" d="M205.446,47.338a4.522,4.522,0,0,0-3.047-.851c-.313.021-.329-.148-.327-.385.007-1.192,0-2.384,0-3.576,0-.823-.278-1.1-1.107-1.1-.613,0-1.227-.013-1.84.005-.3.009-.428-.046-.433-.394-.018-1.3-.033-1.3,1.26-1.3.964,0,1.928-.006,2.892,0a2.514,2.514,0,0,1,2.6,2.585c.01,1.63,0,3.259,0,5.01" transform="translate(-156.56 -31.313)" fill="#cba300"/>
      <path id="Trazado_194638" data-name="Trazado 194638" d="M201.263,79.5v3.337c-.734.006-1.469,0-2.2.022-.251.007-.331-.074-.327-.326q.019-1.364,0-2.728c0-.252.077-.332.327-.326.734.019,1.469.016,2.2.022" transform="translate(-156.594 -62.622)" fill="#fecc00"/>
      <path id="Trazado_194639" data-name="Trazado 194639" d="M200.425,57.235c0,.455-.01.91,0,1.365.006.229-.079.325-.3.3a.334.334,0,0,0-.052,0c-1.332.063-1.332.063-1.332-1.262,0-.595.01-1.19,0-1.785-.006-.252.085-.317.331-.331,1.359-.074,1.359-.081,1.359,1.242v.472" transform="translate(-156.596 -43.727)" fill="#006def"/>
      <path id="Trazado_194640" data-name="Trazado 194640" d="M45.721,169.946c-.177.667-.391.845-1.061.845q-9.913,0-19.827,0c-.67,0-.885-.179-1.06-.845q.008-4.872.017-9.744c0-.97.24-1.209,1.211-1.209H44.492c.97,0,1.211.242,1.212,1.209q.008,4.872.016,9.744" transform="translate(-18.732 -125.28)" fill="#231f20"/>
      <path id="Trazado_194641" data-name="Trazado 194641" d="M41,175.338c-2.913,0-5.827-.007-8.74.008-.382,0-.512-.084-.508-.491q.029-3.737,0-7.476c0-.361.089-.479.466-.478q8.819.017,17.638,0c.393,0,.454.147.453.491q-.018,3.711,0,7.423c0,.4-.094.535-.52.533-2.931-.019-5.862-.01-8.793-.01" transform="translate(-25.022 -131.512)" fill="#5eab24"/>
      <path id="Trazado_194642" data-name="Trazado 194642" d="M65.041,176.575c-1.456,0-2.912,0-4.368,0-.666,0-1.038-.315-1.032-.852s.373-.831,1.051-.832q4.42,0,8.84,0c.679,0,1.049.294,1.059.825.011.553-.368.858-1.078.859q-2.236,0-4.473,0" transform="translate(-46.995 -137.806)" fill="#231f20"/>
      <path id="Trazado_194643" data-name="Trazado 194643" d="M65.095,192.473c-1.473,0-2.947,0-4.42,0-.666,0-1.039-.314-1.033-.851s.373-.832,1.051-.832q4.42,0,8.84,0c.679,0,1.049.293,1.06.824.011.552-.368.859-1.078.86q-2.21,0-4.42,0" transform="translate(-46.995 -150.333)" fill="#231f20"/>
      <path id="Trazado_194644" data-name="Trazado 194644" d="M41.026,174.887c.874,0,1.253.249,1.262.828s-.387.857-1.287.857c-.123,0-.245,0-.367,0a.842.842,0,1,1,.025-1.682c.122-.006.245,0,.367,0" transform="translate(-31.334 -137.803)" fill="#231f20"/>
      <path id="Trazado_194645" data-name="Trazado 194645" d="M41.017,192.475c-.866,0-1.249-.257-1.251-.84s.38-.846,1.244-.846c.894,0,1.294.271,1.278.866-.015.577-.393.821-1.271.82" transform="translate(-31.334 -150.335)" fill="#231f20"/>
    </g>
  </g>
</svg>
