<svg xmlns="http://www.w3.org/2000/svg" xmlns:xlink="http://www.w3.org/1999/xlink" width="471.98" height="221.397" viewBox="0 0 471.98 221.397">
  <defs>
    <clipPath id="clip-path">
      <path id="Trazado_194767" data-name="Trazado 194767" d="M236.553,69.518H289.4l4.057,4.76h-33.5l6.521,18.531h42.238l24.547,29.7-50.024-.08,2.357,5.924H263.273l1.243,6H207.463l1.243-6H186.38l2.357-5.924-50.023.08,24.547-29.7H205.5l6.521-18.531H178.524l4.057-4.76h52.845l-.237,29.6H203.9l-7.481,21.511h79.148l-7.481-21.511H236.791Zm26.886-24.981H181.717L155.039,63.6h80.434l-.041,5.133H182.313l-4.8,5.547h-37.2L114.578,92.809h47.274l-25.183,29.708-44.307.085-7,5.755H64.751L36.739,148.171H61.07L0,197.244H5.168l59.016-49.073H92l19.936-19.814H87.77l5.141-4.228,93.573-.164-1.747,4.392H161.62l-12.168,19.814h26.466l-20.9,49.073h3.872l20.135-49.073H204.6l2.492-12.035h57.789l2.492,12.035h25.582l20.134,49.073h3.873l-20.9-49.073h26.466L310.36,128.357H287.243l-1.748-4.392,93.573.164,5.142,4.228H360.047l19.937,19.814H407.8l59.017,49.073h5.168l-61.071-49.073h24.332l-28.012-19.814H386.616l-7-5.755-44.307-.085L310.127,92.809H357.4l-25.73-18.531h-37.2l-4.8-5.547h-53.12l-.04-5.133H316.94L290.263,44.537Z" fill="none"/>
    </clipPath>
    <linearGradient id="linear-gradient" y1="1" x2="0.002" y2="1" gradientUnits="objectBoundingBox">
      <stop offset="0" stop-color="#fff"/>
      <stop offset="0.055" stop-color="#dbedfa"/>
      <stop offset="0.132" stop-color="#afd8f5"/>
      <stop offset="0.215" stop-color="#89c6f1"/>
      <stop offset="0.303" stop-color="#68b6ed"/>
      <stop offset="0.397" stop-color="#4ea9ea"/>
      <stop offset="0.501" stop-color="#3aa0e7"/>
      <stop offset="0.617" stop-color="#2b99e6"/>
      <stop offset="0.759" stop-color="#2395e5"/>
      <stop offset="0.993" stop-color="#2194e5"/>
      <stop offset="1" stop-color="#2194e5"/>
    </linearGradient>
    <clipPath id="clip-path-2">
      <rect id="Rectángulo_45401" data-name="Rectángulo 45401" width="471.98" height="197.244" fill="none"/>
    </clipPath>
  </defs>
  <g id="Grupo_155274" data-name="Grupo 155274" transform="translate(-917 -2566.847)">
    <g id="Grupo_152751" data-name="Grupo 152751" transform="translate(1343.395 2566.847)">
      <g id="Grupo_152551" data-name="Grupo 152551" transform="translate(0 129.519) rotate(-90)">
        <rect id="Rectángulo_45220" data-name="Rectángulo 45220" width="93.539" height="27.854" transform="translate(129.519 27.854) rotate(180)" fill="#e8e8e8"/>
        <g id="Grupo_152556" data-name="Grupo 152556" transform="translate(0 15.429)">
          <rect id="Rectángulo_45221" data-name="Rectángulo 45221" width="4.733" height="4.733" transform="translate(100.579 20.116)" fill="#7f4fc7"/>
          <rect id="Rectángulo_45222" data-name="Rectángulo 45222" width="4.733" height="4.733" transform="translate(90.521 20.116)" fill="#7f4fc7"/>
          <rect id="Rectángulo_45223" data-name="Rectángulo 45223" width="4.733" height="4.733" transform="translate(80.463 20.116)" fill="#7f4fc7"/>
          <rect id="Rectángulo_45224" data-name="Rectángulo 45224" width="4.733" height="4.733" transform="translate(70.405 20.116)" fill="#7f4fc7"/>
          <rect id="Rectángulo_45225" data-name="Rectángulo 45225" width="4.733" height="4.733" transform="translate(60.347 20.116)" fill="#7f4fc7"/>
          <rect id="Rectángulo_45226" data-name="Rectángulo 45226" width="4.733" height="4.733" transform="translate(50.29 20.116)" fill="#7f4fc7"/>
          <rect id="Rectángulo_45227" data-name="Rectángulo 45227" width="4.733" height="4.733" transform="translate(40.232 20.116)" fill="#7f4fc7"/>
          <rect id="Rectángulo_45228" data-name="Rectángulo 45228" width="4.733" height="4.733" transform="translate(30.174 20.116)" fill="#7f4fc7"/>
          <rect id="Rectángulo_45229" data-name="Rectángulo 45229" width="4.733" height="4.733" transform="translate(20.116 20.116)" fill="#7f4fc7"/>
          <rect id="Rectángulo_45230" data-name="Rectángulo 45230" width="4.733" height="4.733" transform="translate(10.058 20.116)" fill="#7f4fc7"/>
          <rect id="Rectángulo_45231" data-name="Rectángulo 45231" width="4.733" height="4.733" transform="translate(0 20.116)" fill="#7f4fc7"/>
          <rect id="Rectángulo_45232" data-name="Rectángulo 45232" width="4.733" height="4.733" transform="translate(100.579 10.058)" fill="#7f4fc7"/>
          <rect id="Rectángulo_45233" data-name="Rectángulo 45233" width="4.733" height="4.733" transform="translate(90.521 10.058)" fill="#7f4fc7"/>
          <rect id="Rectángulo_45234" data-name="Rectángulo 45234" width="4.733" height="4.733" transform="translate(80.463 10.058)" fill="#7f4fc7"/>
          <rect id="Rectángulo_45235" data-name="Rectángulo 45235" width="4.733" height="4.733" transform="translate(70.405 10.058)" fill="#7f4fc7"/>
          <rect id="Rectángulo_45236" data-name="Rectángulo 45236" width="4.733" height="4.733" transform="translate(60.347 10.058)" fill="#7f4fc7"/>
          <rect id="Rectángulo_45237" data-name="Rectángulo 45237" width="4.733" height="4.733" transform="translate(50.29 10.058)" fill="#7f4fc7"/>
          <rect id="Rectángulo_45238" data-name="Rectángulo 45238" width="4.733" height="4.733" transform="translate(40.232 10.058)" fill="#7f4fc7"/>
          <rect id="Rectángulo_45239" data-name="Rectángulo 45239" width="4.733" height="4.733" transform="translate(30.174 10.058)" fill="#7f4fc7"/>
          <rect id="Rectángulo_45240" data-name="Rectángulo 45240" width="4.733" height="4.733" transform="translate(20.116 10.058)" fill="#7f4fc7"/>
          <rect id="Rectángulo_45241" data-name="Rectángulo 45241" width="4.733" height="4.733" transform="translate(10.058 10.058)" fill="#7f4fc7"/>
          <rect id="Rectángulo_45242" data-name="Rectángulo 45242" width="4.733" height="4.733" transform="translate(0 10.058)" fill="#7f4fc7"/>
          <rect id="Rectángulo_45243" data-name="Rectángulo 45243" width="4.733" height="4.733" transform="translate(100.579 0)" fill="#7f4fc7"/>
          <rect id="Rectángulo_45244" data-name="Rectángulo 45244" width="4.733" height="4.733" transform="translate(90.521 0)" fill="#7f4fc7"/>
          <rect id="Rectángulo_45245" data-name="Rectángulo 45245" width="4.733" height="4.733" transform="translate(80.463 0)" fill="#7f4fc7"/>
          <rect id="Rectángulo_45246" data-name="Rectángulo 45246" width="4.733" height="4.733" transform="translate(70.405 0)" fill="#7f4fc7"/>
          <rect id="Rectángulo_45247" data-name="Rectángulo 45247" width="4.733" height="4.733" transform="translate(60.347 0)" fill="#7f4fc7"/>
          <rect id="Rectángulo_45248" data-name="Rectángulo 45248" width="4.733" height="4.733" transform="translate(50.29 0)" fill="#7f4fc7"/>
          <rect id="Rectángulo_45249" data-name="Rectángulo 45249" width="4.733" height="4.733" transform="translate(40.232 0)" fill="#7f4fc7"/>
          <rect id="Rectángulo_45250" data-name="Rectángulo 45250" width="4.733" height="4.733" transform="translate(30.174 0)" fill="#7f4fc7"/>
          <rect id="Rectángulo_45251" data-name="Rectángulo 45251" width="4.733" height="4.733" transform="translate(20.116 0)" fill="#7f4fc7"/>
          <rect id="Rectángulo_45252" data-name="Rectángulo 45252" width="4.733" height="4.733" transform="translate(10.058 0)" fill="#7f4fc7"/>
          <rect id="Rectángulo_45253" data-name="Rectángulo 45253" width="4.733" height="4.733" transform="translate(0 0)" fill="#7f4fc7"/>
        </g>
      </g>
    </g>
    <g id="Grupo_152842" data-name="Grupo 152842" transform="translate(917 2591)">
      <g id="Grupo_152839" data-name="Grupo 152839">
        <g id="Grupo_152838" data-name="Grupo 152838" clip-path="url(#clip-path)">
          <rect id="Rectángulo_45399" data-name="Rectángulo 45399" width="471.98" height="152.707" transform="translate(0 44.537)" fill="url(#linear-gradient)"/>
        </g>
      </g>
      <g id="Grupo_152841" data-name="Grupo 152841">
        <g id="Grupo_152840" data-name="Grupo 152840" clip-path="url(#clip-path-2)">
          <path id="Trazado_194768" data-name="Trazado 194768" d="M240.07,11.586c.467,1.441,1.011,3.042,1.406,4.679.4-1.637.939-3.238,1.407-4.679A11.922,11.922,0,0,0,243.366,7c-.06-.213-.149-.53-.2-.709-.012-.024-1.449-.175-1.688-.175s-1.676.151-1.688.175c-.052.179-.142.5-.2.709a11.946,11.946,0,0,0,.484,4.585" fill="#d2ecfa"/>
          <path id="Trazado_194769" data-name="Trazado 194769" d="M247.924,52.423l-.021-.305-.126-.02s-.022-.187-.079-.474-.5-.458-.987-.81a4.614,4.614,0,0,1-1.029-1.285c-.425-.594-.318-.661-.518-.8s-1.341-.151-1.552-.246-.474.117-.529.2a3.55,3.55,0,0,0-.348.879,2.645,2.645,0,0,0-.088,1.032l-.092.01s.051.883.07,1.037a2.635,2.635,0,0,0,.949.244l.645-.066.055.129-.046,0,.028.41a1.625,1.625,0,0,0,.9.225c.658-.079.046.031.046.031l2.749-.162Z" fill="#231916"/>
          <path id="Trazado_194770" data-name="Trazado 194770" d="M240.29,49.562a3.5,3.5,0,0,0-.349-.879c-.054-.087-.318-.3-.528-.2s-1.352.1-1.552.246-.093.21-.519.8a4.615,4.615,0,0,1-1.028,1.286c-.483.351-.931.522-.987.809s-.079.474-.079.474l-.127.02-.02.305-.023.032,2.748.162.047-.031.9-.225.028-.41-.046,0,.055-.129.645.067a2.632,2.632,0,0,0,.948-.245c.02-.153.071-1.037.071-1.037l-.092-.01a2.666,2.666,0,0,0-.088-1.032" fill="#231916"/>
          <path id="Trazado_194771" data-name="Trazado 194771" d="M245.8,36.279c.007-2.246.266-7.545.271-11.131h0c0-.064,0-.129-.005-.194a11.091,11.091,0,0,0-.45-2.849l-.034-.807h-8.2l-.034.807a11.151,11.151,0,0,0-.45,2.849c.14,2.636.249,8.773.311,9.591.019,1.414.2,11.753.221,12.821l-.4,2.419.458.189,3.054.134c.556-5.931.487-13.33.485-13.831,0-.174.344-2.869.49-9.182h.006c.145,6.313.488,9.008.489,9.182,0,.5-.07,7.9.486,13.831l3.053-.134.459-.189-.4-2.419s.19-10.468.2-11.088" fill="#231916"/>
          <path id="Trazado_194772" data-name="Trazado 194772" d="M243.165,4.659c-.09-.517-1.363-.767-1.688-.766s-1.6.249-1.689.766l.055,1.6c0,.333,1.372.807,1.634,1.137.261-.33,1.633-.8,1.633-1.137Z" fill="#f8ceb9"/>
          <path id="Trazado_194773" data-name="Trazado 194773" d="M242.3,13.382c-.047-1.74-.085-3.087-.085-3.12a9.943,9.943,0,0,0-.486-1.612,4.338,4.338,0,0,0,.419-.587c-.063-.087-.67-.656-.67-.656s-.606.569-.67.656a4.4,4.4,0,0,0,.42.587,9.777,9.777,0,0,0-.49,1.612c0,.033-.039,1.38-.086,3.12.3.931.587,1.9.824,2.883.237-.984.527-1.952.824-2.883" fill="#e95515"/>
          <path id="Trazado_194774" data-name="Trazado 194774" d="M243.147.735C243.01-.042,241.992,0,241.321,0a2.258,2.258,0,0,0-1.71.791,2.857,2.857,0,0,0-.394,2.061,4.408,4.408,0,0,0,.993,2.715c.2.3.731.183,1.259.492.528-.309,1.057-.192,1.259-.492a4.4,4.4,0,0,0,.994-2.715c.068-1.011.078-1.893-.575-2.117" fill="#231916"/>
          <path id="Trazado_194775" data-name="Trazado 194775" d="M243.336,4.76c.5-.34.6-1.428.406-1.451-.1-.012-.146.321-.292.458a3.415,3.415,0,0,0-.114.993" fill="#f8ceb9"/>
          <path id="Trazado_194776" data-name="Trazado 194776" d="M239.618,4.76c-.5-.34-.6-1.428-.406-1.451.1-.012.146.321.292.458a3.415,3.415,0,0,1,.114.993" fill="#f8ceb9"/>
          <path id="Trazado_194777" data-name="Trazado 194777" d="M243.423,2.8a9.187,9.187,0,0,1-.638-1.5,4.121,4.121,0,0,0-1.308-.051,4.669,4.669,0,0,0-1.947,1.231,12.462,12.462,0,0,0-.01,1.386l.1.889a4.091,4.091,0,0,0,.269.94,4.368,4.368,0,0,0,1.032.945,1.207,1.207,0,0,0,1.117,0,4.368,4.368,0,0,0,1.032-.945,4.092,4.092,0,0,0,.269-.94l.1-.889a7.461,7.461,0,0,0-.01-1.071" fill="#f8ceb9"/>
          <path id="Trazado_194778" data-name="Trazado 194778" d="M246.9,11.559a19.376,19.376,0,0,0,.2-3.121L244.19,7.426a.761.761,0,0,1-.408-.239c-.266-.307-.56-.722-.56-.693a13.344,13.344,0,0,1-.423,5.065,43.433,43.433,0,0,0-1.6,5.677,7.378,7.378,0,0,0-.1,1.259c.044,1.772.648,6.3,1.765,7.514a4.024,4.024,0,0,0,2.911,1.463c.176,0,.683.043.683.043s-.061-1.773-.123-2.91-.53-4.411-.633-5.734a27.645,27.645,0,0,1,.553-4.693,16.17,16.17,0,0,0,.638-2.619" fill="#231916"/>
          <path id="Trazado_194779" data-name="Trazado 194779" d="M236.051,11.559a19.377,19.377,0,0,1-.2-3.121l2.915-1.012a.761.761,0,0,0,.408-.239c.266-.307.559-.722.56-.693a13.343,13.343,0,0,0,.423,5.065,43.43,43.43,0,0,1,1.595,5.677,7.376,7.376,0,0,1,.1,1.259c-.044,1.772-.648,6.3-1.765,7.514a4.024,4.024,0,0,1-2.911,1.463c-.176,0-.683.043-.683.043s.061-1.773.123-2.91.53-4.411.633-5.734a27.646,27.646,0,0,0-.553-4.693,16.171,16.171,0,0,1-.638-2.619" fill="#231916"/>
          <path id="Trazado_194780" data-name="Trazado 194780" d="M233.971,23.55S236.3,22.283,236,21.873c-.706-.233-2.026,1.677-2.026,1.677" fill="#231916"/>
          <path id="Trazado_194781" data-name="Trazado 194781" d="M235.347,21.421l.721.789c-.806.014-1.273,1.288-1.273,1.288l-.835-.835-.028-.019a4.565,4.565,0,0,1,1.415-1.223" fill="#d2ecfa"/>
          <path id="Trazado_194782" data-name="Trazado 194782" d="M248.982,23.55s-2.332-1.267-2.026-1.677c.707-.233,2.026,1.677,2.026,1.677" fill="#231916"/>
          <path id="Trazado_194783" data-name="Trazado 194783" d="M247.057,22.137a.8.8,0,0,1-.081.07c-.013,0-1.12.1-1.12.1s-.8.039-1.035.083a3.812,3.812,0,0,0-.827.454,4.686,4.686,0,0,0-.4.4c-.307.321,0,.449.3.248a1.365,1.365,0,0,0,.362-.338l.636-.342.633-.066-.641.539s-.438.37-.521.448-.268.31-.424.485c-.276.313-.064.658.369.194a7.835,7.835,0,0,1,.611-.584l.766-.491s-.964.929-1.267,1.158-.138.553.227.318a4.089,4.089,0,0,0,.742-.638l.71-.431-.495.452-.3.337s-.172.236-.308.4.133.345.439.027a6.227,6.227,0,0,1,.58-.541l.4-.251.217-.06a3.477,3.477,0,0,0,1.025-.25,1.511,1.511,0,0,0,.566-.517l0,0c-.112-.265-.523-1.122-1.163-1.2" fill="#f8ceb9"/>
          <path id="Trazado_194784" data-name="Trazado 194784" d="M247.606,21.421l-.721.789c.806.014,1.273,1.288,1.273,1.288l.835-.835.028-.019a4.565,4.565,0,0,0-1.415-1.223" fill="#d2ecfa"/>
          <path id="Trazado_194785" data-name="Trazado 194785" d="M247.606,21.421l-.721.789c.806.014,1.273,1.288,1.273,1.288l.835-.835.028-.019a4.565,4.565,0,0,0-1.415-1.223" fill="#d2ecfa"/>
          <path id="Trazado_194786" data-name="Trazado 194786" d="M252.943,17.075c0-.01,0-.02-.008-.03-.6-1.779-2.345-3.863-3.714-5.466-.459-.865-1.458-3.23-2.116-3.142,0,0-.461,3.888-.559,4.7.569.646,2.43,2.781,2.608,3.049a15.319,15.319,0,0,0,1.14,1.448,25.226,25.226,0,0,1-3.338,4.236c.707-.233,2.026,1.677,2.026,1.677s.819-1.112,1.137-1.609a12.147,12.147,0,0,0,2.763-3.7,1.428,1.428,0,0,0,.061-1.165" fill="#231916"/>
          <path id="Trazado_194787" data-name="Trazado 194787" d="M235.9,22.137a.8.8,0,0,0,.081.07c.013,0,1.12.1,1.12.1s.8.039,1.035.083a3.812,3.812,0,0,1,.827.454,4.686,4.686,0,0,1,.4.4c.307.321,0,.449-.3.248a1.365,1.365,0,0,1-.362-.338l-.636-.342-.633-.066.641.539s.438.37.521.448.268.31.424.485c.276.313.064.658-.369.194a7.833,7.833,0,0,0-.611-.584l-.766-.491s.964.929,1.267,1.158.138.553-.227.318a4.089,4.089,0,0,1-.742-.638l-.71-.431.5.452.3.337s.172.236.308.4-.133.345-.439.027a6.227,6.227,0,0,0-.58-.541l-.4-.251-.217-.06a3.477,3.477,0,0,1-1.025-.25,1.511,1.511,0,0,1-.566-.517l0,0c.112-.265.523-1.122,1.163-1.2" fill="#f8ceb9"/>
          <path id="Trazado_194788" data-name="Trazado 194788" d="M232.659,17.637a15.321,15.321,0,0,0,1.14-1.448c.178-.268,2.071-2.4,2.64-3.049-.1-.815-.59-4.7-.59-4.7-.659-.088-1.973,2.277-2.432,3.142a18.54,18.54,0,0,0-3.4,5.466l-.008.03a1.432,1.432,0,0,0,.061,1.165,12.192,12.192,0,0,0,2.763,3.7c.319.5,1.137,1.609,1.137,1.609s1.32-1.91,2.026-1.677a25.33,25.33,0,0,1-3.338-4.236" fill="#231916"/>
          <path id="Trazado_194789" data-name="Trazado 194789" d="M221.663,104.2a16.078,16.078,0,0,1,.464-2.491,1.08,1.08,0,0,1,2.136,0c.07.549.111,1.228.155,1.637s.252.535.009.989a.634.634,0,0,1-.056.089h-2.59a.521.521,0,0,1-.118-.222" fill="#231916"/>
          <path id="Trazado_194790" data-name="Trazado 194790" d="M224.216,100.68a3.437,3.437,0,0,0-.118-1.512,2.8,2.8,0,0,1-.06-.662h-1.854a6.628,6.628,0,0,1,.118,1.09,4.063,4.063,0,0,0-.082,1.237c.074.321-.382,1.969-.332,2.252s.966-.546,2.473.053c0,0-.168-2.064-.145-2.458" fill="#231916"/>
          <path id="Trazado_194791" data-name="Trazado 194791" d="M227.567,104.2a16.078,16.078,0,0,0-.464-2.491,1.08,1.08,0,0,0-2.136,0c-.07.549-.111,1.228-.155,1.637s-.252.535-.009.989a.634.634,0,0,0,.056.089h2.59a.521.521,0,0,0,.118-.222" fill="#231916"/>
          <path id="Trazado_194792" data-name="Trazado 194792" d="M227.01,100.833a4,4,0,0,0-.082-1.237,6.676,6.676,0,0,1,.119-1.09h-1.854a2.794,2.794,0,0,1-.061.662,3.452,3.452,0,0,0-.118,1.512c.023.393-.144,2.458-.144,2.458,1.506-.6,2.423.23,2.473-.053s-.407-1.932-.333-2.252" fill="#231916"/>
          <path id="Trazado_194793" data-name="Trazado 194793" d="M228.83,75.985a32.124,32.124,0,0,0-.575-4.7h-7.28a32.121,32.121,0,0,0-.575,4.7c-.169,3.017.681,13.481.682,13.5,0,.005-.012,1.15.049,3.794.084,3.637.465,9.137.465,9.137L223.1,102l1.184.417s.233-5.646.328-7.906c.1,2.26.328,7.906.328,7.906l1.184-.417,1.507.417s.381-5.5.465-9.137c.061-2.644.049-3.789.049-3.794,0-.024.851-10.488.682-13.5m-4.215,12.67c-.061-1.715-.044-3.622,0-5.32.044,1.7.061,3.605,0,5.32" fill="#231916"/>
          <path id="Trazado_194794" data-name="Trazado 194794" d="M223.106,103.954a3.305,3.305,0,0,0-1.321.465h2.57c.059-.138-.975-.465-1.249-.465" fill="#804f21"/>
          <path id="Trazado_194795" data-name="Trazado 194795" d="M226.124,103.954a3.306,3.306,0,0,1,1.321.465h-2.57c-.059-.138.975-.465,1.249-.465" fill="#804f21"/>
          <path id="Trazado_194796" data-name="Trazado 194796" d="M224.607,51.726a2.787,2.787,0,0,0-2.774,2.984c.04,1.012.08,8.575.66,9.617a2.612,2.612,0,0,0,4.228,0c.58-1.042.62-8.605.66-9.617a2.787,2.787,0,0,0-2.774-2.984" fill="#6a3907"/>
          <path id="Trazado_194797" data-name="Trazado 194797" d="M222.356,54.919c.076.79.234,1.668.234,1.668a2.018,2.018,0,0,0,4.034,0s.14-.772.22-1.52a18.282,18.282,0,0,1-2.973-2.121,3.625,3.625,0,0,1-1.515,1.973" fill="#f7c5ab"/>
          <path id="Trazado_194798" data-name="Trazado 194798" d="M219.966,60.7c-.013-.077-.911.253-1,1.634-.072,1.158-.7,6.295-.788,8.822a1.1,1.1,0,1,0,2.2,0h0c.084-.97.3-3.677.372-4.853a23.417,23.417,0,0,0-.786-5.6" fill="#231916"/>
          <path id="Trazado_194799" data-name="Trazado 194799" d="M226.591,59.722c-.062-.021-.122-.044-.182-.069a.88.88,0,0,1-.538-.822l.009-.961c.071-.807-1.063-.943-1.249-.943s-1.32.136-1.249.943l.009.961a.88.88,0,0,1-.538.822c-.06.025-.12.048-.182.069.25.752.985,2.376.985,2.376h1.95a25.424,25.424,0,0,0,.985-2.376" fill="#f7c5ab"/>
          <path id="Trazado_194800" data-name="Trazado 194800" d="M223.613,62.049c.251.568,1,2.208,1,2.208s.493-1.067,1-2.208Z" fill="#e50013"/>
          <path id="Trazado_194801" data-name="Trazado 194801" d="M229.518,60.737c-1.189-.494-2.181-.908-3-1.2.024.009-1.888,4.323-1.888,4.323s-1.913-4.314-1.889-4.323c-.818.289-1.809.7-3,1.2-.416.173.679,7.357.706,9.817.021,1.946-.731,7.751-.731,7.751s3.683.208,4.913.208,4.913-.208,4.913-.208-.752-5.805-.731-7.751c.027-2.46,1.121-9.644.705-9.817" fill="#231916"/>
          <rect id="Rectángulo_45400" data-name="Rectángulo 45400" width="6.606" height="9.174" transform="translate(215.645 67.214) rotate(-45)" fill="#804f21"/>
          <path id="Trazado_194802" data-name="Trazado 194802" d="M219.382,71.928c-.931-.491-1.758-.491-1.716-.982s.212-1.168.721-1.387a.774.774,0,0,1,1,.161,2.868,2.868,0,0,0,.685.571c.207.142.4.186.292.543s-.378,1.116-.592,1.094a1.861,1.861,0,0,0-.385,0" fill="#f7c5ab"/>
          <path id="Trazado_194803" data-name="Trazado 194803" d="M229.463,76.36a3.479,3.479,0,0,0-.193,1.612c.073.46-.069,1.289.04,1.373s.1,0,.01.165.088,1.278.325,1.247.5-.99.676-1.156a3.158,3.158,0,0,0,.45-1.125,5.391,5.391,0,0,0-.043-1.991c-.062-.429-1.184-.311-1.265-.125" fill="#f7c5ab"/>
          <path id="Trazado_194804" data-name="Trazado 194804" d="M229.165,76.352c.064-.374-.266-4.268-.1-5.412h0c-.13-1.027-.31-2.568-.438-3.813-.229-2.222.588-5.457.7-6.459.009-.083,1,.27,1.148,1.733.126,1.227.794,5.916,1,8.6h-.008l0,.014a47.906,47.906,0,0,1-.14,5.22c-.072.419-2.237.575-2.16.122" fill="#231916"/>
          <path id="Trazado_194805" data-name="Trazado 194805" d="M403.76,72.56c-.169-1.147-1.243-1-2.071-1a2.611,2.611,0,0,0-2.14,1.092,5.4,5.4,0,0,0-.639,3.029c.015.616.519,4.283,2.779,4.283s2.765-3.667,2.78-4.283c.03-1.21.1-2.793-.709-3.124" fill="#6a3907"/>
          <path id="Trazado_194806" data-name="Trazado 194806" d="M404.447,75.543a.326.326,0,0,0-.161.017c-.086.338-.182.626-.182.626a9.088,9.088,0,0,0-.013-1.321c-.1-.223-.476.065-.865-1.03-.4.611-3.409,1.1-3.961,1.2a6.711,6.711,0,0,0,.009,1.155s-.091-.273-.175-.6a.3.3,0,0,0-.2-.043c-.242.029-.141,1.4.481,1.82a3.238,3.238,0,0,0,.4,1.08,1.991,1.991,0,0,0,3.794,0,3.267,3.267,0,0,0,.4-1.08c.621-.419.722-1.791.48-1.82" fill="#f7c5ab"/>
          <path id="Trazado_194807" data-name="Trazado 194807" d="M406.275,132.255h0a1.186,1.186,0,0,0-.319-.949,3.559,3.559,0,0,1-.3-.948c-.311-1.192-2.867-1.175-2.988.118-.073.775-.235,1.49-.237,1.779h0c.007.149,0,1.022,0,1.022h3.858l0-.865a.572.572,0,0,0-.019-.157" fill="#231916"/>
          <path id="Trazado_194808" data-name="Trazado 194808" d="M397.111,132.255h0a1.182,1.182,0,0,1,.319-.949,3.557,3.557,0,0,0,.3-.948c.311-1.192,2.867-1.175,2.988.118.073.775.235,1.49.237,1.779h0c-.007.149,0,1.022,0,1.022H397.1l0-.865a.572.572,0,0,1,.019-.157" fill="#231916"/>
          <path id="Trazado_194809" data-name="Trazado 194809" d="M401.676,97.374H406.6a61.132,61.132,0,0,1,.248,6.255c.092,5.915-.358,10.107-.432,12.483,0,.025,0-.025,0,0,0,0-.043,1.861-.114,4.685-.1,3.885-.415,9.817-.415,9.817l-1.056.474-2.289-.474s-.287-9.071-.337-10.1c-.023-.475.062-4.861.045-5.023-.172-1.655-.552-11.573-.552-11.573Z" fill="#231916"/>
          <path id="Trazado_194810" data-name="Trazado 194810" d="M401.71,97.374h-4.923a61.141,61.141,0,0,0-.248,6.255c-.092,5.915.359,10.107.432,12.483,0,.025,0-.025,0,0,0,0,.043,1.861.114,4.685.1,3.885.415,9.817.415,9.817l1.056.474,2.289-.474s.287-9.071.337-10.1c.023-.475-.062-4.861-.045-5.023.172-1.655.552-11.573.552-11.573Z" fill="#231916"/>
          <path id="Trazado_194811" data-name="Trazado 194811" d="M401.689,91.369s1.754-8.655,1.786-11.427a.432.432,0,0,0-.037-.182,5.1,5.1,0,0,0-3.5,0,.432.432,0,0,0-.037.182c.032,2.772,1.786,11.427,1.786,11.427" fill="#231916"/>
          <path id="Trazado_194812" data-name="Trazado 194812" d="M403.475,79.942c.008-.684-1.382-.682-1.786-.681s-1.793,0-1.786.681c.032,2.772,1.786,11.427,1.786,11.427s1.755-8.655,1.786-11.427" fill="#fff"/>
          <path id="Trazado_194813" data-name="Trazado 194813" d="M401.906,82.319a3.129,3.129,0,0,1,.458-.99l-.689-.636-.693.63a3.126,3.126,0,0,1,.451,1,4.933,4.933,0,0,0-.648,1.532c0,.03-.026.985-.063,2.352.47,2.713.967,5.167.967,5.167s.474-2.337.933-4.97c-.039-1.472-.068-2.518-.068-2.549a4.932,4.932,0,0,0-.648-1.532" fill="#1faa39"/>
          <path id="Trazado_194814" data-name="Trazado 194814" d="M404.081,104.425h3.207c-.017-.713-.648-10.3-.648-11.5,0-.667,1.227-6.369,1.525-9.166a12.118,12.118,0,0,0,.484-1.811S405.4,80.873,404.1,80.4c0,0-.68-.71-.671-.675.257.967-1.427,8.624-2.05,11.151l-.006,10.7a2.778,2.778,0,0,0,2.7,2.848" fill="#231916"/>
          <path id="Trazado_194815" data-name="Trazado 194815" d="M399.3,104.425H396.09c.017-.713.648-10.3.648-11.5,0-.667-1.227-6.369-1.525-9.166a12.115,12.115,0,0,1-.484-1.811s3.249-1.08,4.545-1.551c0,0,.68-.71.671-.675-.257.967,1.427,8.624,2.05,11.151l.006,10.7a2.778,2.778,0,0,1-2.7,2.848" fill="#231916"/>
          <path id="Trazado_194816" data-name="Trazado 194816" d="M409.772,94.382h0c-.1-3.125-.3-9.085-.443-10.512-.214-2.081-1.006-2.393-1.324-1.733a17.357,17.357,0,0,0-1.409,6.952c.09,1.454.355,4.093.46,5.293h0c-.119,1.853.231,6.9.318,8.988.183.134,2.28.286,2.525-.063.034-.836.133-6.183-.128-8.925" fill="#231916"/>
          <path id="Trazado_194817" data-name="Trazado 194817" d="M401.689,80.841c-.025,0,.025,0,0,0" fill="#f7c5ab"/>
          <path id="Trazado_194818" data-name="Trazado 194818" d="M401.689,80.841c-.025,0,.025,0,0,0" fill="#f7c5ab"/>
          <path id="Trazado_194819" data-name="Trazado 194819" d="M403.375,79.842l-.052-1.071c-.087-.676-1.264-.6-1.634-.6s-1.547-.075-1.634.6L400,79.842c-.014.244,1.289.822,1.685.85.4-.028,1.7-.606,1.686-.85" fill="#f7c5ab"/>
          <path id="Trazado_194820" data-name="Trazado 194820" d="M409.655,103.565c0-.119.009-.219.014-.456a4.234,4.234,0,0,0-2.012.011c-.007.2-.015.323-.026.545.312.118,2.01.162,2.024-.1" fill="#fff"/>
          <path id="Trazado_194821" data-name="Trazado 194821" d="M406.3,133.278h-3.523a5.886,5.886,0,0,1,1.874-.548,4.625,4.625,0,0,1,1.649.548" fill="#804f21"/>
          <path id="Trazado_194822" data-name="Trazado 194822" d="M397.09,133.278h3.523a5.886,5.886,0,0,0-1.874-.548,4.625,4.625,0,0,0-1.649.548" fill="#804f21"/>
          <path id="Trazado_194823" data-name="Trazado 194823" d="M396.831,89.089a17.353,17.353,0,0,0-1.409-6.952c-.318-.661-1.11-.349-1.324,1.733-.146,1.427-.339,7.387-.444,10.512h0c-.261,2.742-.163,8.089-.128,8.924.245.349,2.342.2,2.525.063.087-2.091.437-7.135.318-8.987h0c.105-1.2.369-3.84.46-5.293" fill="#231916"/>
          <path id="Trazado_194824" data-name="Trazado 194824" d="M393.771,103.565c0-.119-.009-.219-.014-.456a4.234,4.234,0,0,1,2.012.011c.007.2.015.323.026.545-.312.118-2.01.162-2.024-.1" fill="#fff"/>
          <path id="Trazado_194825" data-name="Trazado 194825" d="M395.593,103.461a2.808,2.808,0,0,1,.277,1.655c-.1.561.105,1.625-.043,1.708s-.133-.016-.013.205.618,1.52.293,1.433a6.479,6.479,0,0,1-1.459-1.1,5.38,5.38,0,0,1-.679-1.65,3.686,3.686,0,0,1-.1-2.08c.082-.524,1.616-.419,1.728-.17" fill="#f7c5ab"/>
          <path id="Trazado_194826" data-name="Trazado 194826" d="M407.833,103.461a2.808,2.808,0,0,0-.277,1.655c.1.561-.105,1.625.043,1.708s.133-.016.013.205-.618,1.52-.293,1.433a6.48,6.48,0,0,0,1.459-1.1,5.38,5.38,0,0,0,.679-1.65,3.685,3.685,0,0,0,.1-2.08c-.081-.524-1.616-.419-1.728-.17" fill="#f7c5ab"/>
          <path id="Trazado_194827" data-name="Trazado 194827" d="M293.687,89.153c.31,1.951.857,5.174,1.3,7.561.442-2.387.989-5.61,1.3-7.561a4.991,4.991,0,0,1-2.6,0" fill="#fff"/>
          <path id="Trazado_194828" data-name="Trazado 194828" d="M294.986,85.109c-.2,0-1.421.146-1.345,1.015l.011,1.093a2.921,2.921,0,0,0-.123.884c.041.3.1.656.158,1.052a4.991,4.991,0,0,0,2.6,0c.064-.4.117-.757.158-1.057a2.9,2.9,0,0,0-.123-.879l.011-1.093c.076-.869-1.145-1.015-1.345-1.015" fill="#b28147"/>
          <path id="Trazado_194829" data-name="Trazado 194829" d="M302.115,99.645v0c-.091-2.72-.77-7.479-.847-8.726-.092-1.487-.873-1.577-.887-1.494-.171,1.009-1.385,3.508-1.245,5.767.079,1.265.31,3.409.4,4.453h0c-.079,1.234.359,7.862.358,8.291,0,.488,2.248.4,2.249-.055,0-.279.128-6.569-.03-8.233" fill="#231916"/>
          <path id="Trazado_194830" data-name="Trazado 194830" d="M302.009,107.772c-.01.716-.02.506-.02.506l-1.835.055s-.031.118-.074-.64c.37-.178,1.468-.428,1.929.079" fill="#fff"/>
          <path id="Trazado_194831" data-name="Trazado 194831" d="M300.3,107.978a4.121,4.121,0,0,0-.141,1.83c.1.507-.021,1.453.1,1.534s.105-.009.018.184-.434,1.337-.178,1.273a4.3,4.3,0,0,0,1.066-.916,4.58,4.58,0,0,0,.681-1.441,8.1,8.1,0,0,0-.171-2.478c-.086-.473-1.3-.2-1.375.014" fill="#b28147"/>
          <path id="Trazado_194832" data-name="Trazado 194832" d="M291.965,135.341a16.323,16.323,0,0,1,.475-2.549,1.106,1.106,0,0,1,2.186,0c.071.562.113,1.256.159,1.674s.257.549.009,1.013a.931.931,0,0,1-.057.091h-2.651a.534.534,0,0,1-.121-.227" fill="#231916"/>
          <path id="Trazado_194833" data-name="Trazado 194833" d="M294.577,131.741a3.524,3.524,0,0,0-.12-1.547,2.8,2.8,0,0,1-.062-.677h-1.9a6.706,6.706,0,0,1,.121,1.115,4.128,4.128,0,0,0-.083,1.266c.076.328-.391,2.014-.341,2.3s.989-.559,2.531.055c0,0-.171-2.113-.148-2.516" fill="#231916"/>
          <path id="Trazado_194834" data-name="Trazado 194834" d="M298.007,135.341a16.319,16.319,0,0,0-.475-2.549,1.106,1.106,0,0,0-2.186,0c-.071.562-.113,1.256-.159,1.674s-.257.549-.009,1.013a.931.931,0,0,0,.057.091h2.652a.542.542,0,0,0,.12-.227" fill="#231916"/>
          <path id="Trazado_194835" data-name="Trazado 194835" d="M297.436,131.9a4.1,4.1,0,0,0-.084-1.266,6.873,6.873,0,0,1,.122-1.115h-1.9a2.856,2.856,0,0,1-.062.677,3.524,3.524,0,0,0-.12,1.547c.023.4-.148,2.516-.148,2.516,1.542-.614,2.48.236,2.531-.055s-.417-1.976-.341-2.3" fill="#231916"/>
          <path id="Trazado_194836" data-name="Trazado 194836" d="M299.673,106.47c0-2.294-.765-2.872-.962-4.813h-7.45c-.2,1.941-.962,2.519-.962,4.813-.188,3.1,1.07,13.795,1.072,13.819,0,0-.013,1.178.049,3.883.087,3.722.477,9.35.477,9.35l1.542-.427,1.211.427s.238-5.777.336-8.09c.1,2.313.336,8.09.336,8.09l1.211-.427,1.542.427s.391-5.628.477-9.35c.062-2.7.05-3.878.049-3.883,0-.024,1.26-10.722,1.072-13.819m-4.687,12.965c-.062-1.755-.045-3.706,0-5.444.045,1.738.062,3.689,0,5.444" fill="#231916"/>
          <path id="Trazado_194837" data-name="Trazado 194837" d="M294.986,79.071A3,3,0,0,0,292,82.283a5.12,5.12,0,0,0,.711,2.8,2.811,2.811,0,0,0,4.552,0,5.12,5.12,0,0,0,.711-2.8,3,3,0,0,0-2.987-3.212" fill="#402210"/>
          <path id="Trazado_194838" data-name="Trazado 194838" d="M297.137,84.667c.107,0,.2-.061.255-.217.2-.58.421-1.607.213-1.635a.286.286,0,0,0-.221.048Z" fill="#b28147"/>
          <path id="Trazado_194839" data-name="Trazado 194839" d="M292.835,84.667c-.107,0-.2-.061-.255-.217-.2-.58-.421-1.607-.213-1.635a.286.286,0,0,1,.221.048Z" fill="#b28147"/>
          <path id="Trazado_194840" data-name="Trazado 194840" d="M290.835,95.189c.141-2.259-1.074-4.758-1.245-5.767-.014-.083-.794.007-.886,1.494-.078,1.247-.757,6.006-.848,8.726v0c-.157,1.664-.03,7.954-.029,8.233,0,.451,2.249.543,2.248.055,0-.429.438-7.057.358-8.291h0c.091-1.044.321-3.188.4-4.453" fill="#231916"/>
          <path id="Trazado_194841" data-name="Trazado 194841" d="M292.6,83.125c.087.753.219,1.48.219,1.48a2.172,2.172,0,0,0,4.343,0s.136-.757.224-1.525a21.611,21.611,0,0,0-1.323-2.541,6.145,6.145,0,0,1-3.463,2.586" fill="#b28147"/>
          <path id="Trazado_194842" data-name="Trazado 194842" d="M287.962,107.772c.01.716.02.506.02.506l1.835.055s.031.118.074-.64c-.37-.178-1.468-.428-1.929.079" fill="#fff"/>
          <path id="Trazado_194843" data-name="Trazado 194843" d="M289.673,107.978a4.121,4.121,0,0,1,.141,1.83c-.1.507.021,1.453-.1,1.534s-.106-.009-.018.184.434,1.337.178,1.273a5.537,5.537,0,0,1-1.324-.916,4.762,4.762,0,0,1-.423-1.441,8.1,8.1,0,0,1,.171-2.478c.086-.473,1.295-.2,1.375.014" fill="#b28147"/>
          <path id="Trazado_194844" data-name="Trazado 194844" d="M293.651,87.217c-.247.058-.572.887-.858.984-.9.305-1.608.576-3.2,1.238-.505.21.933,9.12.989,12.071.024,1.242-.77,7.971-.77,7.971s2.53.142,4.338.213a1.422,1.422,0,0,0,1.438-1.459v-7.828a1.625,1.625,0,0,0-.011-.184c-.142-1.167-1.917-11.649-1.923-13.006" fill="#231916"/>
          <path id="Trazado_194845" data-name="Trazado 194845" d="M296.32,87.217c.247.058.572.887.858.984.9.305,1.608.576,3.2,1.238.5.21-.933,9.12-.989,12.071-.024,1.242.77,7.971.77,7.971s-2.53.142-4.338.213a1.422,1.422,0,0,1-1.438-1.459v-7.828a1.625,1.625,0,0,1,.011-.184c.142-1.167,1.917-11.649,1.923-13.006" fill="#231916"/>
          <path id="Trazado_194846" data-name="Trazado 194846" d="M293.441,135.092a3.378,3.378,0,0,0-1.352.476h2.63c.06-.142-1-.476-1.278-.476" fill="#804f21"/>
          <path id="Trazado_194847" data-name="Trazado 194847" d="M296.53,135.092a3.377,3.377,0,0,1,1.352.476h-2.63c-.06-.142,1-.476,1.278-.476" fill="#804f21"/>
          <path id="Trazado_194848" data-name="Trazado 194848" d="M83.633,139.03a17.524,17.524,0,0,1,.419-2.494c.359-1.276,1.8-1.163,1.93,0,.063.55.1,1.229.141,1.638s.227.537.008.991a.643.643,0,0,1-.051.089H83.739a.557.557,0,0,1-.106-.222" fill="#231916"/>
          <path id="Trazado_194849" data-name="Trazado 194849" d="M84.934,138.787a2.814,2.814,0,0,0-1.194.465h2.322c.054-.138-.881-.465-1.128-.465" fill="#804f21"/>
          <path id="Trazado_194850" data-name="Trazado 194850" d="M83.244,123.574c0-.091-.081-.727-.2-1.7a1.547,1.547,0,1,1,3.078-.307c.043.569.085,1.085.113,1.452a2,2,0,0,1,.077.553h.006c0,.07.037,3.182-.127,4.779a34.158,34.158,0,0,0-.343,5.642,3.8,3.8,0,0,1,.106,1.514c-.02.394.131,2.461.131,2.461-1.361-.6-2.19.231-2.235-.053s.368-1.934.3-2.255a4.438,4.438,0,0,1,.074-1.239c.061-.58-.955-6.058-1.017-7.531-.023-.549.037-2.209.083-3.318Z" fill="#f7c5ab"/>
          <path id="Trazado_194851" data-name="Trazado 194851" d="M89.261,139.072a17.526,17.526,0,0,0-.419-2.494c-.359-1.276-1.8-1.163-1.93,0-.063.55-.1,1.229-.141,1.638s-.227.537-.008.991a.643.643,0,0,0,.051.089h2.341a.557.557,0,0,0,.106-.222" fill="#231916"/>
          <path id="Trazado_194852" data-name="Trazado 194852" d="M87.961,138.828a2.814,2.814,0,0,1,1.194.465H86.833c-.054-.138.881-.465,1.128-.465" fill="#804f21"/>
          <path id="Trazado_194853" data-name="Trazado 194853" d="M89.651,123.615c0-.091.081-.727.2-1.7a1.547,1.547,0,1,0-3.078-.307c-.043.569-.085,1.085-.113,1.452a2.035,2.035,0,0,0-.077.553h-.006c0,.07-.037,3.182.127,4.779a34.157,34.157,0,0,1,.343,5.642,3.8,3.8,0,0,0-.106,1.514c.02.394-.131,2.461-.131,2.461,1.362-.6,2.19.231,2.235-.053s-.368-1.934-.3-2.255a4.43,4.43,0,0,0-.074-1.238c-.061-.581.955-6.059,1.017-7.532.023-.549-.037-2.209-.083-3.318Z" fill="#f7c5ab"/>
          <path id="Trazado_194854" data-name="Trazado 194854" d="M86.372,82.794a3,3,0,0,0-2.987,3.212c.044,1.09.087,3.379.711,4.5a2.813,2.813,0,0,0,4.552,0c.624-1.122.667-3.411.711-4.5a3,3,0,0,0-2.987-3.212" fill="#b28147"/>
          <path id="Trazado_194855" data-name="Trazado 194855" d="M85.073,92.876c.31,1.951.857,5.174,1.3,7.561.442-2.387.989-5.61,1.3-7.561a4.991,4.991,0,0,1-2.6,0" fill="#fff"/>
          <path id="Trazado_194856" data-name="Trazado 194856" d="M86.372,88.832c-.2,0-1.421.146-1.345,1.015l.011,1.093a2.921,2.921,0,0,0-.123.884c.041.3.1.656.158,1.052a4.991,4.991,0,0,0,2.6,0c.064-.4.117-.757.158-1.057a2.884,2.884,0,0,0-.123-.878l.011-1.094c.076-.869-1.145-1.015-1.345-1.015" fill="#f7c5ab"/>
          <path id="Trazado_194857" data-name="Trazado 194857" d="M93.5,103.442v0c-.092-2.72-.771-7.479-.847-8.726-.092-1.487-.873-1.577-.887-1.494-.172,1.009-1.386,3.508-1.246,5.767.08,1.265.31,3.409.4,4.453h0c-.079,1.234.36,7.862.359,8.291,0,.488,2.248.4,2.249-.055,0-.279.128-6.569-.03-8.233" fill="#231916"/>
          <path id="Trazado_194858" data-name="Trazado 194858" d="M93.4,111.5c-.011.716-.021.506-.021.506l-1.835.055s-.031.118-.074-.64c.37-.178,1.468-.428,1.93.079" fill="#fff"/>
          <path id="Trazado_194859" data-name="Trazado 194859" d="M91.685,111.7a4.121,4.121,0,0,0-.141,1.83c.1.507-.021,1.453.1,1.534s.105-.009.018.184-.434,1.337-.178,1.273a4.3,4.3,0,0,0,1.066-.916,4.58,4.58,0,0,0,.681-1.441,8.1,8.1,0,0,0-.171-2.478c-.086-.473-1.295-.2-1.375.014" fill="#f7c5ab"/>
          <path id="Trazado_194860" data-name="Trazado 194860" d="M82.627,122.863c-.317-2.851-1.092-10.191-.942-12.669,0-2.294.765-2.872.962-4.813H90.1c.2,1.941.962,2.519.962,4.813.149,2.464-.617,9.735-.937,12.62-1.246-.01-6.247.01-7.5.049" fill="#231916"/>
          <path id="Trazado_194861" data-name="Trazado 194861" d="M82.221,98.986c.141-2.259-1.074-4.758-1.245-5.767-.014-.083-.794.007-.886,1.494-.078,1.247-.757,6.006-.848,8.726v0c-.157,1.664-.03,7.954-.029,8.233,0,.451,2.249.543,2.248.055,0-.429.438-7.057.358-8.291h0c.091-1.044.321-3.188.4-4.453" fill="#231916"/>
          <path id="Trazado_194862" data-name="Trazado 194862" d="M84.516,85.331a6.5,6.5,0,0,1-.61.52,20.022,20.022,0,0,0,.294,2.477,2.811,2.811,0,0,0,2.172,2.107,2.81,2.81,0,0,0,2.171-2.107s.146-.808.233-1.6a10.01,10.01,0,0,0-1.048-2.471c-1.307-.684-3.212,1.076-3.212,1.076" fill="#f7c5ab"/>
          <path id="Trazado_194863" data-name="Trazado 194863" d="M79.349,111.5c.009.716.019.506.019.506l1.835.055s.031.118.074-.64c-.369-.178-1.467-.428-1.928.079" fill="#fff"/>
          <path id="Trazado_194864" data-name="Trazado 194864" d="M81.059,111.7a4.121,4.121,0,0,1,.141,1.83c-.1.507.021,1.453-.1,1.534s-.106-.009-.018.184.434,1.337.179,1.273a5.523,5.523,0,0,1-1.325-.916,4.762,4.762,0,0,1-.423-1.441,8.1,8.1,0,0,1,.171-2.478c.086-.473,1.295-.2,1.375.014" fill="#f7c5ab"/>
          <path id="Trazado_194865" data-name="Trazado 194865" d="M85.038,90.94c-.247.058-.572.887-.858.984-.9.3-1.608.576-3.2,1.238-.5.21.933,9.12.989,12.071.024,1.242-.77,7.971-.77,7.971s2.53.142,4.338.213a1.422,1.422,0,0,0,1.438-1.459V104.13a1.621,1.621,0,0,0-.011-.184c-.142-1.167-1.917-11.649-1.923-13.006" fill="#231916"/>
          <path id="Trazado_194866" data-name="Trazado 194866" d="M87.706,90.94c.247.058.572.887.859.984.9.3,1.607.576,3.2,1.238.506.21-.933,9.12-.989,12.071-.024,1.242.77,7.971.77,7.971s-2.53.142-4.338.213a1.422,1.422,0,0,1-1.438-1.459V104.13a1.623,1.623,0,0,1,.011-.184c.142-1.167,1.917-11.649,1.923-13.006" fill="#231916"/>
          <path id="Trazado_194867" data-name="Trazado 194867" d="M317.1,31.317a2.73,2.73,0,0,0-2.717,2.922c.04.991.079,8.4.646,9.418a2.559,2.559,0,0,0,4.142,0c.567-1.021.606-8.427.646-9.418a2.73,2.73,0,0,0-2.717-2.922" fill="#6a3907"/>
          <path id="Trazado_194868" data-name="Trazado 194868" d="M319.019,39.546c-.06-.02-.12-.043-.178-.068a.862.862,0,0,1-.527-.8l.009-.942c.069-.79-1.042-.923-1.223-.923s-1.293.133-1.224.923l.01.942a.864.864,0,0,1-.528.8c-.058.025-.117.048-.178.068.245.736.965,2.326.965,2.326h1.909a24.609,24.609,0,0,0,.965-2.326" fill="#c7a186"/>
          <path id="Trazado_194869" data-name="Trazado 194869" d="M316.123,41.824c.246.556.976,2.162.977,2.162s.482-1.045.976-2.162Z" fill="#fff"/>
          <path id="Trazado_194870" data-name="Trazado 194870" d="M320.075,81.243a3.582,3.582,0,0,0-1.894-.767c-.242.253-.627.951-.434,1.36s.859.544.862.564a2.5,2.5,0,0,1,.819.639c.267.393.171.78.741.832a7.536,7.536,0,0,0,2.643-.131c-.04-.282-.276-.288-1.156-1.04-.473-.4-.941-.919-1.581-1.457" fill="#231916"/>
          <path id="Trazado_194871" data-name="Trazado 194871" d="M314.451,83.7a16.15,16.15,0,0,1,.39-2.318c.333-1.187,1.671-1.082,1.794,0,.059.512.094,1.143.131,1.524s.211.5.007.921a.729.729,0,0,1-.047.082H314.55a.5.5,0,0,1-.1-.206" fill="#231916"/>
          <path id="Trazado_194872" data-name="Trazado 194872" d="M315.66,83.478a2.614,2.614,0,0,0-1.11.433h2.159c.049-.129-.819-.433-1.049-.433" fill="#804f21"/>
          <path id="Trazado_194873" data-name="Trazado 194873" d="M314.089,69.334c0-.084-.075-.676-.186-1.578a1.438,1.438,0,1,1,2.86-.286c.041.529.08,1.009.106,1.35a1.871,1.871,0,0,1,.072.514h.005c0,.065.035,2.958-.118,4.443a31.836,31.836,0,0,0-.319,5.245,3.541,3.541,0,0,1,.1,1.408c-.019.366.121,2.288.121,2.288-1.265-.558-2.036.215-2.077-.049s.341-1.8.279-2.1A4.158,4.158,0,0,1,315,79.421c.057-.54-.888-5.633-.945-7-.022-.51.034-2.054.077-3.085Z" fill="#c7a186"/>
          <path id="Trazado_194874" data-name="Trazado 194874" d="M317.252,69.334h0a1.871,1.871,0,0,1,.072-.514c.026-.341.065-.821.106-1.35a1.438,1.438,0,1,1,2.861.286c-.112.9-.19,1.494-.187,1.578h-.043c.043,1.031.1,2.575.077,3.085-.042,1.016-.338,6.383-.218,7.826a2.627,2.627,0,0,0,.468,1.156,10.626,10.626,0,0,0,1.263,1.3c.13.129-.9.215-1.313.145-.548-.094-.926-.574-1.385-1.145a9.744,9.744,0,0,1-.81-1.175s.132-.68.13-.73c-.012-.25-.066-.672-.123-1.109-.225-1.465-.68-3.9-.784-4.908-.153-1.485-.118-4.378-.119-4.443" fill="#c7a186"/>
          <path id="Trazado_194875" data-name="Trazado 194875" d="M321.547,58.587a30.975,30.975,0,0,0-.775-6.461h-7.345a30.975,30.975,0,0,0-.775,6.461c-.1,4.19.285,9.161.334,9.52,0,0,3.083.238,4.113.238s4.114-.238,4.114-.238c.049-.359.43-5.33.334-9.52" fill="#231916"/>
          <path id="Trazado_194876" data-name="Trazado 194876" d="M319.34,33.986c-.062-1.686-1.717-1.481-2.241-1.481s-2.179-.205-2.241,1.481a16.051,16.051,0,0,0,.266,2.421,1.976,1.976,0,0,0,3.95,0,16.19,16.19,0,0,0,.266-2.421" fill="#c7a186"/>
          <path id="Trazado_194877" data-name="Trazado 194877" d="M319.056,36.407c.1,0,.181-.055.232-.2.186-.527.383-1.462.194-1.487a.265.265,0,0,0-.2.044Z" fill="#c7a186"/>
          <path id="Trazado_194878" data-name="Trazado 194878" d="M315.143,36.407c-.1,0-.181-.055-.232-.2-.186-.527-.383-1.462-.194-1.487a.265.265,0,0,1,.2.044Z" fill="#c7a186"/>
          <path id="Trazado_194879" data-name="Trazado 194879" d="M321.885,40.691c-1.165-.483-2.135-.89-2.937-1.172l.07.027c-.337,1.014-1.919,4.206-1.919,4.206s-1.64-3.367-1.919-4.206c.024-.008.047-.018.07-.027-.8.282-1.772.689-2.937,1.172-.408.169,1.184,7.232,1.229,9.613a39.279,39.279,0,0,1-.621,4.362s3.132.2,4.178.2,4.178-.2,4.178-.2a39.279,39.279,0,0,1-.621-4.362c.045-2.381,1.637-9.444,1.229-9.613" fill="#231916"/>
          <path id="Trazado_194880" data-name="Trazado 194880" d="M321.661,49.51c-2.25-.264-6.7-.656-7.252-.783-.238-.242.184-1.861.315-1.984,1.314.186,5.2.283,7,.543A1.3,1.3,0,0,1,322.9,48.6a1.122,1.122,0,0,1-1.236.91" fill="#231916"/>
          <path id="Trazado_194881" data-name="Trazado 194881" d="M320.378,45.654c.507.059,2.436.984,2.344,1.261a8.221,8.221,0,0,1-2.732.325,2.789,2.789,0,0,0-.865.05l-.2-1.049a7.3,7.3,0,0,1,1.454-.587" fill="#c7a186"/>
          <path id="Trazado_194882" data-name="Trazado 194882" d="M322.871,48.661c.262-1.083-.181-5.42-.251-6.554-.084-1.352-.963-1.524-.976-1.448a21.435,21.435,0,0,0-.769,5.335,4.333,4.333,0,0,1-.343,1.995c-.073,1.123,1.982,2.149,2.339.672" fill="#231916"/>
          <path id="Trazado_194883" data-name="Trazado 194883" d="M313.323,45.994a21.482,21.482,0,0,0-.769-5.335c-.013-.076-.947.018-1.032,1.371-.07,1.134-.494,5.029.013,6.705.408,1.346,2.09,1.108,2.018-.015a13.394,13.394,0,0,1-.23-2.726" fill="#231916"/>
          <path id="Trazado_194884" data-name="Trazado 194884" d="M314.338,45.553c-.134-.409-.232-.838-.3-.946-.048-.081-.2-.418-.242-.476a4.042,4.042,0,0,0-.336-.59c-.1-.116-.224-.013-.185.163a2.572,2.572,0,0,0,.245.571.3.3,0,0,1,.015.031l.226.573a.222.222,0,0,1,.011.034c0,.008.126.441.129.454-.039-.091-.194-.582-.224-.625-.056-.078-.233-.4-.28-.459a4.025,4.025,0,0,0-.382-.566c-.112-.109-.223.017-.17.19a2.4,2.4,0,0,0,.289.539c.007.011.3.61.3.622.021.064.1.312.161.56a3.5,3.5,0,0,0-.282-.43c-.065-.067-.287-.358-.341-.405a4.13,4.13,0,0,0-.457-.492c-.127-.088-.219.056-.142.218a2.316,2.316,0,0,0,.362.482c.009.009.383.55.388.561.026.052.115.234.2.434l-.011.015a2.631,2.631,0,0,0-.317-.279c-.072-.041-.335-.232-.392-.258a2.468,2.468,0,0,0-.436-.272c-.128-.042-.139.14-.031.26a1.678,1.678,0,0,0,.337.272s.426.371.426.371.181.183.352.375c.23.683.988,1.466,1.447,1.509.222.021.438-.941.438-.941-.49-.28-.6-1.083-.8-1.495" fill="#c7a186"/>
          <path id="Trazado_194885" data-name="Trazado 194885" d="M313.2,49.681c2.044-.575,5.691-1.49,6.184-1.692.18-.271-.472-1.811-.615-1.914-1.188.367-4.6.953-6.225,1.461a1.125,1.125,0,0,0,.656,2.145" fill="#231916"/>
          <path id="Trazado_194886" data-name="Trazado 194886" d="M162.443,32.631c-.065-.23-.152-.537-.2-.718-.013-.025-1.6-.256-1.858-.256s-1.844.231-1.857.256c-.053.181-.14.488-.205.718.284,2.115,1.238,6.156,2.062,10.445.824-4.289,1.779-8.33,2.063-10.445" fill="#d2ecfa"/>
          <path id="Trazado_194887" data-name="Trazado 194887" d="M161.261,38.729c-.038-1.414-.067-2.417-.067-2.446a10.8,10.8,0,0,0-.54-1.775,4.762,4.762,0,0,0,.462-.646c-.07-.1-.737-.721-.737-.721s-.668.625-.738.721a4.858,4.858,0,0,0,.462.646,10.878,10.878,0,0,0-.535,1.775c0,.029-.028,1.032-.067,2.446.287,1.37.591,2.843.88,4.347.289-1.5.594-2.977.88-4.347" fill="#f29600"/>
          <path id="Trazado_194888" data-name="Trazado 194888" d="M154.242,80.977l-.164-.009-.259-.013-.049,0-.269-.014-.048,0h-.032l.027,0,.024-.319.149-.021s.026-.2.093-.5.594-.484,1.163-.855a5.011,5.011,0,0,0,1.212-1.357c.5-.627.375-.7.61-.849s1.581-.159,1.829-.26a.635.635,0,0,1,.623.216,3.531,3.531,0,0,1,.41.928,2.515,2.515,0,0,1,.1,1.089l.108.011s-.059.933-.083,1.1a3.4,3.4,0,0,1-1.117.258l-.76-.07-.065.136.054,0-.032.432a2.451,2.451,0,0,1-1.057.238l-.054,0Z" fill="#231916"/>
          <path id="Trazado_194889" data-name="Trazado 194889" d="M162.534,81l-.058.011v.9l.64.125v-.107c0,.061,0,.1,0,.107l.151,0v.056a3.423,3.423,0,0,0,.987.249,8.444,8.444,0,0,0,1.572,0h.008l.079-.006.036,0,.052,0,.061,0,.03,0,.079-.007.012,0c.326-.03.6-.067.756-.1h0l.035-.007.007,0,.029-.007h.006l.026-.008v-.36l-.059-.1s.12-.532-.217-.672a1.206,1.206,0,0,1-.655-.494,14.7,14.7,0,0,1-.768-1.616,1.121,1.121,0,0,0-1.151-.744,1.256,1.256,0,0,0-1.081.523,2.356,2.356,0,0,1-.419.5,8.1,8.1,0,0,0-.163.907c-.012.256,0,.875,0,.875m.583.554v0" fill="#231916"/>
          <path id="Trazado_194890" data-name="Trazado 194890" d="M155.829,49.318l.038-.889h9.027l.917,1.194a26.338,26.338,0,0,1,1.935,4.158,5.644,5.644,0,0,1-2.322.842c-.132,10.053-.107,16.364.387,25.209l-.951-.054-2.6.37c-.386-5.224-.951-11.036-.951-11.036-.107-3.25-.418-9.712-.927-14.3h-.056a111.729,111.729,0,0,0-.387,14.344c-.07,2.145-.194,2.638-.273,8.983l-3.559.373L155.831,78l.178-3.805c-.1-3.074-.426-8-.411-11.189-.026-.683-.158-6.768-.171-9.693a2.5,2.5,0,0,1-.093-.864,12.27,12.27,0,0,1,.495-3.135" fill="#231916"/>
          <path id="Trazado_194891" data-name="Trazado 194891" d="M162.239,30.116c-.1-.569-1.5-.844-1.858-.843s-1.759.274-1.858.843l.06,1.766c0,.366,1.51.888,1.8,1.251.288-.363,1.8-.885,1.8-1.251Z" fill="#a38a78"/>
          <path id="Trazado_194892" data-name="Trazado 194892" d="M162.219,25.8c-.151-.856-1.272-.808-2.009-.808a2.489,2.489,0,0,0-1.883.869,3.149,3.149,0,0,0-.434,2.269,4.852,4.852,0,0,0,1.094,2.988c.222.33.8.2,1.385.542.582-.34,1.164-.212,1.386-.542a4.846,4.846,0,0,0,1.093-2.988c.076-1.113.087-2.083-.632-2.33" fill="#804f21"/>
          <path id="Trazado_194893" data-name="Trazado 194893" d="M162.427,30.226c.554-.374.662-1.572.447-1.6-.109-.013-.161.353-.322.5a3.8,3.8,0,0,0-.125,1.093" fill="#a38a78"/>
          <path id="Trazado_194894" data-name="Trazado 194894" d="M158.334,30.226c-.554-.374-.662-1.572-.447-1.6.109-.013.161.353.322.5a3.8,3.8,0,0,1,.125,1.093" fill="#a38a78"/>
          <path id="Trazado_194895" data-name="Trazado 194895" d="M162.523,28.069a11.836,11.836,0,0,1-.705-1.74,13.555,13.555,0,0,0-2.454-.076c-.566,0-1.033,1.617-1.126,1.816a8.248,8.248,0,0,0-.011,1.179l.107.978a4.5,4.5,0,0,0,.3,1.035,4.79,4.79,0,0,0,1.136,1.04,1.334,1.334,0,0,0,1.229,0,4.771,4.771,0,0,0,1.136-1.04,4.452,4.452,0,0,0,.3-1.035l.107-.978a8.105,8.105,0,0,0-.011-1.179" fill="#a38a78"/>
          <path id="Trazado_194896" data-name="Trazado 194896" d="M165.078,51.152c.15-.329.779-1,1.386-.739a1.087,1.087,0,0,1,.426,1.534c-.1.1-.8.913-1.488.615-.607-.261-.458-1.194-.324-1.41" fill="#231916"/>
          <path id="Trazado_194897" data-name="Trazado 194897" d="M166.789,51.975c-.177.271-.324.492-.827.263s-.5-1.152-.377-1.428.292-.373.8-.154c.579.249.53,1.044.4,1.319" fill="#d2ecfa"/>
          <path id="Trazado_194898" data-name="Trazado 194898" d="M165.968,50l-.7,1.075a1.034,1.034,0,0,1,1.116-.42c.579.249.53,1.044.4,1.319l.756-1.051A1.326,1.326,0,0,0,165.968,50" fill="#d2ecfa"/>
          <path id="Trazado_194899" data-name="Trazado 194899" d="M162.3,32.135c0-.032.319.425.613.763a.828.828,0,0,0,.448.262l3.555,1.115s-.8,4.589-1.271,6.317a30.56,30.56,0,0,0-.61,5.165,14.259,14.259,0,0,0,.449,2.472s.649.352.658.528c-.692,1.808-1.579,6.807-3.147,6.71-1.52-.095-1.691-.754-2.059-1.854a49.191,49.191,0,0,1-.966-8.269,8.041,8.041,0,0,1,.1-1.386c.912-5.109,2.2-10.2,2.225-11.823" fill="#231916"/>
          <path id="Trazado_194900" data-name="Trazado 194900" d="M158.456,32.135c0-.032-.319.425-.613.763a.828.828,0,0,1-.448.262l-3.555,1.115s.8,4.589,1.271,6.317a30.558,30.558,0,0,1,.61,5.165c-.114,1.457-.629,5.06-.7,6.312s-.136,3.2-.136,3.2a11.4,11.4,0,0,0,2.873.2c1.52-.095,1.691-.754,2.059-1.854a49.191,49.191,0,0,0,.966-8.269,8.041,8.041,0,0,0-.1-1.386c-.912-5.109-2.2-10.2-2.225-11.823" fill="#231916"/>
          <path id="Trazado_194901" data-name="Trazado 194901" d="M162.3,32.135c0-.032.319.425.613.763a.828.828,0,0,0,.448.262l3.555,1.115s-.8,4.589-1.271,6.317a30.56,30.56,0,0,0-.61,5.165,14.259,14.259,0,0,0,.449,2.472s.649.352.658.528c-.692,1.808-1.579,6.807-3.147,6.71-1.52-.095-1.691-.754-2.059-1.854a49.191,49.191,0,0,1-.966-8.269,8.041,8.041,0,0,1,.1-1.386c.912-5.109,2.2-10.2,2.225-11.823" fill="#231916"/>
          <path id="Trazado_194902" data-name="Trazado 194902" d="M158.456,32.135c0-.032-.319.425-.613.763a.828.828,0,0,1-.448.262l-3.555,1.115s.8,4.589,1.271,6.317a30.558,30.558,0,0,1,.61,5.165c-.114,1.457-.629,5.06-.7,6.312s-.136,3.2-.136,3.2a11.4,11.4,0,0,0,2.873.2c1.52-.095,1.691-.754,2.059-1.854a49.191,49.191,0,0,0,.966-8.269,8.041,8.041,0,0,0-.1-1.386c-.912-5.109-2.2-10.2-2.225-11.823" fill="#231916"/>
          <path id="Trazado_194903" data-name="Trazado 194903" d="M160.629,44.6a.249.249,0,1,1-.249-.248.249.249,0,0,1,.249.248" fill="#231916"/>
          <path id="Trazado_194904" data-name="Trazado 194904" d="M165.171,50.994a1.069,1.069,0,0,0-.093.158c.031-.051.062-.1.093-.158" fill="#231916"/>
          <path id="Trazado_194905" data-name="Trazado 194905" d="M169.827,45.5a2.12,2.12,0,0,0-.046-.333c0-.015,0-.03,0-.045a68.447,68.447,0,0,0-1.265-6.919c-.368-1.292-.756-4.274-1.594-3.926,0,0-1.264,6.006-1.271,6.317a19.455,19.455,0,0,0,.871,2.317c.2.7.442,1.579.582,2.113a23.732,23.732,0,0,1-1.932,5.972c.237-.344.772-.805,1.293-.581a1.087,1.087,0,0,1,.425,1.534,9.065,9.065,0,0,0,2.938-6.449" fill="#231916"/>
          <path id="Trazado_194906" data-name="Trazado 194906" d="M166.385,50.656a1.034,1.034,0,0,0-1.108.406l-.021.033a8.1,8.1,0,0,1,.372,2.069l.019-.022a10.322,10.322,0,0,1,.751-.848.745.745,0,0,0,.343-.4c.053-.131.094-.236.127-.323a.909.909,0,0,0-.483-.917" fill="#a38a78"/>
          <path id="Trazado_194907" data-name="Trazado 194907" d="M155.343,56.746l-.413-.557-.2-.716.048-.366.376.309a2.956,2.956,0,0,0,0,.921c.088.337.422.3.407-.008a3.494,3.494,0,0,1,.091-1,4.851,4.851,0,0,0-.3-1.014,2.036,2.036,0,0,0-.537-.807,5.947,5.947,0,0,0-1.545.2c0,.1.006.2.01.3-.049.442-.144,1.235-.215,1.5-.1.38.39,1.064.6,1.273s.335.072.335.072.383.449.67.345a.967.967,0,0,0,.479.045s.334.175.448.1c.213-.116-.258-.6-.258-.6" fill="#a38a78"/>
          <path id="Trazado_194908" data-name="Trazado 194908" d="M153.107,52.583l.06,1.254,1.9-.2-.054-1.14a16.169,16.169,0,0,1-1.9.082" fill="#d2ecfa"/>
          <path id="Trazado_194909" data-name="Trazado 194909" d="M155.509,41.7c-.053-.306-.122-.622-.249-1.1-.455-1.728-1.421-6.317-1.421-6.317-.88-.218-.974,3.127-1.093,4.289-.245,2.374-.252,5.611-.248,6.593,0,.012-.006.024-.007.037-.074,3.3.366,7.426.42,8.263l2.233-.2c-.03-1.339.059-6.934.073-7.816l0-.019c0-.031.16-1.57.309-2.667a3.431,3.431,0,0,0-.019-1.056" fill="#231916"/>
          <path id="Trazado_194910" data-name="Trazado 194910" d="M182.909,78.9c-.162-.925-1.195-.8-1.991-.8a2.69,2.69,0,0,0-2.058.881,3.786,3.786,0,0,0-.614,2.441c.014.5.5,3.452,2.672,3.452s2.658-2.956,2.673-3.452c.029-.975.093-2.251-.682-2.518" fill="#6a3907"/>
          <path id="Trazado_194911" data-name="Trazado 194911" d="M183.57,81.935a.308.308,0,0,0-.157.017c-.082.325-.173.6-.173.6a8.857,8.857,0,0,0-.013-1.273,14.6,14.6,0,0,1-.756-1.779c-.388.589-3.27,1.438-3.27,1.438s.4-.308.86-.734c-.448.1-.943.207-1.474.3-.063.12.009,2.047.009,2.047s-.088-.264-.168-.578a.283.283,0,0,0-.195-.042c-.232.028-.135,1.35.462,1.754a3.153,3.153,0,0,0,.382,1.041,1.913,1.913,0,0,0,3.648,0,3.107,3.107,0,0,0,.382-1.041c.6-.4.694-1.726.463-1.754" fill="#f7c5ab"/>
          <path id="Trazado_194912" data-name="Trazado 194912" d="M185.505,138.492h0a1.183,1.183,0,0,0-.319-.949,3.558,3.558,0,0,1-.3-.948c-.311-1.191-2.867-1.175-2.988.118-.073.775-.235,1.49-.237,1.779h0c.007.149,0,1.022,0,1.022h3.858l0-.865a.572.572,0,0,0-.019-.157" fill="#231916"/>
          <path id="Trazado_194913" data-name="Trazado 194913" d="M176.341,138.492h0a1.182,1.182,0,0,1,.319-.949,3.558,3.558,0,0,0,.3-.948c.311-1.191,2.867-1.175,2.988.118.073.775.235,1.49.237,1.779h0c-.007.149,0,1.022,0,1.022h-3.858l0-.865a.572.572,0,0,1,.019-.157" fill="#231916"/>
          <path id="Trazado_194914" data-name="Trazado 194914" d="M180.906,103.61h4.923a61.142,61.142,0,0,1,.248,6.255c.092,5.915-.358,10.107-.432,12.483,0,.025,0-.025,0,0,0,0-.043,1.861-.114,4.684-.1,3.886-.415,9.818-.415,9.818l-1.056.474-2.289-.474s-.287-9.071-.337-10.1c-.023-.475.062-4.861.045-5.023-.172-1.655-.552-11.573-.552-11.573Z" fill="#231916"/>
          <path id="Trazado_194915" data-name="Trazado 194915" d="M180.94,103.61h-4.923a61.142,61.142,0,0,0-.248,6.255c-.092,5.915.359,10.107.432,12.483,0,.025,0-.025,0,0,0,0,.043,1.861.114,4.684.1,3.886.415,9.818.415,9.818l1.056.474,2.289-.474s.287-9.071.337-10.1c.023-.475-.062-4.861-.045-5.023.172-1.655.552-11.573.552-11.573Z" fill="#231916"/>
          <path id="Trazado_194916" data-name="Trazado 194916" d="M180.919,97.606s1.754-8.655,1.786-11.427a.432.432,0,0,0-.037-.182,5.1,5.1,0,0,0-3.5,0,.432.432,0,0,0-.037.182c.032,2.772,1.786,11.427,1.786,11.427" fill="#231916"/>
          <path id="Trazado_194917" data-name="Trazado 194917" d="M182.7,86.179c.008-.684-1.382-.682-1.786-.681s-1.793,0-1.786.681c.032,2.772,1.786,11.427,1.786,11.427s1.755-8.655,1.786-11.427" fill="#fff"/>
          <path id="Trazado_194918" data-name="Trazado 194918" d="M181.135,88.555a3.129,3.129,0,0,1,.458-.99l-.689-.636-.693.63a3.126,3.126,0,0,1,.451,1,4.932,4.932,0,0,0-.648,1.532c0,.03-.026.985-.063,2.352.47,2.713.967,5.167.967,5.167s.474-2.337.933-4.97c-.039-1.472-.068-2.518-.068-2.549a4.933,4.933,0,0,0-.648-1.532" fill="#8b000f"/>
          <path id="Trazado_194919" data-name="Trazado 194919" d="M183.31,110.661h3.207c-.017-.713-.648-10.3-.648-11.5,0-.667,1.227-6.369,1.525-9.166a12.118,12.118,0,0,0,.484-1.811s-3.249-1.08-4.545-1.551c0,0-.68-.71-.671-.675.257.967-1.427,8.624-2.05,11.151l-.006,10.7a2.778,2.778,0,0,0,2.7,2.848" fill="#231916"/>
          <path id="Trazado_194920" data-name="Trazado 194920" d="M178.527,110.661H175.32c.017-.713.648-10.3.648-11.5,0-.667-1.227-6.369-1.525-9.166a12.12,12.12,0,0,1-.484-1.811s3.249-1.08,4.545-1.551c0,0,.68-.71.671-.675-.257.967,1.427,8.624,2.05,11.151l.006,10.7a2.778,2.778,0,0,1-2.7,2.848" fill="#231916"/>
          <path id="Trazado_194921" data-name="Trazado 194921" d="M189,100.619h0c-.1-3.125-.3-9.085-.443-10.512-.214-2.081-1.006-2.393-1.324-1.733a17.358,17.358,0,0,0-1.409,6.952c.09,1.454.355,4.093.46,5.293h0c-.119,1.853.231,6.9.318,8.988.183.134,2.28.286,2.525-.063.034-.836.133-6.183-.128-8.925" fill="#231916"/>
          <path id="Trazado_194922" data-name="Trazado 194922" d="M180.919,87.078c-.025,0,.025,0,0,0" fill="#f7c5ab"/>
          <path id="Trazado_194923" data-name="Trazado 194923" d="M180.919,87.078c-.025,0,.025,0,0,0" fill="#f7c5ab"/>
          <path id="Trazado_194924" data-name="Trazado 194924" d="M182.6,86.079l-.052-1.071c-.087-.676-1.264-.6-1.634-.6s-1.547-.075-1.634.6l-.051,1.071c-.014.244,1.289.822,1.685.85.4-.028,1.7-.606,1.686-.85" fill="#f7c5ab"/>
          <path id="Trazado_194925" data-name="Trazado 194925" d="M188.885,109.8c0-.119.009-.219.014-.456a4.234,4.234,0,0,0-2.012.011c-.007.2-.015.323-.026.545.312.118,2.01.162,2.024-.1" fill="#fff"/>
          <path id="Trazado_194926" data-name="Trazado 194926" d="M185.526,139.515H182a5.886,5.886,0,0,1,1.874-.548,4.617,4.617,0,0,1,1.649.548" fill="#804f21"/>
          <path id="Trazado_194927" data-name="Trazado 194927" d="M176.32,139.515h3.523a5.886,5.886,0,0,0-1.874-.548,4.625,4.625,0,0,0-1.649.548" fill="#804f21"/>
          <path id="Trazado_194928" data-name="Trazado 194928" d="M176.06,95.326a17.353,17.353,0,0,0-1.409-6.952c-.318-.661-1.11-.349-1.324,1.733-.146,1.427-.339,7.387-.444,10.512h0c-.261,2.742-.162,8.089-.128,8.924.245.349,2.342.2,2.525.063.087-2.091.437-7.135.318-8.987h0c.1-1.2.369-3.84.46-5.293" fill="#231916"/>
          <path id="Trazado_194929" data-name="Trazado 194929" d="M173,109.8c0-.119-.009-.219-.014-.456a4.234,4.234,0,0,1,2.012.011c.007.2.015.323.026.545-.312.118-2.01.162-2.024-.1" fill="#fff"/>
          <path id="Trazado_194930" data-name="Trazado 194930" d="M174.823,109.7a2.808,2.808,0,0,1,.277,1.655c-.1.561.1,1.625-.043,1.708s-.133-.016-.013.205.618,1.52.293,1.433a6.479,6.479,0,0,1-1.459-1.1,5.379,5.379,0,0,1-.679-1.65,3.685,3.685,0,0,1-.1-2.08c.081-.524,1.616-.419,1.728-.17" fill="#f7c5ab"/>
          <path id="Trazado_194931" data-name="Trazado 194931" d="M187.063,109.7a2.808,2.808,0,0,0-.277,1.655c.1.561-.1,1.625.043,1.708s.133-.016.013.205-.618,1.52-.293,1.433a6.479,6.479,0,0,0,1.459-1.1,5.379,5.379,0,0,0,.679-1.65,3.685,3.685,0,0,0,.1-2.08c-.081-.524-1.616-.419-1.728-.17" fill="#f7c5ab"/>
        </g>
      </g>
    </g>
  </g>
</svg>
