<svg xmlns="http://www.w3.org/2000/svg" xmlns:xlink="http://www.w3.org/1999/xlink" width="205.313" height="145.901" viewBox="0 0 205.313 145.901">
  <defs>
    <filter id="Rectángulo_45414" x="0" y="96.639" width="205.313" height="49.262" filterUnits="userSpaceOnUse">
      <feOffset dy="3" input="SourceAlpha"/>
      <feGaussianBlur stdDeviation="3" result="blur"/>
      <feFlood flood-opacity="0.161"/>
      <feComposite operator="in" in2="blur"/>
      <feComposite in="SourceGraphic"/>
    </filter>
    <clipPath id="clip-path">
      <rect id="Rectángulo_45413" data-name="Rectángulo 45413" width="127.707" height="109.269" fill="none"/>
    </clipPath>
  </defs>
  <g id="Grupo_153186" data-name="Grupo 153186" transform="translate(-739.169 -4594.409)">
    <g id="Grupo_153184" data-name="Grupo 153184" transform="translate(902.384 4594.409)">
      <g id="Grupo_152551" data-name="Grupo 152551" transform="translate(0 92.458) rotate(-90)">
        <rect id="Rectángulo_45220" data-name="Rectángulo 45220" width="66.773" height="19.884" transform="translate(92.458 19.884) rotate(180)" fill="#e8e8e8"/>
        <g id="Grupo_152556" data-name="Grupo 152556" transform="translate(0 11.014)">
          <rect id="Rectángulo_45221" data-name="Rectángulo 45221" width="3.379" height="3.379" transform="translate(71.799 14.36)" fill="#7f4fc7"/>
          <rect id="Rectángulo_45222" data-name="Rectángulo 45222" width="3.379" height="3.379" transform="translate(64.619 14.36)" fill="#7f4fc7"/>
          <rect id="Rectángulo_45223" data-name="Rectángulo 45223" width="3.379" height="3.379" transform="translate(57.439 14.36)" fill="#7f4fc7"/>
          <rect id="Rectángulo_45224" data-name="Rectángulo 45224" width="3.379" height="3.379" transform="translate(50.259 14.36)" fill="#7f4fc7"/>
          <rect id="Rectángulo_45225" data-name="Rectángulo 45225" width="3.379" height="3.379" transform="translate(43.079 14.36)" fill="#7f4fc7"/>
          <rect id="Rectángulo_45226" data-name="Rectángulo 45226" width="3.379" height="3.379" transform="translate(35.899 14.36)" fill="#7f4fc7"/>
          <rect id="Rectángulo_45227" data-name="Rectángulo 45227" width="3.379" height="3.379" transform="translate(28.719 14.36)" fill="#7f4fc7"/>
          <rect id="Rectángulo_45228" data-name="Rectángulo 45228" width="3.379" height="3.379" transform="translate(21.54 14.36)" fill="#7f4fc7"/>
          <rect id="Rectángulo_45229" data-name="Rectángulo 45229" width="3.379" height="3.379" transform="translate(14.36 14.36)" fill="#7f4fc7"/>
          <rect id="Rectángulo_45230" data-name="Rectángulo 45230" width="3.379" height="3.379" transform="translate(7.18 14.36)" fill="#7f4fc7"/>
          <rect id="Rectángulo_45231" data-name="Rectángulo 45231" width="3.379" height="3.379" transform="translate(0 14.36)" fill="#7f4fc7"/>
          <rect id="Rectángulo_45232" data-name="Rectángulo 45232" width="3.379" height="3.379" transform="translate(71.799 7.18)" fill="#7f4fc7"/>
          <rect id="Rectángulo_45233" data-name="Rectángulo 45233" width="3.379" height="3.379" transform="translate(64.619 7.18)" fill="#7f4fc7"/>
          <rect id="Rectángulo_45234" data-name="Rectángulo 45234" width="3.379" height="3.379" transform="translate(57.439 7.18)" fill="#7f4fc7"/>
          <rect id="Rectángulo_45235" data-name="Rectángulo 45235" width="3.379" height="3.379" transform="translate(50.259 7.18)" fill="#7f4fc7"/>
          <rect id="Rectángulo_45236" data-name="Rectángulo 45236" width="3.379" height="3.379" transform="translate(43.079 7.18)" fill="#7f4fc7"/>
          <rect id="Rectángulo_45237" data-name="Rectángulo 45237" width="3.379" height="3.379" transform="translate(35.899 7.18)" fill="#7f4fc7"/>
          <rect id="Rectángulo_45238" data-name="Rectángulo 45238" width="3.379" height="3.379" transform="translate(28.719 7.18)" fill="#7f4fc7"/>
          <rect id="Rectángulo_45239" data-name="Rectángulo 45239" width="3.379" height="3.379" transform="translate(21.54 7.18)" fill="#7f4fc7"/>
          <rect id="Rectángulo_45240" data-name="Rectángulo 45240" width="3.379" height="3.379" transform="translate(14.36 7.18)" fill="#7f4fc7"/>
          <rect id="Rectángulo_45241" data-name="Rectángulo 45241" width="3.379" height="3.379" transform="translate(7.18 7.18)" fill="#7f4fc7"/>
          <rect id="Rectángulo_45242" data-name="Rectángulo 45242" width="3.379" height="3.379" transform="translate(0 7.18)" fill="#7f4fc7"/>
          <rect id="Rectángulo_45243" data-name="Rectángulo 45243" width="3.379" height="3.379" transform="translate(71.799 0)" fill="#7f4fc7"/>
          <rect id="Rectángulo_45244" data-name="Rectángulo 45244" width="3.379" height="3.379" transform="translate(64.619 0)" fill="#7f4fc7"/>
          <rect id="Rectángulo_45245" data-name="Rectángulo 45245" width="3.379" height="3.379" transform="translate(57.439 0)" fill="#7f4fc7"/>
          <rect id="Rectángulo_45246" data-name="Rectángulo 45246" width="3.379" height="3.379" transform="translate(50.259 0)" fill="#7f4fc7"/>
          <rect id="Rectángulo_45247" data-name="Rectángulo 45247" width="3.379" height="3.379" transform="translate(43.079 0)" fill="#7f4fc7"/>
          <rect id="Rectángulo_45248" data-name="Rectángulo 45248" width="3.379" height="3.379" transform="translate(35.899 0)" fill="#7f4fc7"/>
          <rect id="Rectángulo_45249" data-name="Rectángulo 45249" width="3.379" height="3.379" transform="translate(28.719 0)" fill="#7f4fc7"/>
          <rect id="Rectángulo_45250" data-name="Rectángulo 45250" width="3.379" height="3.379" transform="translate(21.54 0)" fill="#7f4fc7"/>
          <rect id="Rectángulo_45251" data-name="Rectángulo 45251" width="3.379" height="3.379" transform="translate(14.36 0)" fill="#7f4fc7"/>
          <rect id="Rectángulo_45252" data-name="Rectángulo 45252" width="3.379" height="3.379" transform="translate(7.18 0)" fill="#7f4fc7"/>
          <rect id="Rectángulo_45253" data-name="Rectángulo 45253" width="3.379" height="3.379" transform="translate(0 0)" fill="#7f4fc7"/>
        </g>
      </g>
    </g>
    <g transform="matrix(1, 0, 0, 1, 739.17, 4594.41)" filter="url(#Rectángulo_45414)">
      <rect id="Rectángulo_45414-2" data-name="Rectángulo 45414" width="31.262" height="187.313" rx="7" transform="translate(196.31 102.64) rotate(90)" fill="#008cff"/>
    </g>
    <g id="Grupo_153185" data-name="Grupo 153185" transform="translate(775.594 4605.553)">
      <g id="Grupo_153185-2" data-name="Grupo 153185" transform="translate(0)" clip-path="url(#clip-path)">
        <path id="Trazado_194941" data-name="Trazado 194941" d="M112,58.129H76.809V45.743c0-3.918,3.5-6.106,7.457-7.124a40.75,40.75,0,0,1,20.281,0c3.969.985,7.456,3.207,7.456,7.124Z" transform="translate(-30.552 -14.852)" fill="#76e2f8" fill-rule="evenodd"/>
        <path id="Trazado_194942" data-name="Trazado 194942" d="M123.626,58.129h-17.6V37.337a42.39,42.39,0,0,1,10.141,1.282c3.969.985,7.456,3.207,7.456,7.124Z" transform="translate(-42.175 -14.852)" fill="#3aaaff" fill-rule="evenodd"/>
        <path id="Trazado_194943" data-name="Trazado 194943" d="M85.518,63.864V53.412a1.657,1.657,0,1,1,3.314,0V63.864Z" transform="translate(-34.017 -20.587)" fill="#45d8f6" fill-rule="evenodd"/>
        <path id="Trazado_194944" data-name="Trazado 194944" d="M121.037,63.864V53.412a1.657,1.657,0,1,1,3.314,0V63.864Z" transform="translate(-48.145 -20.587)" fill="#0794ff" fill-rule="evenodd"/>
        <path id="Trazado_194945" data-name="Trazado 194945" d="M100.582,37.372,96.9,51.035l5.5,5.756,5.5-5.756L104.21,37.372C103.005,37.32,101.787,37.32,100.582,37.372Z" transform="translate(-38.543 -14.85)" fill="#eceff1" fill-rule="evenodd"/>
        <path id="Trazado_194946" data-name="Trazado 194946" d="M106.028,37.337q.906,0,1.814.037l3.684,13.663-5.5,5.756Z" transform="translate(-42.175 -14.852)" fill="#c4cccf" fill-rule="evenodd"/>
        <path id="Trazado_194947" data-name="Trazado 194947" d="M100.8,3.513c4.373,0,7.918,2.493,7.918,8.24s-3.545,10.408-7.918,10.408S92.88,17.5,92.88,11.753,96.425,3.513,100.8,3.513Z" transform="translate(-36.945 -1.397)" fill="#f6dccd" fill-rule="evenodd"/>
        <path id="Trazado_194948" data-name="Trazado 194948" d="M106.029,3.513c4.373,0,7.918,2.493,7.918,8.24s-3.545,10.408-7.918,10.408Z" transform="translate(-42.175 -1.397)" fill="#f1cbbc" fill-rule="evenodd"/>
        <path id="Trazado_194949" data-name="Trazado 194949" d="M32.153,167.22V156.884c0-3.268-2.911-5.123-6.222-5.945a34.021,34.021,0,0,0-16.926,0c-3.3.85-6.222,2.676-6.222,5.945V167.22Z" transform="translate(-1.107 -59.613)" fill="#73cbb1" fill-rule="evenodd"/>
        <path id="Trazado_194950" data-name="Trazado 194950" d="M41.853,167.22V156.884c0-3.268-2.911-5.123-6.222-5.945a35.381,35.381,0,0,0-8.463-1.07V167.22Z" transform="translate(-10.807 -59.613)" fill="#539499" fill-rule="evenodd"/>
        <path id="Trazado_194951" data-name="Trazado 194951" d="M11.8,172.69v-7.83a1.241,1.241,0,0,1,2.483,0v7.83Z" transform="translate(-4.694 -65.083)" fill="#4ebd9c" fill-rule="evenodd"/>
        <path id="Trazado_194952" data-name="Trazado 194952" d="M38.41,172.69v-7.83a1.241,1.241,0,0,1,2.483,0v7.83Z" transform="translate(-15.278 -65.083)" fill="#498388" fill-rule="evenodd"/>
        <path id="Trazado_194953" data-name="Trazado 194953" d="M22.8,121.643c3.65,0,6.608,2.08,6.608,6.877s-2.958,8.685-6.608,8.685-6.608-3.889-6.608-8.685,2.959-6.877,6.608-6.877" transform="translate(-6.441 -48.386)" fill="#f6dccd" fill-rule="evenodd"/>
        <path id="Trazado_194954" data-name="Trazado 194954" d="M27.167,121.643c3.65,0,6.608,2.08,6.608,6.877s-2.958,8.685-6.608,8.685Z" transform="translate(-10.806 -48.386)" fill="#f1cbbc" fill-rule="evenodd"/>
        <path id="Trazado_194955" data-name="Trazado 194955" d="M111.014,167.22V156.884c0-3.268-2.911-5.123-6.222-5.945a34.021,34.021,0,0,0-16.926,0c-3.3.85-6.222,2.676-6.222,5.945V167.22Z" transform="translate(-32.476 -59.613)" fill="#73cbb1" fill-rule="evenodd"/>
        <path id="Trazado_194956" data-name="Trazado 194956" d="M120.713,167.22V156.884c0-3.268-2.911-5.123-6.222-5.945a35.382,35.382,0,0,0-8.463-1.07V167.22Z" transform="translate(-42.175 -59.613)" fill="#539499" fill-rule="evenodd"/>
        <path id="Trazado_194957" data-name="Trazado 194957" d="M90.664,172.69v-7.83a1.242,1.242,0,0,1,2.483,0v7.83Z" transform="translate(-36.063 -65.083)" fill="#4ebd9c" fill-rule="evenodd"/>
        <path id="Trazado_194958" data-name="Trazado 194958" d="M117.271,172.69v-7.83a1.241,1.241,0,0,1,2.483,0v7.83Z" transform="translate(-46.647 -65.083)" fill="#498388" fill-rule="evenodd"/>
        <path id="Trazado_194959" data-name="Trazado 194959" d="M101.664,121.643c3.65,0,6.608,2.08,6.608,6.877s-2.959,8.685-6.608,8.685-6.608-3.889-6.608-8.685,2.959-6.877,6.608-6.877" transform="translate(-37.81 -48.386)" fill="#f6dccd" fill-rule="evenodd"/>
        <path id="Trazado_194960" data-name="Trazado 194960" d="M106.029,121.643c3.65,0,6.608,2.08,6.608,6.877s-2.959,8.685-6.608,8.685Z" transform="translate(-42.175 -48.386)" fill="#f1cbbc" fill-rule="evenodd"/>
        <path id="Trazado_194961" data-name="Trazado 194961" d="M189.76,167.22V156.884c0-3.268-2.911-5.123-6.222-5.945a34.021,34.021,0,0,0-16.926,0c-3.3.85-6.222,2.676-6.222,5.945V167.22Z" transform="translate(-63.798 -59.613)" fill="#73cbb1" fill-rule="evenodd"/>
        <path id="Trazado_194962" data-name="Trazado 194962" d="M199.459,167.22V156.884c0-3.268-2.911-5.123-6.222-5.945a35.382,35.382,0,0,0-8.463-1.07V167.22Z" transform="translate(-73.498 -59.613)" fill="#539499" fill-rule="evenodd"/>
        <path id="Trazado_194963" data-name="Trazado 194963" d="M169.409,172.69v-7.83a1.242,1.242,0,0,1,2.483,0v7.83Z" transform="translate(-67.386 -65.083)" fill="#4ebd9c" fill-rule="evenodd"/>
        <path id="Trazado_194964" data-name="Trazado 194964" d="M196.017,172.69v-7.83a1.241,1.241,0,0,1,2.483,0v7.83Z" transform="translate(-77.97 -65.083)" fill="#498388" fill-rule="evenodd"/>
        <path id="Trazado_194965" data-name="Trazado 194965" d="M180.41,121.643c3.65,0,6.608,2.08,6.608,6.877s-2.958,8.685-6.608,8.685-6.609-3.889-6.609-8.685,2.959-6.877,6.609-6.877" transform="translate(-69.133 -48.386)" fill="#f6dccd" fill-rule="evenodd"/>
        <path id="Trazado_194966" data-name="Trazado 194966" d="M184.775,121.643c3.65,0,6.608,2.08,6.608,6.877s-2.958,8.685-6.608,8.685Z" transform="translate(-73.498 -48.386)" fill="#f1cbbc" fill-rule="evenodd"/>
        <path id="Trazado_194967" data-name="Trazado 194967" d="M25.389,90.425a38.539,38.539,0,0,0-4.661-.853,11.151,11.151,0,0,0,4.109-8.98c0-5.244-3.283-8.632-8.363-8.632s-8.363,3.389-8.363,8.632a11.154,11.154,0,0,0,4.1,8.97,35.69,35.69,0,0,0-4.663.867C2.75,91.662,0,94.447,0,98.072v9.47a1.726,1.726,0,1,0,3.451,0v-9.47c0-2.5,2.693-3.719,4.953-4.3a32.632,32.632,0,0,1,16.154,0c1.844.457,4.939,1.624,4.939,4.3v9.47a1.726,1.726,0,1,0,3.451,0v-9.47c0-3.669-2.755-6.456-7.559-7.647M16.475,75.412c2.24,0,4.911.9,4.911,5.181,0,3.792-2.249,7-4.911,7s-4.911-3.2-4.911-7c0-4.282,2.67-5.181,4.911-5.181M72.768,90.425a38.518,38.518,0,0,0-4.661-.853,11.15,11.15,0,0,0,4.109-8.979c0-5.244-3.282-8.632-8.363-8.632s-8.363,3.389-8.363,8.632a11.155,11.155,0,0,0,4.1,8.97,35.82,35.82,0,0,0-4.662.867c-4.8,1.232-7.546,4.017-7.546,7.642v9.47a1.726,1.726,0,1,0,3.451,0v-9.47c0-2.5,2.694-3.719,4.953-4.3a32.66,32.66,0,0,1,16.154,0c1.844.457,4.938,1.624,4.938,4.3v9.47a1.726,1.726,0,1,0,3.451,0v-9.47c0-3.668-2.755-6.454-7.56-7.647M63.853,75.412c2.24,0,4.911.9,4.911,5.181,0,3.792-2.249,7-4.911,7s-4.911-3.2-4.911-7c0-4.282,2.67-5.181,4.911-5.181m56.294,15.014a38.517,38.517,0,0,0-4.661-.853,11.151,11.151,0,0,0,4.11-8.979c0-5.244-3.283-8.632-8.363-8.632s-8.363,3.389-8.363,8.632a11.154,11.154,0,0,0,4.1,8.97,35.829,35.829,0,0,0-4.663.867c-4.795,1.232-7.545,4.017-7.545,7.642v9.47a1.726,1.726,0,1,0,3.452,0v-9.47c0-2.5,2.693-3.719,4.953-4.3a32.632,32.632,0,0,1,16.154,0c1.844.457,4.938,1.624,4.938,4.3v9.47a1.726,1.726,0,0,0,3.452,0v-9.47c0-3.668-2.756-6.456-7.56-7.647m-8.915-15.014c2.242,0,4.912.9,4.912,5.181,0,3.792-2.249,7-4.912,7s-4.911-3.2-4.911-7c0-4.282,2.67-5.181,4.911-5.181m-96.483-9.6V56.7a1.726,1.726,0,0,1,1.726-1.725H62.128V48.588a1.726,1.726,0,0,1,3.451,0V54.97h45.654a1.725,1.725,0,0,1,1.725,1.725v9.116a1.726,1.726,0,0,1-3.451,0v-7.39H65.579v7.39a1.726,1.726,0,0,1-3.451,0v-7.39H18.2v7.39a1.726,1.726,0,0,1-3.452,0m31.431-20.7a1.725,1.725,0,0,0,1.726-1.725V30.949c0-3.216,3.368-4.757,6.193-5.484a38.83,38.83,0,0,1,5.634-1l-3.067,11.35a1.726,1.726,0,0,0,.418,1.642l5.522,5.781a1.724,1.724,0,0,0,2.5,0l5.523-5.781a1.725,1.725,0,0,0,.418-1.642L67.979,24.481a41.953,41.953,0,0,1,5.644.987c2.308.572,6.179,2.045,6.179,5.48v12.44a1.726,1.726,0,0,0,3.451,0V30.949c0-4.225-3.207-7.444-8.8-8.83a45.329,45.329,0,0,0-6.5-1.1c3.288-1.949,5.574-6.146,5.574-11.012,0-6.169-3.709-10-9.68-10s-9.678,3.833-9.678,10c0,4.857,2.277,9.046,5.553,11a42.248,42.248,0,0,0-6.489,1.12c-5.665,1.457-8.784,4.592-8.784,8.826v12.44A1.724,1.724,0,0,0,46.18,45.114Zm21.277-9.336-3.6,3.772-3.6-3.772,3.115-11.526c.325,0,.65,0,.977.006ZM57.626,10c0-5.7,3.9-6.55,6.227-6.55S70.081,4.3,70.081,10c0,4.812-2.794,8.727-6.228,8.727S57.626,14.814,57.626,10Z" fill-rule="evenodd"/>
      </g>
    </g>
  </g>
</svg>
