<svg xmlns="http://www.w3.org/2000/svg" xmlns:xlink="http://www.w3.org/1999/xlink" width="337.94" height="265.339" viewBox="0 0 337.94 265.339">
  <defs>
    <filter id="Rectángulo_45262" x="0" y="202.164" width="337.94" height="63.175" filterUnits="userSpaceOnUse">
      <feOffset dy="3" input="SourceAlpha"/>
      <feGaussianBlur stdDeviation="3" result="blur"/>
      <feFlood flood-opacity="0.161"/>
      <feComposite operator="in" in2="blur"/>
      <feComposite in="SourceGraphic"/>
    </filter>
    <clipPath id="clip-path">
      <rect id="Rectángulo_45871" data-name="Rectángulo 45871" width="256.751" height="241.931" fill="none"/>
    </clipPath>
    <clipPath id="clip-path-3">
      <rect id="Rectángulo_45850" data-name="Rectángulo 45850" width="3.875" height="12.74" fill="none"/>
    </clipPath>
    <clipPath id="clip-path-4">
      <rect id="Rectángulo_45851" data-name="Rectángulo 45851" width="2.418" height="1.547" fill="none"/>
    </clipPath>
    <clipPath id="clip-path-5">
      <rect id="Rectángulo_45862" data-name="Rectángulo 45862" width="11.381" height="11.889" fill="none"/>
    </clipPath>
    <clipPath id="clip-path-6">
      <rect id="Rectángulo_45863" data-name="Rectángulo 45863" width="3.845" height="10.445" fill="none"/>
    </clipPath>
    <clipPath id="clip-path-7">
      <rect id="Rectángulo_45864" data-name="Rectángulo 45864" width="9.664" height="14.308" fill="none"/>
    </clipPath>
    <clipPath id="clip-path-8">
      <rect id="Rectángulo_45865" data-name="Rectángulo 45865" width="49.282" height="33.346" fill="none"/>
    </clipPath>
    <clipPath id="clip-path-9">
      <rect id="Rectángulo_45866" data-name="Rectángulo 45866" width="2.067" height="9.495" fill="none"/>
    </clipPath>
  </defs>
  <g id="Grupo_154562" data-name="Grupo 154562" transform="translate(-277 -13063.937)">
    <g id="Grupo_152705" data-name="Grupo 152705" transform="translate(75.106 10863.241)">
      <g transform="matrix(1, 0, 0, 1, 201.89, 2200.7)" filter="url(#Rectángulo_45262)">
        <rect id="Rectángulo_45262-2" data-name="Rectángulo 45262" width="45.175" height="319.94" rx="13" transform="translate(328.94 208.16) rotate(90)" fill="#2194e5"/>
      </g>
      <g id="Grupo_152570" data-name="Grupo 152570" transform="translate(209.894 2216.504)">
        <g id="Grupo_152551" data-name="Grupo 152551" transform="translate(0 110.318) rotate(-90)">
          <rect id="Rectángulo_45220" data-name="Rectángulo 45220" width="79.672" height="23.725" transform="translate(110.318 34.307) rotate(180)" fill="#d2c1eb"/>
          <g id="Grupo_152556" data-name="Grupo 152556" transform="translate(0 0)">
            <rect id="Rectángulo_45221" data-name="Rectángulo 45221" width="4.032" height="4.031" transform="translate(85.668)" fill="#7f4fc7"/>
            <rect id="Rectángulo_45222" data-name="Rectángulo 45222" width="4.031" height="4.031" transform="translate(77.102)" fill="#7f4fc7"/>
            <rect id="Rectángulo_45223" data-name="Rectángulo 45223" width="4.031" height="4.031" transform="translate(68.535)" fill="#7f4fc7"/>
            <rect id="Rectángulo_45224" data-name="Rectángulo 45224" width="4.031" height="4.031" transform="translate(59.968)" fill="#7f4fc7"/>
            <rect id="Rectángulo_45225" data-name="Rectángulo 45225" width="4.031" height="4.031" transform="translate(51.401)" fill="#7f4fc7"/>
            <rect id="Rectángulo_45226" data-name="Rectángulo 45226" width="4.031" height="4.031" transform="translate(42.834)" fill="#7f4fc7"/>
            <rect id="Rectángulo_45227" data-name="Rectángulo 45227" width="4.031" height="4.031" transform="translate(34.267)" fill="#7f4fc7"/>
            <rect id="Rectángulo_45228" data-name="Rectángulo 45228" width="4.031" height="4.031" transform="translate(25.701)" fill="#7f4fc7"/>
            <rect id="Rectángulo_45229" data-name="Rectángulo 45229" width="4.032" height="4.031" transform="translate(17.134)" fill="#7f4fc7"/>
            <rect id="Rectángulo_45230" data-name="Rectángulo 45230" width="4.031" height="4.031" transform="translate(8.567)" fill="#7f4fc7"/>
            <rect id="Rectángulo_45231" data-name="Rectángulo 45231" width="4.032" height="4.031" fill="#7f4fc7"/>
            <rect id="Rectángulo_45232" data-name="Rectángulo 45232" width="4.032" height="4.032" transform="translate(85.668 8.567)" fill="#7f4fc7"/>
            <rect id="Rectángulo_45233" data-name="Rectángulo 45233" width="4.031" height="4.032" transform="translate(77.102 8.567)" fill="#7f4fc7"/>
            <rect id="Rectángulo_45234" data-name="Rectángulo 45234" width="4.031" height="4.032" transform="translate(68.535 8.567)" fill="#7f4fc7"/>
            <rect id="Rectángulo_45235" data-name="Rectángulo 45235" width="4.031" height="4.032" transform="translate(59.968 8.567)" fill="#7f4fc7"/>
            <rect id="Rectángulo_45236" data-name="Rectángulo 45236" width="4.031" height="4.032" transform="translate(51.401 8.567)" fill="#7f4fc7"/>
            <rect id="Rectángulo_45237" data-name="Rectángulo 45237" width="4.031" height="4.032" transform="translate(42.834 8.567)" fill="#7f4fc7"/>
            <rect id="Rectángulo_45238" data-name="Rectángulo 45238" width="4.031" height="4.032" transform="translate(34.267 8.567)" fill="#7f4fc7"/>
            <rect id="Rectángulo_45239" data-name="Rectángulo 45239" width="4.031" height="4.032" transform="translate(25.701 8.567)" fill="#7f4fc7"/>
            <rect id="Rectángulo_45240" data-name="Rectángulo 45240" width="4.032" height="4.032" transform="translate(17.134 8.567)" fill="#7f4fc7"/>
            <rect id="Rectángulo_45241" data-name="Rectángulo 45241" width="4.031" height="4.032" transform="translate(8.567 8.567)" fill="#7f4fc7"/>
            <rect id="Rectángulo_45242" data-name="Rectángulo 45242" width="4.032" height="4.032" transform="translate(0 8.567)" fill="#7f4fc7"/>
            <rect id="Rectángulo_45243" data-name="Rectángulo 45243" width="4.032" height="4.031" transform="translate(85.668 17.134)" fill="#7f4fc7"/>
            <rect id="Rectángulo_45244" data-name="Rectángulo 45244" width="4.031" height="4.031" transform="translate(77.102 17.134)" fill="#7f4fc7"/>
            <rect id="Rectángulo_45245" data-name="Rectángulo 45245" width="4.031" height="4.031" transform="translate(68.535 17.134)" fill="#7f4fc7"/>
            <rect id="Rectángulo_45246" data-name="Rectángulo 45246" width="4.031" height="4.031" transform="translate(59.968 17.134)" fill="#7f4fc7"/>
            <rect id="Rectángulo_45247" data-name="Rectángulo 45247" width="4.031" height="4.031" transform="translate(51.401 17.134)" fill="#7f4fc7"/>
            <rect id="Rectángulo_45248" data-name="Rectángulo 45248" width="4.031" height="4.031" transform="translate(42.834 17.134)" fill="#7f4fc7"/>
            <rect id="Rectángulo_45249" data-name="Rectángulo 45249" width="4.031" height="4.031" transform="translate(34.267 17.134)" fill="#7f4fc7"/>
            <rect id="Rectángulo_45250" data-name="Rectángulo 45250" width="4.031" height="4.031" transform="translate(25.701 17.134)" fill="#7f4fc7"/>
            <rect id="Rectángulo_45251" data-name="Rectángulo 45251" width="4.032" height="4.031" transform="translate(17.134 17.134)" fill="#7f4fc7"/>
            <rect id="Rectángulo_45252" data-name="Rectángulo 45252" width="4.031" height="4.031" transform="translate(8.567 17.134)" fill="#7f4fc7"/>
            <rect id="Rectángulo_45253" data-name="Rectángulo 45253" width="4.032" height="4.031" transform="translate(0 17.134)" fill="#7f4fc7"/>
          </g>
        </g>
      </g>
    </g>
    <g id="Grupo_154563" data-name="Grupo 154563" transform="translate(323.111 13063.937)">
      <g id="Grupo_154586" data-name="Grupo 154586" clip-path="url(#clip-path)">
        <rect id="Rectángulo_45832" data-name="Rectángulo 45832" width="9.313" height="21.464" transform="translate(15.429 199.027)" fill="#e5cdeb"/>
        <rect id="Rectángulo_45833" data-name="Rectángulo 45833" width="9.313" height="21.464" transform="translate(47.031 199.027)" fill="#e5cdeb"/>
        <rect id="Rectángulo_45834" data-name="Rectángulo 45834" width="9.313" height="41.001" transform="translate(31.23 179.49)" fill="#efd5f5"/>
        <rect id="Rectángulo_45835" data-name="Rectángulo 45835" width="9.313" height="41.001" transform="translate(62.832 179.49)" fill="#efd5f5"/>
        <rect id="Rectángulo_45836" data-name="Rectángulo 45836" width="9.313" height="39.828" transform="translate(78.634 180.663)" fill="#e5cdeb"/>
        <rect id="Rectángulo_45837" data-name="Rectángulo 45837" width="9.313" height="39.828" transform="translate(110.236 180.663)" fill="#e5cdeb"/>
        <rect id="Rectángulo_45838" data-name="Rectángulo 45838" width="9.313" height="39.828" transform="translate(141.837 180.663)" fill="#e5cdeb"/>
        <rect id="Rectángulo_45839" data-name="Rectángulo 45839" width="9.313" height="60.728" transform="translate(94.435 159.763)" fill="#efd5f5"/>
        <rect id="Rectángulo_45840" data-name="Rectángulo 45840" width="9.313" height="54.786" transform="translate(126.037 165.705)" fill="#efd5f5"/>
        <rect id="Rectángulo_45841" data-name="Rectángulo 45841" width="9.313" height="39.828" transform="translate(188.516 180.663)" fill="#e5cdeb"/>
        <rect id="Rectángulo_45842" data-name="Rectángulo 45842" width="9.313" height="32.184" transform="translate(172.715 188.307)" fill="#efd5f5"/>
        <rect id="Rectángulo_45843" data-name="Rectángulo 45843" width="9.313" height="61.083" transform="translate(221.565 159.408)" fill="#e5cdeb"/>
        <rect id="Rectángulo_45844" data-name="Rectángulo 45844" width="9.313" height="32.184" transform="translate(205.764 188.307)" fill="#efd5f5"/>
        <rect id="Rectángulo_45845" data-name="Rectángulo 45845" width="9.313" height="32.184" transform="translate(237.383 188.307)" fill="#efd5f5"/>
        <rect id="Rectángulo_45846" data-name="Rectángulo 45846" width="9.313" height="46.393" transform="translate(157.638 174.098)" fill="#e5cdeb"/>
        <g id="Grupo_154585" data-name="Grupo 154585">
          <g id="Grupo_154584" data-name="Grupo 154584" clip-path="url(#clip-path)">
            <path id="Trazado_208637" data-name="Trazado 208637" d="M114.968,183.138a2.4,2.4,0,1,1-2.4-2.4,2.4,2.4,0,0,1,2.4,2.4" transform="translate(-14.249 -23.375)" fill="#dac3e0"/>
            <path id="Trazado_208638" data-name="Trazado 208638" d="M112.284,187.2a4.351,4.351,0,1,1,4.351-4.351,4.356,4.356,0,0,1-4.351,4.351m0-8.351a4,4,0,1,0,4,4,4,4,0,0,0-4-4" transform="translate(-13.959 -23.085)" fill="#dac3e0"/>
            <path id="Trazado_208639" data-name="Trazado 208639" d="M114.628,175.382l-.123-4.716,1.177.019-2.2-2.688-2.2,2.713,1.22.007.121,4.652Z" transform="translate(-14.392 -21.727)" fill="#e5cdeb"/>
            <path id="Trazado_208640" data-name="Trazado 208640" d="M25.4,216.97a2.4,2.4,0,1,1-2.4-2.4,2.4,2.4,0,0,1,2.4,2.4" transform="translate(-2.666 -27.751)" fill="#dac3e0"/>
            <path id="Trazado_208641" data-name="Trazado 208641" d="M22.718,221.133a4.351,4.351,0,1,1,4.351-4.351,4.356,4.356,0,0,1-4.351,4.351m0-8.351a4,4,0,1,0,4,4,4,4,0,0,0-4-4" transform="translate(-2.375 -27.474)" fill="#dac3e0"/>
            <path id="Trazado_208642" data-name="Trazado 208642" d="M21.539,200.266l.128,4.9-1.224-.019,2.286,2.794,2.287-2.82-1.269-.008-.125-4.837Z" transform="translate(-2.644 -25.9)" fill="#e5cdeb"/>
            <path id="Trazado_208643" data-name="Trazado 208643" d="M167.12,188.491l.128,4.9-1.224-.019,2.286,2.794,2.287-2.82-1.268-.008L169.2,188.5Z" transform="translate(-21.472 -24.377)" fill="#e5cdeb"/>
            <path id="Trazado_208644" data-name="Trazado 208644" d="M174.5,231.141l-28.051-26.313c-17.772-8.581-45.214-21.228-48.414-21.05-3.585.212-71.612,27.039-97.521,37.357L0,219.854c3.813-1.518,93.411-37.185,97.95-37.452.031,0,.064,0,.1,0,4.979,0,44.563,19.047,49.09,21.233l.171.118,27.413,25.714c5.2-2.745,35.012-18.474,35.52-18.7.176-.078.65-.271,41.644-.267v1.378c-15.724-.011-39.362.035-41.158.185-1.556.789-23.929,12.586-35.8,18.85Z" transform="translate(0 -23.59)" fill="#dac3e0"/>
            <path id="Trazado_208645" data-name="Trazado 208645" d="M170.689,206.468a2.4,2.4,0,1,1-2.4-2.4,2.4,2.4,0,0,1,2.4,2.4" transform="translate(-21.456 -26.393)" fill="#dac3e0"/>
            <path id="Trazado_208646" data-name="Trazado 208646" d="M168,210.631a4.351,4.351,0,1,1,4.351-4.351A4.356,4.356,0,0,1,168,210.631m0-8.351a4,4,0,1,0,4,4,4,4,0,0,0-4-4" transform="translate(-21.165 -26.115)" fill="#dac3e0"/>
            <path id="Trazado_208647" data-name="Trazado 208647" d="M243.83,214.672a2.4,2.4,0,1,1-2.4-2.4,2.4,2.4,0,0,1,2.4,2.4" transform="translate(-30.915 -27.454)" fill="#dac3e0"/>
            <path id="Trazado_208648" data-name="Trazado 208648" d="M241.145,218.835a4.351,4.351,0,1,1,4.351-4.351,4.356,4.356,0,0,1-4.351,4.351m0-8.351a4,4,0,1,0,4,4,4,4,0,0,0-4-4" transform="translate(-30.624 -27.177)" fill="#dac3e0"/>
            <path id="Trazado_208649" data-name="Trazado 208649" d="M240.146,198.681l.128,4.9-1.224-.019,2.286,2.794,2.287-2.82-1.269-.008-.126-4.837Z" transform="translate(-30.916 -25.695)" fill="#e5cdeb"/>
            <path id="Trazado_208650" data-name="Trazado 208650" d="M245.2,143.618a20.962,20.962,0,1,1,21.3,20.718,21.038,21.038,0,0,1-21.3-20.718m30.98-.5a10.022,10.022,0,1,0-9.86,10.23,10.055,10.055,0,0,0,9.86-10.23" transform="translate(-31.711 -15.807)" fill="#efd5f5"/>
            <path id="Trazado_208651" data-name="Trazado 208651" d="M245.2,143.618a21.038,21.038,0,0,1,20.622-21.394L266,133.213a10.069,10.069,0,0,0,.322,20.134l.175,10.988A21.03,21.03,0,0,1,245.2,143.618" transform="translate(-31.711 -15.807)" fill="#dac3e0"/>
            <path id="Trazado_208652" data-name="Trazado 208652" d="M266.723,120.284a23.95,23.95,0,0,1,24.523,23.857l-12.8.206c-.1-6.494-5.046-10.583-11.51-10.479Z" transform="translate(-34.495 -15.556)" fill="#e5cdeb"/>
            <rect id="Rectángulo_45847" data-name="Rectángulo 45847" width="9.442" height="29.488" transform="translate(50.763 4.906)" fill="#e5cdeb"/>
            <rect id="Rectángulo_45848" data-name="Rectángulo 45848" width="9.442" height="22.752" transform="translate(64.86 11.642)" fill="#e5cdeb"/>
            <rect id="Rectángulo_45849" data-name="Rectángulo 45849" width="9.442" height="13.511" transform="translate(77.911 20.883)" fill="#e5cdeb"/>
            <path id="Trazado_208653" data-name="Trazado 208653" d="M191.059,23.7V7.166a16.531,16.531,0,1,1-16.526,16.913Z" transform="translate(-22.572 -0.927)" fill="#e5cdeb"/>
            <path id="Trazado_208654" data-name="Trazado 208654" d="M187.531,16.525,171,16.9A17.437,17.437,0,0,1,175.683,5a16.989,16.989,0,0,1,11.59-5Z" transform="translate(-22.115 0)" fill="#efd5f5"/>
            <path id="Trazado_208655" data-name="Trazado 208655" d="M20.79,129.6l11.571-9.173a14.766,14.766,0,1,1-17.438-4.378Z" transform="translate(-0.783 -15.008)" fill="#efd5f5"/>
            <path id="Trazado_208656" data-name="Trazado 208656" d="M19.375,114.286l4.07,10.7,8.611-7.316s-4.561-4.7-12.68-3.389" transform="translate(-2.506 -14.751)" fill="#dac3e0"/>
            <path id="Trazado_208657" data-name="Trazado 208657" d="M243.489,268.736c0,.078-50.853.141-113.569.141-62.737,0-113.579-.064-113.579-.141s50.842-.141,113.579-.141c62.715,0,113.569.064,113.569.141" transform="translate(-2.114 -34.737)" fill="#263238"/>
            <path id="Trazado_208658" data-name="Trazado 208658" d="M30.826,46.139a10.219,10.219,0,1,0-9.656,14.3L22.2,62.805l8.208-3.584s-.529-1.348-1.028-2.539a10.215,10.215,0,0,0,1.444-10.544" transform="translate(-1.454 -5.174)" fill="#2194e5"/>
            <path id="Trazado_208659" data-name="Trazado 208659" d="M28.385,61.934s-.016-.04-.041-.119l-.11-.355c-.093-.312-.232-.772-.394-1.37s-.351-1.333-.516-2.2a15.114,15.114,0,0,1-.287-2.977,9.738,9.738,0,0,1,.158-1.738,1.9,1.9,0,0,1,.389-.855,1.054,1.054,0,0,1,.9-.359.7.7,0,0,1,.459.241.715.715,0,0,1,.171.5,1.453,1.453,0,0,1-.452.939,2.79,2.79,0,0,1-2.007.712,2.829,2.829,0,0,1-2-.985,2.137,2.137,0,0,1-.527-1.056.917.917,0,0,1,.567-1.022.659.659,0,0,1,.621.122.925.925,0,0,1,.327.544,2,2,0,0,1-.252,1.218,3.048,3.048,0,0,1-1.906,1.586,2.657,2.657,0,0,1-2.4-.559,1.545,1.545,0,0,1-.559-1.107.785.785,0,0,1,.23-.594.769.769,0,0,1,.6-.2,1.017,1.017,0,0,1,.575.239,1.575,1.575,0,0,1,.379.477,2.949,2.949,0,0,1,.325,1.132A3.042,3.042,0,0,1,22,56.3a3.1,3.1,0,0,1-1.822,1.113,1.62,1.62,0,0,1-1.038-.079.791.791,0,0,1-.446-.879.665.665,0,0,1,.331-.389.968.968,0,0,1,.485-.109,1.483,1.483,0,0,1,.853.393c.457.4.862.816,1.259,1.2,1.573,1.56,2.784,2.884,3.61,3.806.413.461.728.825.94,1.072l.24.283c.053.064.078.1.078.1s-.031-.03-.088-.091-.143-.157-.249-.275l-.959-1.055c-.837-.912-2.057-2.225-3.636-3.776-.4-.383-.809-.8-1.257-1.192a1.385,1.385,0,0,0-.8-.367.612.612,0,0,0-.318,1.181,1.515,1.515,0,0,0,.969.066,2.983,2.983,0,0,0,1.752-1.075,2.927,2.927,0,0,0,.606-2.065,2.828,2.828,0,0,0-.313-1.085,1.11,1.11,0,0,0-.856-.65.643.643,0,0,0-.5.165.658.658,0,0,0-.191.5,1.423,1.423,0,0,0,.517,1.015,2.534,2.534,0,0,0,2.286.531,2.927,2.927,0,0,0,1.826-1.521,1.884,1.884,0,0,0,.242-1.138.8.8,0,0,0-.282-.472.536.536,0,0,0-.507-.1.717.717,0,0,0-.4.353.88.88,0,0,0-.084.536,2.025,2.025,0,0,0,.5.993,2.718,2.718,0,0,0,1.919.948,2.689,2.689,0,0,0,1.924-.676,1.347,1.347,0,0,0,.421-.863.6.6,0,0,0-.535-.634.957.957,0,0,0-.813.323,1.8,1.8,0,0,0-.37.809,9.639,9.639,0,0,0-.164,1.718,15.188,15.188,0,0,0,.268,2.964c.158.864.34,1.6.495,2.2s.285,1.056.371,1.376l.1.359c.021.08.029.123.029.123" transform="translate(-2.414 -6.629)" fill="#263238"/>
            <path id="Trazado_208660" data-name="Trazado 208660" d="M32.127,63.974,25.08,67.051a.577.577,0,1,1-.462-1.058l7.048-3.077a.577.577,0,0,1,.461,1.058" transform="translate(-3.139 -8.131)" fill="#263238"/>
            <path id="Trazado_208661" data-name="Trazado 208661" d="M32.427,64.662,25.38,67.739a.577.577,0,0,0,.461,1.058l.774-.338,1.879,1.505a.742.742,0,0,0,.76.1l2.518-1.1a.74.74,0,0,0,.443-.634l.147-2.382.526-.23a.577.577,0,1,0-.461-1.058" transform="translate(-3.238 -8.356)" fill="#263238"/>
            <g id="Grupo_154565" data-name="Grupo 154565" transform="translate(10.721 38.393)" opacity="0.2">
              <g id="Grupo_154564" data-name="Grupo 154564">
                <g id="Grupo_154563-2" data-name="Grupo 154563" clip-path="url(#clip-path-3)">
                  <path id="Trazado_208662" data-name="Trazado 208662" d="M12.978,47.417a7.513,7.513,0,0,1,1.331-2.065,5.423,5.423,0,0,1,1.26-1.05c.339-.192.555-.245.605-.178.115.151-.485.714-1.163,1.77a8.406,8.406,0,0,0-.208,9.1c.629,1.087,1.2,1.675,1.081,1.821-.053.065-.267,0-.6-.205a5.43,5.43,0,0,1-1.21-1.106,7.5,7.5,0,0,1-1.235-2.124,7.976,7.976,0,0,1-.527-2.993" transform="translate(-12.314 -44.096)" fill="#fff"/>
                </g>
              </g>
            </g>
            <g id="Grupo_154568" data-name="Grupo 154568" transform="translate(15.571 36.515)" opacity="0.2">
              <g id="Grupo_154567" data-name="Grupo 154567">
                <g id="Grupo_154566" data-name="Grupo 154566" clip-path="url(#clip-path-4)">
                  <path id="Trazado_208663" data-name="Trazado 208663" d="M19.323,43.265c-.6.253-1.19.32-1.389.032a.53.53,0,0,1,.1-.582,2.053,2.053,0,0,1,1.774-.764c.271.039.452.158.492.326" transform="translate(-17.884 -41.939)" fill="#fff"/>
                </g>
              </g>
            </g>
            <path id="Trazado_208664" data-name="Trazado 208664" d="M32.726,69.136c0,.021-.213.017-.549.063a4.278,4.278,0,0,0-2.35,1.107c-.249.231-.381.4-.4.384a1.567,1.567,0,0,1,.335-.447,3.746,3.746,0,0,1,2.4-1.134,1.589,1.589,0,0,1,.558.026" transform="translate(-3.806 -8.937)" fill="#455a64"/>
            <path id="Trazado_208665" data-name="Trazado 208665" d="M32.636,66.167c.014.032-1.249.614-2.82,1.3s-2.857,1.216-2.871,1.185,1.249-.614,2.82-1.3,2.857-1.216,2.871-1.185" transform="translate(-3.485 -8.557)" fill="#455a64"/>
            <path id="Trazado_208666" data-name="Trazado 208666" d="M32.692,67.349a4.249,4.249,0,0,1-.663.374c-.417.215-1,.5-1.653.795s-1.251.548-1.688.721a4.291,4.291,0,0,1-.717.252,4.69,4.69,0,0,1,.683-.334l1.671-.753,1.667-.761a4.922,4.922,0,0,1,.7-.293" transform="translate(-3.617 -8.71)" fill="#455a64"/>
            <path id="Trazado_208667" data-name="Trazado 208667" d="M165.574,167.91h-41.42a2.869,2.869,0,0,1-2.869-2.869V139.68a2.869,2.869,0,0,1,2.869-2.869h41.42a2.869,2.869,0,0,1,2.869,2.869v25.361a2.869,2.869,0,0,1-2.869,2.869" transform="translate(-15.686 -17.694)" fill="#fff"/>
            <path id="Trazado_208668" data-name="Trazado 208668" d="M165.556,167.891c0-.009.133-.005.388-.043a2.739,2.739,0,0,0,1.065-.386,2.854,2.854,0,0,0,1.172-1.383,7.114,7.114,0,0,0,.194-2.508c-.01-3.842-.023-9.389-.04-16.242q0-2.572-.008-5.382,0-.7,0-1.417a8.635,8.635,0,0,0-.057-1.422,2.777,2.777,0,0,0-1.808-2.055,4.05,4.05,0,0,0-1.472-.152l-1.55,0-3.174,0-6.625.005-29.5.01a2.743,2.743,0,0,0-2.683,2.165,4.29,4.29,0,0,0-.062.936V142.9q0,3.823,0,7.527c0,4.934-.005,9.694-.008,14.228a3.137,3.137,0,0,0,.29,1.591,2.75,2.75,0,0,0,1.078,1.153,2.811,2.811,0,0,0,1.518.377l1.623,0,6.249.006,11.217.016,16.242.04,4.416.024,1.148.012c.259,0,.391.013.391.013s-.132.009-.391.013l-1.148.012-4.416.024-16.242.04L132.141,168l-6.249.006-1.623,0a3.052,3.052,0,0,1-1.633-.406,2.987,2.987,0,0,1-1.169-1.247,3.368,3.368,0,0,1-.316-1.694c0-4.534-.005-9.294-.008-14.228q0-3.7,0-7.527v-2.882a4.565,4.565,0,0,1,.067-.989,3,3,0,0,1,2.932-2.366l29.5.01,6.625.005,3.174,0h1.55a4.222,4.222,0,0,1,1.541.168,2.982,2.982,0,0,1,1.939,2.213,8.768,8.768,0,0,1,.058,1.462q0,.716,0,1.417-.005,2.808-.009,5.382c-.017,6.853-.03,12.4-.04,16.242q0,.72-.006,1.357a3.02,3.02,0,0,1-.217,1.179,2.9,2.9,0,0,1-1.216,1.4,2.7,2.7,0,0,1-1.087.367,2.174,2.174,0,0,1-.392.017" transform="translate(-15.667 -17.675)" fill="#263238"/>
            <rect id="Rectángulo_45852" data-name="Rectángulo 45852" width="1.809" height="7.201" transform="translate(126.736 137.175)" fill="#2194e5"/>
            <rect id="Rectángulo_45853" data-name="Rectángulo 45853" width="1.809" height="8.244" transform="translate(111.622 136.131)" fill="#2194e5"/>
            <rect id="Rectángulo_45854" data-name="Rectángulo 45854" width="1.809" height="9.963" transform="translate(115.4 134.412)" fill="#2194e5"/>
            <rect id="Rectángulo_45855" data-name="Rectángulo 45855" width="1.809" height="9.416" transform="translate(119.178 134.959)" fill="#2194e5"/>
            <rect id="Rectángulo_45856" data-name="Rectángulo 45856" width="1.809" height="12.602" transform="translate(122.957 131.773)" fill="#2194e5"/>
            <rect id="Rectángulo_45857" data-name="Rectángulo 45857" width="1.809" height="12.541" transform="translate(130.514 131.835)" fill="#2194e5"/>
            <rect id="Rectángulo_45858" data-name="Rectángulo 45858" width="1.809" height="8.422" transform="translate(134.292 135.953)" fill="#2194e5"/>
            <rect id="Rectángulo_45859" data-name="Rectángulo 45859" width="1.809" height="11.988" transform="translate(138.071 132.387)" fill="#2194e5"/>
            <rect id="Rectángulo_45860" data-name="Rectángulo 45860" width="1.809" height="14.689" transform="translate(141.85 129.687)" fill="#2194e5"/>
            <rect id="Rectángulo_45861" data-name="Rectángulo 45861" width="1.809" height="12.05" transform="translate(145.628 132.326)" fill="#2194e5"/>
            <path id="Trazado_208669" data-name="Trazado 208669" d="M141.48,143.807c0,.077-3.213.141-7.174.141s-7.176-.064-7.176-.141,3.212-.141,7.176-.141,7.174.064,7.174.141" transform="translate(-16.442 -18.58)" fill="#263238"/>
            <path id="Trazado_208670" data-name="Trazado 208670" d="M258.764,32.732h22.649a2.071,2.071,0,0,1,2.071,2.072V57.453a2.071,2.071,0,0,1-2.071,2.071H265.743l-6.3,5.19v-5.19h-.677a2.072,2.072,0,0,1-2.072-2.071V34.8a2.072,2.072,0,0,1,2.072-2.072" transform="translate(-33.198 -4.233)" fill="#fff"/>
            <path id="Trazado_208671" data-name="Trazado 208671" d="M256.693,41.19h26.792v-6.56a1.9,1.9,0,0,0-1.9-1.9H258.56a1.867,1.867,0,0,0-1.867,1.868Z" transform="translate(-33.198 -4.233)" fill="#2194e5"/>
            <path id="Trazado_208672" data-name="Trazado 208672" d="M269.458,46.39V55.5h-2.108V48.082h-1.821V46.39Z" transform="translate(-34.341 -6)" fill="#263238"/>
            <path id="Trazado_208673" data-name="Trazado 208673" d="M278.971,46.39v1.366L275.588,55.5H273.3l3.266-7.39h-3.019V49.59h-1.873v-3.2Z" transform="translate(-35.135 -6)" fill="#263238"/>
            <path id="Trazado_208674" data-name="Trazado 208674" d="M267.781,38.23c0,.047,1.841.086,4.111.086S276,38.277,276,38.23s-1.841-.085-4.111-.085-4.111.038-4.111.085" transform="translate(-34.632 -4.933)" fill="#263238"/>
            <path id="Trazado_208675" data-name="Trazado 208675" d="M258.753,32.722s-.047,0-.14,0a1.745,1.745,0,0,0-.409.063,2.057,2.057,0,0,0-1.261.955,2.127,2.127,0,0,0-.291,1.139q0,.649-.006,1.414c0,1.02-.006,2.19-.01,3.5-.005,2.62-.011,5.793-.018,9.422,0,1.815,0,3.744-.007,5.775q0,.761,0,1.541,0,.39,0,.785a2.392,2.392,0,0,0,.111.805,2.146,2.146,0,0,0,1.876,1.462c.286.016.555,0,.834.008l-.076-.076c0,1.636,0,3.39,0,5.19v.169l.131-.107,6.3-5.187-.053.019,12.141,0h3.555a2.162,2.162,0,0,0,1.82-1.043,2.194,2.194,0,0,0,.266-.671,3.387,3.387,0,0,0,.045-.708V55.8q0-1.374,0-2.724c0-3.6,0-7.078-.005-10.388q0-2.481,0-4.837,0-1.177,0-2.317a7.886,7.886,0,0,0-.041-1.143,2.15,2.15,0,0,0-1.443-1.63,3.269,3.269,0,0,0-1.086-.1l-2.09,0-3.929.005-11.858.028-3.223.016-.838.009c-.189,0-.286.009-.286.009s.1.006.286.009l.838.009,3.223.016,11.858.028,3.929.005,2.09,0a3.149,3.149,0,0,1,1.042.1,2.012,2.012,0,0,1,1.344,1.525,7.844,7.844,0,0,1,.036,1.116q0,1.14,0,2.317,0,2.352,0,4.837c0,3.31,0,6.785-.005,10.388q0,1.35,0,2.724v1.38a3.288,3.288,0,0,1-.043.673,2,2,0,0,1-.245.617,1.969,1.969,0,0,1-1.015.838,3.853,3.853,0,0,1-1.365.124h-2.848l-12.141,0h-.03l-.023.019-6.3,5.193.131.062c0-1.8,0-3.554,0-5.19v-.075h-.077c-.275,0-.559.008-.823-.007a1.994,1.994,0,0,1-1.749-1.357,2.229,2.229,0,0,1-.1-.759q0-.394,0-.785,0-.78,0-1.541c0-2.031-.005-3.96-.007-5.775-.007-3.629-.013-6.8-.018-9.422,0-1.309-.007-2.479-.01-3.5a5.238,5.238,0,0,1,.269-2.528,2.041,2.041,0,0,1,1.226-.956,2.95,2.95,0,0,1,.542-.087" transform="translate(-33.187 -4.223)" fill="#263238"/>
            <path id="Trazado_208676" data-name="Trazado 208676" d="M267.362,35.767h.057a.843.843,0,0,0,.844-.843V30.559a.843.843,0,0,0-.844-.843h-.057a.842.842,0,0,0-.843.843v4.366a.842.842,0,0,0,.843.843" transform="translate(-34.469 -3.843)" fill="#e0e0e0"/>
            <path id="Trazado_208677" data-name="Trazado 208677" d="M267.349,35.754a1.076,1.076,0,0,1-.5-.2.811.811,0,0,1-.291-.53c-.012-.24,0-.54,0-.856.005-.65.011-1.41.018-2.248,0-.424,0-.867,0-1.327a.764.764,0,0,1,.817-.8.763.763,0,0,1,.573.262.8.8,0,0,1,.186.6c0,.46,0,.9.005,1.328.007.838.013,1.6.018,2.247,0,.159,0,.312.006.456a2.231,2.231,0,0,1-.01.4.825.825,0,0,1-.327.509,1.116,1.116,0,0,1-.508.171.393.393,0,0,0,.145.013.844.844,0,0,0,.4-.128.884.884,0,0,0,.384-.545,2.189,2.189,0,0,0,.025-.416c0-.145,0-.3.006-.456.005-.649.011-1.409.018-2.247,0-.424,0-.868.005-1.328a.968.968,0,0,0-.225-.708.933.933,0,0,0-.7-.322.932.932,0,0,0-.985.973c0,.46,0,.9.005,1.327.007.838.013,1.6.018,2.248.008.322,0,.6.023.869a.871.871,0,0,0,.345.57.815.815,0,0,0,.391.155.324.324,0,0,0,.145,0" transform="translate(-34.456 -3.83)" fill="#263238"/>
            <path id="Trazado_208678" data-name="Trazado 208678" d="M276.756,35.767h.057a.842.842,0,0,0,.843-.843V30.559a.842.842,0,0,0-.843-.843h-.057a.842.842,0,0,0-.843.843v4.366a.842.842,0,0,0,.843.843" transform="translate(-35.684 -3.843)" fill="#e0e0e0"/>
            <path id="Trazado_208679" data-name="Trazado 208679" d="M276.743,35.754a1.076,1.076,0,0,1-.5-.2.811.811,0,0,1-.291-.53c-.012-.24,0-.54,0-.856.005-.65.011-1.41.018-2.248,0-.424,0-.867,0-1.327a.764.764,0,0,1,.817-.8.764.764,0,0,1,.573.262.8.8,0,0,1,.186.6c0,.46,0,.9.005,1.328.007.838.013,1.6.018,2.247,0,.159,0,.312.006.456a2.231,2.231,0,0,1-.01.4.825.825,0,0,1-.327.509,1.116,1.116,0,0,1-.508.171.393.393,0,0,0,.145.013.844.844,0,0,0,.4-.128.887.887,0,0,0,.384-.545,2.267,2.267,0,0,0,.025-.416c0-.145,0-.3.006-.456.005-.649.011-1.409.018-2.247,0-.424,0-.868.005-1.328a.972.972,0,0,0-.225-.708.933.933,0,0,0-.7-.322.932.932,0,0,0-.985.973c0,.46,0,.9.005,1.327.007.838.013,1.6.018,2.248.008.322,0,.6.023.869a.871.871,0,0,0,.345.57.815.815,0,0,0,.391.155.324.324,0,0,0,.145,0" transform="translate(-35.671 -3.83)" fill="#263238"/>
            <path id="Trazado_208680" data-name="Trazado 208680" d="M205.749,114.959l1.944,2.431v-4.183h6.126s.68,9.579.535,11.621a16.564,16.564,0,0,1-.75,3.125,3.6,3.6,0,0,1-5.938,1.486,20.818,20.818,0,0,1-1.917-2.132c-2.723-3.5-7.246-12.027-7.246-12.027l4.718-2.849Z" transform="translate(-25.672 -14.541)" fill="#ffc09d"/>
            <path id="Trazado_208681" data-name="Trazado 208681" d="M206.381,114.818a6.954,6.954,0,0,0,.8,1.068c.516.641,1.233,1.524,2.051,2.478s1.591,1.8,2.191,2.365a4.386,4.386,0,0,0,1.041.844,10.334,10.334,0,0,0-.9-.986c-.557-.6-1.3-1.458-2.117-2.409a30.1,30.1,0,0,0-3.07-3.359" transform="translate(-26.691 -14.849)" fill="#ff9b6c"/>
            <path id="Trazado_208682" data-name="Trazado 208682" d="M241.806,50.967l.276,22.251c.048,3.784-.656,9.353-6.642,9.153-5.18-.563-6.555-5.468-6.6-9-.019-1.674-.038-3.072-.052-3.243,0,0-5.671-.462-6.15-6.064-.232-2.707-.253-8.321-.215-13.4a10.47,10.47,0,0,1,9.711-10.358l.542-.04c5.858-.085,9.2,4.843,9.126,10.7" transform="translate(-28.765 -5.208)" fill="#ffc09d"/>
            <path id="Trazado_208683" data-name="Trazado 208683" d="M229.741,74.165a13.577,13.577,0,0,0,7.142-2.691S235.4,75.7,229.771,75.6Z" transform="translate(-29.712 -9.244)" fill="#ff9b6c"/>
            <path id="Trazado_208684" data-name="Trazado 208684" d="M233.427,54.7c.111.113.758-.407,1.7-.433s1.639.435,1.738.314c.048-.053-.068-.26-.374-.475a2.354,2.354,0,0,0-1.4-.4,2.269,2.269,0,0,0-1.346.49c-.282.235-.374.449-.32.5" transform="translate(-30.187 -6.946)" fill="#263238"/>
            <path id="Trazado_208685" data-name="Trazado 208685" d="M232.839,57.338a.758.758,0,0,0,.786.71.726.726,0,0,0,.73-.739.759.759,0,0,0-.785-.711.727.727,0,0,0-.731.74" transform="translate(-30.113 -7.32)" fill="#263238"/>
            <path id="Trazado_208686" data-name="Trazado 208686" d="M230.4,61.273a5.694,5.694,0,0,0-1.417-.151c-.222-.006-.434-.035-.481-.182a1.121,1.121,0,0,1,.1-.663l.528-1.723a28.906,28.906,0,0,0,1.141-4.489,28.958,28.958,0,0,0-1.5,4.386c-.174.6-.341,1.18-.5,1.731a1.278,1.278,0,0,0-.051.872.551.551,0,0,0,.385.3,1.513,1.513,0,0,0,.378.025,5.624,5.624,0,0,0,1.418-.1" transform="translate(-29.507 -6.992)" fill="#263238"/>
            <path id="Trazado_208687" data-name="Trazado 208687" d="M233.887,50.155c.091.208.842.051,1.741.1.9.027,1.639.245,1.744.044.046-.1-.094-.287-.4-.473a2.943,2.943,0,0,0-2.656-.108c-.317.16-.47.34-.43.439" transform="translate(-30.248 -6.396)" fill="#263238"/>
            <path id="Trazado_208688" data-name="Trazado 208688" d="M223.65,51.766c.1.17.831-.018,1.718-.046.888-.044,1.625.086,1.718-.091.041-.084-.105-.236-.414-.371a3.093,3.093,0,0,0-1.312-.217,3.194,3.194,0,0,0-1.305.321c-.306.159-.448.323-.4.4" transform="translate(-28.924 -6.601)" fill="#263238"/>
            <path id="Trazado_208689" data-name="Trazado 208689" d="M244.51,57.322c.092-.049,3.769-1.421,3.927,2.421s-3.733,3.208-3.744,3.1-.183-5.518-.183-5.518" transform="translate(-31.622 -7.378)" fill="#ffc09d"/>
            <path id="Trazado_208690" data-name="Trazado 208690" d="M246,61.519c.017-.013.069.044.184.091a.669.669,0,0,0,.5-.01,1.657,1.657,0,0,0,.705-1.517,2.227,2.227,0,0,0-.227-.951.772.772,0,0,0-.524-.493.341.341,0,0,0-.387.2c-.047.11-.019.185-.04.192s-.084-.061-.06-.221a.424.424,0,0,1,.141-.246.507.507,0,0,1,.366-.113.94.94,0,0,1,.724.567,2.272,2.272,0,0,1,.277,1.061,1.741,1.741,0,0,1-.909,1.7.722.722,0,0,1-.616-.077c-.123-.091-.146-.175-.133-.183" transform="translate(-31.814 -7.559)" fill="#ff9b6c"/>
            <path id="Trazado_208691" data-name="Trazado 208691" d="M231.77,65.032c-.042-.1.71-.322,1.24-1.028a4.335,4.335,0,0,0,.532-1c.111-.279.2-.454.238-.441s.03.2-.031.5a2.835,2.835,0,0,1-.495,1.124,2.3,2.3,0,0,1-.982.751c-.293.118-.491.126-.5.093" transform="translate(-29.974 -8.091)" fill="#263238"/>
            <path id="Trazado_208692" data-name="Trazado 208692" d="M213.883,45.137a.91.91,0,0,1,.426-.53,2.794,2.794,0,0,1,1.432-.232,8.094,8.094,0,0,0,4.212-1.281,18.9,18.9,0,0,1,1.961-2.376,14.282,14.282,0,0,1,4.54-3.524,13.017,13.017,0,0,1,6.944-.546,5.256,5.256,0,0,1,3.97,4.09,4.041,4.041,0,0,1,4.065-.381l.033-.015c1.483.528,2.325,2.095,2.763,3.606a18.774,18.774,0,0,0,1.424,4.484c.167.283.367.623.22.918a.625.625,0,0,1-.655.285,1.833,1.833,0,0,1-.69-.312l.5,1.188a3.5,3.5,0,0,1-1.612-.108,34.433,34.433,0,0,1-1.054,3.987,2.284,2.284,0,0,0-1.57.387c-.519.467-.751,1.345-1.614,1.012-.439-.17-.839-1.091-.986-1.538A21.858,21.858,0,0,1,237.241,45a7.015,7.015,0,0,0-2.171-1.566l.067.059c-1.565-.543-3.336-1.078-4.822-.343-1.152.57-1.829,1.766-2.69,2.719a8.8,8.8,0,0,1-6.269,2.9c-.083,1.577.05,3.807-.033,5.383L220,51.617v.013c-.109-.185-.2-.372-.286-.558l-.03-.057v-.008a9.834,9.834,0,0,0-.443-.9l-.016.013a.985.985,0,0,1-1.439-1.317,2.2,2.2,0,0,1,.476-.479,1.56,1.56,0,0,1-1.485.385,1.223,1.223,0,0,1-.865-1.209,1.041,1.041,0,0,1,.62-.835,3.513,3.513,0,0,1-2-.44c-.394-.226-.782-.6-.648-1.092" transform="translate(-27.658 -4.707)" fill="#263238"/>
            <path id="Trazado_208693" data-name="Trazado 208693" d="M238.836,42.121a4.866,4.866,0,0,1,.562.514,4.024,4.024,0,0,1,.859,1.861,7.037,7.037,0,0,1,.144,1.424c0,.515-.039,1.068-.079,1.651a14.788,14.788,0,0,0-.042,1.837,6.582,6.582,0,0,0,.126.97,2.032,2.032,0,0,0,.4.94.849.849,0,0,0,.791.266,1.259,1.259,0,0,0,.711-.4,2.906,2.906,0,0,0,.54-1.424l-.118.014a4.689,4.689,0,0,0,.682,1.174,1.664,1.664,0,0,0,1.09.594,1.073,1.073,0,0,0,.577-.1.935.935,0,0,0,.393-.387.964.964,0,0,0,.119-.5.7.7,0,0,0-.18-.435l-.059.053a3.612,3.612,0,0,0,1.2.9,3.136,3.136,0,0,0,.374.145.6.6,0,0,0,.133.033.681.681,0,0,0-.126-.053c-.084-.035-.207-.084-.361-.163a3.73,3.73,0,0,1-1.162-.917l-.059.053a.718.718,0,0,1,.037.832.832.832,0,0,1-.355.342.97.97,0,0,1-.523.085,1.56,1.56,0,0,1-1.012-.564,4.609,4.609,0,0,1-.656-1.148l-.081-.179-.037.194a2.8,2.8,0,0,1-.515,1.361,1.133,1.133,0,0,1-.636.36.712.712,0,0,1-.672-.226,1.9,1.9,0,0,1-.365-.879,6.275,6.275,0,0,1-.126-.95,14.954,14.954,0,0,1,.035-1.821c.036-.582.074-1.137.067-1.66a7.047,7.047,0,0,0-.162-1.443,3.961,3.961,0,0,0-.912-1.875,2.275,2.275,0,0,0-.6-.48" transform="translate(-30.888 -5.447)" fill="#455a64"/>
            <path id="Trazado_208694" data-name="Trazado 208694" d="M218.927,47.106s.014.015.045.038l.139.1a1.9,1.9,0,0,0,.238.152,3.024,3.024,0,0,0,.34.179,4.979,4.979,0,0,0,2.4.432,6.352,6.352,0,0,0,3.382-1.249,10.989,10.989,0,0,0,2.905-3.349c.407-.678.739-1.374,1.106-2.016a7.439,7.439,0,0,1,1.252-1.706,3.834,3.834,0,0,1,1.614-.98,2.755,2.755,0,0,1,.852-.1,3.024,3.024,0,0,1,.78.15,3.251,3.251,0,0,1,1.8,1.524,3.906,3.906,0,0,1,.289.84.212.212,0,0,0,0-.058c-.007-.047-.017-.1-.027-.172a2.754,2.754,0,0,0-.212-.633,3.184,3.184,0,0,0-.627-.851,3.278,3.278,0,0,0-1.189-.737,3.1,3.1,0,0,0-.8-.164,2.834,2.834,0,0,0-.886.095,3.908,3.908,0,0,0-1.669,1,7.493,7.493,0,0,0-1.28,1.729c-.371.647-.7,1.341-1.107,2.013a11.012,11.012,0,0,1-2.864,3.317,6.306,6.306,0,0,1-3.317,1.254,5.046,5.046,0,0,1-2.371-.385,7.915,7.915,0,0,1-.784-.426" transform="translate(-28.314 -4.98)" fill="#455a64"/>
            <path id="Trazado_208695" data-name="Trazado 208695" d="M218.341,45.555a.876.876,0,0,0,.2.14,4.4,4.4,0,0,0,.595.3,5.776,5.776,0,0,0,.942.309,6.08,6.08,0,0,0,2.418.077,5.833,5.833,0,0,0,.96-.248,4.311,4.311,0,0,0,.613-.264.84.84,0,0,0,.209-.127c-.01-.022-.32.138-.852.3a6.569,6.569,0,0,1-.95.217,6.544,6.544,0,0,1-2.372-.076,6.532,6.532,0,0,1-.934-.278c-.52-.2-.818-.378-.831-.356" transform="translate(-28.238 -5.891)" fill="#455a64"/>
            <path id="Trazado_208696" data-name="Trazado 208696" d="M223.6,54.7c.111.113.758-.407,1.7-.433s1.639.435,1.738.314c.048-.053-.068-.26-.374-.475a2.354,2.354,0,0,0-1.4-.4,2.269,2.269,0,0,0-1.346.49c-.282.236-.374.449-.32.5" transform="translate(-28.916 -6.946)" fill="#263238"/>
            <path id="Trazado_208697" data-name="Trazado 208697" d="M223.83,57.338a.759.759,0,0,0,.786.71.726.726,0,0,0,.73-.739.759.759,0,0,0-.785-.711.727.727,0,0,0-.731.74" transform="translate(-28.948 -7.32)" fill="#263238"/>
            <path id="Trazado_208698" data-name="Trazado 208698" d="M255.9,247.029l1.162,13.99,4.11,10.8a1.438,1.438,0,0,1-2.221,1.652c-2.347-1.817-10.809-8.5-10.9-9.366-.123-1.127-2.279-14.882-2.279-14.882Z" transform="translate(-31.785 -31.948)" fill="#455a64"/>
            <path id="Trazado_208699" data-name="Trazado 208699" d="M260.554,276.006l-12.431-11.2.121,1.036c.084.567.093.875.466,1.229a120.841,120.841,0,0,0,10.416,8.931,1.6,1.6,0,0,0,1.428,0" transform="translate(-32.09 -34.248)" fill="#263238"/>
            <path id="Trazado_208700" data-name="Trazado 208700" d="M250.753,259.787a.87.87,0,0,1,.357,1.1.838.838,0,0,1-1.093.364.919.919,0,0,1-.372-1.173.868.868,0,0,1,1.178-.252" transform="translate(-32.274 -33.586)" fill="#fff"/>
            <path id="Trazado_208701" data-name="Trazado 208701" d="M257.988,270.781c.083.03.32-.734,1.108-1.215a4.38,4.38,0,0,1,1.575-.478c.009-.036-.18-.125-.511-.137a2.29,2.29,0,0,0-2.076,1.309c-.132.3-.132.513-.1.521" transform="translate(-33.363 -34.783)" fill="#263238"/>
            <path id="Trazado_208702" data-name="Trazado 208702" d="M259.359,272.9c.073.053.473-.448,1.173-.731a11.5,11.5,0,0,1,1.344-.32,1.594,1.594,0,0,0-1.464.036c-.8.327-1.13.986-1.054,1.016" transform="translate(-33.541 -35.14)" fill="#263238"/>
            <path id="Trazado_208703" data-name="Trazado 208703" d="M255.572,268.229a7.389,7.389,0,0,1,3.753-1.954,3.934,3.934,0,0,0-3.753,1.954" transform="translate(-33.052 -34.43)" fill="#263238"/>
            <path id="Trazado_208704" data-name="Trazado 208704" d="M254.759,263.554c.046.08.784-.325,1.783-.467s1.821.014,1.841-.077a3.57,3.57,0,0,0-3.625.543" transform="translate(-32.947 -33.979)" fill="#263238"/>
            <path id="Trazado_208705" data-name="Trazado 208705" d="M254.248,258.843a4.571,4.571,0,0,1,3.743-.267c.02-.031-.151-.191-.493-.342a3.137,3.137,0,0,0-2.811.2c-.316.2-.463.38-.439.409" transform="translate(-32.881 -33.366)" fill="#263238"/>
            <path id="Trazado_208706" data-name="Trazado 208706" d="M255.918,257.075a1.219,1.219,0,0,0-.037-.53,3.7,3.7,0,0,0-.567-1.338,1.64,1.64,0,0,0-.78-.7.578.578,0,0,0-.635.2.941.941,0,0,0-.153.654,2.033,2.033,0,0,0,1.97,1.682,2.358,2.358,0,0,0,2.173-1.471.82.82,0,0,0-.033-.682.568.568,0,0,0-.623-.235,2,2,0,0,0-.869.576,4.131,4.131,0,0,0-.838,1.186,1.265,1.265,0,0,0-.163.505,6.536,6.536,0,0,1,1.151-1.533,1.885,1.885,0,0,1,.77-.483.3.3,0,0,1,.34.127.563.563,0,0,1,0,.448,2.105,2.105,0,0,1-1.9,1.254,1.765,1.765,0,0,1-1.693-1.4.682.682,0,0,1,.088-.461.313.313,0,0,1,.349-.113,1.476,1.476,0,0,1,.671.582,5.454,5.454,0,0,1,.781,1.742" transform="translate(-32.816 -32.911)" fill="#263238"/>
            <path id="Trazado_208707" data-name="Trazado 208707" d="M217.652,247.84l.518,11.847s-11.868,4.506-11.986,6.7l23.007-.179-.05-18.492Z" transform="translate(-26.666 -32.037)" fill="#455a64"/>
            <path id="Trazado_208708" data-name="Trazado 208708" d="M227.946,260.25a.94.94,0,0,1,.658,1.067.9.9,0,0,1-1.053.661.99.99,0,0,1-.69-1.134.938.938,0,0,1,1.17-.567" transform="translate(-29.336 -33.653)" fill="#e0e0e0"/>
            <path id="Trazado_208709" data-name="Trazado 208709" d="M229.19,268.682l-.078-1.864-22.03.869s-1.02.454-.9,1.174Z" transform="translate(-26.664 -34.507)" fill="#263238"/>
            <path id="Trazado_208710" data-name="Trazado 208710" d="M219.521,261.318c0,.112.567.158,1.122.515s.854.827.957.782c.1-.023-.07-.693-.75-1.114s-1.355-.286-1.33-.184" transform="translate(-28.39 -33.782)" fill="#263238"/>
            <path id="Trazado_208711" data-name="Trazado 208711" d="M216.758,262.5c-.025.109.463.3.849.769s.5.973.611.968c.105.017.178-.643-.313-1.22s-1.146-.624-1.148-.517" transform="translate(-28.033 -33.942)" fill="#263238"/>
            <path id="Trazado_208712" data-name="Trazado 208712" d="M215.074,265.544c.1.023.254-.539-.039-1.153s-.82-.853-.867-.759c-.063.092.281.421.514.927s.281.974.393.985" transform="translate(-27.697 -34.093)" fill="#263238"/>
            <path id="Trazado_208713" data-name="Trazado 208713" d="M219.728,258.157c.048.1.562-.057,1.2-.019s1.132.235,1.19.138-.421-.495-1.17-.529-1.273.321-1.217.409" transform="translate(-28.417 -33.334)" fill="#263238"/>
            <path id="Trazado_208714" data-name="Trazado 208714" d="M214.755,149.707c.013.686,2.673,95.367,2.673,95.367h14.221l2.881-80.993s3.364,42.348,3.364,43.263,2.968,38.186,2.968,38.186l13.185-1.076-.865-85.273-1.612-12.5Z" transform="translate(-27.774 -18.97)" fill="#263238"/>
            <path id="Trazado_208715" data-name="Trazado 208715" d="M238.753,161.713a2.571,2.571,0,0,1-.577.243c-.378.138-.927.329-1.606.558l-.13.044-.01-.134c-.078-1.139-.168-2.662-.252-4.331-.091-1.81-.157-3.449-.191-4.636-.017-.593-.025-1.074-.025-1.406a1.854,1.854,0,0,1,.029-.517,1.865,1.865,0,0,1,.08.513c.034.33.073.81.115,1.4.085,1.185.183,2.822.273,4.632.084,1.669.146,3.194.181,4.335l-.138-.091c.687-.205,1.246-.368,1.635-.475a2.659,2.659,0,0,1,.615-.137" transform="translate(-30.517 -19.598)" fill="#455a64"/>
            <path id="Trazado_208716" data-name="Trazado 208716" d="M237.832,151.878c-.009-.012.046-.076.189-.124a.873.873,0,0,1,.628.054.785.785,0,0,1,.476.778.954.954,0,0,1-.757.838,1.039,1.039,0,0,1-1.048-.475.843.843,0,0,1,.011-.9.944.944,0,0,1,.47-.394c.139-.05.224-.042.226-.026.021.04-.32.108-.521.507a.674.674,0,0,0,.034.684.8.8,0,0,0,.771.34.721.721,0,0,0,.554-.6.589.589,0,0,0-.313-.589,1.113,1.113,0,0,0-.721-.1" transform="translate(-30.676 -19.609)" fill="#455a64"/>
            <path id="Trazado_208717" data-name="Trazado 208717" d="M245.383,152.755c-.077.008-.185-.4-.24-.917s-.038-.936.039-.944.185.4.24.917.038.936-.039.944" transform="translate(-31.7 -19.515)" fill="#455a64"/>
            <path id="Trazado_208718" data-name="Trazado 208718" d="M246.535,152.632c-.077,0-.143-.437-.145-.977s.057-.977.136-.978.143.437.145.977-.058.978-.136.978" transform="translate(-31.865 -19.487)" fill="#455a64"/>
            <path id="Trazado_208719" data-name="Trazado 208719" d="M226.821,153.342a4.556,4.556,0,0,1-.258-2.227,2.367,2.367,0,0,1,.269,1.1,2.334,2.334,0,0,1-.011,1.128" transform="translate(-29.293 -19.544)" fill="#455a64"/>
            <path id="Trazado_208720" data-name="Trazado 208720" d="M228.189,153.431a2.427,2.427,0,0,1-.1-2.326,41.993,41.993,0,0,0,.1,2.326" transform="translate(-29.466 -19.542)" fill="#455a64"/>
            <path id="Trazado_208721" data-name="Trazado 208721" d="M222.142,152.324a1.35,1.35,0,0,1-.047.417,8.068,8.068,0,0,1-.286,1.11,11.723,11.723,0,0,1-1.761,3.374,12.3,12.3,0,0,1-2.777,2.688,9.054,9.054,0,0,1-1.01.621,1.566,1.566,0,0,1-.4.179c-.023-.037.515-.34,1.3-.935a13.956,13.956,0,0,0,2.681-2.692,13.424,13.424,0,0,0,1.8-3.288c.334-.9.46-1.483.5-1.474" transform="translate(-27.917 -19.7)" fill="#455a64"/>
            <path id="Trazado_208722" data-name="Trazado 208722" d="M257.185,158.805a1.358,1.358,0,0,1-.431.068,6.743,6.743,0,0,1-1.191-.023,7.816,7.816,0,0,1-3.643-1.347,7.261,7.261,0,0,1-2.427-2.912,5.89,5.89,0,0,1-.372-1.075,1.2,1.2,0,0,1-.059-.411c.045-.011.166.569.594,1.416a7.694,7.694,0,0,0,2.415,2.789,8.24,8.24,0,0,0,3.516,1.373c.977.139,1.6.078,1.6.123" transform="translate(-32.21 -19.801)" fill="#455a64"/>
            <path id="Trazado_208723" data-name="Trazado 208723" d="M230.228,214.325c-.018.064-2.375-.478-5.264-1.21s-5.217-1.379-5.2-1.444,2.374.478,5.264,1.211,5.217,1.378,5.2,1.443" transform="translate(-28.422 -27.375)" fill="#455a64"/>
            <path id="Trazado_208724" data-name="Trazado 208724" d="M256.72,210.763c.034.058-2.017,1.2-4.581,2.546s-4.669,2.393-4.7,2.335,2.016-1.2,4.581-2.546,4.669-2.393,4.7-2.335" transform="translate(-32.001 -27.258)" fill="#455a64"/>
            <path id="Trazado_208725" data-name="Trazado 208725" d="M222.875,81.051l6.46-2.534,11.9-.673,5.592,2.126-7.664,4.257-6.608-.243Z" transform="translate(-28.824 -10.068)" fill="#ffc09d"/>
            <path id="Trazado_208726" data-name="Trazado 208726" d="M213.131,141.841c.584.1,39.574,1.757,39.574,1.757l-1.37-35.058-.112-6.884-2.215-20.852s-5.827-2-8.8-2.961a12.765,12.765,0,0,1-9.08,3.174c-5.817-.086-7.032-1.4-7.032-1.4l-8.133,3.118s-5.784,2.074-6.778,4.633c-.969,2.491-2.744,16.716-2.744,16.716h8.431l-.159,25.13Z" transform="translate(-26.699 -10.068)" fill="#2194e5"/>
            <g id="Grupo_154571" data-name="Grupo 154571" transform="translate(210.946 84.546)" opacity="0.2">
              <g id="Grupo_154570" data-name="Grupo 154570">
                <g id="Grupo_154569" data-name="Grupo 154569" clip-path="url(#clip-path-5)">
                  <path id="Trazado_208727" data-name="Trazado 208727" d="M242.28,97.543l1.209,8.838,5.848,2.611,4.323-3.684V97.1Z" transform="translate(-242.28 -97.104)"/>
                </g>
              </g>
            </g>
            <path id="Trazado_208728" data-name="Trazado 208728" d="M253.563,100.468c0,.073-2.432.133-5.429.133s-5.429-.06-5.429-.133,2.43-.133,5.429-.133,5.429.06,5.429.133" transform="translate(-31.389 -12.976)" fill="#263238"/>
            <path id="Trazado_208729" data-name="Trazado 208729" d="M211.107,92.981a1.1,1.1,0,0,1,.063.232c.04.174.091.4.155.677a22.4,22.4,0,0,0,.777,2.488c.388,1.047.937,2.274,1.607,3.655.635,1.406,1.209,3.024,1.809,4.777l.007.018v.02c-.014,2.1-.029,4.4-.045,6.8-.057,5.362-.108,10.213-.145,13.755-.03,1.74-.055,3.158-.073,4.168q-.02.709-.032,1.132a2.316,2.316,0,0,1-.029.394,2.3,2.3,0,0,1-.023-.4q-.005-.423-.015-1.134c0-1.01,0-2.428-.007-4.169.018-3.542.044-8.393.071-13.754.021-2.4.042-4.7.061-6.8l.006.038c-.589-1.749-1.153-3.374-1.766-4.769a39.323,39.323,0,0,1-1.564-3.689,19.186,19.186,0,0,1-.715-2.52c-.057-.3-.1-.53-.118-.688a1.1,1.1,0,0,1-.024-.239" transform="translate(-27.302 -12.025)" fill="#263238"/>
            <path id="Trazado_208730" data-name="Trazado 208730" d="M258.454,88.27a4.481,4.481,0,0,1-.007.748c-.02.527-.045,1.211-.077,2.036-.07,1.763-.162,4.115-.265,6.715s-.225,4.952-.3,6.715c-.048.824-.087,1.508-.118,2.034a4.277,4.277,0,0,1-.077.744,4.242,4.242,0,0,1-.022-.748c.01-.527.022-1.213.037-2.037.043-1.72.121-4.1.23-6.719s.229-5,.34-6.714c.056-.858.11-1.553.157-2.032a4.019,4.019,0,0,1,.105-.742" transform="translate(-33.313 -11.416)" fill="#263238"/>
            <g id="Grupo_154574" data-name="Grupo 154574" transform="translate(183.81 82.229)" opacity="0.3">
              <g id="Grupo_154573" data-name="Grupo 154573">
                <g id="Grupo_154572" data-name="Grupo 154572" clip-path="url(#clip-path-6)">
                  <path id="Trazado_208731" data-name="Trazado 208731" d="M211.13,94.444a14.651,14.651,0,0,0,3.828,10.445c-.793-3.617-2.774-6.984-3.828-10.445" transform="translate(-211.113 -94.443)"/>
                </g>
              </g>
            </g>
            <g id="Grupo_154577" data-name="Grupo 154577" transform="translate(200.952 102.628)" opacity="0.3">
              <g id="Grupo_154576" data-name="Grupo 154576">
                <g id="Grupo_154575" data-name="Grupo 154575" clip-path="url(#clip-path-7)">
                  <path id="Trazado_208732" data-name="Trazado 208732" d="M230.8,132.18a7.3,7.3,0,0,0,4.679-2.6,22.084,22.084,0,0,0,3.143-4.55,17.936,17.936,0,0,0,1.842-7.153A33.736,33.736,0,0,1,230.8,132.18" transform="translate(-230.801 -117.872)"/>
                </g>
              </g>
            </g>
            <path id="Trazado_208733" data-name="Trazado 208733" d="M240.928,114.822a.751.751,0,0,1-.032.225l-.14.633c-.06.275-.145.609-.263.992s-.235.824-.41,1.3a29.949,29.949,0,0,1-1.345,3.275,34.806,34.806,0,0,1-2.144,3.768,34.006,34.006,0,0,1-2.645,3.437,28.394,28.394,0,0,1-2.513,2.494c-.372.342-.735.619-1.047.868s-.589.456-.823.614l-.535.365a.788.788,0,0,1-.2.113c-.005-.007.053-.06.167-.155l.506-.4c.225-.169.493-.382.792-.645s.656-.542,1.017-.891a31.3,31.3,0,0,0,2.458-2.515,36.435,36.435,0,0,0,2.609-3.423,37.286,37.286,0,0,0,2.147-3.731,33.712,33.712,0,0,0,1.386-3.232c.185-.466.317-.9.443-1.277s.229-.706.3-.977c.074-.245.135-.449.186-.619a.775.775,0,0,1,.082-.212" transform="translate(-29.595 -14.85)" fill="#263238"/>
            <path id="Trazado_208734" data-name="Trazado 208734" d="M238.746,102.22a2.086,2.086,0,0,1-.045.358q-.069.385-.18,1.018c-.075.443-.179.982-.338,1.6s-.3,1.332-.544,2.1c-.115.386-.232.79-.358,1.209s-.289.846-.441,1.294c-.293.9-.686,1.829-1.083,2.815a46.753,46.753,0,0,1-7.2,11.756c-.7.8-1.346,1.576-2.014,2.246-.328.339-.635.678-.952.982l-.913.868c-.573.564-1.14,1.02-1.621,1.439s-.912.76-1.271,1.029l-.825.623a1.825,1.825,0,0,1-.3.2,2.025,2.025,0,0,1,.268-.244l.793-.659c.35-.28.772-.629,1.241-1.06s1.028-.892,1.59-1.462q.43-.421.9-.877c.31-.306.611-.647.936-.987.657-.674,1.3-1.449,1.988-2.252a48.581,48.581,0,0,0,7.16-11.7c.4-.979.8-1.9,1.1-2.794.155-.444.321-.867.453-1.283l.371-1.2c.253-.76.413-1.467.58-2.081s.289-1.148.379-1.587q.141-.627.226-1.007a1.788,1.788,0,0,1,.1-.348" transform="translate(-28.539 -13.22)" fill="#263238"/>
            <path id="Trazado_208735" data-name="Trazado 208735" d="M203.073,89.367c2.4,3.652,12.134,18.449,15.011,22.825a.676.676,0,0,1-.651,1.04l-17.287-2.174a.679.679,0,0,1-.461-.272L183.173,88.235a.676.676,0,0,1,.6-1.074l17.787,1.316a1.989,1.989,0,0,1,1.518.891" transform="translate(-23.673 -11.272)" fill="#e0e0e0"/>
            <path id="Trazado_208736" data-name="Trazado 208736" d="M203.056,89.35a1.191,1.191,0,0,0-.138-.207,1.932,1.932,0,0,0-.56-.471,2.428,2.428,0,0,0-1.151-.28L199.6,88.26l-10.253-.8-3.4-.261-1.808-.138c-.16-.01-.294-.03-.477-.03a.768.768,0,0,0-.5.206.794.794,0,0,0-.131,1.015l4.807,6.593,11.024,15.077c.252.339.475.657.747,1.01a.818.818,0,0,0,.306.207,1.365,1.365,0,0,0,.335.066l.61.077,2.419.3,4.729.593,8.94,1.116c.185.02.339.05.549.061a.793.793,0,0,0,.573-.239.82.82,0,0,0,.237-.568.955.955,0,0,0-.208-.555l-1.14-1.727-2.18-3.3c-1.408-2.129-2.72-4.112-3.918-5.925l-5.689-8.567-1.559-2.321-.411-.6a1.6,1.6,0,0,0-.149-.2,1.5,1.5,0,0,0,.124.215l.387.616,1.514,2.351,5.613,8.618,3.888,5.944,2.169,3.309,1.134,1.731a.687.687,0,0,1,.164.411.562.562,0,0,1-.162.384.529.529,0,0,1-.385.159c-.146-.008-.347-.041-.517-.06l-8.938-1.134-4.728-.6-2.419-.3-.609-.077a1.132,1.132,0,0,1-.268-.049.53.53,0,0,1-.2-.135l-.725-.984c-3.916-5.343-7.648-10.432-11.044-15.063l-4.819-6.566a.555.555,0,0,1,.09-.713.538.538,0,0,1,.348-.146c.128,0,.3.019.449.027l1.808.13,3.4.242,10.261.713,1.61.106a2.411,2.411,0,0,1,1.131.245,2.284,2.284,0,0,1,.724.628" transform="translate(-23.655 -11.255)" fill="#263238"/>
            <path id="Trazado_208737" data-name="Trazado 208737" d="M183.193,88.394a1.976,1.976,0,0,0,.362.054l1.049.106,3.907.347L201.8,89.986l-.106-.062c.831,1.235,1.69,2.518,2.551,3.843,3.505,5.389,6.567,10.342,8.88,13.866,1.15,1.767,2.106,3.179,2.771,4.151l.78,1.111a2.881,2.881,0,0,0,.288.376,2.878,2.878,0,0,0-.24-.408l-.734-1.141-2.694-4.2c-2.268-3.55-5.3-8.519-8.81-13.913-.862-1.326-1.723-2.609-2.558-3.844l-.038-.057-.068-.005-13.293-.986-3.913-.263L183.56,88.4a1.957,1.957,0,0,0-.367,0" transform="translate(-23.692 -11.431)" fill="#263238"/>
            <path id="Trazado_208738" data-name="Trazado 208738" d="M195.5,92.1h0l-.007,0Z" transform="translate(-25.283 -11.911)" fill="#fff"/>
            <path id="Trazado_208739" data-name="Trazado 208739" d="M195.01,92.355a.348.348,0,0,1,.427-.258.93.93,0,0,1,.464.26.464.464,0,0,1,.084.593c-.173.213-.528.134-.736-.045a.6.6,0,0,1-.24-.55" transform="translate(-25.219 -11.91)" fill="#fff"/>
            <path id="Trazado_208740" data-name="Trazado 208740" d="M202.77,106.8s.682-1.626-1.049-1.836a59.948,59.948,0,0,0-6.277,0s-2.485.262-1.961,2.046c0,0-1.469,1.312-.682,2.728s1.1,1,1.1,1-.21,1.732,1.1,1.994c0,0,1.422,1.68,2.73,1.574A27.331,27.331,0,0,0,204.974,111c.367-.525.892-.824.577-1.409,0,0,.682-1.535-.787-1.768,0,0-.105-1.282-1.994-1.02" transform="translate(-24.905 -13.563)" fill="#ffc09d"/>
            <path id="Trazado_208741" data-name="Trazado 208741" d="M195.225,107.657a4.744,4.744,0,0,0,1.169.084c.723.016,1.72.017,2.821,0a16.68,16.68,0,0,0,2.833-.169c.747-.173,1.04-.611,1-.621a2.963,2.963,0,0,1-1.047.421c-.687.115-1.7.044-2.8.08-1.1.017-2.1.048-2.819.085a4.721,4.721,0,0,0-1.167.119" transform="translate(-25.248 -13.832)" fill="#ff9b6c"/>
            <path id="Trazado_208742" data-name="Trazado 208742" d="M196.649,110.378a.866.866,0,0,0,.376.13,4.042,4.042,0,0,0,1.082.067,7.647,7.647,0,0,0,1.578-.286c.581-.16,1.2-.383,1.85-.583a8.265,8.265,0,0,1,1.862-.384,2.857,2.857,0,0,0,1.585-.32.907.907,0,0,0,.379-.541.74.74,0,0,0-.065-.491c-.137-.251-.323-.265-.318-.251-.015.023.134.075.215.3a.677.677,0,0,1-.325.818,2.845,2.845,0,0,1-1.486.225,7.729,7.729,0,0,0-1.931.374l-1.841.6a8.776,8.776,0,0,1-1.522.338,9.892,9.892,0,0,1-1.44.006" transform="translate(-25.432 -13.931)" fill="#ff9b6c"/>
            <path id="Trazado_208743" data-name="Trazado 208743" d="M198.784,112.947a4.656,4.656,0,0,0,1.168-.226c.71-.179,1.685-.457,2.748-.805s2.014-.7,2.694-.976a4.639,4.639,0,0,0,1.075-.508c-.03-.076-1.738.518-3.858,1.211s-3.849,1.226-3.827,1.305" transform="translate(-25.709 -14.281)" fill="#ff9b6c"/>
            <path id="Trazado_208744" data-name="Trazado 208744" d="M198.273,115.322a2.565,2.565,0,0,0,.969-.111,11.588,11.588,0,0,0,2.215-.78c.834-.379,1.561-.766,2.089-1.046a3.544,3.544,0,0,0,.83-.5,18.146,18.146,0,0,0-3.037,1.286c-1.637.785-3.076,1.079-3.066,1.154" transform="translate(-25.643 -14.598)" fill="#ff9b6c"/>
            <path id="Trazado_208745" data-name="Trazado 208745" d="M257.64,96.26s-3.534,14.161-7.951,19.388c-4.277,5.061-10.98,2.735-13.3-3.814s-6.457-21.508-6.457-21.508l5.079-3.884,8.775,17.007,3.955-11.593Z" transform="translate(-29.737 -11.179)" fill="#ffc09d"/>
            <path id="Trazado_208746" data-name="Trazado 208746" d="M229.216,88.833l-3.724-5.4a9.724,9.724,0,0,1-1.587-.492c-.422-.247-.838-2.391-.829-2.81s-.722-1.4-.426-1.673,1.294-.3,1.24-.7c-.011-.085-.74-.98-.162-1.637a3.1,3.1,0,0,1,1.05-.446l-.06-2.06s1.113-2.432,2.25-1.552c0,0,4.286,3.293,4.718,3.819s2.081,7.383,2.373,8.67" transform="translate(-28.786 -9.296)" fill="#ffc09d"/>
            <path id="Trazado_208747" data-name="Trazado 208747" d="M234.041,84.539a1.969,1.969,0,0,0-.057-.364l-.22-1.031c-.2-.893-.5-2.186-.906-3.779-.205-.8-.432-1.667-.717-2.6-.076-.232-.149-.468-.248-.706a1.593,1.593,0,0,0-.5-.622c-.391-.344-.8-.681-1.225-1.025-.849-.686-1.749-1.395-2.689-2.124a3.139,3.139,0,0,0-.784-.518,1.075,1.075,0,0,0-.966.23,4.429,4.429,0,0,0-1.142,1.543l-.012.026v.033c.005.2.011.414.018.629.014.482.028.96.042,1.43l.1-.131a5.1,5.1,0,0,0-.756.254,1.116,1.116,0,0,0-.366.239,1.024,1.024,0,0,0-.207.381,1.272,1.272,0,0,0,.065.819,2.5,2.5,0,0,0,.168.354l.095.162.019.034c-.005-.007,0-.022,0-.008a.066.066,0,0,1-.006.035c-.011.047-.111.11-.212.15s-.218.077-.333.113-.232.069-.352.116a.693.693,0,0,0-.357.251.589.589,0,0,0-.01.439,2.65,2.65,0,0,0,.125.346c.093.219.2.425.273.629a.858.858,0,0,1,.064.289,3.071,3.071,0,0,0,.034.352c.032.225.074.444.118.66a8.835,8.835,0,0,0,.35,1.245,1.58,1.58,0,0,0,.327.574,1.93,1.93,0,0,0,.581.255c.378.118.744.209,1.1.293l-.059-.041,2.758,3.921.765,1.061a2.8,2.8,0,0,0,.283.36,2.624,2.624,0,0,0-.235-.393q-.27-.407-.721-1.092l-2.686-3.97-.021-.031-.039-.01c-.351-.086-.717-.182-1.082-.3a1.834,1.834,0,0,1-.5-.218,1.437,1.437,0,0,1-.261-.488,8.612,8.612,0,0,1-.33-1.213c-.042-.212-.082-.427-.111-.644a2.81,2.81,0,0,1-.029-.319,1.1,1.1,0,0,0-.077-.373c-.083-.225-.186-.432-.274-.643a2.428,2.428,0,0,1-.113-.313.384.384,0,0,1-.011-.253.562.562,0,0,1,.23-.137c.1-.04.218-.073.333-.108s.235-.07.357-.12a.6.6,0,0,0,.352-.289.306.306,0,0,0,.024-.145.2.2,0,0,0-.023-.1l-.026-.046-.092-.158a2.317,2.317,0,0,1-.151-.32,1.021,1.021,0,0,1-.057-.655.77.77,0,0,1,.154-.283.911.911,0,0,1,.276-.171,4.837,4.837,0,0,1,.711-.238l.1-.027,0-.105c-.013-.469-.027-.947-.041-1.429-.006-.216-.013-.431-.018-.63l-.012.058a4.19,4.19,0,0,1,1.06-1.443.814.814,0,0,1,.734-.191,3.071,3.071,0,0,1,.7.473c.94.725,1.843,1.429,2.694,2.109.425.34.838.674,1.224,1.009a1.368,1.368,0,0,1,.453.537c.094.222.17.456.246.683.293.918.529,1.787.745,2.578.412,1.567.747,2.842.986,3.755q.167.635.268,1.02a2.01,2.01,0,0,0,.108.352" transform="translate(-28.767 -9.277)" fill="#ff9b6c"/>
            <path id="Trazado_208748" data-name="Trazado 208748" d="M225.1,76.228c0,.045.435.01,1.111.076a8.013,8.013,0,0,1,1.172.268,5.408,5.408,0,0,0,1.516.013,2.862,2.862,0,0,1,2.388.774,3.1,3.1,0,0,1,.576.917,1.413,1.413,0,0,0-.44-1.044,2.788,2.788,0,0,0-1.025-.72,3.137,3.137,0,0,0-1.518-.191,5.8,5.8,0,0,1-1.45.012,6.478,6.478,0,0,0-1.206-.215,2.945,2.945,0,0,0-1.126.11" transform="translate(-29.113 -9.844)" fill="#ff9b6c"/>
            <path id="Trazado_208749" data-name="Trazado 208749" d="M226.834,75.949c.064.032.235-.219.213-.574s-.221-.584-.281-.545,0,.273.017.561-.019.529.051.558" transform="translate(-29.324 -9.677)" fill="#ff9b6c"/>
            <path id="Trazado_208750" data-name="Trazado 208750" d="M223.933,78.627a9.376,9.376,0,0,0,3.228-.252,3.187,3.187,0,0,1,1.187-.151,1.287,1.287,0,0,1,.769.507,7.654,7.654,0,0,1,.424.819,1.441,1.441,0,0,0-.271-.926,1.419,1.419,0,0,0-.873-.639,3.1,3.1,0,0,0-1.291.131c-1.73.377-3.175.433-3.173.511" transform="translate(-28.961 -10.082)" fill="#ff9b6c"/>
            <path id="Trazado_208751" data-name="Trazado 208751" d="M223.279,80.858a1.732,1.732,0,0,0,.793,0c.488-.054,1.142-.222,1.856-.362a4.167,4.167,0,0,1,1-.1,1.2,1.2,0,0,1,.719.259,1.147,1.147,0,0,1,.351.629c.015,0,.051-.071.044-.219a.9.9,0,0,0-.268-.547,1.308,1.308,0,0,0-.825-.367,3.8,3.8,0,0,0-1.069.083c-.735.145-1.37.339-1.839.438a3.776,3.776,0,0,0-.762.18" transform="translate(-28.877 -10.365)" fill="#ff9b6c"/>
            <path id="Trazado_208752" data-name="Trazado 208752" d="M224.745,82.738c-.045.034.319.414.987.413l-.132-.114c.014.118.026.23.04.346a3.74,3.74,0,0,0,.306,1.36,3.767,3.767,0,0,0-.044-1.39c-.016-.115-.031-.226-.048-.342l-.017-.121-.116.007a4.573,4.573,0,0,1-.977-.158" transform="translate(-29.066 -10.699)" fill="#ff9b6c"/>
            <path id="Trazado_208753" data-name="Trazado 208753" d="M254.1,81.245S261.337,83,261.321,92.6c-.015,9.563-2.186,14.343-2.186,14.343L245.79,99.679l2.978-7.476Z" transform="translate(-31.788 -10.507)" fill="#2194e5"/>
            <path id="Trazado_208754" data-name="Trazado 208754" d="M259.109,107.241a1.339,1.339,0,0,1-.278-.121l-.774-.393-2.844-1.5L245.7,100.1l-.108-.057.044-.114c.229-.6.47-1.23.716-1.871l2.406-6.249,1.057-2.723a16.568,16.568,0,0,1,1.057-2.33,7.229,7.229,0,0,1,2.408-2.787,2.912,2.912,0,0,1,.938-.376,1.724,1.724,0,0,1,.261-.033c.059,0,.089,0,.09,0a3.578,3.578,0,0,0-1.231.5,7.371,7.371,0,0,0-2.292,2.79,16.882,16.882,0,0,0-1.013,2.316L249,91.9c-.734,1.927-1.539,4.038-2.385,6.257-.246.641-.488,1.272-.717,1.87l-.064-.172,9.472,5.207,2.8,1.574.751.437a1.318,1.318,0,0,1,.253.167" transform="translate(-31.762 -10.806)" fill="#263238"/>
            <path id="Trazado_208755" data-name="Trazado 208755" d="M55.99,236.356,43.456,247.821,57.64,263.488c1.413-1.446-2.919-12.272-2.919-12.272l7.83-7.573Z" transform="translate(-5.62 -30.568)" fill="#455a64"/>
            <path id="Trazado_208756" data-name="Trazado 208756" d="M51.948,247.135a.864.864,0,0,0-1.131.219.831.831,0,0,0,.207,1.123.911.911,0,0,0,1.2-.239.86.86,0,0,0-.345-1.143" transform="translate(-6.555 -31.946)" fill="#fff"/>
            <path id="Trazado_208757" data-name="Trazado 208757" d="M43.456,249.344l1.309-1.211L57.83,263.719s.321.975-.244,1.337Z" transform="translate(-5.62 -32.091)" fill="#263238"/>
            <path id="Trazado_208758" data-name="Trazado 208758" d="M56.426,253.506c-.079.067-.46-.284-1.047-.438s-1.09-.064-1.123-.161c-.049-.084.511-.384,1.219-.185s1.036.737.951.784" transform="translate(-7.017 -32.676)" fill="#fff"/>
            <path id="Trazado_208759" data-name="Trazado 208759" d="M57.366,256.159c-.058.084-.488-.129-1.047-.1-.56.017-.969.268-1.034.189-.077-.061.287-.515.983-.543s1.17.382,1.1.45" transform="translate(-7.149 -33.07)" fill="#fff"/>
            <path id="Trazado_208760" data-name="Trazado 208760" d="M56.386,259.229c-.1-.067.13-.483.8-.69.6-.187,1.087.024,1.053.114s-.459.071-.946.229-.833.416-.91.347" transform="translate(-7.29 -33.427)" fill="#fff"/>
            <path id="Trazado_208761" data-name="Trazado 208761" d="M58.493,251.319c-.1.031-.311-.415-.731-.821s-.863-.62-.833-.719.6-.022,1.085.463.574,1.06.48,1.077" transform="translate(-7.362 -32.299)" fill="#fff"/>
            <path id="Trazado_208762" data-name="Trazado 208762" d="M60.265,248.7c-.03.03-.352-.23-.706-.788a4.763,4.763,0,0,1-.491-1.049,4.957,4.957,0,0,1-.169-.668,1.284,1.284,0,0,1-.03-.4.449.449,0,0,1,.374-.4.568.568,0,0,1,.479.177,1.38,1.38,0,0,1,.226.331,3.766,3.766,0,0,1,.274.64,3.726,3.726,0,0,1,.18,1.153,1.766,1.766,0,0,1-.219,1.039c-.057-.012.023-.406-.034-1.027a4.224,4.224,0,0,0-.239-1.056,3.98,3.98,0,0,0-.269-.576c-.106-.205-.233-.348-.346-.324-.042.01-.055.018-.072.1a1.062,1.062,0,0,0,.023.3,5.656,5.656,0,0,0,.138.629,5.92,5.92,0,0,0,.4,1.022,7.205,7.205,0,0,1,.485.912" transform="translate(-7.613 -31.735)" fill="#fff"/>
            <path id="Trazado_208763" data-name="Trazado 208763" d="M60.243,248.917c-.037-.017.1-.416.57-.893a3.455,3.455,0,0,1,.956-.67,3.523,3.523,0,0,1,.657-.232.878.878,0,0,1,.85.142.5.5,0,0,1,.077.526,1.418,1.418,0,0,1-.215.341,2.344,2.344,0,0,1-.528.479,2.433,2.433,0,0,1-1.114.4,1.363,1.363,0,0,1-1.044-.205,8.476,8.476,0,0,0,1.006-.046,2.437,2.437,0,0,0,.962-.419,2.2,2.2,0,0,0,.441-.425c.145-.176.222-.36.149-.407a.607.607,0,0,0-.506-.042,3.573,3.573,0,0,0-.6.191,3.767,3.767,0,0,0-.92.557c-.479.394-.691.736-.741.7" transform="translate(-7.79 -31.954)" fill="#fff"/>
            <path id="Trazado_208764" data-name="Trazado 208764" d="M54.376,249.044l.159,16.986,21.134-.09c-.132-2.018-11.083-6.025-11.083-6.025l.344-10.888Z" transform="translate(-7.032 -32.207)" fill="#455a64"/>
            <path id="Trazado_208765" data-name="Trazado 208765" d="M58.5,260.507a.863.863,0,0,0-.593.987.831.831,0,0,0,.974.6.91.91,0,0,0,.622-1.049.86.86,0,0,0-1.081-.508" transform="translate(-7.487 -33.686)" fill="#fff"/>
            <path id="Trazado_208766" data-name="Trazado 208766" d="M54.553,268.326l-.025-1.819,20.326.69s.939.411.831,1.074Z" transform="translate(-7.052 -34.467)" fill="#263238"/>
            <path id="Trazado_208767" data-name="Trazado 208767" d="M66.21,261.392c0,.1-.519.152-1.025.486s-.775.769-.871.729c-.095-.02.057-.637.677-1.031s1.241-.279,1.219-.184" transform="translate(-8.314 -33.794)" fill="#fff"/>
            <path id="Trazado_208768" data-name="Trazado 208768" d="M68.839,262.442c.024.1-.422.278-.771.716s-.448.9-.551.9c-.1.017-.171-.588.273-1.124s1.046-.586,1.048-.488" transform="translate(-8.722 -33.936)" fill="#fff"/>
            <path id="Trazado_208769" data-name="Trazado 208769" d="M70.486,265.224c-.093.023-.239-.493.024-1.059s.744-.793.788-.708-.253.389-.462.858-.246.9-.349.909" transform="translate(-9.1 -34.071)" fill="#fff"/>
            <path id="Trazado_208770" data-name="Trazado 208770" d="M65.943,258.493c-.043.094-.517-.046-1.1,0s-1.038.228-1.092.14.382-.458,1.069-.5,1.173.281,1.122.362" transform="translate(-8.244 -33.383)" fill="#fff"/>
            <path id="Trazado_208771" data-name="Trazado 208771" d="M54.058,137.76a30.166,30.166,0,0,0-4.417,6.21c-1.454,3.04-3.691,9.513-3.691,9.513s-2.784,9.887-2.163,14.548,4.787,36.535,4.787,36.535-.819,25.269,2.744,36.512l.659,2.982,11.913-2.115,2.64-62.552L73.8,138.035Z" transform="translate(-5.651 -17.816)" fill="#263238"/>
            <path id="Trazado_208772" data-name="Trazado 208772" d="M72.763,140.661c-.051.017-.034-.389-.459-.686a.882.882,0,0,0-.817-.083.847.847,0,0,0,.027,1.581.882.882,0,0,0,.814-.111c.414-.311.383-.717.434-.7.016,0,.046.087.027.252a.973.973,0,0,1-.336.609,1.066,1.066,0,0,1-1.026.2,1.1,1.1,0,0,1-.036-2.08,1.07,1.07,0,0,1,1.033.167.972.972,0,0,1,.356.6c.024.165,0,.253-.018.253" transform="translate(-9.14 -18.052)" fill="#455a64"/>
            <path id="Trazado_208773" data-name="Trazado 208773" d="M84.572,146.393s4.37,39.655,5,46.463-24.09,43.127-24.09,43.127L55.051,223.662l15.912-29.58-5.358-29.463,7.054-26.583,10.969.131Z" transform="translate(-7.12 -17.852)" fill="#263238"/>
            <path id="Trazado_208774" data-name="Trazado 208774" d="M50.356,234.894a8.244,8.244,0,0,0,.085.867c.072.569.212,1.4.41,2.483.4,2.158,1.039,5.288,1.9,9.2l.018.081.082-.015,11.919-2.089.091-.016,0-.091c.332-8.177.728-17.952,1.153-28.433.44-11.278.847-21.735,1.181-30.314v.01c.893-6.891,1.633-12.591,2.149-16.579.25-1.981.445-3.537.58-4.608q.094-.784.145-1.211c.03-.274.038-.416.038-.416s-.03.139-.072.412-.1.686-.176,1.207l-.64,4.6c-.54,3.985-1.31,9.68-2.243,16.567v.01c-.348,8.579-.772,19.035-1.23,30.312-.409,10.482-.791,20.256-1.11,28.434l.094-.107-11.909,2.141.1.067c-.885-3.9-1.554-7.026-1.98-9.177-.212-1.076-.367-1.908-.454-2.473-.049-.282-.077-.5-.1-.643s-.037-.218-.037-.218" transform="translate(-6.513 -21.179)" fill="#455a64"/>
            <path id="Trazado_208775" data-name="Trazado 208775" d="M71.081,154.2a4.281,4.281,0,0,1,.652.032,2.992,2.992,0,0,0,1.677-.286,1.555,1.555,0,0,0,.674-.9,6.3,6.3,0,0,0,.2-1.364c.084-.989.169-2.077.245-3.221.153-2.286.238-4.36.289-5.861.025-.705.047-1.3.064-1.779a2.887,2.887,0,0,1,.056-.653,2.945,2.945,0,0,1,.053.653c.016.421.027,1.03.025,1.782,0,1.5-.053,3.585-.206,5.876-.076,1.146-.169,2.236-.268,3.226a6.257,6.257,0,0,1-.241,1.416,1.749,1.749,0,0,1-.794,1,2.223,2.223,0,0,1-1.013.265,4.356,4.356,0,0,1-.776-.041,2.235,2.235,0,0,1-.642-.141" transform="translate(-9.193 -18.127)" fill="#455a64"/>
            <path id="Trazado_208776" data-name="Trazado 208776" d="M87.566,146.711a4.184,4.184,0,0,1-1.138-.6,11.819,11.819,0,0,1-4.07-4.636,4.168,4.168,0,0,1-.45-1.207,15.983,15.983,0,0,0,5.658,6.446" transform="translate(-10.592 -18.14)" fill="#455a64"/>
            <path id="Trazado_208777" data-name="Trazado 208777" d="M45.322,95.74l4.749,17.244,2.1,9.175c0,7.9-2.1,11.506-2.1,11.506l32.323-1.612s.53-21.874,0-26.01L78.456,91.721l-10.25-2.516-12.8.245Z" transform="translate(-5.861 -11.537)" fill="#2194e5"/>
            <path id="Trazado_208778" data-name="Trazado 208778" d="M96.307,123.778a2.053,2.053,0,0,1-.121-.852,5.847,5.847,0,0,1,1.416-3.837,2.063,2.063,0,0,1,.645-.569,7.765,7.765,0,0,0-1.94,5.258" transform="translate(-12.44 -15.328)" fill="#263238"/>
            <path id="Trazado_208779" data-name="Trazado 208779" d="M103.686,108.989,95.289,114l-4.762-12.2a56.821,56.821,0,0,0-2.752-5.232c-2.789-4.894-6.33-4.637-6.33-4.637l-4.271,6.342,4.534,9.714s2.758,18.018,8.109,19.415c8.167,2.133,13.867-18.415,13.867-18.415" transform="translate(-9.981 -11.889)" fill="#2194e5"/>
            <g id="Grupo_154580" data-name="Grupo 154580" transform="translate(41.28 99.573)" opacity="0.3">
              <g id="Grupo_154579" data-name="Grupo 154579">
                <g id="Grupo_154578" data-name="Grupo 154578" clip-path="url(#clip-path-8)">
                  <path id="Trazado_208780" data-name="Trazado 208780" d="M47.412,147.709A24.5,24.5,0,0,0,58.441,144c3.274-1.944,6.241-4.354,9.327-6.582,7.394-5.339,22.069-17.039,28.926-23.05l-1.988.448L48.55,144.683Z" transform="translate(-47.412 -114.363)"/>
                </g>
              </g>
            </g>
            <path id="Trazado_208781" data-name="Trazado 208781" d="M87.343,128.353a1.363,1.363,0,0,1-.025-.319c-.005-.239-.011-.542-.019-.913,0-.831-.009-1.969-.016-3.358.014-2.87.033-6.77.054-11.079.005-1.084.041-2.137-.027-3.148a18.518,18.518,0,0,0-.4-2.889,15.009,15.009,0,0,0-1.986-4.5c-.723-1.218-1.3-2.216-1.641-2.934-.172-.359-.293-.643-.369-.838a1.4,1.4,0,0,1-.1-.3,1.364,1.364,0,0,1,.151.281c.091.187.229.462.415.811.37.7.968,1.675,1.714,2.882a14.844,14.844,0,0,1,2.068,4.546,18.345,18.345,0,0,1,.42,2.93c.072,1.027.038,2.088.034,3.167-.053,4.31-.1,8.21-.137,11.079-.03,1.389-.056,2.527-.074,3.357-.014.372-.025.674-.034.913a1.393,1.393,0,0,1-.031.318" transform="translate(-10.71 -12.683)" fill="#263238"/>
            <path id="Trazado_208782" data-name="Trazado 208782" d="M82,72.184a2.16,2.16,0,0,1-2.03-.906,2.572,2.572,0,0,0,1.559-.086c.472-.24.738-.935.369-1.314-.289-.3-.764-.245-1.176-.275a2.545,2.545,0,0,1-2.164-1.661,7.091,7.091,0,0,1,.1-3.15,8.674,8.674,0,0,0-3.632-8.006l-6.6-3.816A14.928,14.928,0,0,0,65.772,64.02a29.112,29.112,0,0,0,4.1,10.838A12.913,12.913,0,0,0,71.864,77.6a5.1,5.1,0,0,0,2.967,1.522,3.062,3.062,0,0,0-.488-2.763,6.661,6.661,0,0,0,4.91-1.759l-1.415-1.085A5.168,5.168,0,0,0,82,72.184" transform="translate(-8.487 -6.85)" fill="#263238"/>
            <path id="Trazado_208783" data-name="Trazado 208783" d="M55.222,61.447a6.186,6.186,0,0,1,4.489-5.827l8.277-2.366c3.592-.492,6.125,3.872,6.464,7.482a57.281,57.281,0,0,1,.275,11.258c-.771,6.058-5.369,6.967-5.369,6.967s.078,2.747.125,4.508l-.078,13.448L57.191,83.726,55.2,61.521c-.005-.1.013.064.019-.074" transform="translate(-7.139 -6.883)" fill="#c17560"/>
            <path id="Trazado_208784" data-name="Trazado 208784" d="M75.88,67.044a.773.773,0,0,1-.722.8.74.74,0,0,1-.818-.672.775.775,0,0,1,.721-.8.741.741,0,0,1,.819.673" transform="translate(-9.614 -8.583)" fill="#263238"/>
            <path id="Trazado_208785" data-name="Trazado 208785" d="M75.895,64.482c-.092.1-.692-.312-1.524-.284s-1.429.462-1.522.363c-.046-.044.046-.228.306-.43a2.122,2.122,0,0,1,1.215-.415,2.036,2.036,0,0,1,1.217.352c.262.188.354.367.308.414" transform="translate(-9.42 -8.24)" fill="#263238"/>
            <path id="Trazado_208786" data-name="Trazado 208786" d="M67.512,67.055a.775.775,0,0,1-.723.8.74.74,0,0,1-.818-.672.775.775,0,0,1,.721-.8.742.742,0,0,1,.82.673" transform="translate(-8.532 -8.585)" fill="#263238"/>
            <path id="Trazado_208787" data-name="Trazado 208787" d="M66.82,64.741c-.093.1-.693-.312-1.525-.284s-1.429.462-1.522.364c-.045-.044.045-.229.306-.431a2.122,2.122,0,0,1,1.215-.415,2.038,2.038,0,0,1,1.217.352c.261.188.353.368.308.414" transform="translate(-8.246 -8.274)" fill="#263238"/>
            <path id="Trazado_208788" data-name="Trazado 208788" d="M70.386,71.247a5.52,5.52,0,0,1,1.343-.286c.212-.028.412-.077.442-.223a1.081,1.081,0,0,0-.161-.625q-.324-.761-.678-1.6a27.9,27.9,0,0,1-1.541-4.188,27.783,27.783,0,0,1,1.875,4.055l.652,1.608a1.228,1.228,0,0,1,.137.831.533.533,0,0,1-.34.321,1.429,1.429,0,0,1-.359.062,5.4,5.4,0,0,1-1.37.044" transform="translate(-9.025 -8.319)" fill="#263238"/>
            <path id="Trazado_208789" data-name="Trazado 208789" d="M62.207,80.584s2.08,4.085,8.1,3.336L70.265,82.5a15.2,15.2,0,0,1-8.058-1.917" transform="translate(-8.045 -10.422)" fill="#7c4236"/>
            <path id="Trazado_208790" data-name="Trazado 208790" d="M66.313,61.687c-.075.229-.909.147-1.882.294-.975.129-1.754.439-1.889.239-.061-.095.07-.313.381-.541a3.309,3.309,0,0,1,2.873-.407c.362.134.549.306.516.414" transform="translate(-8.087 -7.903)" fill="#263238"/>
            <path id="Trazado_208791" data-name="Trazado 208791" d="M75.533,61.56c-.14.193-.72.015-1.409.027-.69-.012-1.269.166-1.41-.028-.062-.094.024-.286.273-.473a2.041,2.041,0,0,1,2.272,0c.249.186.335.379.273.473" transform="translate(-9.402 -7.856)" fill="#263238"/>
            <path id="Trazado_208792" data-name="Trazado 208792" d="M66.888,74.014a1.086,1.086,0,0,1,1.1-.856,1.132,1.132,0,0,1,.891.6,1.4,1.4,0,0,1,.081,1.084l-.016.078a1.236,1.236,0,0,1-1.383.336,1.155,1.155,0,0,1-.671-1.238" transform="translate(-8.648 -9.461)" fill="#7c4236"/>
            <path id="Trazado_208793" data-name="Trazado 208793" d="M69.59,74.835c0-.126-.843-.062-1.5-.735s-.63-1.573-.748-1.571c-.054-.008-.148.212-.128.591a2.094,2.094,0,0,0,.576,1.315,1.83,1.83,0,0,0,1.25.562c.353,0,.555-.105.545-.163" transform="translate(-8.693 -9.38)" fill="#263238"/>
            <path id="Trazado_208794" data-name="Trazado 208794" d="M58.421,51.126A8.393,8.393,0,0,1,63.274,47.8a4.57,4.57,0,0,1,4.436,1.172,4.889,4.889,0,0,0,1.946,1.152,8.218,8.218,0,0,1,2.851.6c1.534.784,2.206,2.836,2.918,4.4.883,1.951,2.142,3.746,2.718,5.808s.269,4.6-1.469,5.847c.333-1.76.606-3.718-.36-5.226-.737-1.15-2.05-1.787-3-2.773-1.141-1.189-1.289-2.781-2.484-3.915C68.1,52.282,63.3,56.841,58.421,51.126" transform="translate(-7.556 -6.166)" fill="#263238"/>
            <path id="Trazado_208795" data-name="Trazado 208795" d="M75.989,59.892A17.6,17.6,0,0,0,73.3,55.02,9.473,9.473,0,0,0,60.7,53.406l-.475.04a7.991,7.991,0,0,0,6.214,2.994c1.417-.007,2.955-.37,4.171.359,1.168.7,1.612,2.171,2.573,3.137.655.656,1.533,1.06,2.169,1.736a7.1,7.1,0,0,1,1.342,2.6,6.782,6.782,0,0,0-.709-4.381" transform="translate(-7.789 -6.688)" fill="#263238"/>
            <path id="Trazado_208796" data-name="Trazado 208796" d="M61.7,54.505l-3.865-3.4c-3.013-.157-4.945,2.69-5.98,4.888a47.735,47.735,0,0,0-1.586,5.172c-.595,1.756-1.545,3.379-2.086,5.153a6.215,6.215,0,0,0,.452,5.349l.675-1.239a7.484,7.484,0,0,0,2.027,4.626l.259-1.291A7.267,7.267,0,0,0,54.5,76.9l1.81,4.84c2.675-8.145-4.21-8.762,5.387-27.231" transform="translate(-6.181 -6.609)" fill="#263238"/>
            <path id="Trazado_208797" data-name="Trazado 208797" d="M61.427,55.235a17.517,17.517,0,0,1-.907,3.235,6.228,6.228,0,0,1-1.989,2.663c-1.322.959-3.025,1.156-4.613,1.538s-3.28,1.115-3.934,2.612A37.442,37.442,0,0,1,51.339,58.8c.708-2.333,1.73-4.709,3.673-6.181a6.734,6.734,0,0,1,6.345-.946" transform="translate(-6.464 -6.629)" fill="#263238"/>
            <path id="Trazado_208798" data-name="Trazado 208798" d="M57.845,68.006c-.081-.2-3.831-1.436-3.767,2.511.061,3.834,3.908,2.97,3.912,2.859s-.145-5.37-.145-5.37" transform="translate(-6.994 -8.751)" fill="#c17560"/>
            <path id="Trazado_208799" data-name="Trazado 208799" d="M56.923,72.134c-.017-.012-.066.048-.178.1a.671.671,0,0,1-.5.02,1.651,1.651,0,0,1-.793-1.468,2.206,2.206,0,0,1,.168-.96.773.773,0,0,1,.493-.522.341.341,0,0,1,.4.176c.053.106.03.183.05.19s.081-.066.047-.224a.421.421,0,0,0-.155-.238.5.5,0,0,0-.371-.091.939.939,0,0,0-.687.608,2.273,2.273,0,0,0-.211,1.074,1.734,1.734,0,0,0,1.006,1.637.715.715,0,0,0,.609-.113c.117-.1.135-.183.122-.19" transform="translate(-7.137 -8.939)" fill="#7c4236"/>
            <path id="Trazado_208800" data-name="Trazado 208800" d="M56.574,73.375a.754.754,0,1,0,.18.051" transform="translate(-7.204 -9.488)" fill="#fff"/>
            <path id="Trazado_208801" data-name="Trazado 208801" d="M56.742,73.422a1.037,1.037,0,0,1,.36.5.649.649,0,0,1-.133.606.67.67,0,0,1-1.189-.341.651.651,0,0,1,.21-.584,1.021,1.021,0,0,1,.573-.237c0-.01-.06-.038-.181-.037a.784.784,0,0,0-.474.181.765.765,0,0,0-.287.7.824.824,0,0,0,1.472.423.768.768,0,0,0,.128-.746.782.782,0,0,0-.306-.4c-.1-.064-.169-.073-.172-.064" transform="translate(-7.192 -9.484)" fill="#263238"/>
            <path id="Trazado_208802" data-name="Trazado 208802" d="M62.855,55.476A11.2,11.2,0,0,0,61.357,53a11.254,11.254,0,0,0-2.251-1.82,2.151,2.151,0,0,1,.809.324,6.222,6.222,0,0,1,2.729,3.126,2.137,2.137,0,0,1,.212.845" transform="translate(-7.644 -6.619)" fill="#455a64"/>
            <path id="Trazado_208803" data-name="Trazado 208803" d="M170.942,69.9a3.006,3.006,0,0,1,.114.467c.057.309.175.76.256,1.353a32.031,32.031,0,0,1,.4,5.048,34.479,34.479,0,0,1-.775,7.471,31.556,31.556,0,0,1-1.215,4.274,27.953,27.953,0,0,1-4.631,8.31,33.472,33.472,0,0,1-3.05,3.236,30.825,30.825,0,0,1-6.126,4.349,24.437,24.437,0,0,1-4.68,1.935c-.569.188-1.029.266-1.334.343a3,3,0,0,1-.472.091,3.1,3.1,0,0,1,.458-.145c.3-.094.754-.19,1.315-.393a26.206,26.206,0,0,0,4.619-2.005,31.5,31.5,0,0,0,6.044-4.365,33.893,33.893,0,0,0,3.011-3.219,28.079,28.079,0,0,0,4.587-8.23,31.822,31.822,0,0,0,1.222-4.236,36.134,36.134,0,0,0,.518-12.449c-.064-.593-.163-1.047-.2-1.358a3.011,3.011,0,0,1-.058-.477" transform="translate(-19.326 -9.04)" fill="#263238"/>
            <path id="Trazado_208804" data-name="Trazado 208804" d="M167.817,60.693a34.408,34.408,0,0,0-61.174,2.391,34.543,34.543,0,0,0,1.215,31.445A34.2,34.2,0,0,0,128.6,110.773a34.211,34.211,0,0,0,26.153-3.181,34.463,34.463,0,0,0,13.062-46.9M146.2,47.578a30.971,30.971,0,0,1,18.786,14.711,31.285,31.285,0,0,1,1.1,28.48,31.159,31.159,0,1,1-28.3-44.348,31.325,31.325,0,0,1,8.412,1.157" transform="translate(-13.377 -5.583)" fill="#263238"/>
            <path id="Trazado_208805" data-name="Trazado 208805" d="M112.191,91.18a1.127,1.127,0,0,1-.138-.253l-.347-.751a11.237,11.237,0,0,1-.489-1.213c-.167-.482-.387-1.022-.544-1.646l-.272-.973c-.091-.339-.151-.7-.232-1.069-.175-.737-.269-1.54-.387-2.383a27.543,27.543,0,0,1,.963-10.96c.263-.809.495-1.584.8-2.279.145-.349.266-.695.416-1.012l.436-.911c.263-.587.575-1.08.823-1.525a11.133,11.133,0,0,1,.694-1.109l.472-.679a1.062,1.062,0,0,1,.179-.225,1.072,1.072,0,0,1-.132.257c-.114.189-.255.421-.426.706a12.635,12.635,0,0,0-.65,1.128c-.234.45-.531.946-.781,1.535l-.417.91c-.143.318-.259.662-.4,1.01-.289.693-.511,1.464-.764,2.268a28.45,28.45,0,0,0-.954,10.859c.11.835.193,1.633.358,2.366.075.367.129.726.215,1.064s.171.659.252.969c.143.623.348,1.163.5,1.647a12.982,12.982,0,0,0,.443,1.224l.3.769a1.124,1.124,0,0,1,.086.277" transform="translate(-14.177 -8.302)" fill="#263238"/>
            <path id="Trazado_208806" data-name="Trazado 208806" d="M117.716,101.692c-.034.066-.585-.165-1.118-.658s-.81-1.023-.746-1.062.429.389.937.855.967.795.927.865" transform="translate(-14.982 -12.929)" fill="#263238"/>
            <path id="Trazado_208807" data-name="Trazado 208807" d="M106.613,60.072a33.92,33.92,0,1,1,1.2,31,33.753,33.753,0,0,1-1.2-31M166.06,87.756a31.638,31.638,0,1,0-13.132,14.214A31.642,31.642,0,0,0,166.06,87.756" transform="translate(-13.377 -5.23)" fill="#455a64"/>
            <path id="Trazado_208808" data-name="Trazado 208808" d="M137.34,108.806a34.6,34.6,0,0,1-9.3-1.279,34.25,34.25,0,0,1-20.776-16.268,34.6,34.6,0,0,1-1.218-31.493,34.459,34.459,0,1,1,31.3,49.041m-.1-67.9a33.493,33.493,0,1,0,9.011,1.239,33.567,33.567,0,0,0-9.011-1.239m.1,65.629a32.339,32.339,0,0,1-8.691-1.2,32.2,32.2,0,1,1,36.687-46.851A32.315,32.315,0,0,1,166.472,87.9a32.223,32.223,0,0,1-29.134,18.629m-.1-63.356a31.221,31.221,0,1,0,8.4,1.155,30.946,30.946,0,0,0-8.4-1.155" transform="translate(-13.299 -5.15)" fill="#455a64"/>
            <path id="Trazado_208809" data-name="Trazado 208809" d="M33.437,145.688l-.61-.967c-1.307-2.072.176-5.355,1.621-6.268l64.03-40.41c.322-.2.82.006,1.112.468l4.289,6.795a.883.883,0,0,1-.056,1.206l-63.66,40.177c-1.445.912-5.419,1.072-6.726-1" transform="translate(-4.18 -12.67)" fill="#455a64"/>
            <path id="Trazado_208810" data-name="Trazado 208810" d="M102.12,113.769l1.942-2.057s-.228-4.683.571-5.826l.417-.69s-.415-2.278.81-2.8c.347-.861.793-1.211,1.4-.732,0,0-.342-1.713,1.256-1.942s2.057,7.025,2.057,7.025.8,3.255-1.028,3.255a4.107,4.107,0,0,1-2.171,1.257s-.342,1.942-1.942,1.828Z" transform="translate(-13.207 -12.896)" fill="#c17560"/>
            <path id="Trazado_208811" data-name="Trazado 208811" d="M107.1,112c.01-.009.1.059.183.232a1.314,1.314,0,0,1,.092.8,1.808,1.808,0,0,1-.6,1.04,3.726,3.726,0,0,1-1.275.7,9.109,9.109,0,0,1-2.545.5,3.148,3.148,0,0,1-1.073-.057,16.527,16.527,0,0,0,3.533-.687,3.772,3.772,0,0,0,1.205-.635,1.7,1.7,0,0,0,.579-.9,1.617,1.617,0,0,0-.1-1" transform="translate(-13.177 -14.485)" fill="#7c4236"/>
            <path id="Trazado_208812" data-name="Trazado 208812" d="M109.322,108.1c-.078,0-.082-1.458-.432-3.208s-.89-3.1-.818-3.132a3.013,3.013,0,0,1,.424.86,13.319,13.319,0,0,1,.891,4.522,3.031,3.031,0,0,1-.065.957" transform="translate(-13.976 -13.161)" fill="#7c4236"/>
            <path id="Trazado_208813" data-name="Trazado 208813" d="M107.728,109.03c-.075.005-.213-1.417-.579-3.136s-.807-3.079-.737-3.1a15.349,15.349,0,0,1,1.316,6.24" transform="translate(-13.761 -13.294)" fill="#7c4236"/>
            <path id="Trazado_208814" data-name="Trazado 208814" d="M110.788,109.893c.058-.037.3.412.141.979s-.583.834-.616.773c-.048-.056.247-.36.371-.84s.034-.888.1-.912" transform="translate(-14.266 -14.212)" fill="#7c4236"/>
            <path id="Trazado_208815" data-name="Trazado 208815" d="M105.69,109.737a9.893,9.893,0,0,1-.147-1.78,9.958,9.958,0,0,1-.073-1.784,7.459,7.459,0,0,1,.22,3.564" transform="translate(-13.637 -13.731)" fill="#7c4236"/>
            <path id="Trazado_208816" data-name="Trazado 208816" d="M56.037,129.079a5.876,5.876,0,0,1,1.878-1.719c1.275-.753,3.823-1.049,4.3-1.907s1.265.02.842,1.121a11.824,11.824,0,0,1-2.112,2.329,4.681,4.681,0,0,0,2.965.3c1.291-.459,5.6-.918,5.935-.266.375.737-.735.757-1.242.932-.386.134-3.351.984-3.351.984a50.163,50.163,0,0,1,6.077,1.19c.69.415-.19.931-.533.882a8.929,8.929,0,0,0-2.063,1.118,2.5,2.5,0,0,1-1.76.357l-1.261-.212,3.745,1.1s.549.725-.427.872c-.435.065-12.317-.392-13.224-.5-1.569-.194-4.1-.265-4.1-.265l1.947-7.09Z" transform="translate(-6.688 -16.18)" fill="#c17560"/>
            <path id="Trazado_208817" data-name="Trazado 208817" d="M72.925,134.181a8.407,8.407,0,0,1-2.715.308,8.435,8.435,0,0,1-2.712-.334c.011-.075,1.219.077,2.713.08s2.7-.128,2.714-.054" transform="translate(-8.729 -17.348)" fill="#7c4236"/>
            <path id="Trazado_208818" data-name="Trazado 208818" d="M43.69,121.686l5.442-11.219L44.324,95.9a9.775,9.775,0,0,0-3.616,3.143,39.62,39.62,0,0,0-3.566,7.267s-5.932,13.57-6.907,15.6-2.55,5.775,0,7.875,19.618,2.171,19.618,2.171l1.81-7.546Z" transform="translate(-3.731 -12.403)" fill="#2194e5"/>
            <path id="Trazado_208819" data-name="Trazado 208819" d="M46.628,104.651c.074-.024,1.345,3.769,2.838,8.47s2.645,8.533,2.571,8.557-1.345-3.769-2.839-8.472-2.644-8.532-2.57-8.555" transform="translate(-6.03 -13.534)" fill="#263238"/>
            <path id="Trazado_208820" data-name="Trazado 208820" d="M52.686,128.142a2.861,2.861,0,0,1-.633-.138l-1.7-.475c-1.429-.407-3.4-1-5.584-1.571a22.557,22.557,0,0,0-5.678-.951,7.3,7.3,0,0,0-2.323.459,2.188,2.188,0,0,1,.576-.3,5.492,5.492,0,0,1,1.74-.355,20.249,20.249,0,0,1,5.756.878c2.2.575,4.157,1.2,5.572,1.653.708.228,1.277.423,1.669.562a2.84,2.84,0,0,1,.6.243" transform="translate(-4.756 -16.139)" fill="#263238"/>
            <g id="Grupo_154583" data-name="Grupo 154583" transform="translate(41.788 94.826)" opacity="0.3">
              <g id="Grupo_154582" data-name="Grupo 154582">
                <g id="Grupo_154581" data-name="Grupo 154581" clip-path="url(#clip-path-9)">
                  <path id="Trazado_208821" data-name="Trazado 208821" d="M48.043,108.911a56.247,56.247,0,0,0,.488,9.495l1.532-3.071a45.833,45.833,0,0,0-1.936-6.223" transform="translate(-47.995 -108.911)"/>
                </g>
              </g>
            </g>
            <rect id="Rectángulo_45867" data-name="Rectángulo 45867" width="7.066" height="25.467" transform="translate(130.104 57.988)" fill="#2194e5"/>
            <rect id="Rectángulo_45868" data-name="Rectángulo 45868" width="7.066" height="11.562" transform="translate(107.966 72.975)" fill="#2194e5"/>
            <rect id="Rectángulo_45869" data-name="Rectángulo 45869" width="7.066" height="17.848" transform="translate(118.886 66.689)" fill="#2194e5"/>
            <path id="Trazado_208822" data-name="Trazado 208822" d="M150.37,56.936a1.283,1.283,0,0,1-.17.225l-.524.619-1.995,2.286-6.93,7.812-.077.087-.1-.064-4.336-2.832.184-.027-.165.2-9.17,10.757-.061.071-.074-.055-3.448-2.56-.929-.708a2.27,2.27,0,0,1-.313-.262,2.164,2.164,0,0,1,.347.216l.959.665,3.5,2.488-.134.017,9.107-10.811.165-.2.08-.095.1.069,4.33,2.841-.175.023,7-7.745,2.053-2.232.558-.589a1.283,1.283,0,0,1,.2-.193" transform="translate(-15.812 -7.363)" fill="#263238"/>
            <path id="Trazado_208823" data-name="Trazado 208823" d="M153.945,62.259a9.429,9.429,0,0,1-.1-1.625c-.025-1.006-.042-2.4-.043-3.942l.164.138-.14.024c-1.556.257-2.966.474-3.99.616a9.8,9.8,0,0,1-1.666.174,9.87,9.87,0,0,1,1.633-.37c1.015-.193,2.42-.441,3.976-.7l.141-.024.164-.027v.166c0,1.545-.017,2.936-.043,3.942a9.429,9.429,0,0,1-.1,1.625" transform="translate(-19.163 -7.311)" fill="#263238"/>
          </g>
        </g>
      </g>
    </g>
  </g>
</svg>
