<svg xmlns="http://www.w3.org/2000/svg" xmlns:xlink="http://www.w3.org/1999/xlink" width="337.94" height="249.53" viewBox="0 0 337.94 249.53">
  <defs>
    <filter id="Rectángulo_45262" x="0" y="186.355" width="337.94" height="63.175" filterUnits="userSpaceOnUse">
      <feOffset dy="3" input="SourceAlpha"/>
      <feGaussianBlur stdDeviation="3" result="blur"/>
      <feFlood flood-opacity="0.161"/>
      <feComposite operator="in" in2="blur"/>
      <feComposite in="SourceGraphic"/>
    </filter>
    <clipPath id="clip-path">
      <rect id="Rectángulo_45973" data-name="Rectángulo 45973" width="228" height="217.013" fill="none"/>
    </clipPath>
    <clipPath id="clip-path-3">
      <rect id="Rectángulo_45954" data-name="Rectángulo 45954" width="13.938" height="14.32" fill="none"/>
    </clipPath>
    <clipPath id="clip-path-4">
      <rect id="Rectángulo_45955" data-name="Rectángulo 45955" width="13.939" height="14.32" fill="none"/>
    </clipPath>
    <clipPath id="clip-path-12">
      <rect id="Rectángulo_45963" data-name="Rectángulo 45963" width="8.341" height="8.569" fill="none"/>
    </clipPath>
    <clipPath id="clip-path-13">
      <rect id="Rectángulo_45964" data-name="Rectángulo 45964" width="4.805" height="10.4" fill="none"/>
    </clipPath>
    <clipPath id="clip-path-14">
      <rect id="Rectángulo_45965" data-name="Rectángulo 45965" width="15.04" height="9.636" fill="none"/>
    </clipPath>
    <clipPath id="clip-path-15">
      <rect id="Rectángulo_45966" data-name="Rectángulo 45966" width="3.022" height="7.564" fill="none"/>
    </clipPath>
    <clipPath id="clip-path-16">
      <rect id="Rectángulo_45967" data-name="Rectángulo 45967" width="2.4" height="14.425" fill="none"/>
    </clipPath>
    <clipPath id="clip-path-17">
      <rect id="Rectángulo_45968" data-name="Rectángulo 45968" width="9.179" height="11.338" fill="none"/>
    </clipPath>
    <clipPath id="clip-path-18">
      <rect id="Rectángulo_45969" data-name="Rectángulo 45969" width="8.941" height="11.059" fill="none"/>
    </clipPath>
    <clipPath id="clip-path-19">
      <rect id="Rectángulo_45970" data-name="Rectángulo 45970" width="10.777" height="4.407" fill="none"/>
    </clipPath>
    <clipPath id="clip-path-20">
      <rect id="Rectángulo_45971" data-name="Rectángulo 45971" width="9.476" height="18.981" fill="none"/>
    </clipPath>
  </defs>
  <g id="Grupo_154697" data-name="Grupo 154697" transform="translate(-277 -13079.745)">
    <g id="Grupo_152705" data-name="Grupo 152705" transform="translate(75.106 10863.241)">
      <g transform="matrix(1, 0, 0, 1, 201.89, 2216.5)" filter="url(#Rectángulo_45262)">
        <rect id="Rectángulo_45262-2" data-name="Rectángulo 45262" width="45.175" height="319.94" rx="13" transform="translate(328.94 192.36) rotate(90)" fill="#135989"/>
      </g>
      <g id="Grupo_152570" data-name="Grupo 152570" transform="translate(209.894 2216.504)">
        <g id="Grupo_152551" data-name="Grupo 152551" transform="translate(0 110.318) rotate(-90)">
          <rect id="Rectángulo_45220" data-name="Rectángulo 45220" width="79.672" height="23.725" transform="translate(110.318 34.307) rotate(180)" fill="#d2c1eb"/>
          <g id="Grupo_152556" data-name="Grupo 152556" transform="translate(0 0)">
            <rect id="Rectángulo_45221" data-name="Rectángulo 45221" width="4.032" height="4.031" transform="translate(85.668)" fill="#7f4fc7"/>
            <rect id="Rectángulo_45222" data-name="Rectángulo 45222" width="4.031" height="4.031" transform="translate(77.102)" fill="#7f4fc7"/>
            <rect id="Rectángulo_45223" data-name="Rectángulo 45223" width="4.031" height="4.031" transform="translate(68.535)" fill="#7f4fc7"/>
            <rect id="Rectángulo_45224" data-name="Rectángulo 45224" width="4.031" height="4.031" transform="translate(59.968)" fill="#7f4fc7"/>
            <rect id="Rectángulo_45225" data-name="Rectángulo 45225" width="4.031" height="4.031" transform="translate(51.401)" fill="#7f4fc7"/>
            <rect id="Rectángulo_45226" data-name="Rectángulo 45226" width="4.031" height="4.031" transform="translate(42.834)" fill="#7f4fc7"/>
            <rect id="Rectángulo_45227" data-name="Rectángulo 45227" width="4.031" height="4.031" transform="translate(34.267)" fill="#7f4fc7"/>
            <rect id="Rectángulo_45228" data-name="Rectángulo 45228" width="4.031" height="4.031" transform="translate(25.701)" fill="#7f4fc7"/>
            <rect id="Rectángulo_45229" data-name="Rectángulo 45229" width="4.032" height="4.031" transform="translate(17.134)" fill="#7f4fc7"/>
            <rect id="Rectángulo_45230" data-name="Rectángulo 45230" width="4.031" height="4.031" transform="translate(8.567)" fill="#7f4fc7"/>
            <rect id="Rectángulo_45231" data-name="Rectángulo 45231" width="4.032" height="4.031" fill="#7f4fc7"/>
            <rect id="Rectángulo_45232" data-name="Rectángulo 45232" width="4.032" height="4.032" transform="translate(85.668 8.567)" fill="#7f4fc7"/>
            <rect id="Rectángulo_45233" data-name="Rectángulo 45233" width="4.031" height="4.032" transform="translate(77.102 8.567)" fill="#7f4fc7"/>
            <rect id="Rectángulo_45234" data-name="Rectángulo 45234" width="4.031" height="4.032" transform="translate(68.535 8.567)" fill="#7f4fc7"/>
            <rect id="Rectángulo_45235" data-name="Rectángulo 45235" width="4.031" height="4.032" transform="translate(59.968 8.567)" fill="#7f4fc7"/>
            <rect id="Rectángulo_45236" data-name="Rectángulo 45236" width="4.031" height="4.032" transform="translate(51.401 8.567)" fill="#7f4fc7"/>
            <rect id="Rectángulo_45237" data-name="Rectángulo 45237" width="4.031" height="4.032" transform="translate(42.834 8.567)" fill="#7f4fc7"/>
            <rect id="Rectángulo_45238" data-name="Rectángulo 45238" width="4.031" height="4.032" transform="translate(34.267 8.567)" fill="#7f4fc7"/>
            <rect id="Rectángulo_45239" data-name="Rectángulo 45239" width="4.031" height="4.032" transform="translate(25.701 8.567)" fill="#7f4fc7"/>
            <rect id="Rectángulo_45240" data-name="Rectángulo 45240" width="4.032" height="4.032" transform="translate(17.134 8.567)" fill="#7f4fc7"/>
            <rect id="Rectángulo_45241" data-name="Rectángulo 45241" width="4.031" height="4.032" transform="translate(8.567 8.567)" fill="#7f4fc7"/>
            <rect id="Rectángulo_45242" data-name="Rectángulo 45242" width="4.032" height="4.032" transform="translate(0 8.567)" fill="#7f4fc7"/>
            <rect id="Rectángulo_45243" data-name="Rectángulo 45243" width="4.032" height="4.031" transform="translate(85.668 17.134)" fill="#7f4fc7"/>
            <rect id="Rectángulo_45244" data-name="Rectángulo 45244" width="4.031" height="4.031" transform="translate(77.102 17.134)" fill="#7f4fc7"/>
            <rect id="Rectángulo_45245" data-name="Rectángulo 45245" width="4.031" height="4.031" transform="translate(68.535 17.134)" fill="#7f4fc7"/>
            <rect id="Rectángulo_45246" data-name="Rectángulo 45246" width="4.031" height="4.031" transform="translate(59.968 17.134)" fill="#7f4fc7"/>
            <rect id="Rectángulo_45247" data-name="Rectángulo 45247" width="4.031" height="4.031" transform="translate(51.401 17.134)" fill="#7f4fc7"/>
            <rect id="Rectángulo_45248" data-name="Rectángulo 45248" width="4.031" height="4.031" transform="translate(42.834 17.134)" fill="#7f4fc7"/>
            <rect id="Rectángulo_45249" data-name="Rectángulo 45249" width="4.031" height="4.031" transform="translate(34.267 17.134)" fill="#7f4fc7"/>
            <rect id="Rectángulo_45250" data-name="Rectángulo 45250" width="4.031" height="4.031" transform="translate(25.701 17.134)" fill="#7f4fc7"/>
            <rect id="Rectángulo_45251" data-name="Rectángulo 45251" width="4.032" height="4.031" transform="translate(17.134 17.134)" fill="#7f4fc7"/>
            <rect id="Rectángulo_45252" data-name="Rectángulo 45252" width="4.031" height="4.031" transform="translate(8.567 17.134)" fill="#7f4fc7"/>
            <rect id="Rectángulo_45253" data-name="Rectángulo 45253" width="4.032" height="4.031" transform="translate(0 17.134)" fill="#7f4fc7"/>
          </g>
        </g>
      </g>
    </g>
    <g id="Grupo_154758" data-name="Grupo 154758" transform="translate(331.47 13079.747)">
      <g id="Grupo_154757" data-name="Grupo 154757" clip-path="url(#clip-path)">
        <rect id="Rectángulo_45944" data-name="Rectángulo 45944" width="108.678" height="67.263" transform="translate(3.863 8.144)" fill="#fae5f9"/>
        <g id="Grupo_154756" data-name="Grupo 154756">
          <g id="Grupo_154755" data-name="Grupo 154755" clip-path="url(#clip-path)">
            <path id="Trazado_209089" data-name="Trazado 209089" d="M84.083,52.753c-7.535-2.858-16.2,5.046-23.591,1.824-4.3-1.876-6.248-6.737-8.354-10.928s-5.735-8.611-10.4-8.124c-4.7.491-8.509,5.938-13.054,4.625-2.865-.828-4.294-4.006-5.013-6.9s-1.215-6.092-3.4-8.122-6.735-1.486-7.077,1.475V62.263H98.18s-11.49-8.521-14.1-9.511" transform="translate(2.22 4.024)" fill="#ebd4ea"/>
            <path id="Trazado_209090" data-name="Trazado 209090" d="M101.136,56.76c0,.076-20.6.138-46,.138s-46.01-.062-46.01-.138,20.6-.138,46.01-.138,46,.062,46,.138" transform="translate(1.535 9.526)" fill="#e0cadf"/>
            <path id="Trazado_209091" data-name="Trazado 209091" d="M101.136,43.428c0,.076-20.6.139-46,.139s-46.01-.063-46.01-.139,20.6-.138,46.01-.138,46,.063,46,.138" transform="translate(1.535 7.283)" fill="#e0cadf"/>
            <path id="Trazado_209092" data-name="Trazado 209092" d="M101.136,30.1c0,.076-20.6.138-46,.138s-46.01-.062-46.01-.138,20.6-.138,46.01-.138,46,.062,46,.138" transform="translate(1.535 5.04)" fill="#e0cadf"/>
            <path id="Trazado_209093" data-name="Trazado 209093" d="M101.136,17.426c0,.076-20.6.139-46,.139s-46.01-.063-46.01-.139,20.6-.138,46.01-.138,46,.063,46,.138" transform="translate(1.535 2.909)" fill="#e0cadf"/>
            <path id="Trazado_209094" data-name="Trazado 209094" d="M158.766,21.179V3.966a17.213,17.213,0,1,1-17.208,17.611Z" transform="translate(23.816 0.667)" fill="#ebd4ea"/>
            <path id="Trazado_209095" data-name="Trazado 209095" d="M155.175,17.207l-17.213.389A18.157,18.157,0,0,1,142.838,5.2,17.7,17.7,0,0,1,154.907,0Z" transform="translate(23.211)" fill="#f5ddf4"/>
            <path id="Trazado_209096" data-name="Trazado 209096" d="M39.717,152.3V136.722a15.575,15.575,0,1,0,15.57,15.935Z" transform="translate(4.062 23.002)" fill="#ebd4ea"/>
            <path id="Trazado_209097" data-name="Trazado 209097" d="M40.724,148.7l15.575.352a16.431,16.431,0,0,0-4.412-11.214,16.016,16.016,0,0,0-10.921-4.707Z" transform="translate(6.851 22.399)" fill="#f5ddf4"/>
            <rect id="Rectángulo_45945" data-name="Rectángulo 45945" width="7.28" height="22.737" transform="translate(138.443 60.311)" fill="#f5ddf4"/>
            <rect id="Rectángulo_45946" data-name="Rectángulo 45946" width="7.28" height="17.543" transform="translate(149.313 65.505)" fill="#f5ddf4"/>
            <rect id="Rectángulo_45947" data-name="Rectángulo 45947" width="7.28" height="10.418" transform="translate(159.376 72.63)" fill="#f5ddf4"/>
            <path id="Trazado_209098" data-name="Trazado 209098" d="M53.568,28.693l.187-1.011c1.578-8.518,7.413-15.352,15.318-17.521a20.382,20.382,0,0,1,3.108-.6c7.58-.845,15.658,2.682,20.711,9.04,2.971,3.74,5.094,8.5,9.1,10.893,5.21,3.118,11.5,1.082,16.931-1.012s11.733-4.113,16.93-.972c3.256,1.967,5.353,5.646,6.457,9.414,2.924,9.977-.443,20.978-7.089,28.178S119.1,76.039,109.495,77.232C96.045,78.9,81.575,75.67,70.455,66.769S52.123,42.98,53.568,28.693" transform="translate(8.982 1.588)" fill="#f5ddf4"/>
            <path id="Trazado_209099" data-name="Trazado 209099" d="M60.6,69.038c-3.182-2.405-7.564-2.82-11.418-1.79-2.418.468-6.832,5.245-6.095,9.344s4.665,7.019,8.736,7.886c4.522.963,9.972-.61,11.9-4.814,1.659-3.627.064-8.22-3.118-10.625" transform="translate(7.235 11.225)" fill="#f5ddf4"/>
            <path id="Trazado_209100" data-name="Trazado 209100" d="M147.106,4.15C142.516.682,136.2.084,130.64,1.569c-3.486.676-9.851,7.566-8.789,13.475s6.727,10.12,12.6,11.371c6.522,1.389,14.379-.877,17.153-6.942,2.391-5.23.092-11.853-4.5-15.321" transform="translate(20.481 0.136)" fill="#f5ddf4"/>
            <rect id="Rectángulo_45948" data-name="Rectángulo 45948" width="14.804" height="28.886" transform="translate(8.17 187.857)" fill="#2194e5"/>
            <rect id="Rectángulo_45949" data-name="Rectángulo 45949" width="14.804" height="17.07" transform="translate(40.31 199.672)" fill="#deeffb"/>
            <path id="Trazado_209101" data-name="Trazado 209101" d="M74.875,191.095l-14.8.1V152.466h14.8Z" transform="translate(10.107 25.651)" fill="#2194e5"/>
            <rect id="Rectángulo_45950" data-name="Rectángulo 45950" width="14.804" height="20.393" transform="translate(101.445 196.35)" fill="#deeffb"/>
            <rect id="Rectángulo_45951" data-name="Rectángulo 45951" width="14.804" height="38.627" transform="translate(132.185 178.116)" fill="#2194e5"/>
            <rect id="Rectángulo_45952" data-name="Rectángulo 45952" width="14.804" height="88.021" transform="translate(162.632 128.722)" fill="#deeffb"/>
            <path id="Trazado_209102" data-name="Trazado 209102" d="M21.789,172.574c.116.119-3.091,3.606-7.162,7.789s-7.466,7.478-7.582,7.359,3.091-3.605,7.164-7.789,7.465-7.478,7.581-7.359" transform="translate(1.185 29.034)" fill="#fff"/>
            <path id="Trazado_209103" data-name="Trazado 209103" d="M21.618,161.056c.116.119-3.091,3.606-7.162,7.789s-7.466,7.478-7.582,7.359,3.091-3.605,7.164-7.789,7.465-7.478,7.581-7.359" transform="translate(1.156 27.096)" fill="#fff"/>
            <path id="Trazado_209104" data-name="Trazado 209104" d="M75.061,172.761c.116.119-3.091,3.606-7.162,7.789s-7.466,7.478-7.582,7.359,3.091-3.605,7.164-7.789,7.465-7.478,7.581-7.359" transform="translate(10.147 29.065)" fill="#fff"/>
            <path id="Trazado_209105" data-name="Trazado 209105" d="M74.89,161.244c.116.119-3.091,3.606-7.162,7.789s-7.466,7.478-7.582,7.359,3.091-3.605,7.164-7.789,7.465-7.478,7.581-7.359" transform="translate(10.118 27.128)" fill="#fff"/>
            <path id="Trazado_209106" data-name="Trazado 209106" d="M70.277,152.467a44.252,44.252,0,0,1-4.856,5.418c-2.8,2.875-5.159,5.109-5.275,4.99A44.509,44.509,0,0,1,65,157.455c2.8-2.873,5.159-5.108,5.275-4.988" transform="translate(10.118 25.651)" fill="#fff"/>
            <path id="Trazado_209107" data-name="Trazado 209107" d="M128.254,172.563c.116.119-3.091,3.606-7.162,7.789s-7.466,7.478-7.582,7.359,3.091-3.605,7.164-7.789,7.465-7.478,7.581-7.359" transform="translate(19.097 29.032)" fill="#fff"/>
            <path id="Trazado_209108" data-name="Trazado 209108" d="M128.083,161.045c.116.119-3.091,3.606-7.162,7.789s-7.466,7.478-7.582,7.359,3.091-3.605,7.164-7.789,7.465-7.478,7.581-7.359" transform="translate(19.068 27.094)" fill="#fff"/>
            <path id="Trazado_209109" data-name="Trazado 209109" d="M123.37,152.355a43.5,43.5,0,0,1-4.806,5.368c-2.771,2.846-5.11,5.057-5.226,4.938a43.458,43.458,0,0,1,4.807-5.368c2.769-2.846,5.109-5.057,5.224-4.938" transform="translate(19.068 25.632)" fill="#fff"/>
            <path id="Trazado_209110" data-name="Trazado 209110" d="M49.219,172.791c.116.119-3.091,3.606-7.162,7.789s-7.466,7.478-7.582,7.359,3.091-3.605,7.164-7.789,7.465-7.478,7.581-7.359" transform="translate(5.8 29.07)" fill="#2194e5"/>
            <path id="Trazado_209111" data-name="Trazado 209111" d="M101.606,172.563c.116.119-3.091,3.606-7.162,7.789s-7.466,7.478-7.582,7.359,3.091-3.605,7.164-7.789,7.465-7.478,7.581-7.359" transform="translate(14.613 29.032)" fill="#2194e5"/>
            <path id="Trazado_209112" data-name="Trazado 209112" d="M153.941,172.563c.116.119-3.091,3.606-7.162,7.789s-7.466,7.478-7.582,7.359,3.091-3.605,7.164-7.789,7.465-7.478,7.581-7.359" transform="translate(23.418 29.032)" fill="#2194e5"/>
            <path id="Trazado_209113" data-name="Trazado 209113" d="M153.77,161.045c.116.119-3.091,3.606-7.162,7.789s-7.466,7.478-7.582,7.359,3.091-3.605,7.164-7.789,7.465-7.478,7.581-7.359" transform="translate(23.389 27.094)" fill="#2194e5"/>
            <path id="Trazado_209114" data-name="Trazado 209114" d="M153.77,148.21c.116.119-3.091,3.606-7.162,7.789s-7.466,7.478-7.582,7.359,3.091-3.605,7.164-7.789,7.465-7.478,7.581-7.359" transform="translate(23.389 24.935)" fill="#2194e5"/>
            <path id="Trazado_209115" data-name="Trazado 209115" d="M153.941,135.8c.116.119-3.091,3.606-7.162,7.789s-7.466,7.478-7.582,7.359,3.091-3.605,7.164-7.789,7.465-7.478,7.581-7.359" transform="translate(23.418 22.846)" fill="#2194e5"/>
            <path id="Trazado_209116" data-name="Trazado 209116" d="M153.941,112.715c.116.119-3.091,3.606-7.162,7.789s-7.466,7.478-7.582,7.359,3.091-3.605,7.164-7.789,7.465-7.478,7.581-7.359" transform="translate(23.418 18.963)" fill="#2194e5"/>
            <path id="Trazado_209117" data-name="Trazado 209117" d="M153.77,124.279c.116.119-3.091,3.606-7.162,7.789s-7.466,7.478-7.582,7.359,3.091-3.605,7.164-7.789,7.465-7.478,7.581-7.359" transform="translate(23.389 20.909)" fill="#2194e5"/>
            <rect id="Rectángulo_45953" data-name="Rectángulo 45953" width="13.989" height="141.098" transform="translate(194.782 75.645)" fill="#2194e5"/>
            <g id="Grupo_154703" data-name="Grupo 154703" transform="translate(194.901 202.426)" opacity="0.6">
              <g id="Grupo_154702" data-name="Grupo 154702">
                <g id="Grupo_154701" data-name="Grupo 154701" clip-path="url(#clip-path-3)">
                  <path id="Trazado_209118" data-name="Trazado 209118" d="M180.769,173.277a88.65,88.65,0,0,1-6.769,7.36,88.252,88.252,0,0,1-7.164,6.955,88.279,88.279,0,0,1,6.769-7.361,88.132,88.132,0,0,1,7.164-6.953" transform="translate(-166.833 -173.274)" fill="#fff"/>
                </g>
              </g>
            </g>
            <g id="Grupo_154706" data-name="Grupo 154706" transform="translate(194.712 189.711)" opacity="0.6">
              <g id="Grupo_154705" data-name="Grupo 154705">
                <g id="Grupo_154704" data-name="Grupo 154704" clip-path="url(#clip-path-4)">
                  <path id="Trazado_209119" data-name="Trazado 209119" d="M180.607,162.393a88.418,88.418,0,0,1-6.769,7.36,88.25,88.25,0,0,1-7.164,6.955,88.28,88.28,0,0,1,6.769-7.361,88.117,88.117,0,0,1,7.164-6.953" transform="translate(-166.671 -162.39)" fill="#fff"/>
                </g>
              </g>
            </g>
            <g id="Grupo_154709" data-name="Grupo 154709" transform="translate(194.712 175.542)" opacity="0.6">
              <g id="Grupo_154708" data-name="Grupo 154708">
                <g id="Grupo_154707" data-name="Grupo 154707" clip-path="url(#clip-path-4)">
                  <path id="Trazado_209120" data-name="Trazado 209120" d="M180.607,150.264a88.414,88.414,0,0,1-6.769,7.36,88.253,88.253,0,0,1-7.164,6.955,88.277,88.277,0,0,1,6.769-7.361,88.119,88.119,0,0,1,7.164-6.953" transform="translate(-166.671 -150.261)" fill="#fff"/>
                </g>
              </g>
            </g>
            <g id="Grupo_154712" data-name="Grupo 154712" transform="translate(194.901 161.838)" opacity="0.6">
              <g id="Grupo_154711" data-name="Grupo 154711">
                <g id="Grupo_154710" data-name="Grupo 154710" clip-path="url(#clip-path-3)">
                  <path id="Trazado_209121" data-name="Trazado 209121" d="M180.769,138.534a88.65,88.65,0,0,1-6.769,7.36,88.256,88.256,0,0,1-7.164,6.955,88.275,88.275,0,0,1,6.769-7.361,88.133,88.133,0,0,1,7.164-6.953" transform="translate(-166.833 -138.531)" fill="#fff"/>
                </g>
              </g>
            </g>
            <g id="Grupo_154715" data-name="Grupo 154715" transform="translate(194.712 149.123)" opacity="0.6">
              <g id="Grupo_154714" data-name="Grupo 154714">
                <g id="Grupo_154713" data-name="Grupo 154713" clip-path="url(#clip-path-4)">
                  <path id="Trazado_209122" data-name="Trazado 209122" d="M180.607,127.65a88.411,88.411,0,0,1-6.769,7.36,88.258,88.258,0,0,1-7.164,6.955,88.273,88.273,0,0,1,6.769-7.361,88.119,88.119,0,0,1,7.164-6.953" transform="translate(-166.671 -127.647)" fill="#fff"/>
                </g>
              </g>
            </g>
            <g id="Grupo_154718" data-name="Grupo 154718" transform="translate(194.712 134.954)" opacity="0.6">
              <g id="Grupo_154717" data-name="Grupo 154717">
                <g id="Grupo_154716" data-name="Grupo 154716" clip-path="url(#clip-path-4)">
                  <path id="Trazado_209123" data-name="Trazado 209123" d="M180.607,115.521a88.417,88.417,0,0,1-6.769,7.36,88.254,88.254,0,0,1-7.164,6.955,88.275,88.275,0,0,1,6.769-7.361,88.12,88.12,0,0,1,7.164-6.953" transform="translate(-166.671 -115.519)" fill="#fff"/>
                </g>
              </g>
            </g>
            <g id="Grupo_154721" data-name="Grupo 154721" transform="translate(194.712 118.32)" opacity="0.6">
              <g id="Grupo_154720" data-name="Grupo 154720">
                <g id="Grupo_154719" data-name="Grupo 154719" clip-path="url(#clip-path-4)">
                  <path id="Trazado_209124" data-name="Trazado 209124" d="M180.607,101.283a88.413,88.413,0,0,1-6.769,7.36,88.253,88.253,0,0,1-7.164,6.955,88.276,88.276,0,0,1,6.769-7.361,88.122,88.122,0,0,1,7.164-6.953" transform="translate(-166.671 -101.28)" fill="#fff"/>
                </g>
              </g>
            </g>
            <g id="Grupo_154724" data-name="Grupo 154724" transform="translate(194.901 100.907)" opacity="0.6">
              <g id="Grupo_154723" data-name="Grupo 154723">
                <g id="Grupo_154722" data-name="Grupo 154722" clip-path="url(#clip-path-3)">
                  <path id="Trazado_209125" data-name="Trazado 209125" d="M180.769,86.378A88.654,88.654,0,0,1,174,93.738a88.254,88.254,0,0,1-7.164,6.955,88.279,88.279,0,0,1,6.769-7.361,88.129,88.129,0,0,1,7.164-6.953" transform="translate(-166.833 -86.375)" fill="#fff"/>
                </g>
              </g>
            </g>
            <g id="Grupo_154727" data-name="Grupo 154727" transform="translate(194.713 83.804)" opacity="0.6">
              <g id="Grupo_154726" data-name="Grupo 154726">
                <g id="Grupo_154725" data-name="Grupo 154725" clip-path="url(#clip-path-3)">
                  <path id="Trazado_209126" data-name="Trazado 209126" d="M180.608,71.738a88.405,88.405,0,0,1-6.769,7.36,88.257,88.257,0,0,1-7.164,6.955,88.272,88.272,0,0,1,6.769-7.361,88.12,88.12,0,0,1,7.164-6.953" transform="translate(-166.672 -71.735)" fill="#fff"/>
                </g>
              </g>
            </g>
            <g id="Grupo_154730" data-name="Grupo 154730" transform="translate(194.712 75.387)" opacity="0.6">
              <g id="Grupo_154729" data-name="Grupo 154729">
                <g id="Grupo_154728" data-name="Grupo 154728" clip-path="url(#clip-path-12)">
                  <path id="Trazado_209127" data-name="Trazado 209127" d="M175.007,64.535a31.816,31.816,0,0,1-3.967,4.483,31.5,31.5,0,0,1-4.365,4.077,31.915,31.915,0,0,1,3.969-4.484,31.568,31.568,0,0,1,4.363-4.076" transform="translate(-166.671 -64.53)" fill="#fff"/>
                </g>
              </g>
            </g>
            <path id="Trazado_209128" data-name="Trazado 209128" d="M220.969,64.767s-.214-.143-.622-.43l-.761-.537q-.466-.3-1.081-.7a37.512,37.512,0,0,0-7.657-3.7,33.841,33.841,0,0,0-5.962-1.493,27.762,27.762,0,0,0-7.292-.166A29.7,29.7,0,0,0,181.652,65.1a47.977,47.977,0,0,0-7.035,7.6c-2.125,2.918-4.243,6.032-6.435,9.249-4.366,6.45-8.853,13.46-13.513,20.875s-9.49,15.24-14.661,23.249c-2.595,4-5.259,8.052-8.043,12.114-1.4,2.023-2.715,4.12-4.07,6.217s-2.724,4.2-4.14,6.3a126.213,126.213,0,0,1-8.994,11.982,43.571,43.571,0,0,1-5.209,5.174,17.693,17.693,0,0,1-3.012,2.042,7.86,7.86,0,0,1-3.469,1.023,9.4,9.4,0,0,1-3.447-1,35.248,35.248,0,0,1-3.129-1.652c-2.026-1.182-3.954-2.473-5.838-3.784-3.761-2.632-7.324-5.372-10.749-8.1q-2.571-2.05-5.03-4.1T70,148.285c-3.237-2.594-6.417-5.068-9.583-7.331a31.77,31.77,0,0,0-9.906-5.175,22.534,22.534,0,0,0-10.252-.364,28.282,28.282,0,0,0-8.706,3.476,42.3,42.3,0,0,0-6.714,5.046c-3.876,3.558-7.148,6.694-9.8,9.277s-4.689,4.617-6.066,6l-1.563,1.575c-.352.355-.536.533-.536.533s.172-.19.518-.551l1.544-1.593c1.365-1.394,3.389-3.438,6.032-6.034s5.909-5.742,9.777-9.312a42.39,42.39,0,0,1,6.727-5.081,28.455,28.455,0,0,1,8.755-3.514,22.709,22.709,0,0,1,10.342.353,31.928,31.928,0,0,1,9.977,5.192c3.175,2.264,6.36,4.736,9.6,7.328q2.431,1.945,4.883,4.006,2.46,2.045,5.029,4.094c3.425,2.727,6.986,5.46,10.741,8.085,1.881,1.307,3.807,2.595,5.824,3.771a35.1,35.1,0,0,0,3.106,1.638,9.192,9.192,0,0,0,3.342.974,7.634,7.634,0,0,0,3.349-1,17.392,17.392,0,0,0,2.969-2.015,43.221,43.221,0,0,0,5.176-5.145,126.367,126.367,0,0,0,8.973-11.957c1.415-2.092,2.785-4.2,4.137-6.293s2.676-4.2,4.076-6.223c2.783-4.058,5.449-8.109,8.043-12.105,5.172-8,10.01-15.823,14.673-23.238S163.628,88.28,168,81.833c2.2-3.217,4.317-6.324,6.453-9.248a48.117,48.117,0,0,1,7.075-7.62,29.846,29.846,0,0,1,16.048-7.37,27.826,27.826,0,0,1,7.327.188,33.709,33.709,0,0,1,5.977,1.521,36.908,36.908,0,0,1,7.651,3.754q.61.4,1.075.71l.754.548c.4.3.606.452.606.452" transform="translate(1.156 9.663)" fill="#2194e5"/>
            <path id="Trazado_209129" data-name="Trazado 209129" d="M42.428,125.12a2.91,2.91,0,1,1-2.91-2.981,2.946,2.946,0,0,1,2.91,2.981" transform="translate(6.159 20.549)" fill="#2194e5"/>
            <path id="Trazado_209130" data-name="Trazado 209130" d="M39.85,130.8a5.341,5.341,0,1,1,5.217-5.34,5.287,5.287,0,0,1-5.217,5.34m0-10.18a4.842,4.842,0,1,0,4.717,4.84,4.786,4.786,0,0,0-4.717-4.84" transform="translate(5.827 20.209)" fill="#2194e5"/>
            <path id="Trazado_209131" data-name="Trazado 209131" d="M176.305,57.913a2.91,2.91,0,1,1-2.91-2.981,2.946,2.946,0,0,1,2.91,2.981" transform="translate(28.683 9.242)" fill="#2194e5"/>
            <path id="Trazado_209132" data-name="Trazado 209132" d="M173.727,63.593a5.341,5.341,0,1,1,5.217-5.34,5.287,5.287,0,0,1-5.217,5.34m0-10.18a4.842,4.842,0,1,0,4.717,4.84,4.785,4.785,0,0,0-4.717-4.84" transform="translate(28.351 8.902)" fill="#2194e5"/>
            <path id="Trazado_209133" data-name="Trazado 209133" d="M8.643,86.23V112.21H40.706l5.891,8.257V112.21h6.97V86.23Z" transform="translate(1.454 14.508)" fill="#fafafa"/>
            <path id="Trazado_209134" data-name="Trazado 209134" d="M8.657,86.247s.067,0,.206-.007l.622-.007,2.43-.014,9.2-.032,32.465-.058H53.7v.118c0,7.958.007,16.736.012,25.979v.13h-7.1l.13-.131v8.661l-.235-.329L40.618,112.3l.1.053-32.064-.029h-.1v-.1c.022-8.016.04-14.519.051-19.026.011-2.237.019-3.977.025-5.166q.007-.874.011-1.338c0-.3.011-.45.011-.45s.007.162.011.47.006.765.011,1.356c.006,1.194.014,2.94.025,5.187.012,4.493.029,10.974.051,18.966l-.1-.1,32.064-.029h.065l.037.054,5.894,8.255-.235.075V112.1h7.1l-.13.13c0-9.243.007-18.021.011-25.979l.119.118-32.388-.058-9.228-.032-2.454-.014-.634-.007c-.144,0-.22-.007-.22-.007" transform="translate(1.44 14.491)" fill="#263238"/>
            <path id="Trazado_209135" data-name="Trazado 209135" d="M44.048,95.129c0,.072-6.332.13-14.14.13s-14.143-.057-14.143-.13S22.1,95,29.908,95s14.14.057,14.14.13" transform="translate(2.652 15.983)" fill="#263238"/>
            <path id="Trazado_209136" data-name="Trazado 209136" d="M44.048,100.031c0,.072-6.332.13-14.14.13s-14.143-.057-14.143-.13,6.331-.13,14.143-.13,14.14.057,14.14.13" transform="translate(2.652 16.808)" fill="#263238"/>
            <path id="Trazado_209137" data-name="Trazado 209137" d="M196.568,23.547H155.324v23.4h6.819l-.512.093,5.844,7.445-.383-7.539h29.476Z" transform="translate(26.132 3.962)" fill="#fafafa"/>
            <path id="Trazado_209138" data-name="Trazado 209138" d="M196.586,23.564s.007.134.01.4.006.683.011,1.208c0,1.074.013,2.643.023,4.657.013,4.065.03,9.923.053,17.136v.1h-.1l-29.476.029.126-.132c.121,2.391.252,4.942.386,7.537l.02.405-.25-.319c-1.87-2.383-3.841-4.893-5.844-7.445l-.133-.169.213-.039.511-.092.023.258h-6.949v-.13c0-8.332.008-16.232.012-23.4v-.118h.118l29.809.058,8.446.032,2.23.014.57.007c.127,0,.188.007.188.007s-.07,0-.2.007l-.583.007-2.254.014-8.473.032-29.732.058.118-.118c0,7.173.008,15.073.012,23.4l-.13-.13h6.819l.023.258-.512.092.079-.208,5.841,7.446-.23.085c-.13-2.6-.258-5.146-.379-7.537l-.007-.133h.132l29.476.029-.1.1c.022-7.187.04-13.026.053-17.076.011-2.025.019-3.6.023-4.679,0-.533.008-.94.011-1.225s.011-.424.011-.424" transform="translate(26.113 3.945)" fill="#263238"/>
            <path id="Trazado_209139" data-name="Trazado 209139" d="M161.97,31.675c0-.072,5.757-.13,12.858-.13s12.859.057,12.859.13-5.756.13-12.859.13-12.858-.057-12.858-.13" transform="translate(27.25 5.307)" fill="#263238"/>
            <path id="Trazado_209140" data-name="Trazado 209140" d="M161.97,35.968c0-.072,5.757-.13,12.858-.13s12.859.057,12.859.13-5.756.13-12.859.13-12.858-.057-12.858-.13" transform="translate(27.25 6.029)" fill="#263238"/>
            <path id="Trazado_209141" data-name="Trazado 209141" d="M71.342,58.378A22.318,22.318,0,1,0,66.029,64.3l10,2.355h0Z" transform="translate(5.082 4.139)" fill="#fff"/>
            <path id="Trazado_209142" data-name="Trazado 209142" d="M66.18,64.253l-.2-.027a22.036,22.036,0,0,1-10.555,4.382,19.7,19.7,0,0,1-3.47.161c-.6-.036-1.2-.053-1.815-.105l-1.848-.286a22.107,22.107,0,0,1-13.645-8.805,21.825,21.825,0,0,1-3.679-8.442,22.305,22.305,0,0,1,.266-9.712,21.554,21.554,0,0,1,4.68-8.973,21.944,21.944,0,0,1,8.408-6.006A22.283,22.283,0,0,1,54.1,24.929a21.573,21.573,0,0,1,8.99,2.641A22.232,22.232,0,0,1,73.5,40.319a23.8,23.8,0,0,1,.979,7.12,22,22,0,0,1-3.215,10.907l-.027.044.026.043,4.769,8.23-4.595-8.271a22.048,22.048,0,0,0,3.29-10.946,23.922,23.922,0,0,0-.959-7.21,22.487,22.487,0,0,0-10.52-12.953,21.874,21.874,0,0,0-9.124-2.7,22.638,22.638,0,0,0-9.942,1.526,22.273,22.273,0,0,0-8.546,6.1,21.868,21.868,0,0,0-4.754,9.122,22.612,22.612,0,0,0-.261,9.866,22.088,22.088,0,0,0,3.75,8.567,22.358,22.358,0,0,0,13.859,8.89l1.873.282c.62.053,1.235.067,1.839.1a19.9,19.9,0,0,0,3.509-.18A22.11,22.11,0,0,0,66.042,64.4l9.994,2.262L66.18,64.253" transform="translate(5.082 4.126)" fill="#263238"/>
            <path id="Trazado_209143" data-name="Trazado 209143" d="M47.757,37.146l.633,9.993a1.621,1.621,0,0,0,3.229.076l1.11-10.043a1.273,1.273,0,0,0-1.283-1.412l-2.437.034a1.273,1.273,0,0,0-1.252,1.353" transform="translate(8.034 6.016)" fill="#2194e5"/>
            <path id="Trazado_209144" data-name="Trazado 209144" d="M52.554,52.071a2.439,2.439,0,1,1-1.547-3.083,2.438,2.438,0,0,1,1.547,3.083" transform="translate(8.042 8.221)" fill="#2194e5"/>
            <path id="Trazado_209145" data-name="Trazado 209145" d="M128.6,124.069l1.978,5.6s9.154,8.4,10.5,19.66,1.35,13.709,1.35,13.709l-2.835,32.83H78.578s-2.021-26.538-1.271-34.041,5.108-16,5.108-16l4.651-11.256.138-5.666Z" transform="translate(12.978 20.874)" fill="#263238"/>
            <path id="Trazado_209146" data-name="Trazado 209146" d="M128.93,129.354a2.684,2.684,0,0,1-.428.093l-1.234.218-4.548.745c-3.841.616-9.156,1.431-15.035,2.255s-11.219,1.478-15.093,1.863c-1.936.2-3.5.329-4.59.408l-1.251.078a2.626,2.626,0,0,1-.437.009,2.625,2.625,0,0,1,.432-.062l1.247-.127c1.082-.109,2.648-.266,4.581-.488,3.865-.433,9.2-1.12,15.076-1.939s11.194-1.61,15.042-2.178l4.56-.665,1.242-.169a2.673,2.673,0,0,1,.436-.042" transform="translate(14.522 21.762)" fill="#455a64"/>
            <path id="Trazado_209147" data-name="Trazado 209147" d="M94.408,146.358a2.57,2.57,0,0,1-.223.549c-.158.347-.405.839-.725,1.439a41.693,41.693,0,0,1-6.193,8.629c-.466.5-.854.888-1.132,1.148a2.515,2.515,0,0,1-.447.387,2.576,2.576,0,0,1,.375-.458c.289-.325.646-.725,1.068-1.2.895-1.02,2.09-2.464,3.3-4.145s2.19-3.276,2.87-4.449l.8-1.4a2.584,2.584,0,0,1,.314-.5" transform="translate(14.416 24.624)" fill="#455a64"/>
            <path id="Trazado_209148" data-name="Trazado 209148" d="M156.122,73.534s1.252,21.033,1.627,23.412-1.627,5.383-1.627,5.383-4.632.5-7.762-5.258l-2-4.507a28.7,28.7,0,0,0,1.127-11.894c-.751-6.761-1.127-9.89-1.127-9.89Z" transform="translate(24.623 11.908)" fill="#ffc09d"/>
            <path id="Trazado_209149" data-name="Trazado 209149" d="M151.425,49.429c.548,5.077.478,9.466-2.023,10.362-.21.075-1.889.14-2.111.165-2.879.312-5.7-3.9-6.291-9.4s1.256-10.216,4.134-10.527a18.939,18.939,0,0,1,2.071-.2c2.581.46,3.679,4.615,4.22,9.6" transform="translate(23.703 6.7)" fill="#455a64"/>
            <path id="Trazado_209150" data-name="Trazado 209150" d="M158.6,64.743a2.5,2.5,0,0,1,1.729,2.738,46.918,46.918,0,0,1-1.729,5.65l-2.622,2.907-9.522-2.907a5.877,5.877,0,0,1-.65-2.847c.064-1.592,0-5.541,0-5.541a9.432,9.432,0,0,0,1.723-3.631c.319-1.646.549-3.56.617-4.148a.173.173,0,0,1,.209-.151A2.456,2.456,0,0,1,150.2,58.5a4.509,4.509,0,0,1,.382,2.039Z" transform="translate(24.529 9.558)" fill="#ffc09d"/>
            <path id="Trazado_209151" data-name="Trazado 209151" d="M150.676,58.107l-1.362-2.175-1.428,1.1,2.648,5.235.722-2.194Z" transform="translate(24.881 9.41)" fill="#455a64"/>
            <path id="Trazado_209152" data-name="Trazado 209152" d="M150.649,58s1.49-2.25,2.873-1.179,1.063,1.71,0,3.679c0,0,2.712-.373,2.074,2.5,0,0,2.689-.529,2.622,1.783,0,0,2.218,1.834,1.262,3.216s-4.627,4.042-5.638,3.723-1.134-1.7-1.134-1.7a3.81,3.81,0,0,1-1.578-1.011c-.373-.584.106-1.488.106-1.488s-1.064-.918-1.329-1.178,0-1.589,0-1.589l1.436-1.648s-2.075,1.117-2.553.8-1.012-.585-.585-1.277a21.87,21.87,0,0,1,2.011-2.292Z" transform="translate(24.908 9.512)" fill="#ffc09d"/>
            <path id="Trazado_209153" data-name="Trazado 209153" d="M152.232,68.979a7.339,7.339,0,0,1,.633-.916,8.258,8.258,0,0,1,1.836-1.99,19.252,19.252,0,0,0,2.113-1.625c.485-.474.657-.868.7-.848a2,2,0,0,1-.563.974,13.313,13.313,0,0,1-2.091,1.707,10.071,10.071,0,0,0-1.847,1.894,3.517,3.517,0,0,1-.779.8" transform="translate(25.612 10.7)" fill="#ff9b6c"/>
            <path id="Trazado_209154" data-name="Trazado 209154" d="M150.771,67a21.017,21.017,0,0,1,2.032-2.6c.591-.685,1.093-1.345,1.537-1.761a2.028,2.028,0,0,1,.8-.565c.021.034-.275.25-.664.694s-.874,1.107-1.472,1.8A20.992,20.992,0,0,1,150.771,67" transform="translate(25.366 10.443)" fill="#ff9b6c"/>
            <path id="Trazado_209155" data-name="Trazado 209155" d="M150.867,62.556a9.672,9.672,0,0,1,1.151-1.314,16.039,16.039,0,0,0,.993-1.41,2.616,2.616,0,0,1-.8,1.581,4.379,4.379,0,0,1-1.348,1.144" transform="translate(25.381 10.066)" fill="#ff9b6c"/>
            <path id="Trazado_209156" data-name="Trazado 209156" d="M147.592,64.5a1.882,1.882,0,0,1,.887.363,5.068,5.068,0,0,1,1.584,1.686,9.69,9.69,0,0,1,.9,2.119,3.193,3.193,0,0,1,.213.928,3.765,3.765,0,0,1-.387-.867,13.813,13.813,0,0,0-.953-2.046,5.791,5.791,0,0,0-1.464-1.668c-.459-.343-.8-.475-.783-.515" transform="translate(24.831 10.851)" fill="#ff9b6c"/>
            <path id="Trazado_209157" data-name="Trazado 209157" d="M152.177,49.319c.6,5.5-.912,10.179-3.369,10.444s-4.93-3.979-5.526-9.481.914-10.179,3.369-10.444,4.93,3.979,5.526,9.481" transform="translate(24.084 6.7)" fill="#263238"/>
            <path id="Trazado_209158" data-name="Trazado 209158" d="M147.9,59.6c2.3-1.154,3.674-5.386,3.15-10.231-.521-4.82-2.747-8.647-5.226-9.312-1.951,1.113-3.061,5.318-2.536,10.166.522,4.818,2.484,8.672,4.612,9.377" transform="translate(24.086 6.738)" fill="#e0e0e0"/>
            <path id="Trazado_209159" data-name="Trazado 209159" d="M147.4,54.749a43.225,43.225,0,0,1-.411-4.714,42.793,42.793,0,0,1-.151-4.73,43.229,43.229,0,0,1,.411,4.714,43.5,43.5,0,0,1,.151,4.73" transform="translate(24.699 7.622)" fill="#fff"/>
            <path id="Trazado_209160" data-name="Trazado 209160" d="M146.666,51.973a6.03,6.03,0,0,1-.256-1.312c-.117-.815-.237-1.95-.306-3.206s-.07-2.4-.046-3.221a6.217,6.217,0,0,1,.111-1.332,7.616,7.616,0,0,1,.074,1.332c.021.821.053,1.956.12,3.207s.16,2.381.229,3.2a7.8,7.8,0,0,1,.074,1.332" transform="translate(24.571 7.218)" fill="#fff"/>
            <path id="Trazado_209161" data-name="Trazado 209161" d="M150.661,58.006a.671.671,0,0,1-.014.159c-.019.118-.042.268-.07.453-.071.417-.171,1-.3,1.734l0,.016-.013.013c-.291.3-.617.651-.968,1.042a9.3,9.3,0,0,0-1.058,1.34.659.659,0,0,0-.085.4.633.633,0,0,0,.241.35,4.448,4.448,0,0,0,.411.285.578.578,0,0,0,.44.049,8.354,8.354,0,0,0,2.057-.833l.486-.25-.356.412L150,64.836l.021-.036a1.992,1.992,0,0,0,.053,1.591,4.44,4.44,0,0,0,1.339,1.153l.112.07-.076.109c-.307.43-.494,1.086-.016,1.44A5.8,5.8,0,0,0,153,70.05l-.175.117v-.037c.036.035-.079-.084.084.1.338-.2.1-.077.171-.11h0l0,.06.012.127a2.379,2.379,0,0,0,.046.255,2.039,2.039,0,0,0,.176.482,1.309,1.309,0,0,0,.312.391.777.777,0,0,0,.424.2,2.447,2.447,0,0,0,1.012-.29,9.155,9.155,0,0,0,.985-.546,16.821,16.821,0,0,0,1.728-1.255,10.5,10.5,0,0,0,1.481-1.44,1.286,1.286,0,0,0,.345-.854,1.988,1.988,0,0,0-.244-.9,5.238,5.238,0,0,0-1.2-1.466l-.042-.037v-.061a1.978,1.978,0,0,0-.168-.887,1.333,1.333,0,0,0-.6-.6,2.944,2.944,0,0,0-1.707-.18l-.157.023.025-.158c.027-.174.062-.346.083-.516a2.783,2.783,0,0,0,0-.5,1.4,1.4,0,0,0-.355-.862,2.05,2.05,0,0,0-1.675-.5l-.182.016.084-.157a15.009,15.009,0,0,0,.757-1.506,2.078,2.078,0,0,0,.164-.727,1.17,1.17,0,0,0-.2-.648,2.949,2.949,0,0,0-.935-.859,1.263,1.263,0,0,0-1.028-.019,3.429,3.429,0,0,0-1.2.9c-.119.127-.2.231-.261.3a.649.649,0,0,1-.09.1.46.46,0,0,1,.068-.119,3.721,3.721,0,0,1,.241-.321,4.258,4.258,0,0,1,.452-.472,2.607,2.607,0,0,1,.751-.491,1.378,1.378,0,0,1,1.123,0l.277.169.255.206a2.673,2.673,0,0,1,.474.519,1.315,1.315,0,0,1,.231.73,2.268,2.268,0,0,1-.165.79,15.165,15.165,0,0,1-.75,1.535l-.1-.14a2.85,2.85,0,0,1,.961.055,1.762,1.762,0,0,1,.894.491,1.607,1.607,0,0,1,.418.981,3.051,3.051,0,0,1,.007.547c-.021.181-.055.361-.083.544l-.131-.134a3.155,3.155,0,0,1,1.855.19,1.569,1.569,0,0,1,.713.707,2.189,2.189,0,0,1,.2,1l-.043-.1a5.445,5.445,0,0,1,1.27,1.54,2.241,2.241,0,0,1,.276,1.021,1.607,1.607,0,0,1-.107.546,2.311,2.311,0,0,1-.291.464,10.717,10.717,0,0,1-1.518,1.482,17.141,17.141,0,0,1-1.755,1.275,9.6,9.6,0,0,1-1.012.561,2.66,2.66,0,0,1-1.139.313,1.291,1.291,0,0,1-.946-.727,2.208,2.208,0,0,1-.2-.546,2.584,2.584,0,0,1-.05-.282l-.013-.143,0-.076V70.1c.075-.034-.167.084.172-.112.164.187.048.069.084.105v.264l-.174-.075a5.963,5.963,0,0,1-1.638-.939,1.23,1.23,0,0,1-.3-.4,1.008,1.008,0,0,1-.064-.5,1.943,1.943,0,0,1,.355-.869l.036.179a4.607,4.607,0,0,1-1.416-1.238,1.668,1.668,0,0,1-.222-.912,2.941,2.941,0,0,1,.158-.881l.006-.019.015-.018,1.442-1.644.13.162a8.44,8.44,0,0,1-2.127.835.775.775,0,0,1-.574-.083,4.474,4.474,0,0,1-.424-.3.81.81,0,0,1-.3-.456.826.826,0,0,1,.107-.513,9.191,9.191,0,0,1,1.1-1.357c.361-.388.694-.729.994-1.027l-.016.029c.15-.736.268-1.315.352-1.733.04-.182.072-.328.1-.445a.588.588,0,0,1,.042-.147" transform="translate(24.895 9.503)" fill="#ff9b6c"/>
            <path id="Trazado_209162" data-name="Trazado 209162" d="M83.469,140.673,64.585,117.226s-10.042,8.456-10.309,8.721,15.708,15.805,25.967,21.82l3.226-2.136Z" transform="translate(9.131 19.722)" fill="#ffc09d"/>
            <path id="Trazado_209163" data-name="Trazado 209163" d="M95.665,130.947s-5.963-.942-6.512-.549-4.629,3.138-4.629,3.138a22.176,22.176,0,0,1-1.8,2.432s-1.334,1.569-2.354,1.726a4.577,4.577,0,0,1-1.647,0l-2.667,7.374s2.04,2.118,3.294,1.961,7.924-3.844,7.924-3.844l1.647-.549s6.432.235,6.747-1.727v-.549l-6.354-.549-2.354.393,4.079-1.534s5.963-.349,6.512-.506,1.176-1.02.94-1.491l-1.255-.157s1.354-.937,1.306-1.8l-5.644-.895s3.4-1.7,2.769-2.875" transform="translate(12.795 21.922)" fill="#ffc09d"/>
            <path id="Trazado_209164" data-name="Trazado 209164" d="M96.529,135.717a2.34,2.34,0,0,1-.518-.072c-.328-.058-.806-.137-1.4-.224-1.183-.175-2.824-.382-4.639-.584a5.889,5.889,0,0,0-.657-.056,1.974,1.974,0,0,0-.605.109c-.383.151-.771.332-1.125.494-.716.334-1.348.659-1.867.952a13.643,13.643,0,0,0-1.194.75,3.09,3.09,0,0,1-.428.3,1.534,1.534,0,0,1,.366-.377,9.564,9.564,0,0,1,1.161-.828c.513-.317,1.143-.661,1.858-1.009.362-.173.727-.35,1.145-.519a2.221,2.221,0,0,1,.683-.127,5.983,5.983,0,0,1,.692.056c1.818.2,3.459.439,4.64.662.59.111,1.065.217,1.389.307a1.827,1.827,0,0,1,.5.171" transform="translate(14.149 22.632)" fill="#ff9b6c"/>
            <path id="Trazado_209165" data-name="Trazado 209165" d="M91.723,133.628c-.018.041-.46-.154-1.214-.3a6.611,6.611,0,0,0-5.582,1.447c-.589.493-.881.879-.916.852a3.157,3.157,0,0,1,.793-.99,6.183,6.183,0,0,1,5.744-1.49,3.154,3.154,0,0,1,1.174.48" transform="translate(14.134 22.37)" fill="#ff9b6c"/>
            <path id="Trazado_209166" data-name="Trazado 209166" d="M162.262,97.2a9.778,9.778,0,0,1,1.148,4.025,23.165,23.165,0,0,1-1.144,5.377l-1.422,1.343s.933,4.277-4.483,5.5-35.73-16.2-35.73-16.2L119.787,74.1a26.793,26.793,0,0,1,7.576,5.011c3.178,3.176,21.262,16.5,21.262,16.5s.735-4.719,1.549-4.407,12.088,6,12.088,6" transform="translate(20.153 12.466)" fill="#e0e0e0"/>
            <path id="Trazado_209167" data-name="Trazado 209167" d="M127.845,75.258l-16.406-3.49-4.271-4.389L88.3,67.2,86.03,71.33l-14.136,8.6s3.56,23.547,4.859,26.289,11.592,33.023,11.592,33.023l41.128-4.907.352-19,1.189-9.2a27.268,27.268,0,0,0,.118-5.929c-.77-8.6-3.287-24.944-3.287-24.944" transform="translate(12.096 11.306)" fill="#e0e0e0"/>
            <path id="Trazado_209168" data-name="Trazado 209168" d="M71.107,129.46l-13.48,9.245-4.71-6.715,1.258-1.118s-6.956-5.75-6.536-9.806,7.755-14.489,7.755-14.489S71.107,80.853,75.978,78.1c.681-.387,6.592,13.892,6.592,19.486s-1.119,5.595-1.119,5.595-4.756,4.616-6.993,8.812-6.039,8.766-8.556,10.445Z" transform="translate(8.012 13.138)" fill="#e0e0e0"/>
            <path id="Trazado_209169" data-name="Trazado 209169" d="M56.816,113.233a.993.993,0,0,1,.363-.036,6.681,6.681,0,0,1,.991.055,9.7,9.7,0,0,1,3.131.95,10.372,10.372,0,0,1,2.659,1.908,4.539,4.539,0,0,1,.86,1.046,15.579,15.579,0,0,0-3.634-2.721,11.313,11.313,0,0,0-3.042-1c-.812-.141-1.328-.157-1.327-.2" transform="translate(9.559 19.044)" fill="#263238"/>
            <path id="Trazado_209170" data-name="Trazado 209170" d="M60.335,109.33a4.048,4.048,0,0,1,1,.853,9.29,9.29,0,0,1,1.738,2.662,9.5,9.5,0,0,1,.755,3.089,4.156,4.156,0,0,1-.055,1.315c-.044,0-.033-.5-.129-1.3a11.1,11.1,0,0,0-.811-3,10.828,10.828,0,0,0-1.636-2.643c-.518-.611-.895-.942-.866-.975" transform="translate(10.151 18.394)" fill="#263238"/>
            <path id="Trazado_209171" data-name="Trazado 209171" d="M105.5,96.8a3.469,3.469,0,0,1,.121.681,6.7,6.7,0,0,1,.079.808c.015.317.05.676.033,1.076a12.693,12.693,0,0,1-.061,1.3c-.027.471-.113.965-.193,1.488a17.182,17.182,0,0,1-2.513,6.356c-.3.436-.575.856-.876,1.217a12.416,12.416,0,0,1-.847.993c-.261.3-.533.542-.761.763a6.736,6.736,0,0,1-.61.536,3.444,3.444,0,0,1-.555.414c-.035-.042.743-.65,1.789-1.835.259-.3.541-.625.812-1,.291-.362.556-.782.846-1.215a17.983,17.983,0,0,0,2.479-6.271c.084-.514.178-1,.214-1.464.06-.461.078-.893.092-1.287.048-1.579-.105-2.556-.05-2.562" transform="translate(16.71 16.286)" fill="#263238"/>
            <path id="Trazado_209172" data-name="Trazado 209172" d="M107.062,92.224a2.182,2.182,0,0,1-.321-.239c-.206-.162-.5-.416-.893-.716-.778-.62-1.943-1.474-3.415-2.491s-3.256-2.189-5.233-3.522A63.3,63.3,0,0,1,90.955,80.6l.194-.022c-.21.3-.424.627-.627.967A14.307,14.307,0,0,0,88.8,86.106l-.075.4-.165-.368a63.718,63.718,0,0,1-3.692-10.9c-.338-1.395-.563-2.519-.7-3.294-.074-.387-.113-.688-.145-.89a1.552,1.552,0,0,1-.033-.312,1.756,1.756,0,0,1,.078.3c.047.222.107.515.183.882.161.769.411,1.884.769,3.271A67.752,67.752,0,0,0,88.792,86.03l-.239.029A14.4,14.4,0,0,1,90.3,81.413c.206-.346.424-.681.639-.986l.083-.118.11.1a65.938,65.938,0,0,0,6.2,4.657c1.966,1.342,3.745,2.53,5.2,3.57s2.611,1.915,3.373,2.561c.387.313.668.579.865.754a2.487,2.487,0,0,1,.287.278" transform="translate(14.131 11.901)" fill="#263238"/>
            <path id="Trazado_209173" data-name="Trazado 209173" d="M106.081,71.112a.986.986,0,0,1,.137.207c.083.14.207.346.354.619.3.543.723,1.343,1.213,2.361a40.207,40.207,0,0,1,3.048,8.494l.077.345-.28-.217a18.446,18.446,0,0,1-3.648-3.777l.234-.069c-.162,2.889-.311,5.527-.432,7.692v.025l-.012.02c-.9,1.62-1.647,2.956-2.183,3.916l-.613,1.069a2.344,2.344,0,0,1-.232.364,2.277,2.277,0,0,1,.18-.394l.564-1.095c.516-.972,1.234-2.321,2.105-3.959l-.013.043c.107-2.166.237-4.8.38-7.7l.018-.366.216.3a18.564,18.564,0,0,0,3.6,3.728l-.2.126a42.952,42.952,0,0,0-2.949-8.477c-.467-1.025-.863-1.835-1.14-2.39l-.315-.638a1.05,1.05,0,0,1-.1-.229" transform="translate(17.453 11.964)" fill="#263238"/>
            <path id="Trazado_209174" data-name="Trazado 209174" d="M123.038,98.824c-.072.007-.507-3.958-.971-8.855s-.785-8.873-.711-8.88.5,3.957.971,8.855.782,8.873.711,8.88" transform="translate(20.415 13.643)" fill="#263238"/>
            <path id="Trazado_209175" data-name="Trazado 209175" d="M148.327,99.382a4.221,4.221,0,0,1-.876-.836,13.281,13.281,0,0,1-2.784-5.1,4.212,4.212,0,0,1-.229-1.188,28.389,28.389,0,0,0,1.568,3.769,28.215,28.215,0,0,0,2.321,3.358" transform="translate(24.299 15.521)" fill="#263238"/>
            <path id="Trazado_209176" data-name="Trazado 209176" d="M145.921,100.144c-.015.011-.1-.09-.247-.284a6.224,6.224,0,0,1-.537-.868,9.042,9.042,0,0,1-.681-6.574,6.208,6.208,0,0,1,.347-.96c.1-.218.167-.334.183-.327.042.018-.161.507-.353,1.333a10.023,10.023,0,0,0,.669,6.448c.356.769.655,1.207.618,1.232" transform="translate(24.248 15.332)" fill="#263238"/>
            <path id="Trazado_209177" data-name="Trazado 209177" d="M71.371,90.451a2.42,2.42,0,0,1,.27.5l.662,1.4c.588,1.235,1.352,2.839,2.2,4.612.86,1.8,1.617,3.446,2.131,4.651.257.6.458,1.092.586,1.436a2.389,2.389,0,0,1,.176.542,2.379,2.379,0,0,1-.27-.5l-.661-1.4-2.2-4.615c-.86-1.8-1.617-3.444-2.13-4.65-.258-.6-.458-1.092-.586-1.436a2.364,2.364,0,0,1-.178-.542" transform="translate(12.007 15.218)" fill="#263238"/>
            <path id="Trazado_209178" data-name="Trazado 209178" d="M113.747,113.932a2.838,2.838,0,0,1-.147.607c-.11.387-.284.942-.512,1.623-.456,1.363-1.146,3.227-2.015,5.241s-1.755,3.793-2.435,5.058c-.34.633-.624,1.14-.831,1.485a2.794,2.794,0,0,1-.342.523,2.934,2.934,0,0,1,.252-.571c.2-.407.456-.916.757-1.521.637-1.284,1.492-3.07,2.36-5.078s1.581-3.854,2.079-5.2l.59-1.593a2.838,2.838,0,0,1,.243-.576" transform="translate(18.08 19.168)" fill="#263238"/>
            <path id="Trazado_209179" data-name="Trazado 209179" d="M113.158,121.106a3.4,3.4,0,0,1-.4.925,18.971,18.971,0,0,1-2.79,3.966,3.45,3.45,0,0,1-.736.688c-.057-.053.966-1.192,2.046-2.733s1.811-2.883,1.88-2.847" transform="translate(18.377 20.375)" fill="#263238"/>
            <path id="Trazado_209180" data-name="Trazado 209180" d="M111.169,126.5a2.123,2.123,0,0,1-.056-.386c-.028-.279-.065-.648-.112-1.111-.085-.965-.225-2.361-.407-4.083-.379-3.443-.964-8.2-1.967-13.385A125.374,125.374,0,0,0,105.39,94.4c-.246-.829-.489-1.575-.7-2.228s-.395-1.218-.555-1.675c-.147-.442-.265-.793-.354-1.058a2.066,2.066,0,0,1-.106-.375,2.124,2.124,0,0,1,.155.356l.4,1.043c.175.452.375,1.011.6,1.662s.482,1.393.741,2.22a111.939,111.939,0,0,1,3.318,13.137c1.006,5.2,1.563,9.964,1.895,13.415.158,1.727.27,3.125.325,4.094.026.465.047.835.062,1.115a2.149,2.149,0,0,1,0,.39" transform="translate(17.442 14.984)" fill="#263238"/>
            <path id="Trazado_209181" data-name="Trazado 209181" d="M110.862,124.6a5.866,5.866,0,0,0-.327-4.648c.025-.019.218.185.432.582a4.36,4.36,0,0,1,.242,3.429c-.155.424-.32.652-.347.638" transform="translate(18.596 20.181)" fill="#263238"/>
            <path id="Trazado_209182" data-name="Trazado 209182" d="M110.164,126.2c-.071,0-.111-.326-.088-.717s.1-.707.172-.7.111.325.088.717-.1.707-.172.7" transform="translate(18.518 20.994)" fill="#263238"/>
            <path id="Trazado_209183" data-name="Trazado 209183" d="M66.088,117.722a2.986,2.986,0,0,1-.6.2c-.389.111-.947.289-1.629.529s-1.481.558-2.358.938c-.87.395-1.812.861-2.775,1.4a41.06,41.06,0,0,0-4.714,3.105c-.576.438-1.037.8-1.352,1.056a2.938,2.938,0,0,1-.509.373,2.891,2.891,0,0,1,.443-.45c.3-.279.741-.665,1.3-1.124a34.075,34.075,0,0,1,4.7-3.188c.971-.54,1.923-1,2.8-1.39.889-.369,1.7-.682,2.4-.893s1.263-.37,1.661-.452a2.973,2.973,0,0,1,.624-.105" transform="translate(8.774 19.805)" fill="#263238"/>
            <path id="Trazado_209184" data-name="Trazado 209184" d="M65.272,117.746c0,.046-.685.023-1.777.12a18.509,18.509,0,0,0-4.175.88,22.653,22.653,0,0,0-3.9,1.758c-.954.543-1.521.923-1.546.888a1.776,1.776,0,0,1,.368-.311c.245-.189.614-.442,1.084-.735a18.864,18.864,0,0,1,3.908-1.848,16,16,0,0,1,4.245-.815,10.814,10.814,0,0,1,1.312,0,1.72,1.72,0,0,1,.478.06" transform="translate(9.064 19.796)" fill="#263238"/>
            <g id="Grupo_154733" data-name="Grupo 154733" transform="translate(84.203 107.457)" opacity="0.3">
              <g id="Grupo_154732" data-name="Grupo 154732">
                <g id="Grupo_154731" data-name="Grupo 154731" clip-path="url(#clip-path-13)">
                  <path id="Trazado_209185" data-name="Trazado 209185" d="M72.192,91.981a10.694,10.694,0,0,0,4.69,10.4c-1.178-3-3.221-7.312-4.69-10.4" transform="translate(-72.076 -91.981)"/>
                </g>
              </g>
            </g>
            <g id="Grupo_154736" data-name="Grupo 154736" transform="translate(103.43 92.383)" opacity="0.3">
              <g id="Grupo_154735" data-name="Grupo 154735">
                <g id="Grupo_154734" data-name="Grupo 154734" clip-path="url(#clip-path-14)">
                  <path id="Trazado_209186" data-name="Trazado 209186" d="M88.534,82.471a11.362,11.362,0,0,0,2.565,3.41q-.026-1.367-.05-2.733l12.525,5.566L90.13,79.08c-.735,1.235-.862,2.157-1.6,3.391" transform="translate(-88.534 -79.079)"/>
                </g>
              </g>
            </g>
            <g id="Grupo_154739" data-name="Grupo 154739" transform="translate(124.14 91.032)" opacity="0.3">
              <g id="Grupo_154738" data-name="Grupo 154738">
                <g id="Grupo_154737" data-name="Grupo 154737" clip-path="url(#clip-path-15)">
                  <path id="Trazado_209187" data-name="Trazado 209187" d="M108.677,80.537c-.536-.841-2.016-2.616-2.016-2.616-.048,1.313-.162,3.109-.21,4.422l-.188,3.144c.194-1.1.339-3.212.533-4.306q1.164,1.1,2.329,2.207a3.28,3.28,0,0,0-.447-2.851" transform="translate(-106.262 -77.922)"/>
                </g>
              </g>
            </g>
            <g id="Grupo_154742" data-name="Grupo 154742" transform="translate(141.839 96.867)" opacity="0.3">
              <g id="Grupo_154741" data-name="Grupo 154741">
                <g id="Grupo_154740" data-name="Grupo 154740" clip-path="url(#clip-path-16)">
                  <path id="Trazado_209188" data-name="Trazado 209188" d="M121.412,82.917l1.6,14.425c.7-4.693,1.973-7.243-1.6-14.425" transform="translate(-121.412 -82.917)"/>
                </g>
              </g>
            </g>
            <g id="Grupo_154745" data-name="Grupo 154745" transform="translate(168.782 108.013)" opacity="0.3">
              <g id="Grupo_154744" data-name="Grupo 154744">
                <g id="Grupo_154743" data-name="Grupo 154743" clip-path="url(#clip-path-17)">
                  <path id="Trazado_209189" data-name="Trazado 209189" d="M153.156,102.107a18.389,18.389,0,0,0-2.611-1.18c-3.106-1.687-4.752-4.777-5.964-8.1l-.106-.371c.124,4.452,2.946,9.212,7.009,11.038a2.381,2.381,0,0,0,1.333.282.942.942,0,0,0,.832-.936,1.213,1.213,0,0,0-.493-.735" transform="translate(-144.475 -92.457)"/>
                </g>
              </g>
            </g>
            <g id="Grupo_154748" data-name="Grupo 154748" transform="translate(113.055 119.251)" opacity="0.3">
              <g id="Grupo_154747" data-name="Grupo 154747">
                <g id="Grupo_154746" data-name="Grupo 154746" clip-path="url(#clip-path-18)">
                  <path id="Trazado_209190" data-name="Trazado 209190" d="M96.774,112.856c5.14-1.706,7.619-6.547,8.937-10.778a17.057,17.057,0,0,1-.654,5.438,8.65,8.65,0,0,1-3.064,4.457,5.831,5.831,0,0,1-5.219.883" transform="translate(-96.774 -102.077)"/>
                </g>
              </g>
            </g>
            <g id="Grupo_154751" data-name="Grupo 154751" transform="translate(63.085 137.771)" opacity="0.3">
              <g id="Grupo_154750" data-name="Grupo 154750">
                <g id="Grupo_154749" data-name="Grupo 154749" clip-path="url(#clip-path-19)">
                  <path id="Trazado_209191" data-name="Trazado 209191" d="M64.777,118.016a14.937,14.937,0,0,0-10.407,3.359c-.213.175-.44.43-.349.689a.476.476,0,0,0,.507.269,1.427,1.427,0,0,0,.568-.237,44.691,44.691,0,0,1,9.681-4.166" transform="translate(-54 -117.93)"/>
                </g>
              </g>
            </g>
            <g id="Grupo_154754" data-name="Grupo 154754" transform="translate(126.268 127.534)" opacity="0.3">
              <g id="Grupo_154753" data-name="Grupo 154753">
                <g id="Grupo_154752" data-name="Grupo 154752" clip-path="url(#clip-path-20)">
                  <path id="Trazado_209192" data-name="Trazado 209192" d="M117.358,109.454a1.047,1.047,0,0,0-1.414-.026,3.048,3.048,0,0,0-.818,1.317q-3.053,7.579-6.106,15.156l-.936,2.248q3.2-5.364,6.4-10.73a20.917,20.917,0,0,0,3.022-6.794,1.435,1.435,0,0,0-.15-1.169" transform="translate(-108.084 -109.168)"/>
                </g>
              </g>
            </g>
            <path id="Trazado_209193" data-name="Trazado 209193" d="M80.545,37.919c3.787-5.284,10.062-8.377,16.457-9.55,2.69-.493,4.455-.136,7.136.408A11.576,11.576,0,0,1,111,32.712a19.417,19.417,0,0,1,4.355,8.6,54.5,54.5,0,0,1,1.112,9.936,18.236,18.236,0,0,1-2.509,9.562L105.6,62.819c-4.658.457-9.38.912-14,.138s-9.189-2.939-11.88-6.769c-3.736-5.32-2.97-12.985.818-18.269" transform="translate(13.002 4.733)" fill="#263238"/>
            <path id="Trazado_209194" data-name="Trazado 209194" d="M106.749,61.456c-.015.022.151.2.533.412a4.139,4.139,0,0,0,1.779.475,4.534,4.534,0,0,0,2.652-.715,4.516,4.516,0,0,0,1.242-6.118,4.518,4.518,0,0,0-2.162-1.694,4.148,4.148,0,0,0-1.824-.255,1.291,1.291,0,0,0-.651.171,6.334,6.334,0,0,1,2.34.415,4.364,4.364,0,0,1,1.907,1.617,4.158,4.158,0,0,1-1.113,5.478,4.346,4.346,0,0,1-2.386.744,6.259,6.259,0,0,1-2.317-.53" transform="translate(17.96 9.008)" fill="#e0e0e0"/>
            <path id="Trazado_209195" data-name="Trazado 209195" d="M74.483,57.927a6.318,6.318,0,0,1,2.557-4.939,4.553,4.553,0,0,1,5.365.121l1.429,1.5a5.467,5.467,0,0,1,3.49,5.3,5.99,5.99,0,0,1-3.832,5.155,6.631,6.631,0,0,1-6.4-1.12,7.434,7.434,0,0,1-2.61-6.016" transform="translate(12.53 8.778)" fill="#263238"/>
            <path id="Trazado_209196" data-name="Trazado 209196" d="M76.352,63.242a2.865,2.865,0,0,1-.562-1.653,7.656,7.656,0,0,1,1.692-3.922,11.442,11.442,0,0,1,3.213-2.932c.957-.595,1.625-.832,1.6-.9a4.645,4.645,0,0,0-1.745.646,10.213,10.213,0,0,0-3.4,2.938,10.055,10.055,0,0,0-1.234,2.166A4.589,4.589,0,0,0,75.5,61.6a2.385,2.385,0,0,0,.465,1.317c.208.262.377.346.391.327" transform="translate(12.7 9.056)" fill="#455a64"/>
            <path id="Trazado_209197" data-name="Trazado 209197" d="M79.951,65.356a18.62,18.62,0,0,1,.02-5.605,18.624,18.624,0,0,1,2.083-5.206,4.6,4.6,0,0,0-1.036,1.326,11.788,11.788,0,0,0-1.53,7.867,4.552,4.552,0,0,0,.464,1.618" transform="translate(13.349 9.177)" fill="#455a64"/>
            <path id="Trazado_209198" data-name="Trazado 209198" d="M105.317,76.092c-.247-2.963-.471-5.386-.47-5.373s6.842-1.2,8.182-10.153c.667-4.453.379-11.742-.051-17.7-.386-5.361-5.419-12.374-12.045-11.974l-2.965-.154-10.98,5.2A3.144,3.144,0,0,0,84.2,39.154l2.405,38.3,20.417,21.5,1.172-6.066Z" transform="translate(14.166 5.172)" fill="#ffc09d"/>
            <path id="Trazado_209199" data-name="Trazado 209199" d="M97.426,55.478a1.882,1.882,0,0,1,.576-1.2,1.925,1.925,0,0,1,2.322-.283,2.583,2.583,0,0,1,1.132,2.354,2.346,2.346,0,0,1-1.612,1.078,2.831,2.831,0,0,1-.314.03,2.107,2.107,0,0,1-1.451-.471,1.874,1.874,0,0,1-.653-1.508" transform="translate(16.39 9.039)" fill="#ff9b6c"/>
            <path id="Trazado_209200" data-name="Trazado 209200" d="M107.142,46.473a1.147,1.147,0,0,1-1.1,1.167,1.1,1.1,0,0,1-1.19-1.023,1.147,1.147,0,0,1,1.093-1.167,1.1,1.1,0,0,1,1.193,1.023" transform="translate(17.641 7.646)" fill="#263238"/>
            <path id="Trazado_209201" data-name="Trazado 209201" d="M107.791,44.244c-.141.151-1.015-.484-2.249-.47-1.234,0-2.133.639-2.269.489-.067-.067.076-.338.468-.629a3.149,3.149,0,0,1,1.813-.577,3.024,3.024,0,0,1,1.792.561c.382.289.513.557.444.625" transform="translate(17.372 7.244)" fill="#263238"/>
            <path id="Trazado_209202" data-name="Trazado 209202" d="M101.129,53.95a8.183,8.183,0,0,1,2-.38c.314-.035.612-.1.664-.315a1.605,1.605,0,0,0-.218-.932q-.456-1.141-.953-2.391a41.236,41.236,0,0,1-2.15-6.257,41.155,41.155,0,0,1,2.647,6.069c.319.84.625,1.64.915,2.407a1.821,1.821,0,0,1,.174,1.235.79.79,0,0,1-.514.465,2.088,2.088,0,0,1-.534.079,8.048,8.048,0,0,1-2.032.021" transform="translate(16.902 7.348)" fill="#263238"/>
            <path id="Trazado_209203" data-name="Trazado 209203" d="M103.6,65.406a22.753,22.753,0,0,1-12-3.086s3.245,6.168,12.187,5.252Z" transform="translate(15.411 10.485)" fill="#ff9b6c"/>
            <path id="Trazado_209204" data-name="Trazado 209204" d="M97.959,53.228c.2-.014.215,1.326,1.37,2.266s2.579.78,2.591.967c.02.084-.315.263-.918.285a3.331,3.331,0,0,1-2.162-.732,2.9,2.9,0,0,1-1.063-1.9c-.056-.56.09-.893.182-.886" transform="translate(16.448 8.955)" fill="#263238"/>
            <path id="Trazado_209205" data-name="Trazado 209205" d="M107.246,39.9c-.215.282-1.068,0-2.09-.006-1.021-.04-1.886.206-2.088-.086-.089-.141.046-.423.422-.692a3.027,3.027,0,0,1,3.366.074c.363.285.485.572.39.71" transform="translate(17.336 6.5)" fill="#263238"/>
            <path id="Trazado_209206" data-name="Trazado 209206" d="M94.934,46.714a1.146,1.146,0,0,0,1.158,1.1,1.1,1.1,0,0,0,1.133-1.086,1.147,1.147,0,0,0-1.157-1.105,1.1,1.1,0,0,0-1.134,1.088" transform="translate(15.972 7.676)" fill="#263238"/>
            <path id="Trazado_209207" data-name="Trazado 209207" d="M93.3,45.049c.15.143.987-.54,2.22-.593,1.231-.072,2.165.521,2.292.363.062-.07-.095-.333-.5-.6a3.147,3.147,0,0,0-1.842-.475,3.023,3.023,0,0,0-1.758.659c-.366.308-.481.584-.409.648" transform="translate(15.694 7.359)" fill="#263238"/>
            <path id="Trazado_209208" data-name="Trazado 209208" d="M93.316,43.583c.23.27,1.065-.06,2.086-.12,1.018-.1,1.894.1,2.079-.2.081-.146-.069-.421-.459-.669a3.031,3.031,0,0,0-3.356.261c-.347.3-.452.6-.35.73" transform="translate(15.694 7.1)" fill="#263238"/>
            <path id="Trazado_209209" data-name="Trazado 209209" d="M87.851,51.138c-.008-.666-.791-2.229-1.45-2.326-1.758-.257-4.923-.089-4.912,4.372.015,6.1,6.133,4.825,6.144,4.65.007-.137.244-4.4.218-6.7" transform="translate(13.71 8.2)" fill="#ffc09d"/>
            <path id="Trazado_209210" data-name="Trazado 209210" d="M85.093,55.2c-.027-.02-.106.075-.285.158a1.065,1.065,0,0,1-.794.018,2.625,2.625,0,0,1-1.221-2.355,3.486,3.486,0,0,1,.293-1.521,1.226,1.226,0,0,1,.8-.817.54.54,0,0,1,.627.289c.083.171.044.293.076.3s.131-.1.082-.353a.68.68,0,0,0-.242-.382.8.8,0,0,0-.588-.154,1.492,1.492,0,0,0-1.106.949,3.609,3.609,0,0,0-.365,1.7,2.758,2.758,0,0,0,1.556,2.63,1.139,1.139,0,0,0,.971-.165c.188-.151.22-.287.2-.3" transform="translate(13.857 8.476)" fill="#ff9b6c"/>
            <path id="Trazado_209211" data-name="Trazado 209211" d="M85.454,51.875l1.645,1.5c6.256-6.8,18.257-23.6,17.591-22.607a19.445,19.445,0,0,0-9.585-.425c-4.9,1.161-14.139,4.241-13.622,10.075s3.971,11.455,3.971,11.455" transform="translate(13.705 5.034)" fill="#263238"/>
            <path id="Trazado_209212" data-name="Trazado 209212" d="M86.885,62.741c.018.019-.124.217-.477.475a4.147,4.147,0,0,1-1.7.7,4.527,4.527,0,0,1-2.721-.373,4.518,4.518,0,0,1-2.012-5.911,4.537,4.537,0,0,1,1.93-1.956,4.16,4.16,0,0,1,1.777-.484,1.283,1.283,0,0,1,.667.086,6.312,6.312,0,0,0-2.269.709,4.361,4.361,0,0,0-1.685,1.846,4.159,4.159,0,0,0,1.8,5.292,4.359,4.359,0,0,0,2.46.436,6.329,6.329,0,0,0,2.231-.821" transform="translate(13.383 9.286)" fill="#e0e0e0"/>
            <path id="Trazado_209213" data-name="Trazado 209213" d="M81.375,57.348a12.807,12.807,0,0,0-.03-1.415,21.3,21.3,0,0,1,.265-3.824,26,26,0,0,1,5.035-11.458,41.429,41.429,0,0,1,9.227-8.618C97.2,31.1,98.31,30.385,99.079,29.9a9.991,9.991,0,0,0,1.176-.789,1.2,1.2,0,0,0-.336.148c-.213.111-.528.273-.924.5-.8.447-1.93,1.125-3.289,2.034A39.018,39.018,0,0,0,86.314,40.4a25.265,25.265,0,0,0-4.994,11.667,18.529,18.529,0,0,0-.136,3.874c.02.457.089.807.117,1.047a1.229,1.229,0,0,0,.075.36" transform="translate(13.651 4.897)" fill="#455a64"/>
            <path id="Trazado_209214" data-name="Trazado 209214" d="M96.68,29.012a1.239,1.239,0,0,0-.347.139c-.223.1-.544.263-.956.479-.82.432-1.992,1.09-3.388,1.99a51.662,51.662,0,0,0-4.715,3.431A29.98,29.98,0,0,0,82.205,40.1a13.874,13.874,0,0,0-1.829,3.254,12.917,12.917,0,0,0-.783,3.388,20.215,20.215,0,0,0,.388,5.832c.331,1.631.709,2.921.98,3.806.136.444.25.785.332,1.015a1.235,1.235,0,0,0,.144.345,10.278,10.278,0,0,0-.32-1.4c-.222-.9-.556-2.194-.846-3.817a20.8,20.8,0,0,1-.3-5.738,12.713,12.713,0,0,1,.782-3.28,13.659,13.659,0,0,1,1.784-3.152,30.771,30.771,0,0,1,4.979-5,57.773,57.773,0,0,1,4.633-3.481c1.367-.926,2.512-1.619,3.3-2.093a11.11,11.11,0,0,0,1.223-.759" transform="translate(13.379 4.881)" fill="#455a64"/>
            <path id="Trazado_209215" data-name="Trazado 209215" d="M84.785,52.03a5.637,5.637,0,0,0,.745-.819l1.909-2.326c1.6-1.975,3.78-4.721,6.172-7.77s4.539-5.824,6.077-7.845c.724-.967,1.329-1.776,1.8-2.408a5.616,5.616,0,0,0,.618-.919,5.751,5.751,0,0,0-.743.818l-1.909,2.325c-1.6,1.975-3.782,4.722-6.174,7.773s-4.54,5.825-6.078,7.847l-1.8,2.407a5.505,5.505,0,0,0-.617.917" transform="translate(14.264 5.038)" fill="#e0e0e0"/>
            <path id="Trazado_209216" data-name="Trazado 209216" d="M98.616,52.932a7,7,0,0,0-1.132.033,7.024,7.024,0,0,0-1.044.439c-.063-.032.286-.546.99-.694a1.245,1.245,0,0,1,1.187.222" transform="translate(16.224 8.861)" fill="#ff9b6c"/>
            <path id="Trazado_209217" data-name="Trazado 209217" d="M93.195,46.358a2.016,2.016,0,0,1-1.147.138,2.042,2.042,0,0,1-1.123-.276,3.626,3.626,0,0,1,1.139.016,3.7,3.7,0,0,1,1.131.121" transform="translate(15.297 7.77)" fill="#ff9b6c"/>
            <path id="Trazado_209218" data-name="Trazado 209218" d="M92.859,46.7c.009.072-.343.178-.77.313s-.777.248-.811.182.282-.291.732-.431.84-.134.848-.064" transform="translate(15.356 7.849)" fill="#ff9b6c"/>
            <path id="Trazado_209219" data-name="Trazado 209219" d="M108.807,45.743c.025.068-.266.236-.65.377s-.715.2-.74.132.266-.236.65-.377.715-.2.74-.132" transform="translate(18.072 7.691)" fill="#ff9b6c"/>
            <path id="Trazado_209220" data-name="Trazado 209220" d="M108.723,46.836c-.023.068-.343.02-.714-.107s-.653-.286-.63-.354.343-.02.714.107.653.286.63.354" transform="translate(18.065 7.797)" fill="#ff9b6c"/>
            <path id="Trazado_209221" data-name="Trazado 209221" d="M228,185.548c0,.072-51.044.13-113.995.13C51.033,185.677,0,185.62,0,185.548s51.033-.13,114.005-.13c62.951,0,113.995.058,113.995.13" transform="translate(0 31.195)" fill="#263238"/>
          </g>
        </g>
      </g>
    </g>
  </g>
</svg>
